<svg enable-background="new 0 0 640 480" viewBox="0 0 640 480" xmlns="http://www.w3.org/2000/svg"><circle cx="324.4" cy="182" fill="#fff" r="82.4" stroke="#5067ff" stroke-miterlimit="10" stroke-width="5"/><path d="m296.5 136h6.3v9.9h-6.3z" fill="none"/><circle cx="324.4" cy="182" fill="#5067ff" r="71"/><g fill="#fff"><path d="m348.5 187.8c-6.3 0-11.5 5.1-11.5 11.5s5.1 11.5 11.5 11.5c6.3 0 11.5-5.1 11.5-11.5s-5.1-11.5-11.5-11.5zm0 17.2c-3.2 0-5.7-2.6-5.7-5.7s2.6-5.7 5.7-5.7c3.2 0 5.7 2.6 5.7 5.7.1 3.1-2.5 5.7-5.7 5.7z"/><path d="m309.4 187.8c-6.3 0-11.5 5.1-11.5 11.5s5.1 11.5 11.5 11.5 11.5-5.1 11.5-11.5-5.2-11.5-11.5-11.5zm0 17.2c-3.2 0-5.7-2.6-5.7-5.7s2.6-5.7 5.7-5.7c3.2 0 5.7 2.6 5.7 5.7s-2.6 5.7-5.7 5.7z"/><path d="m356.3 155c-.5-1-1.5-1.6-2.6-1.6h-15.1v5.7h13.3l7.8 15.5 5.1-2.6z"/><path d="m318.2 196.5h21.7v5.7h-21.7z"/><path d="m300.7 196.5h-9.9c-1.6 0-2.9 1.3-2.9 2.9s1.3 2.9 2.9 2.9h9.9c1.6 0 2.9-1.3 2.9-2.9s-1.3-2.9-2.9-2.9z"/><path d="m370.2 179-5.6-7.3c-.5-.7-1.4-1.1-2.3-1.1h-20.8v-20.1c0-1.6-1.3-2.9-2.9-2.9h-47.8c-1.6 0-2.9 1.3-2.9 2.9s1.3 2.9 2.9 2.9h44.9v20.1c0 1.6 1.3 2.9 2.9 2.9h22.3l4.2 5.4v14.8h-7.9c-1.6 0-2.9 1.3-2.9 2.9s1.3 2.9 2.9 2.9h10.8c1.6 0 2.9-1.3 2.9-2.9v-18.6c-.1-.8-.3-1.4-.7-1.9z"/><path d="m300.5 182h-13.2c-1.6 0-2.9 1.3-2.9 2.9s1.3 2.9 2.9 2.9h13.2c1.6 0 2.9-1.3 2.9-2.9s-1.3-2.9-2.9-2.9z"/><path d="m307.1 170.7h-24.5c-1.6 0-2.9 1.3-2.9 2.9s1.3 2.9 2.9 2.9h24.5c1.6 0 2.9-1.3 2.9-2.9s-1.3-2.9-2.9-2.9z"/><path d="m311.8 159.4h-24.5c-1.6 0-2.9 1.3-2.9 2.9s1.3 2.9 2.9 2.9h24.5c1.6 0 2.9-1.3 2.9-2.9s-1.3-2.9-2.9-2.9z"/></g></svg>