<svg enable-background="new 0 0 3116 1640" viewBox="0 0 3116 1640" xmlns="http://www.w3.org/2000/svg"><path d="m0 0h3116v1640h-3116z" fill="#fff"/><path d="m2783.29 1471.56s-133.96.22-338.28.65c-598.25 1.09-1800.07 3.05-2009.72 2.07-281.32-1.31-475.94-729.26 50.1-679.82 571.34 53.58 153.46-274.24 489.99-328.58 366.27-59.25 440.11 168.59 703.13 75.47 359.51-127.32 554.79-82.99 679.93 9.91 137.23 101.94 189.83 262.37 281.97 318.45 2.07 1.31 4.14 2.5 6.21 3.59 179.05 98.02 260.08 192.88 286.54 277.07 59.02 186.8-149.87 321.19-149.87 321.19z" fill="#ebf3fa"/><path d="m2640.43 869.75-1357.13 230.76-101.34-121.51 1176.45-427.72c137.25 101.94 189.9 262.32 282.02 318.47z" fill="#f8fbff"/><path d="m1931.87 583.01-1342.96 432.76c39.56-28.84-51.42-185.19 1.99-237.07z" fill="#f8fbff"/><path d="m2097.04 510.01c-17.88 0-32.37 14.49-32.37 32.37s14.49 32.37 32.37 32.37 32.37-14.49 32.37-32.37-14.49-32.37-32.37-32.37z" fill="#f8fbff"/><path d="m1678.06 615.66h153.23v745.13h-153.23z" fill="#c4d9ed"/><path d="m1712.48 615.66h153.23v745.13h-153.23z" fill="#d5e7f7"/><path d="m1712.51 615.46h153.19v43.06h-153.19z" fill="#c4d9ed" transform="matrix(-1 0 0 -1 3578.2178 1273.9736)"/><path d="m1712.51 708.84h153.19v43.06h-153.19z" fill="#c4d9ed" transform="matrix(-1 0 0 -1 3578.2178 1460.7461)"/><path d="m1712.51 802.23h153.19v43.06h-153.19z" fill="#c4d9ed" transform="matrix(-1 0 0 -1 3578.2178 1647.5186)"/><path d="m1712.51 895.62h153.19v43.06h-153.19z" fill="#c4d9ed" transform="matrix(-1 0 0 -1 3578.2178 1834.29)"/><path d="m1712.51 989h153.19v43.06h-153.19z" fill="#c4d9ed" transform="matrix(-1 0 0 -1 3578.2178 2021.0616)"/><path d="m1712.51 1082.39h153.19v43.06h-153.19z" fill="#c4d9ed" transform="matrix(-1 0 0 -1 3578.2178 2207.833)"/><path d="m1712.51 1175.77h153.19v43.06h-153.19z" fill="#c4d9ed" transform="matrix(-1 0 0 -1 3578.2178 2394.6064)"/><path d="m1712.51 1269.16h153.19v43.06h-153.19z" fill="#c4d9ed" transform="matrix(-1 0 0 -1 3578.2178 2581.3779)"/><path d="m1923.01 721.09h153.23v639.69h-153.23z" fill="#c4d9ed"/><path d="m1957.42 721.09h153.23v639.69h-153.23z" fill="#d5e7f7"/><path d="m1957.46 720.92h153.19v36.96h-153.19z" fill="#c4d9ed" transform="matrix(-1 0 0 -1 4068.1143 1478.8125)"/><path d="m1957.46 801.09h153.19v36.96h-153.19z" fill="#c4d9ed" transform="matrix(-1 0 0 -1 4068.1143 1639.1543)"/><path d="m1957.46 881.27h153.19v36.96h-153.19z" fill="#c4d9ed" transform="matrix(-1 0 0 -1 4068.1143 1799.4971)"/><path d="m1957.46 961.44h153.19v36.96h-153.19z" fill="#c4d9ed" transform="matrix(-1 0 0 -1 4068.1143 1959.8398)"/><path d="m1957.46 1041.61h153.19v36.96h-153.19z" fill="#c4d9ed" transform="matrix(-1 0 0 -1 4068.1143 2120.1836)"/><path d="m1957.46 1121.78h153.19v36.96h-153.19z" fill="#c4d9ed" transform="matrix(-1 0 0 -1 4068.1143 2280.5273)"/><path d="m1957.46 1201.95h153.19v36.96h-153.19z" fill="#c4d9ed" transform="matrix(-1 0 0 -1 4068.1143 2440.8711)"/><path d="m1957.46 1282.13h153.19v36.96h-153.19z" fill="#c4d9ed" transform="matrix(-1 0 0 -1 4068.1143 2601.2148)"/><path d="m1595.13 1337.93h64.17v93.57h-64.17z" fill="#dceaf9" transform="matrix(-1 0 0 -1 3254.4287 2769.4258)"/><path d="m1614.73 1210.29v259.77h-679.68l-4.63-.04-173.46-1.63c-.14-.25-.32-.56-.52-.9-.29-.5-.62-1.09-1.01-1.76-.13-.24-.27-.48-.42-.74-.51-.92-1.1-1.96-1.75-3.15-.79-1.44-1.68-3.09-2.66-4.92v-.01c-3.65-6.84-8.49-16.32-13.98-28.1-1.81-3.87-3.67-7.99-5.61-12.35-.77-1.74-1.54-3.5-2.32-5.31v-.01c-.76-1.75-1.52-3.53-2.28-5.35-.03-.06-.05-.12-.08-.18-.52-1.25-1.06-2.52-1.59-3.81-.56-1.32-1.11-2.65-1.66-4-2.84-6.98-5.74-14.38-8.63-22.19-.08-.2-.15-.41-.23-.62 0 0 0 0 0-.01-1.89-5.11-3.78-10.39-5.64-15.83-1.03-2.99-2.04-6.02-3.06-9.1-.06-.19-.13-.37-.19-.57-.45-1.37-.89-2.74-1.33-4.12-.37-1.17-.74-2.33-1.11-3.5-.76-2.42-1.52-4.86-2.27-7.32-.96-3.17-1.92-6.38-2.85-9.64-1.27-4.42-2.51-8.91-3.72-13.48-.36-1.37-.73-2.75-1.08-4.12-1.06-4.13-2.11-8.31-3.12-12.54-.33-1.36-.65-2.72-.96-4.09-.2-.84-.4-1.69-.59-2.53-1.53-6.7-2.98-13.52-4.33-20.47-1.49-7.65-2.87-15.45-4.1-23.38-1.14-7.32-2.17-14.76-3.06-22.3-.84-7.12-1.56-14.32-2.15-21.61-1.38-17.05-2.02-34.56-1.75-52.38.47-31.04 3.72-63.07 10.72-95.5.25-1.18.52-2.36.78-3.54 1.73-7.72 3.67-15.45 5.83-23.19 1.65-5.9 3.43-11.81 5.35-17.72 1.39-4.28 2.85-8.57 4.39-12.86 3.48-9.71 7.34-19.42 11.61-29.13h3.63v-8.06c23.19-50.03 57.37-99.6 106.02-146.48.91-.88 1.82-1.75 2.73-2.62h2.85v99.37h87.94v-161.94h97.04v105.11h22.12v-125.49h97.04v235.28h122.73v137.19h45.85v34.56h105.33v-59.52h60.47v-161.72h74.7v298.54h74.69z" fill="#d5e7f7"/><path d="m1033.91 741.84h97.09v23.97h-97.09z" fill="#c4d9ed" transform="matrix(-1 0 0 -1 2164.9072 1507.6425)"/><path d="m1033.91 786.87h97.09v23.97h-97.09z" fill="#c4d9ed" transform="matrix(-1 0 0 -1 2164.9072 1597.7109)"/><path d="m1033.91 827.39h97.09v23.97h-97.09z" fill="#c4d9ed" transform="matrix(-1 0 0 -1 2164.9072 1678.743)"/><path d="m914.77 827.39h97.09v23.97h-97.09z" fill="#c4d9ed" transform="matrix(-1 0 0 -1 1926.6309 1678.743)"/><path d="m914.77 786.87h97.09v23.97h-97.09z" fill="#c4d9ed" transform="matrix(-1 0 0 -1 1926.6309 1597.7109)"/><path d="m914.77 746.41h97.09v23.97h-97.09z" fill="#c4d9ed" transform="matrix(-1 0 0 -1 1926.6309 1516.8018)"/><path d="m914.74 866.67h216.26v23.97h-216.26z" fill="#c4d9ed" transform="matrix(-1 0 0 -1 2045.7412 1757.3115)"/><path d="m914.74 905.95h216.26v23.97h-216.26z" fill="#c4d9ed" transform="matrix(-1 0 0 -1 2045.7412 1835.8799)"/><path d="m1464.63 911.76h75.36v37h-75.36z" fill="#c4d9ed" transform="matrix(-1 0 0 -1 3004.625 1860.5254)"/><path d="m1464.63 966.79h75.36v37h-75.36z" fill="#c4d9ed" transform="matrix(-1 0 0 -1 3004.625 1970.585)"/><path d="m1464.63 1021.82h75.36v37h-75.36z" fill="#c4d9ed" transform="matrix(-1 0 0 -1 3004.625 2080.6436)"/><path d="m1464.63 1079.5h75.36v37h-75.36z" fill="#c4d9ed" transform="matrix(-1 0 0 -1 3004.625 2196.0117)"/><path d="m1464.63 1135.4h75.36v37h-75.36z" fill="#c4d9ed" transform="matrix(-1 0 0 -1 3004.625 2307.8047)"/><path d="m1464.63 1191.3h75.36v37h-75.36z" fill="#c4d9ed" transform="matrix(-1 0 0 -1 3004.625 2419.5967)"/><path d="m1464.63 1249.78h75.36v37h-75.36z" fill="#c4d9ed" transform="matrix(-1 0 0 -1 3004.625 2536.5557)"/><path d="m914.74 944.35h216.26v15.22h-216.26z" fill="#c4d9ed" transform="matrix(-1 0 0 -1 2045.7412 1903.9113)"/><path d="m1437.89 911.76h27.79v161.71h-27.79z" fill="#c4d9ed"/><path d="m1348.96 1073.47h55.89v59.52h-55.89z" fill="#c4d9ed"/><path d="m914.77 746.41v23.97l-.02 96.28-.01 23.97v17.61h-19.26v-159.92c.87-.64 1.73-1.28 2.59-1.91z" fill="#c4d9ed"/><path d="m1022.07 725.95h11.84v125.4h-11.84z" fill="#c4d9ed"/><g fill="#c4d9ed" opacity=".8"><path d="m1217.17 984.83h16.45v23.19h-16.45z" transform="matrix(-1 0 0 -1 2450.7832 1992.8506)"/><path d="m1186.4 984.83h16.45v23.19h-16.45z" transform="matrix(-1 0 0 -1 2389.2598 1992.8506)"/><path d="m1156.33 984.83h16.45v23.19h-16.45z" transform="matrix(-1 0 0 -1 2329.1123 1992.8506)"/><path d="m1127.82 984.83h16.45v23.19h-16.45z" transform="matrix(-1 0 0 -1 2272.084 1992.8506)"/><path d="m1098.75 984.83h16.45v23.19h-16.45z" transform="matrix(-1 0 0 -1 2213.96 1992.8506)"/><path d="m1069.36 984.83h16.45v23.19h-16.45z" transform="matrix(-1 0 0 -1 2155.1729 1992.8506)"/><path d="m1038.6 984.83h16.45v23.19h-16.45z" transform="matrix(-1 0 0 -1 2093.6475 1992.8506)"/><path d="m1008.53 984.83h16.45v23.19h-16.45z" transform="matrix(-1 0 0 -1 2033.501 1992.8506)"/><path d="m980.01 984.83h16.45v23.19h-16.45z" transform="matrix(-1 0 0 -1 1976.4736 1992.8506)"/><path d="m950.95 984.83h16.45v23.19h-16.45z" transform="matrix(-1 0 0 -1 1918.3496 1992.8506)"/><path d="m920.66 984.83h16.45v23.19h-16.45z" transform="matrix(-1 0 0 -1 1857.7813 1992.8506)"/><path d="m889.9 984.83h16.45v23.19h-16.45z" transform="matrix(-1 0 0 -1 1796.2568 1992.8506)"/><path d="m859.83 984.83h16.45v23.19h-16.45z" transform="matrix(-1 0 0 -1 1736.1104 1992.8506)"/><path d="m831.32 984.83h16.45v23.19h-16.45z" transform="matrix(-1 0 0 -1 1679.083 1992.8506)"/><path d="m802.25 984.83h16.45v23.19h-16.45z" transform="matrix(-1 0 0 -1 1620.959 1992.8506)"/><path d="m772.86 984.83h16.45v23.19h-16.45z" transform="matrix(-1 0 0 -1 1562.1699 1992.8506)"/><path d="m742.1 984.83h16.45v23.19h-16.45z" transform="matrix(-1 0 0 -1 1500.6465 1992.8506)"/><path d="m712.02 984.83h16.45v23.19h-16.45z" transform="matrix(-1 0 0 -1 1440.499 1992.8506)"/><path d="m699.96 995.16v12.86h-4.39c1.4-4.28 2.86-8.57 4.39-12.86z"/><path d="m1217.17 1025.75h16.45v23.19h-16.45z" transform="matrix(-1 0 0 -1 2450.7832 2074.6826)"/><path d="m1186.4 1025.75h16.45v23.19h-16.45z" transform="matrix(-1 0 0 -1 2389.2598 2074.6826)"/><path d="m1156.33 1025.75h16.45v23.19h-16.45z" transform="matrix(-1 0 0 -1 2329.1123 2074.6826)"/><path d="m1127.82 1025.75h16.45v23.19h-16.45z" transform="matrix(-1 0 0 -1 2272.084 2074.6826)"/><path d="m1098.75 1025.75h16.45v23.19h-16.45z" transform="matrix(-1 0 0 -1 2213.96 2074.6826)"/><path d="m1069.36 1025.75h16.45v23.19h-16.45z" transform="matrix(-1 0 0 -1 2155.1729 2074.6826)"/><path d="m1038.6 1025.75h16.45v23.19h-16.45z" transform="matrix(-1 0 0 -1 2093.6475 2074.6826)"/><path d="m1008.53 1025.75h16.45v23.19h-16.45z" transform="matrix(-1 0 0 -1 2033.501 2074.6826)"/><path d="m980.01 1025.75h16.45v23.19h-16.45z" transform="matrix(-1 0 0 -1 1976.4736 2074.6826)"/><path d="m950.95 1025.75h16.45v23.19h-16.45z" transform="matrix(-1 0 0 -1 1918.3496 2074.6826)"/><path d="m920.66 1025.75h16.45v23.19h-16.45z" transform="matrix(-1 0 0 -1 1857.7813 2074.6826)"/><path d="m889.9 1025.75h16.45v23.19h-16.45z" transform="matrix(-1 0 0 -1 1796.2568 2074.6826)"/><path d="m859.83 1025.75h16.45v23.19h-16.45z" transform="matrix(-1 0 0 -1 1736.1104 2074.6826)"/><path d="m831.32 1025.75h16.45v23.19h-16.45z" transform="matrix(-1 0 0 -1 1679.083 2074.6826)"/><path d="m802.25 1025.75h16.45v23.19h-16.45z" transform="matrix(-1 0 0 -1 1620.959 2074.6826)"/><path d="m772.86 1025.75h16.45v23.19h-16.45z" transform="matrix(-1 0 0 -1 1562.1699 2074.6826)"/><path d="m742.1 1025.75h16.45v23.19h-16.45z" transform="matrix(-1 0 0 -1 1500.6465 2074.6826)"/><path d="m712.02 1025.75h16.45v23.19h-16.45z" transform="matrix(-1 0 0 -1 1440.499 2074.6826)"/><path d="m699.96 1025.75v23.19h-15.57c1.73-7.72 3.67-15.45 5.83-23.19z"/><path d="m1217.17 1066.04h16.45v23.19h-16.45z" transform="matrix(-1 0 0 -1 2450.7832 2155.2617)"/><path d="m1186.4 1066.04h16.45v23.19h-16.45z" transform="matrix(-1 0 0 -1 2389.2598 2155.2617)"/><path d="m1156.33 1066.04h16.45v23.19h-16.45z" transform="matrix(-1 0 0 -1 2329.1123 2155.2617)"/><path d="m1127.82 1066.04h16.45v23.19h-16.45z" transform="matrix(-1 0 0 -1 2272.084 2155.2617)"/><path d="m1098.75 1066.04h16.45v23.19h-16.45z" transform="matrix(-1 0 0 -1 2213.96 2155.2617)"/><path d="m1069.36 1066.04h16.45v23.19h-16.45z" transform="matrix(-1 0 0 -1 2155.1729 2155.2617)"/><path d="m1038.6 1066.04h16.45v23.19h-16.45z" transform="matrix(-1 0 0 -1 2093.6475 2155.2617)"/><path d="m1008.53 1066.04h16.45v23.19h-16.45z" transform="matrix(-1 0 0 -1 2033.501 2155.2617)"/><path d="m980.01 1066.04h16.45v23.19h-16.45z" transform="matrix(-1 0 0 -1 1976.4736 2155.2617)"/><path d="m950.95 1066.04h16.45v23.19h-16.45z" transform="matrix(-1 0 0 -1 1918.3496 2155.2617)"/><path d="m920.66 1066.04h16.45v23.19h-16.45z" transform="matrix(-1 0 0 -1 1857.7813 2155.2617)"/><path d="m889.9 1066.04h16.45v23.19h-16.45z" transform="matrix(-1 0 0 -1 1796.2568 2155.2617)"/><path d="m859.83 1066.04h16.45v23.19h-16.45z" transform="matrix(-1 0 0 -1 1736.1104 2155.2617)"/><path d="m831.32 1066.04h16.45v23.19h-16.45z" transform="matrix(-1 0 0 -1 1679.083 2155.2617)"/><path d="m802.25 1066.04h16.45v23.19h-16.45z" transform="matrix(-1 0 0 -1 1620.959 2155.2617)"/><path d="m772.86 1066.04h16.45v23.19h-16.45z" transform="matrix(-1 0 0 -1 1562.1699 2155.2617)"/><path d="m742.1 1066.04h16.45v23.19h-16.45z" transform="matrix(-1 0 0 -1 1500.6465 2155.2617)"/><path d="m712.02 1066.04h16.45v23.19h-16.45z" transform="matrix(-1 0 0 -1 1440.499 2155.2617)"/><path d="m683.51 1066.04h16.45v23.19h-16.45z" transform="matrix(-1 0 0 -1 1383.4707 2155.2617)"/><path d="m1217.17 1108.84h16.45v23.19h-16.45z" transform="matrix(-1 0 0 -1 2450.7832 2240.874)"/><path d="m1186.4 1108.84h16.45v23.19h-16.45z" transform="matrix(-1 0 0 -1 2389.2598 2240.874)"/><path d="m1156.33 1108.84h16.45v23.19h-16.45z" transform="matrix(-1 0 0 -1 2329.1123 2240.874)"/><path d="m1127.82 1108.84h16.45v23.19h-16.45z" transform="matrix(-1 0 0 -1 2272.084 2240.874)"/><path d="m1098.75 1108.84h16.45v23.19h-16.45z" transform="matrix(-1 0 0 -1 2213.96 2240.874)"/><path d="m1069.36 1108.84h16.45v23.19h-16.45z" transform="matrix(-1 0 0 -1 2155.1729 2240.874)"/><path d="m1038.6 1108.84h16.45v23.19h-16.45z" transform="matrix(-1 0 0 -1 2093.6475 2240.874)"/><path d="m1008.53 1108.84h16.45v23.19h-16.45z" transform="matrix(-1 0 0 -1 2033.501 2240.874)"/><path d="m980.01 1108.84h16.45v23.19h-16.45z" transform="matrix(-1 0 0 -1 1976.4736 2240.874)"/><path d="m950.95 1108.84h16.45v23.19h-16.45z" transform="matrix(-1 0 0 -1 1918.3496 2240.874)"/><path d="m920.66 1108.84h16.45v23.19h-16.45z" transform="matrix(-1 0 0 -1 1857.7813 2240.874)"/><path d="m889.9 1108.84h16.45v23.19h-16.45z" transform="matrix(-1 0 0 -1 1796.2568 2240.874)"/><path d="m859.83 1108.84h16.45v23.19h-16.45z" transform="matrix(-1 0 0 -1 1736.1104 2240.874)"/><path d="m831.32 1108.84h16.45v23.19h-16.45z" transform="matrix(-1 0 0 -1 1679.083 2240.874)"/><path d="m802.25 1108.84h16.45v23.19h-16.45z" transform="matrix(-1 0 0 -1 1620.959 2240.874)"/><path d="m772.86 1108.84h16.45v23.19h-16.45z" transform="matrix(-1 0 0 -1 1562.1699 2240.874)"/><path d="m742.1 1108.84h16.45v23.19h-16.45z" transform="matrix(-1 0 0 -1 1500.6465 2240.874)"/><path d="m712.02 1108.84h16.45v23.19h-16.45z" transform="matrix(-1 0 0 -1 1440.499 2240.874)"/><path d="m683.51 1108.84h16.45v23.19h-16.45z" transform="matrix(-1 0 0 -1 1383.4707 2240.874)"/><path d="m1217.17 1149.76h16.45v23.19h-16.45z" transform="matrix(-1 0 0 -1 2450.7832 2322.7061)"/><path d="m1186.4 1149.76h16.45v23.19h-16.45z" transform="matrix(-1 0 0 -1 2389.2598 2322.7061)"/><path d="m1156.33 1149.76h16.45v23.19h-16.45z" transform="matrix(-1 0 0 -1 2329.1123 2322.7061)"/><path d="m1127.82 1149.76h16.45v23.19h-16.45z" transform="matrix(-1 0 0 -1 2272.084 2322.7061)"/><path d="m1098.75 1149.76h16.45v23.19h-16.45z" transform="matrix(-1 0 0 -1 2213.96 2322.7061)"/><path d="m1069.36 1149.76h16.45v23.19h-16.45z" transform="matrix(-1 0 0 -1 2155.1729 2322.7061)"/><path d="m1038.6 1149.76h16.45v23.19h-16.45z" transform="matrix(-1 0 0 -1 2093.6475 2322.7061)"/><path d="m1008.53 1149.76h16.45v23.19h-16.45z" transform="matrix(-1 0 0 -1 2033.501 2322.7061)"/><path d="m980.01 1149.76h16.45v23.19h-16.45z" transform="matrix(-1 0 0 -1 1976.4736 2322.7061)"/><path d="m950.95 1149.76h16.45v23.19h-16.45z" transform="matrix(-1 0 0 -1 1918.3496 2322.7061)"/><path d="m920.66 1149.76h16.45v23.19h-16.45z" transform="matrix(-1 0 0 -1 1857.7813 2322.7061)"/><path d="m889.9 1149.76h16.45v23.19h-16.45z" transform="matrix(-1 0 0 -1 1796.2568 2322.7061)"/><path d="m859.83 1149.76h16.45v23.19h-16.45z" transform="matrix(-1 0 0 -1 1736.1104 2322.7061)"/><path d="m831.32 1149.76h16.45v23.19h-16.45z" transform="matrix(-1 0 0 -1 1679.083 2322.7061)"/><path d="m802.25 1149.76h16.45v23.19h-16.45z" transform="matrix(-1 0 0 -1 1620.959 2322.7061)"/><path d="m772.86 1149.76h16.45v23.19h-16.45z" transform="matrix(-1 0 0 -1 1562.1699 2322.7061)"/><path d="m742.1 1149.76h16.45v23.19h-16.45z" transform="matrix(-1 0 0 -1 1500.6465 2322.7061)"/><path d="m712.02 1149.76h16.45v23.19h-16.45z" transform="matrix(-1 0 0 -1 1440.499 2322.7061)"/><path d="m683.51 1149.76h16.45v23.19h-16.45z" transform="matrix(-1 0 0 -1 1383.4707 2322.7061)"/><path d="m1217.17 1190.05h16.45v23.19h-16.45z" transform="matrix(-1 0 0 -1 2450.7832 2403.2822)"/><path d="m1186.4 1190.05h16.45v23.19h-16.45z" transform="matrix(-1 0 0 -1 2389.2598 2403.2822)"/><path d="m1156.33 1190.05h16.45v23.19h-16.45z" transform="matrix(-1 0 0 -1 2329.1123 2403.2822)"/><path d="m1127.82 1190.05h16.45v23.19h-16.45z" transform="matrix(-1 0 0 -1 2272.084 2403.2822)"/><path d="m1098.75 1190.05h16.45v23.19h-16.45z" transform="matrix(-1 0 0 -1 2213.96 2403.2822)"/><path d="m1069.36 1190.05h16.45v23.19h-16.45z" transform="matrix(-1 0 0 -1 2155.1729 2403.2822)"/><path d="m1038.6 1190.05h16.45v23.19h-16.45z" transform="matrix(-1 0 0 -1 2093.6475 2403.2822)"/><path d="m1008.53 1190.05h16.45v23.19h-16.45z" transform="matrix(-1 0 0 -1 2033.501 2403.2822)"/><path d="m980.01 1190.05h16.45v23.19h-16.45z" transform="matrix(-1 0 0 -1 1976.4736 2403.2822)"/><path d="m950.95 1190.05h16.45v23.19h-16.45z" transform="matrix(-1 0 0 -1 1918.3496 2403.2822)"/><path d="m920.66 1190.05h16.45v23.19h-16.45z" transform="matrix(-1 0 0 -1 1857.7813 2403.2822)"/><path d="m889.9 1190.05h16.45v23.19h-16.45z" transform="matrix(-1 0 0 -1 1796.2568 2403.2822)"/><path d="m859.83 1190.05h16.45v23.19h-16.45z" transform="matrix(-1 0 0 -1 1736.1104 2403.2822)"/><path d="m831.32 1190.05h16.45v23.19h-16.45z" transform="matrix(-1 0 0 -1 1679.083 2403.2822)"/><path d="m802.25 1190.05h16.45v23.19h-16.45z" transform="matrix(-1 0 0 -1 1620.959 2403.2822)"/><path d="m772.86 1190.05h16.45v23.19h-16.45z" transform="matrix(-1 0 0 -1 1562.1699 2403.2822)"/><path d="m742.1 1190.05h16.45v23.19h-16.45z" transform="matrix(-1 0 0 -1 1500.6465 2403.2822)"/><path d="m712.02 1190.05h16.45v23.19h-16.45z" transform="matrix(-1 0 0 -1 1440.499 2403.2822)"/><path d="m683.51 1190.05h16.45v23.19h-16.45z" transform="matrix(-1 0 0 -1 1383.4707 2403.2822)"/></g><path d="m967.68 1262.69h381.28v205.69h-381.28z" fill="#c4d9ed" transform="matrix(-1 0 0 -1 2316.6406 2731.0762)"/><path d="m1256.8 1365.54h381.28v102.85h-381.28z" fill="#c4d9ed" transform="matrix(-1 0 0 -1 2894.8701 2833.9229)"/><path d="m937.11 1294.74v173.65h-180.15c-.14-.25-.32-.56-.52-.9-.29-.5-.62-1.09-1.01-1.76-.13-.24-.27-.48-.42-.74-.51-.92-1.1-1.96-1.75-3.15-.79-1.44-1.68-3.09-2.66-4.92v-.01c-3.65-6.84-8.49-16.32-13.98-28.1-1.81-3.87-3.67-7.99-5.61-12.35-.77-1.74-1.54-3.5-2.32-5.31v-.01c-.76-1.75-1.52-3.53-2.28-5.35-.03-.06-.05-.12-.08-.18-.52-1.25-1.06-2.52-1.59-3.81-.56-1.32-1.11-2.65-1.66-4-2.84-6.98-5.74-14.38-8.63-22.19-.08-.2-.15-.41-.23-.62 0 0 0 0 0-.01-1.89-5.11-3.78-10.39-5.64-15.83-1.03-2.99-2.04-6.02-3.06-9.1-.06-.19-.13-.37-.19-.57-.45-1.37-.89-2.74-1.33-4.12-.37-1.17-.74-2.33-1.11-3.5-.76-2.42-1.52-4.86-2.27-7.32-.96-3.17-1.92-6.38-2.85-9.64-1.27-4.42-2.51-8.91-3.72-13.48-.36-1.37-.73-2.75-1.08-4.12-1.06-4.13-2.11-8.31-3.12-12.54h247.26z" fill="#c4d9ed"/><path d="m1252.45 1286.78h71.04v38.1h-71.04z" fill="#d5e7f7" transform="matrix(-1 0 0 -1 2575.9404 2611.6543)"/><path d="m1161.26 1286.78h71.04v38.1h-71.04z" fill="#d5e7f7" transform="matrix(-1 0 0 -1 2393.5654 2611.6543)"/><path d="m1071.81 1286.78h71.04v38.1h-71.04z" fill="#d5e7f7" transform="matrix(-1 0 0 -1 2214.6641 2611.6543)"/><path d="m984.08 1286.78h71.04v38.1h-71.04z" fill="#d5e7f7" transform="matrix(-1 0 0 -1 2039.2031 2611.6543)"/><path d="m935.05 1262.69h36.6v207.46h-36.6z" fill="#adc9e0" transform="matrix(-1 0 0 -1 1906.6906 2732.8467)"/><path d="m1523.01 895.66h1.98v16.1h-1.98z" fill="#dceaf9" transform="matrix(-1 0 0 -1 3048.0039 1807.4199)"/><path d="m1451.81 895.66h1.98v16.1h-1.98z" fill="#dceaf9" transform="matrix(-1 0 0 -1 2905.5947 1807.4199)"/><path d="m676.79 1221.96c.89 7.54 1.92 14.98 3.06 22.3 1.23 7.93 2.61 15.73 4.1 23.38 1.35 6.95 2.8 13.77 4.33 20.47.19.84.39 1.69.59 2.53.31 1.37.63 2.73.96 4.09 1.01 4.23 2.06 8.41 3.12 12.54.35 1.38.72 2.75 1.08 4.12 1.21 4.57 2.45 9.06 3.72 13.48.94 3.25 1.89 6.47 2.85 9.64.75 2.47 1.51 4.91 2.27 7.32.36 1.17.73 2.34 1.11 3.5.45 1.38.89 2.75 1.33 4.12.06.2.13.39.19.57 1.01 3.08 2.03 6.11 3.06 9.1 1.87 5.44 3.75 10.72 5.64 15.83v.01c.08.2.15.41.23.62 2.89 7.81 5.79 15.22 8.63 22.19.56 1.35 1.11 2.69 1.66 4 .53 1.29 1.06 2.56 1.59 3.81.03.06.05.12.08.18v-183.81h-49.6z" fill="#d5e7f7"/><path d="m726.4 1290.65v115.12c-.03-.06-.05-.12-.08-.18-.52-1.25-1.06-2.52-1.59-3.81-.56-1.32-1.11-2.65-1.66-4-2.84-6.98-5.74-14.38-8.63-22.19-.08-.2-.15-.41-.23-.62 0 0 0 0 0-.01-1.89-5.11-3.78-10.39-5.64-15.83-1.03-2.99-2.04-6.02-3.06-9.1-.06-.19-.13-.37-.19-.57-.45-1.37-.89-2.74-1.33-4.12-.37-1.17-.74-2.33-1.11-3.5-.76-2.42-1.52-4.86-2.27-7.32-.96-3.17-1.92-6.38-2.85-9.64-1.27-4.42-2.51-8.91-3.72-13.48-.36-1.37-.73-2.75-1.08-4.12-1.06-4.13-2.11-8.31-3.12-12.54-.33-1.36-.65-2.72-.96-4.09z" fill="#d5e7f7"/><path d="m726.4 1267.65v57.23h-28.64c-1.27-4.42-2.51-8.91-3.72-13.48-.36-1.37-.73-2.75-1.08-4.12-1.06-4.13-2.11-8.31-3.12-12.54-.33-1.36-.65-2.72-.96-4.09-.2-.84-.4-1.69-.59-2.53-1.53-6.7-2.98-13.52-4.33-20.47z" fill="#c4d9ed"/><path d="m708.57 1341.84v17.3c-1.03-2.99-2.04-6.02-3.06-9.1-.06-.19-.13-.37-.19-.57-.45-1.37-.89-2.74-1.33-4.12-.37-1.17-.74-2.33-1.11-3.5h5.69z" fill="#c4d9ed"/><path d="m695.13 1283.73h11.3v19.55h-11.3z" fill="#adc9e0" transform="matrix(-1 0 0 -1 1401.5547 2587.0049)"/><path d="m1565.9 1290.66h261.79v176.06h-261.79z" fill="#d5e7f7" transform="matrix(-1 0 0 -1 3393.5898 2757.3701)"/><g fill="#c4d9ed"><path d="m1565.9 1267.65h261.79v57.22h-261.79z" transform="matrix(-1 0 0 -1 3393.5898 2592.5273)"/><path d="m1796.42 1341.83h13.45v18.95h-13.45z" transform="matrix(-1 0 0 -1 3606.2861 2702.6191)"/><path d="m1771.28 1341.83h13.45v18.95h-13.45z" transform="matrix(-1 0 0 -1 3556.002 2702.6191)"/><path d="m1746.7 1341.83h13.45v18.95h-13.45z" transform="matrix(-1 0 0 -1 3506.8418 2702.6191)"/><path d="m1723.39 1341.83h13.44v18.95h-13.44z" transform="matrix(-1 0 0 -1 3460.2314 2702.6191)"/><path d="m1699.64 1341.83h13.45v18.95h-13.45z" transform="matrix(-1 0 0 -1 3412.7266 2702.6191)"/><path d="m1675.62 1341.83h13.45v18.95h-13.45z" transform="matrix(-1 0 0 -1 3364.6777 2702.6191)"/><path d="m1650.47 1341.83h13.45v18.95h-13.45z" transform="matrix(-1 0 0 -1 3314.3926 2702.6191)"/><path d="m1625.89 1341.83h13.45v18.95h-13.45z" transform="matrix(-1 0 0 -1 3265.2324 2702.6191)"/><path d="m1602.59 1341.83h13.45v18.95h-13.45z" transform="matrix(-1 0 0 -1 3218.6211 2702.6191)"/><path d="m1578.84 1341.83h13.44v18.95h-13.44z" transform="matrix(-1 0 0 -1 3171.1162 2702.6191)"/><path d="m1796.42 1375.28h13.45v18.95h-13.45z" transform="matrix(-1 0 0 -1 3606.2861 2769.5029)"/><path d="m1771.28 1375.28h13.45v18.95h-13.45z" transform="matrix(-1 0 0 -1 3556.002 2769.5029)"/><path d="m1746.7 1375.28h13.45v18.95h-13.45z" transform="matrix(-1 0 0 -1 3506.8418 2769.5029)"/><path d="m1723.39 1375.28h13.44v18.95h-13.44z" transform="matrix(-1 0 0 -1 3460.2314 2769.5029)"/><path d="m1699.64 1375.28h13.45v18.95h-13.45z" transform="matrix(-1 0 0 -1 3412.7266 2769.5029)"/><path d="m1675.62 1375.28h13.45v18.95h-13.45z" transform="matrix(-1 0 0 -1 3364.6777 2769.5029)"/><path d="m1650.47 1375.28h13.45v18.95h-13.45z" transform="matrix(-1 0 0 -1 3314.3926 2769.5029)"/><path d="m1625.89 1375.28h13.45v18.95h-13.45z" transform="matrix(-1 0 0 -1 3265.2324 2769.5029)"/><path d="m1602.59 1375.28h13.45v18.95h-13.45z" transform="matrix(-1 0 0 -1 3218.6211 2769.5029)"/><path d="m1578.84 1375.28h13.44v18.95h-13.44z" transform="matrix(-1 0 0 -1 3171.1162 2769.5029)"/><path d="m1796.42 1408.21h13.45v18.95h-13.45z" transform="matrix(-1 0 0 -1 3606.2861 2835.3613)"/><path d="m1771.28 1408.21h13.45v18.95h-13.45z" transform="matrix(-1 0 0 -1 3556.002 2835.3613)"/><path d="m1746.7 1408.21h13.45v18.95h-13.45z" transform="matrix(-1 0 0 -1 3506.8418 2835.3613)"/><path d="m1723.39 1408.21h13.44v18.95h-13.44z" transform="matrix(-1 0 0 -1 3460.2314 2835.3613)"/><path d="m1699.64 1408.21h13.45v18.95h-13.45z" transform="matrix(-1 0 0 -1 3412.7266 2835.3613)"/><path d="m1675.62 1408.21h13.45v18.95h-13.45z" transform="matrix(-1 0 0 -1 3364.6777 2835.3613)"/><path d="m1650.47 1408.21h13.45v18.95h-13.45z" transform="matrix(-1 0 0 -1 3314.3926 2835.3613)"/><path d="m1625.89 1408.21h13.45v18.95h-13.45z" transform="matrix(-1 0 0 -1 3265.2324 2835.3613)"/><path d="m1602.59 1408.21h13.45v18.95h-13.45z" transform="matrix(-1 0 0 -1 3218.6211 2835.3613)"/><path d="m1578.84 1408.21h13.44v18.95h-13.44z" transform="matrix(-1 0 0 -1 3171.1162 2835.3613)"/></g><path d="m1796.42 1283.73h11.3v19.55h-11.3z" fill="#adc9e0" transform="matrix(-1 0 0 -1 3604.1387 2587.0049)"/><path d="m1684.25 1283.73h11.3v19.55h-11.3z" fill="#adc9e0" transform="matrix(-1 0 0 -1 3379.8057 2587.0049)"/><path d="m1595.03 1283.73h11.3v19.55h-11.3z" fill="#adc9e0" transform="matrix(-1 0 0 -1 3201.3496 2587.0049)"/><path d="m1844.13 1290.66h261.79v176.06h-261.79z" fill="#d5e7f7" transform="matrix(-1 0 0 -1 3950.0557 2757.3701)"/><path d="m1844.13 1267.65h261.79v57.22h-261.79z" fill="#c4d9ed" transform="matrix(-1 0 0 -1 3950.0557 2592.5273)"/><path d="m2074.65 1341.83h13.45v18.95h-13.45z" fill="#c4d9ed" transform="matrix(-1 0 0 -1 4162.7539 2702.6191)"/><path d="m2049.51 1341.83h13.45v18.95h-13.45z" fill="#c4d9ed" transform="matrix(-1 0 0 -1 4112.4688 2702.6191)"/><path d="m2024.93 1341.83h13.44v18.95h-13.44z" fill="#c4d9ed" transform="matrix(-1 0 0 -1 4063.3096 2702.6191)"/><path d="m2001.63 1341.83h13.44v18.95h-13.44z" fill="#c4d9ed" transform="matrix(-1 0 0 -1 4016.6982 2702.6191)"/><path d="m1977.87 1341.83h13.45v18.95h-13.45z" fill="#c4d9ed" transform="matrix(-1 0 0 -1 3969.1914 2702.6191)"/><path d="m1953.85 1341.83h13.45v18.95h-13.45z" fill="#c4d9ed" transform="matrix(-1 0 0 -1 3921.1445 2702.6191)"/><path d="m1928.71 1341.83h13.44v18.95h-13.44z" fill="#c4d9ed" transform="matrix(-1 0 0 -1 3870.8584 2702.6191)"/><path d="m1904.13 1341.83h13.44v18.95h-13.44z" fill="#c4d9ed" transform="matrix(-1 0 0 -1 3821.6982 2702.6191)"/><path d="m1880.82 1341.83h13.45v18.95h-13.45z" fill="#c4d9ed" transform="matrix(-1 0 0 -1 3775.0879 2702.6191)"/><path d="m1857.07 1341.83h13.45v18.95h-13.45z" fill="#c4d9ed" transform="matrix(-1 0 0 -1 3727.584 2702.6191)"/><path d="m2074.65 1375.28h13.45v18.95h-13.45z" fill="#c4d9ed" transform="matrix(-1 0 0 -1 4162.7539 2769.5029)"/><path d="m2049.51 1375.28h13.45v18.95h-13.45z" fill="#c4d9ed" transform="matrix(-1 0 0 -1 4112.4688 2769.5029)"/><path d="m2024.93 1375.28h13.44v18.95h-13.44z" fill="#c4d9ed" transform="matrix(-1 0 0 -1 4063.3096 2769.5029)"/><path d="m2001.63 1375.28h13.44v18.95h-13.44z" fill="#c4d9ed" transform="matrix(-1 0 0 -1 4016.6982 2769.5029)"/><path d="m1977.87 1375.28h13.45v18.95h-13.45z" fill="#c4d9ed" transform="matrix(-1 0 0 -1 3969.1914 2769.5029)"/><path d="m1953.85 1375.28h13.45v18.95h-13.45z" fill="#c4d9ed" transform="matrix(-1 0 0 -1 3921.1445 2769.5029)"/><path d="m1928.71 1375.28h13.44v18.95h-13.44z" fill="#c4d9ed" transform="matrix(-1 0 0 -1 3870.8584 2769.5029)"/><path d="m1904.13 1375.28h13.44v18.95h-13.44z" fill="#c4d9ed" transform="matrix(-1 0 0 -1 3821.6982 2769.5029)"/><path d="m1880.82 1375.28h13.45v18.95h-13.45z" fill="#c4d9ed" transform="matrix(-1 0 0 -1 3775.0879 2769.5029)"/><path d="m1857.07 1375.28h13.45v18.95h-13.45z" fill="#c4d9ed" transform="matrix(-1 0 0 -1 3727.584 2769.5029)"/><path d="m2074.65 1408.21h13.45v18.95h-13.45z" fill="#c4d9ed" transform="matrix(-1 0 0 -1 4162.7539 2835.3613)"/><path d="m2049.51 1408.21h13.45v18.95h-13.45z" fill="#c4d9ed" transform="matrix(-1 0 0 -1 4112.4688 2835.3613)"/><path d="m2024.93 1408.21h13.44v18.95h-13.44z" fill="#c4d9ed" transform="matrix(-1 0 0 -1 4063.3096 2835.3613)"/><path d="m2001.63 1408.21h13.44v18.95h-13.44z" fill="#c4d9ed" transform="matrix(-1 0 0 -1 4016.6982 2835.3613)"/><path d="m1977.87 1408.21h13.45v18.95h-13.45z" fill="#c4d9ed" transform="matrix(-1 0 0 -1 3969.1914 2835.3613)"/><path d="m1953.85 1408.21h13.45v18.95h-13.45z" fill="#c4d9ed" transform="matrix(-1 0 0 -1 3921.1445 2835.3613)"/><path d="m1928.71 1408.21h13.44v18.95h-13.44z" fill="#c4d9ed" transform="matrix(-1 0 0 -1 3870.8584 2835.3613)"/><path d="m1904.13 1408.21h13.44v18.95h-13.44z" fill="#c4d9ed" transform="matrix(-1 0 0 -1 3821.6982 2835.3613)"/><path d="m1880.82 1408.21h13.45v18.95h-13.45z" fill="#c4d9ed" transform="matrix(-1 0 0 -1 3775.0879 2835.3613)"/><path d="m1857.07 1408.21h13.45v18.95h-13.45z" fill="#c4d9ed" transform="matrix(-1 0 0 -1 3727.584 2835.3613)"/><path d="m2074.65 1283.73h11.3v19.55h-11.3z" fill="#adc9e0" transform="matrix(-1 0 0 -1 4160.6064 2587.0049)"/><path d="m1962.49 1283.73h11.3v19.55h-11.3z" fill="#adc9e0" transform="matrix(-1 0 0 -1 3936.2715 2587.0049)"/><path d="m1873.26 1283.73h11.3v19.55h-11.3z" fill="#adc9e0" transform="matrix(-1 0 0 -1 3757.8164 2587.0049)"/><path d="m2392.09 1290.66h261.79v176.06h-261.79z" fill="#d5e7f7" transform="matrix(-1 0 0 -1 5045.9648 2757.3701)"/><path d="m2392.09 1267.65h261.79v57.22h-261.79z" fill="#c4d9ed" transform="matrix(-1 0 0 -1 5045.9648 2592.5273)"/><path d="m2622.61 1341.83h13.44v18.95h-13.44z" fill="#c4d9ed" transform="matrix(-1 0 0 -1 5258.6611 2702.6191)"/><path d="m2597.46 1341.83h13.45v18.95h-13.45z" fill="#c4d9ed" transform="matrix(-1 0 0 -1 5208.375 2702.6191)"/><path d="m2572.89 1341.83h13.44v18.95h-13.44z" fill="#c4d9ed" transform="matrix(-1 0 0 -1 5159.2178 2702.6191)"/><path d="m2549.58 1341.83h13.45v18.95h-13.45z" fill="#c4d9ed" transform="matrix(-1 0 0 -1 5112.6055 2702.6191)"/><path d="m2525.83 1341.83h13.45v18.95h-13.45z" fill="#c4d9ed" transform="matrix(-1 0 0 -1 5065.1016 2702.6191)"/><path d="m2501.8 1341.83h13.45v18.95h-13.45z" fill="#c4d9ed" transform="matrix(-1 0 0 -1 5017.0508 2702.6191)"/><path d="m2476.66 1341.83h13.45v18.95h-13.45z" fill="#c4d9ed" transform="matrix(-1 0 0 -1 4966.7676 2702.6191)"/><path d="m2452.08 1341.83h13.45v18.95h-13.45z" fill="#c4d9ed" transform="matrix(-1 0 0 -1 4917.6074 2702.6191)"/><path d="m2428.78 1341.83h13.45v18.95h-13.45z" fill="#c4d9ed" transform="matrix(-1 0 0 -1 4870.9961 2702.6191)"/><path d="m2405.02 1341.83h13.45v18.95h-13.45z" fill="#c4d9ed" transform="matrix(-1 0 0 -1 4823.4922 2702.6191)"/><path d="m2622.61 1375.28h13.44v18.95h-13.44z" fill="#c4d9ed" transform="matrix(-1 0 0 -1 5258.6611 2769.5029)"/><path d="m2597.46 1375.28h13.45v18.95h-13.45z" fill="#c4d9ed" transform="matrix(-1 0 0 -1 5208.375 2769.5029)"/><path d="m2572.89 1375.28h13.44v18.95h-13.44z" fill="#c4d9ed" transform="matrix(-1 0 0 -1 5159.2178 2769.5029)"/><path d="m2549.58 1375.28h13.45v18.95h-13.45z" fill="#c4d9ed" transform="matrix(-1 0 0 -1 5112.6055 2769.5029)"/><path d="m2525.83 1375.28h13.45v18.95h-13.45z" fill="#c4d9ed" transform="matrix(-1 0 0 -1 5065.1016 2769.5029)"/><path d="m2501.8 1375.28h13.45v18.95h-13.45z" fill="#c4d9ed" transform="matrix(-1 0 0 -1 5017.0508 2769.5029)"/><path d="m2476.66 1375.28h13.45v18.95h-13.45z" fill="#c4d9ed" transform="matrix(-1 0 0 -1 4966.7676 2769.5029)"/><path d="m2452.08 1375.28h13.45v18.95h-13.45z" fill="#c4d9ed" transform="matrix(-1 0 0 -1 4917.6074 2769.5029)"/><path d="m2428.78 1375.28h13.45v18.95h-13.45z" fill="#c4d9ed" transform="matrix(-1 0 0 -1 4870.9961 2769.5029)"/><path d="m2405.02 1375.28h13.45v18.95h-13.45z" fill="#c4d9ed" transform="matrix(-1 0 0 -1 4823.4922 2769.5029)"/><path d="m2622.61 1408.21h13.44v18.95h-13.44z" fill="#c4d9ed" transform="matrix(-1 0 0 -1 5258.6611 2835.3613)"/><path d="m2597.46 1408.21h13.45v18.95h-13.45z" fill="#c4d9ed" transform="matrix(-1 0 0 -1 5208.375 2835.3613)"/><path d="m2572.89 1408.21h13.44v18.95h-13.44z" fill="#c4d9ed" transform="matrix(-1 0 0 -1 5159.2178 2835.3613)"/><path d="m2549.58 1408.21h13.45v18.95h-13.45z" fill="#c4d9ed" transform="matrix(-1 0 0 -1 5112.6055 2835.3613)"/><path d="m2525.83 1408.21h13.45v18.95h-13.45z" fill="#c4d9ed" transform="matrix(-1 0 0 -1 5065.1016 2835.3613)"/><path d="m2501.8 1408.21h13.45v18.95h-13.45z" fill="#c4d9ed" transform="matrix(-1 0 0 -1 5017.0508 2835.3613)"/><path d="m2476.66 1408.21h13.45v18.95h-13.45z" fill="#c4d9ed" transform="matrix(-1 0 0 -1 4966.7676 2835.3613)"/><path d="m2452.08 1408.21h13.45v18.95h-13.45z" fill="#c4d9ed" transform="matrix(-1 0 0 -1 4917.6074 2835.3613)"/><path d="m2428.78 1408.21h13.45v18.95h-13.45z" fill="#c4d9ed" transform="matrix(-1 0 0 -1 4870.9961 2835.3613)"/><path d="m2405.02 1408.21h13.45v18.95h-13.45z" fill="#c4d9ed" transform="matrix(-1 0 0 -1 4823.4922 2835.3613)"/><path d="m2622.61 1283.73h11.3v19.55h-11.3z" fill="#adc9e0" transform="matrix(-1 0 0 -1 5256.5146 2587.0049)"/><path d="m2510.44 1283.73h11.3v19.55h-11.3z" fill="#adc9e0" transform="matrix(-1 0 0 -1 5032.1807 2587.0049)"/><path d="m2421.21 1283.73h11.3v19.55h-11.3z" fill="#adc9e0" transform="matrix(-1 0 0 -1 4853.7246 2587.0049)"/><path d="m2364.22 1428.38c0-1.04 0-2.09-.03-3.14 0-6.39-.03-12.91-.06-18.32-.06-8.7-3.05-16.65-6.4-22.83-4.36-7.98-9.29-13.03-9.29-13.03l-10.25-8.28-34.43-27.7-.2-.43c.79-.81 1.49-1.72 2.01-2.75.75-1.5 1.17-3.2 1.17-4.96v-19.85c0-6.1-4.99-11.12-11.12-11.12h-3.56c-2.07 0-4 .59-5.67 1.59l-23.63-51.05c-1.44-6.8-3.35-13.02-5.45-18.55-6.45-17.02-24.75-28.6-45.55-28.6h-.7-121.7-55.61v.01h-.01v.3h-234.64v252.67h29.19c2.58 13.06 10.48 22.64 19.95 22.64h13.15c9.47 0 17.37-9.58 19.95-22.64h60.87c2.58 13.06 10.48 22.64 19.95 22.64h13.15c9.46 0 17.37-9.58 19.95-22.64h38.5 7.68 20.08 70.41c-.45-2.6-.66-5.29-.66-8.07 0-.2.06-.38.06-.58l.6 8.65h6.27c2.58 13.06 10.48 22.64 19.95 22.64h13.15c9.47 0 17.37-9.58 19.95-22.64h21.44 76.69c2.58 13.06 10.48 22.64 19.95 22.64h13.15c9.52 0 17.46-9.68 19.99-22.86 12.19-1.1 21.78-11.24 21.75-23.74z" fill="#abc6dd"/><path d="m2014.78 1027.53v52.31c0 4.65-1.1 9.14-3.07 13.08-4.8 9.61-14.81 16.23-26.23 16.23h-9.38c-16.07 0-29.3-13.16-29.3-29.3v-52.31c0-5.52 1.58-10.63 4.25-15.05 0-.08 0-.08 0-.08 5.2-8.51 14.5-14.18 25.05-14.18h9.38c16.15-.01 29.3 13.23 29.3 29.3z" fill="#a8302d"/><path d="m2011.71 1092.91c-4.8 9.61-14.81 16.23-26.23 16.23h-9.38c-16.07 0-29.3-13.16-29.3-29.3v-52.31c0-5.52 1.58-10.63 4.25-15.05.55 3.23 13 75 60.66 80.43z" fill="#a8302d" opacity=".3"/><path d="m1550.2 1410.38h144.85v-146.2h-151.12z" fill="#661717"/><path d="m2006.97 1101.34-711.68 17.55v-375.29h467.34c44.55 0 85.35 24.94 105.67 64.59l30.58 59.69z" fill="#c94c43"/><path d="m1602.67 1386.6c0 39.69 20.47 83.46 20.47 83.46s30.43 0 34.66 0c30.45 0 55.13-37.37 55.13-83.46s-59.34-83.46-89.79-83.46-20.47 37.36-20.47 83.46z" fill="#631818"/><ellipse cx="1623.14" cy="1386.6" fill="#822121" rx="55.13" ry="83.46"/><ellipse cx="1623.84" cy="1386.6" fill="#661717" rx="41.53" ry="62.87"/><path d="m2001.15 1386.6c0 39.69 20.47 83.46 20.47 83.46s30.43 0 34.66 0c30.45 0 55.13-37.37 55.13-83.46s-59.34-83.46-89.79-83.46-20.47 37.36-20.47 83.46z" fill="#631818"/><path d="m1966.49 1386.6c0 46.09 24.68 83.46 55.13 83.46s55.13-37.37 55.13-83.46-24.68-83.46-55.13-83.46-55.13 37.36-55.13 83.46z" fill="#822121"/><path d="m1980.79 1386.6c0 34.72 18.59 62.87 41.52 62.87s41.53-28.15 41.53-62.87-18.59-62.87-41.53-62.87-41.52 28.15-41.52 62.87z" fill="#661717"/><path d="m1086.08 1386.6c0 39.69 20.47 83.46 20.47 83.46s30.43 0 34.66 0c30.45 0 55.13-37.37 55.13-83.46s-59.34-83.46-89.78-83.46c-30.46 0-20.48 37.36-20.48 83.46z" fill="#631818"/><path d="m1051.42 1386.6c0 46.09 24.68 83.46 55.13 83.46s55.13-37.37 55.13-83.46-24.68-83.46-55.13-83.46-55.13 37.36-55.13 83.46z" fill="#822121"/><path d="m1065.72 1386.6c0 34.72 18.59 62.87 41.52 62.87s41.53-28.15 41.53-62.87-18.59-62.87-41.53-62.87-41.52 28.15-41.52 62.87z" fill="#661717"/><path d="m2166.29 1347.21c.08 34.9-28.2 63.18-63.02 63.18h-408.22c1.18-6.85 1.81-13.94 1.81-21.27 0-53.96-32.38-97.76-72.24-97.76-39.94 0-72.32 43.8-72.32 97.76 0 7.33.55 14.42 1.73 21.27h-238.54s-9.61-106.5-8.43-159.92c.95-46.48.95-137.54-1.81-159.76 0-3.31 230.03-3.71 288.09-3.94 7.88-.08 12.6-.08 13.08-.08l.79.55.87.63c10.71 7.48 70.74 49.55 108 74.21 32.85 21.66 275.32 30.49 370.41 33.17 23.63.63 38.21.87 38.21.87s13 13.31 24.5 34.35c8.82 16.31 16.7 37.26 16.86 60.19.08 14.26.16 31.43.16 48.29.07 2.74.07 5.5.07 8.26z" fill="#4444c6"/><path d="m1949.58 1086.69h-319.83c-7.4 0-14.1-4.33-17.17-11.03l-79.17-176.14c-2.6-5.75 1.66-12.29 7.96-12.29h337.4c7.41 0 14.18 4.41 17.17 11.26l56.72 129.59 14.18 32.38c5.35 12.37-3.71 26.23-17.26 26.23z" fill="#a2c2dd"/><path d="m1800.62 1338.93c-.08 5.52-.31 10.71-.63 15.36-2.28 30.64-33.09 56.09-33.09 56.09h-71.84c1.18-6.85 1.81-13.94 1.81-21.27 0-18.36-3.78-35.53-10.24-50.18-12.68-28.52-35.69-47.58-62-47.58-26.39 0-49.39 19.07-62.08 47.58-6.46 14.65-10.24 31.83-10.24 50.18 0 7.33.55 14.42 1.73 21.27h-258.78v-666.76h207.74v132.34s62.31 146.37 90.36 210.81c6.93 16.07 11.82 27.02 13.08 29.38 6.22 11.89 151.01 85.16 174.96 106.74 13.31 11.98 19.92 74.21 19.22 116.04z" fill="#2f40a5"/><path d="m1505.32 918.92 68.13 167.8h-116.9s-23.98-4.01-27.05-53.02c-3.28-52.32-3.28-142.6-3.28-142.6l51.31-.25c19.56 2.96 22.62 13.7 27.79 28.07z" fill="#a2c2dd"/><path d="m2124.7 1196.11h-379.07l-138.41-108.87-.79-.55h382.38l108.87 87.6z" fill="#445cc6"/><path d="m2149.2 1230.46c-2.21 3.63-5.04 5.99-8.11 6.54l-53.17 9.85c-4.49.87-7.96-6.93-6.78-14.97l5.2-35.76.16-.87 1.02-7.33c.94-6.3 3.7-11.11 7.09-12.45l3.07-1.18 27.02 21.82s13 13.31 24.5 34.35z" fill="#c4d9ed"/><path d="m1794.71 1260.08-34.27-3.39c-11.97-1.18-21.66-10.16-23.79-21.98l-7.88-43.33c-.16-.71-.24-1.34-.16-2.05 24.42 14.02 44.98 26.55 52.78 33.56 5.68 5.13 10.16 19.31 13.32 37.19z" fill="#a8302d"/><path d="m1859.78 1266.54-64.99-6.46h-.08l-34.27-3.39c-11.97-1.18-21.66-10.16-23.79-21.98l-7.88-43.33c-.16-.71-.24-1.34-.16-2.05v-.08c-.39-9.14 7.96-16.54 17.33-14.65l101.23 20.56c6.46 1.34 11.58 6.14 13.31 12.45l11.9 43.96c2.21 8.04-4.33 15.84-12.6 14.97z" fill="#c4d9ed"/><path d="m1898.9 867.87h-394.91s-1.53-25.27-11.44-54.13c-8.82-25.49-24.07-53.91-50.75-70.14h322.7c52.6 0 99.22 28.1 117.73 70.14.87 1.74 1.63 3.48 2.29 5.23 5.56 14.59 10.57 30.93 14.38 48.9z" fill="#4450c6"/><path d="m1794.79 1260.08-34.35-3.39c-11.97-1.18-21.66-10.16-23.79-21.98l-7.88-43.33c-.16-.71-.24-1.42-.16-2.13 24.42 14.1 44.98 26.63 52.78 33.64 5.68 5.13 10.16 19.31 13.4 37.19z" fill="#a2c2dd"/><path d="m2166.29 1347.21c.08 34.9-29.54 63.18-66.09 63.18h-405.15c1.18-6.85 1.81-13.94 1.81-21.27 0-18.36-3.78-35.53-10.24-50.18h479.59c.08 2.75.08 5.51.08 8.27z" fill="#8e2323" opacity=".3"/><path d="m1552.31 1389.11c0 7.33.55 14.42 1.73 21.27h-258.78v-71.45h267.29c-6.46 14.66-10.24 31.83-10.24 50.18z" fill="#8e2323" opacity=".3"/><path d="m1899.41 1199.19h155.01c4.95 0 8.74 6.68 7.98 14.08l-5.5 53.87c-.81 7.92-5.32 13.77-10.62 13.77h-127.71c-8.19 0-15.41-8.1-17.79-19.95l-9.2-45.8c-1.6-7.95 2.33-15.97 7.83-15.97z" fill="#8e2323" opacity=".3"/><path d="m1952.65 1028.08c-182.84-9.37-306.52-107.21-343.86-140.85h269.97c7.41 0 14.18 4.41 17.17 11.26z" fill="#c4d9ed"/><path d="m676.82 743.6h691.58v666.83h-691.58z" fill="#26308c"/><path d="m1538.78 1000.56s5.92 67.82-27.57 86.39h62.55z" fill="#631818"/><path d="m1547.97 1045.94s-14.12-10.05-15.34-18.38v47.43h18.48z" fill="#631818"/><path d="m1532.62 1027.53v52.31c0 4.65-1.1 9.14-3.07 13.08-4.8 9.61-14.81 16.23-26.23 16.23h-9.38c-16.07 0-29.3-13.16-29.3-29.3v-52.31c0-5.52 1.57-10.63 4.25-15.05 0-.08 0-.08 0-.08 5.2-8.51 14.5-14.18 25.05-14.18h9.38c16.14-.01 29.3 13.23 29.3 29.3z" fill="#c94c43"/><path d="m1529.54 1092.91c-4.8 9.61-14.81 16.23-26.23 16.23h-9.38c-16.07 0-29.3-13.16-29.3-29.3v-52.31c0-5.52 1.57-10.63 4.25-15.05.56 3.23 13.01 75 60.66 80.43z" fill="#8e2323" opacity=".3"/><path d="m902.7 1410.43h-170.12c-3.59-15.36-14.41-124.7 80.92-124.7 86.64-.01 93.01 99.76 89.2 124.7z" fill="#661717"/><path d="m785.83 1386.6c0 39.69 20.47 83.46 20.47 83.46s30.43 0 34.66 0c30.45 0 55.13-37.37 55.13-83.46s-59.34-83.46-89.79-83.46c-30.44 0-20.47 37.36-20.47 83.46z" fill="#631818"/><path d="m751.17 1386.6c0 46.09 24.68 83.46 55.13 83.46s55.13-37.37 55.13-83.46-24.68-83.46-55.13-83.46c-30.44 0-55.13 37.36-55.13 83.46z" fill="#822121"/><path d="m765.47 1386.6c0 34.72 18.59 62.87 41.53 62.87 22.93 0 41.52-28.15 41.52-62.87s-18.59-62.87-41.52-62.87c-22.94 0-41.53 28.15-41.53 62.87z" fill="#661717"/><path d="m1898.9 867.87h-394.91s-1.53-25.27-11.44-54.13h389.68c.87 1.74 1.63 3.48 2.29 5.23 5.56 14.59 10.57 30.93 14.38 48.9z" fill="#8e2323" opacity=".3"/><path d="m1562.55 331.14c-71.34 0-129.18 57.84-129.18 129.18s129.18 229.96 129.18 229.96 129.18-158.61 129.18-229.96-57.83-129.18-129.18-129.18zm0 188.25c-33.35 0-60.38-27.04-60.38-60.38 0-33.35 27.03-60.38 60.38-60.38s60.38 27.03 60.38 60.38c0 33.34-27.03 60.38-60.38 60.38z" fill="#f99746"/><path d="m1305.27 1149.45c-.71 0-1.42-.31-1.91-.9l-3.09-3.75c-.87-1.06-.72-2.62.33-3.49 1.06-.87 2.62-.72 3.49.33l3.09 3.74c.87 1.06.73 2.62-.33 3.49-.46.39-1.02.58-1.58.58zm-7.3-8.86c-.72 0-1.43-.31-1.92-.91-1.38-1.69-2.78-3.39-4.2-5.13-.87-1.06-.71-2.62.35-3.49s2.62-.71 3.49.35c1.41 1.73 2.81 3.43 4.19 5.12.87 1.06.71 2.62-.34 3.49-.46.39-1.01.57-1.57.57zm-8.36-10.25c-.72 0-1.44-.31-1.93-.92-1.38-1.7-2.76-3.42-4.16-5.16-.86-1.07-.68-2.63.38-3.49 1.07-.86 2.63-.68 3.49.38 1.39 1.74 2.77 3.45 4.14 5.15.86 1.06.7 2.63-.37 3.49-.45.37-1 .55-1.55.55zm-8.28-10.33c-.73 0-1.46-.32-1.95-.94-1.36-1.72-2.73-3.45-4.1-5.21-.85-1.08-.66-2.64.42-3.48s2.64-.66 3.48.42c1.37 1.75 2.73 3.48 4.09 5.19.85 1.07.67 2.63-.4 3.48-.46.36-1 .54-1.54.54zm-8.16-10.42c-.74 0-1.48-.33-1.96-.96-1.34-1.74-2.69-3.49-4.04-5.26-.83-1.09-.62-2.65.47-3.48s2.65-.62 3.48.47c1.34 1.76 2.69 3.51 4.02 5.23.84 1.08.64 2.64-.44 3.48-.47.35-1 .52-1.53.52zm-8.03-10.53c-.75 0-1.5-.34-1.98-.99-1.32-1.76-2.64-3.53-3.97-5.32-.81-1.1-.58-2.65.52-3.47s2.65-.58 3.47.52c1.32 1.78 2.63 3.54 3.95 5.29.82 1.09.6 2.65-.49 3.47-.46.34-.98.5-1.5.5zm-7.87-10.63c-.77 0-1.52-.35-2.01-1.02-1.3-1.78-2.59-3.58-3.88-5.38-.8-1.11-.54-2.66.57-3.46s2.66-.54 3.46.58c1.29 1.8 2.57 3.58 3.86 5.35.81 1.11.56 2.66-.55 3.46-.43.31-.94.47-1.45.47zm-7.7-10.77c-.78 0-1.55-.37-2.03-1.06-1.27-1.8-2.53-3.62-3.79-5.45-.78-1.13-.49-2.67.64-3.45s2.67-.49 3.45.64c1.25 1.82 2.51 3.62 3.76 5.42.79 1.12.52 2.67-.61 3.46-.43.29-.92.44-1.42.44zm-7.5-10.9c-.8 0-1.58-.38-2.06-1.09-1.23-1.83-2.46-3.67-3.68-5.53-.75-1.14-.44-2.68.71-3.44 1.14-.75 2.68-.44 3.44.71 1.21 1.84 2.43 3.67 3.66 5.49.77 1.14.46 2.68-.67 3.44-.44.28-.92.42-1.4.42zm-7.28-11.05c-.81 0-1.61-.4-2.09-1.14-1.2-1.86-2.39-3.72-3.57-5.6-.73-1.16-.38-2.69.78-3.42s2.69-.38 3.42.78c1.17 1.86 2.35 3.72 3.54 5.56.74 1.15.41 2.69-.74 3.43-.42.26-.88.39-1.34.39zm-7.05-11.2c-.83 0-1.65-.42-2.12-1.18-1.16-1.88-2.3-3.78-3.44-5.69-.7-1.18-.32-2.7.86-3.4s2.7-.32 3.4.86c1.13 1.89 2.27 3.77 3.41 5.63.72 1.17.35 2.7-.82 3.41-.4.25-.85.37-1.29.37zm-6.78-11.36c-.86 0-1.69-.44-2.15-1.24-1.11-1.91-2.21-3.84-3.3-5.77-.67-1.19-.25-2.71.94-3.38s2.71-.25 3.38.94c1.08 1.91 2.17 3.82 3.27 5.71.69 1.18.28 2.7-.9 3.39-.39.24-.82.35-1.24.35zm-6.5-11.53c-.88 0-1.73-.47-2.18-1.29-1.06-1.95-2.12-3.91-3.16-5.88-.64-1.21-.18-2.71 1.03-3.35s2.71-.18 3.35 1.03c1.03 1.95 2.07 3.89 3.13 5.82.66 1.2.21 2.71-.99 3.37-.37.2-.78.3-1.18.3zm-6.2-11.73c-.9 0-1.77-.49-2.21-1.35-1.01-1.98-2-3.97-2.99-5.96-.6-1.23-.1-2.72 1.13-3.32s2.72-.1 3.32 1.13c.97 1.97 1.95 3.94 2.95 5.9.62 1.22.14 2.71-1.08 3.34-.35.17-.74.26-1.12.26zm-5.84-11.9c-.93 0-1.82-.52-2.24-1.42-.95-2.01-1.88-4.02-2.8-6.05-.56-1.25-.01-2.72 1.24-3.28s2.72-.01 3.28 1.24c.91 2 1.83 3.99 2.76 5.98.58 1.24.05 2.72-1.18 3.3-.35.16-.71.23-1.06.23zm-5.46-12.06c-.96 0-1.87-.56-2.28-1.5-.88-2.04-1.75-4.08-2.59-6.14-.52-1.27.08-2.72 1.35-3.24s2.72.08 3.24 1.35c.84 2.03 1.69 4.05 2.56 6.06.54 1.26-.03 2.72-1.29 3.26-.33.14-.66.21-.99.21zm-5.05-12.25c-.99 0-1.93-.6-2.31-1.58-.81-2.07-1.6-4.14-2.37-6.23-.48-1.29.18-2.71 1.47-3.19s2.71.18 3.19 1.46c.76 2.05 1.54 4.1 2.34 6.14.5 1.28-.13 2.71-1.41 3.21-.3.14-.61.19-.91.19zm-4.59-12.4c-1.03 0-1.99-.64-2.34-1.67-.73-2.1-1.44-4.2-2.13-6.32-.42-1.3.29-2.7 1.59-3.13 1.3-.42 2.7.29 3.13 1.59.68 2.08 1.38 4.16 2.1 6.22.45 1.29-.23 2.71-1.53 3.16-.28.1-.55.15-.82.15zm-4.1-12.58c-1.06 0-2.05-.69-2.37-1.76-.64-2.12-1.27-4.28-1.87-6.4-.37-1.32.4-2.69 1.72-3.06s2.69.4 3.06 1.72c.59 2.09 1.2 4.21 1.84 6.3.4 1.31-.34 2.7-1.65 3.09-.25.07-.49.11-.73.11zm-3.57-12.74c-1.11 0-2.11-.74-2.4-1.86-.55-2.16-1.09-4.34-1.58-6.48-.31-1.33.52-2.67 1.85-2.98 1.34-.31 2.67.52 2.98 1.85.49 2.1 1.01 4.25 1.56 6.37.34 1.33-.46 2.68-1.79 3.02-.21.06-.42.08-.62.08zm-2.99-12.88c-1.15 0-2.18-.81-2.43-1.98-.45-2.18-.88-4.39-1.28-6.55-.25-1.35.65-2.64 1.99-2.89 1.35-.25 2.64.65 2.89 2 .39 2.13.81 4.29 1.25 6.43.28 1.34-.58 2.65-1.92 2.93-.17.04-.34.06-.5.06zm-2.38-13.02c-1.2 0-2.26-.87-2.45-2.1-.34-2.2-.66-4.42-.95-6.61-.18-1.36.78-2.6 2.14-2.78 1.36-.17 2.6.78 2.78 2.14.28 2.15.59 4.33.93 6.49.21 1.35-.71 2.62-2.07 2.83-.12.02-.25.03-.38.03zm-1.71-13.13c-1.25 0-2.33-.95-2.46-2.22-.23-2.22-.43-4.46-.6-6.66-.1-1.37.92-2.56 2.28-2.66 1.36-.12 2.56.92 2.66 2.28.17 2.16.36 4.35.59 6.53.14 1.36-.85 2.58-2.21 2.72-.09.01-.17.01-.26.01zm-1.01-13.2c-1.31 0-2.41-1.03-2.48-2.36-.11-2.23-.19-4.48-.23-6.69-.03-1.37 1.06-2.5 2.43-2.53 1.37-.06 2.5 1.06 2.53 2.43.04 2.17.12 4.37.23 6.55.07 1.37-.99 2.53-2.36 2.6-.04-.01-.08 0-.12 0zm-.27-13.26c-.01 0-.01 0-.02 0-1.37-.01-2.47-1.13-2.46-2.5.02-2.23.07-4.48.15-6.69.05-1.37 1.19-2.42 2.57-2.39 1.37.05 2.44 1.2 2.39 2.57-.08 2.16-.13 4.36-.15 6.54-.01 1.38-1.12 2.47-2.48 2.47zm.5-13.23c-.06 0-.11 0-.17-.01-1.37-.09-2.4-1.27-2.31-2.64.15-2.22.33-4.47.55-6.68.13-1.36 1.35-2.36 2.71-2.23s2.36 1.34 2.23 2.71c-.21 2.16-.39 4.36-.53 6.53-.1 1.32-1.19 2.32-2.48 2.32zm1.27-13.18c-.1 0-.21-.01-.32-.02-1.36-.17-2.32-1.42-2.15-2.77.28-2.2.6-4.43.94-6.62.21-1.35 1.48-2.27 2.84-2.06 1.35.21 2.28 1.48 2.06 2.84-.34 2.14-.65 4.32-.92 6.47-.15 1.25-1.22 2.16-2.45 2.16zm2.07-13.06c-.15 0-.31-.01-.46-.04-1.35-.25-2.23-1.55-1.98-2.9.41-2.18.86-4.38 1.34-6.55.3-1.34 1.62-2.19 2.96-1.89 1.34.29 2.18 1.62 1.89 2.96-.47 2.12-.91 4.27-1.31 6.41-.23 1.18-1.28 2.01-2.44 2.01zm2.85-12.91c-.2 0-.41-.02-.61-.08-1.33-.34-2.13-1.68-1.8-3.01.54-2.14 1.13-4.32 1.74-6.46.38-1.32 1.75-2.08 3.06-1.71 1.32.38 2.08 1.75 1.71 3.06-.6 2.09-1.17 4.22-1.7 6.31-.28 1.14-1.29 1.89-2.4 1.89zm3.62-12.71c-.25 0-.5-.04-.75-.12-1.31-.41-2.03-1.81-1.61-3.11.67-2.1 1.38-4.24 2.12-6.34.45-1.29 1.87-1.97 3.16-1.52s1.97 1.87 1.52 3.16c-.72 2.06-1.42 4.14-2.07 6.2-.34 1.05-1.32 1.73-2.37 1.73zm4.37-12.49c-.29 0-.59-.05-.89-.16-1.28-.49-1.92-1.92-1.43-3.2.79-2.06 1.62-4.15 2.48-6.21.53-1.26 1.98-1.86 3.24-1.34 1.26.53 1.86 1.98 1.34 3.24-.84 2.01-1.65 4.06-2.43 6.07-.38 1-1.32 1.6-2.31 1.6zm5.08-12.2c-.34 0-.69-.07-1.02-.22-1.25-.56-1.81-2.03-1.25-3.28.91-2.02 1.86-4.05 2.82-6.05.6-1.23 2.08-1.75 3.31-1.15s1.75 2.08 1.15 3.31c-.95 1.96-1.88 3.96-2.77 5.93-.39.91-1.3 1.46-2.24 1.46zm5.75-11.91c-.38 0-.77-.09-1.14-.28-1.22-.63-1.69-2.13-1.06-3.34 1.01-1.96 2.07-3.94 3.15-5.89.66-1.2 2.17-1.64 3.37-.98s1.64 2.17.98 3.37c-1.05 1.91-2.09 3.86-3.08 5.77-.46.86-1.32 1.35-2.22 1.35zm6.38-11.58c-.43 0-.86-.11-1.25-.34-1.18-.69-1.58-2.21-.89-3.39 1.11-1.89 2.27-3.82 3.44-5.72.72-1.16 2.25-1.52 3.41-.8s1.52 2.25.8 3.41c-1.15 1.86-2.29 3.75-3.38 5.61-.45.79-1.28 1.23-2.13 1.23zm6.96-11.24c-.46 0-.94-.13-1.35-.4-1.15-.75-1.47-2.29-.72-3.43 1.2-1.84 2.45-3.71 3.71-5.54.78-1.13 2.32-1.42 3.45-.64s1.41 2.32.64 3.45c-1.24 1.8-2.47 3.63-3.65 5.44-.48.72-1.27 1.12-2.08 1.12zm7.49-10.9c-.5 0-1.01-.15-1.45-.47-1.11-.8-1.36-2.35-.56-3.46 1.29-1.79 2.62-3.59 3.96-5.36.83-1.09 2.38-1.31 3.47-.48s1.31 2.38.48 3.47c-1.32 1.74-2.63 3.52-3.9 5.27-.47.67-1.23 1.03-2 1.03zm7.97-10.55c-.54 0-1.08-.17-1.54-.53-1.07-.85-1.26-2.41-.41-3.48 1.36-1.72 2.77-3.46 4.19-5.19.87-1.06 2.43-1.21 3.49-.34s1.21 2.43.34 3.49c-1.4 1.7-2.79 3.41-4.12 5.11-.49.61-1.22.94-1.95.94zm8.41-10.21c-.57 0-1.15-.2-1.62-.6-1.04-.89-1.16-2.46-.27-3.5 1.44-1.67 2.9-3.34 4.39-5.01.91-1.02 2.48-1.11 3.5-.2s1.11 2.48.2 3.5c-1.47 1.65-2.91 3.29-4.33 4.94-.47.58-1.17.87-1.87.87zm8.81-9.86c-.6 0-1.21-.22-1.69-.66-1-.93-1.06-2.5-.13-3.51 1.5-1.61 3.02-3.23 4.57-4.84.95-.99 2.52-1.02 3.51-.07s1.02 2.52.07 3.51c-1.53 1.59-3.03 3.18-4.51 4.77-.49.53-1.15.8-1.82.8zm9.17-9.53c-.63 0-1.27-.24-1.75-.72-.97-.97-.97-2.54-.01-3.51 1.55-1.56 3.13-3.12 4.74-4.67.98-.95 2.55-.93 3.51.05.95.98.93 2.55-.05 3.51-1.58 1.54-3.14 3.08-4.68 4.61-.49.49-1.12.73-1.76.73zm9.5-9.21c-.66 0-1.32-.26-1.81-.78-.94-1-.89-2.57.11-3.51 1.6-1.51 3.23-3.01 4.89-4.51 1.01-.92 2.58-.85 3.5.17.92 1.01.85 2.58-.17 3.5-1.63 1.49-3.24 2.97-4.83 4.46-.48.45-1.09.67-1.69.67zm9.78-8.9c-.69 0-1.37-.28-1.86-.84-.91-1.03-.81-2.59.22-3.5 1.65-1.45 3.32-2.91 5.02-4.36 1.04-.89 2.61-.77 3.5.27s.77 2.61-.27 3.5c-1.68 1.44-3.33 2.87-4.96 4.31-.48.42-1.07.62-1.65.62zm10.05-8.6c-.71 0-1.42-.3-1.91-.89-.88-1.05-.73-2.62.32-3.49 1.69-1.41 3.4-2.81 5.14-4.21 1.06-.86 2.63-.7 3.49.37.86 1.06.7 2.63-.37 3.49-1.72 1.39-3.41 2.78-5.09 4.17-.46.37-1.03.56-1.58.56zm10.24-8.37c-.71 0-1.41-.3-1.9-.89-.88-1.05-.74-2.61.31-3.49 1.67-1.4 3.33-2.84 4.94-4.28 1.02-.91 2.59-.83 3.5.2.91 1.02.83 2.59-.2 3.5-1.65 1.47-3.35 2.95-5.06 4.38-.47.39-1.03.58-1.59.58zm9.85-8.82c-.65 0-1.31-.26-1.79-.77-.95-.99-.91-2.56.08-3.51 1.57-1.5 3.14-3.04 4.65-4.59.96-.98 2.53-1 3.51-.04s1 2.53.04 3.51c-1.55 1.58-3.15 3.17-4.76 4.71-.5.46-1.12.69-1.73.69zm9.25-9.45c-.6 0-1.2-.21-1.67-.65-1.01-.92-1.08-2.49-.16-3.5 1.47-1.61 2.92-3.25 4.32-4.89.89-1.04 2.45-1.17 3.5-.28 1.04.89 1.17 2.45.28 3.5-1.44 1.68-2.93 3.37-4.43 5.02-.5.53-1.17.8-1.84.8zm8.57-10.06c-.54 0-1.08-.18-1.54-.54-1.07-.85-1.25-2.41-.4-3.48 1.35-1.7 2.68-3.44 3.96-5.18.81-1.1 2.36-1.34 3.47-.53 1.1.81 1.34 2.36.53 3.47-1.32 1.79-2.69 3.58-4.07 5.32-.49.62-1.22.94-1.95.94zm7.84-10.65c-.48 0-.97-.14-1.39-.43-1.13-.77-1.42-2.31-.65-3.45 1.22-1.79 2.42-3.62 3.58-5.46.73-1.16 2.26-1.51 3.42-.78s1.51 2.26.78 3.42c-1.19 1.88-2.42 3.77-3.67 5.61-.5.71-1.28 1.09-2.07 1.09zm7.04-11.19c-.42 0-.85-.11-1.24-.34-1.19-.69-1.59-2.2-.9-3.39 1.08-1.87 2.15-3.79 3.17-5.7.64-1.21 2.14-1.67 3.35-1.03s1.67 2.15 1.03 3.35c-1.05 1.97-2.14 3.94-3.25 5.86-.47.81-1.3 1.25-2.16 1.25zm6.21-11.66c-.36 0-.73-.08-1.08-.25-1.23-.6-1.75-2.08-1.15-3.31.95-1.95 1.87-3.94 2.74-5.91.55-1.25 2.02-1.82 3.27-1.27s1.82 2.02 1.27 3.27c-.89 2.02-1.84 4.07-2.81 6.07-.44.88-1.32 1.4-2.24 1.4zm5.33-12.09c-.31 0-.62-.06-.92-.18-1.27-.51-1.89-1.95-1.39-3.22.8-2.01 1.58-4.06 2.31-6.1.46-1.29 1.88-1.96 3.17-1.5s1.96 1.88 1.5 3.17c-.75 2.09-1.55 4.2-2.37 6.26-.38.98-1.31 1.57-2.3 1.57zm4.46-12.44c-.25 0-.5-.04-.75-.12-1.31-.42-2.03-1.81-1.61-3.12.66-2.06 1.29-4.16 1.87-6.25.37-1.32 1.74-2.09 3.06-1.72s2.09 1.74 1.72 3.06c-.6 2.14-1.25 4.3-1.92 6.42-.35 1.06-1.32 1.73-2.37 1.73zm3.57-12.72c-.19 0-.39-.02-.59-.07-1.33-.32-2.15-1.67-1.82-3 .51-2.1 1-4.24 1.44-6.37.28-1.34 1.59-2.2 2.93-1.92s2.2 1.59 1.92 2.93c-.45 2.18-.95 4.38-1.48 6.53-.27 1.14-1.29 1.9-2.4 1.9zm2.7-12.95c-.14 0-.28-.01-.43-.04-1.35-.23-2.25-1.52-2.02-2.87.37-2.13.71-4.31 1.01-6.46.19-1.36 1.45-2.3 2.8-2.11 1.36.19 2.3 1.44 2.11 2.8-.31 2.2-.66 4.43-1.04 6.61-.2 1.22-1.25 2.07-2.43 2.07zm1.84-13.1c-.09 0-.18 0-.27-.01-1.36-.15-2.35-1.37-2.2-2.73.23-2.14.44-4.34.6-6.51.11-1.37 1.3-2.39 2.66-2.28 1.37.11 2.39 1.3 2.28 2.66-.17 2.23-.38 4.47-.62 6.67-.13 1.25-1.2 2.2-2.45 2.2zm1.02-13.2c-.04 0-.08 0-.12 0-1.37-.06-2.43-1.23-2.36-2.59.1-2.16.17-4.36.21-6.54.02-1.37 1.17-2.45 2.52-2.44 1.37.02 2.46 1.15 2.44 2.52-.04 2.23-.11 4.48-.21 6.69-.07 1.33-1.17 2.36-2.48 2.36zm.22-13.23c-1.36 0-2.46-1.09-2.48-2.45-.03-2.17-.08-4.37-.17-6.55-.05-1.37 1.01-2.52 2.38-2.58 1.35-.04 2.52 1.01 2.58 2.38.09 2.22.15 4.47.17 6.69.02 1.37-1.08 2.49-2.45 2.51-.01 0-.02 0-.03 0zm-.53-13.24c-1.29 0-2.38-1-2.47-2.31-.15-2.15-.32-4.35-.53-6.53-.13-1.36.87-2.57 2.24-2.7 1.36-.14 2.57.87 2.7 2.24.21 2.22.39 4.46.54 6.66.09 1.37-.94 2.55-2.31 2.64-.06 0-.11 0-.17 0zm-1.24-13.17c-1.24 0-2.31-.92-2.46-2.18-.26-2.16-.55-4.34-.87-6.49-.2-1.36.74-2.62 2.09-2.81 1.35-.2 2.62.74 2.81 2.09.32 2.19.62 4.42.89 6.62.16 1.36-.8 2.6-2.16 2.76-.1.01-.2.01-.3.01zm-1.92-13.08c-1.19 0-2.23-.85-2.44-2.06-.37-2.12-.77-4.29-1.19-6.44-.27-1.34.61-2.65 1.95-2.91s2.65.61 2.91 1.95c.43 2.19.84 4.4 1.21 6.56.23 1.35-.67 2.63-2.02 2.87-.14.02-.28.03-.42.03zm-2.56-12.98c-1.14 0-2.16-.79-2.42-1.94-.47-2.12-.98-4.27-1.5-6.38-.33-1.33.48-2.67 1.81-3s2.67.48 3 1.81c.53 2.15 1.04 4.34 1.53 6.5.3 1.34-.55 2.66-1.88 2.96-.18.03-.36.05-.54.05zm-3.17-12.84c-1.09 0-2.09-.73-2.39-1.83-.57-2.09-1.17-4.22-1.79-6.31-.39-1.31.36-2.69 1.68-3.08 1.31-.39 2.69.36 3.08 1.68.63 2.13 1.24 4.29 1.82 6.42.36 1.32-.42 2.68-1.74 3.04-.23.05-.45.08-.66.08zm-3.76-12.71c-1.05 0-2.03-.67-2.36-1.73-.66-2.07-1.36-4.17-2.07-6.25-.45-1.3.24-2.71 1.54-3.15 1.3-.45 2.71.24 3.15 1.54.73 2.11 1.44 4.25 2.11 6.35.42 1.31-.3 2.7-1.61 3.12-.25.08-.51.12-.76.12zm-4.31-12.55c-1.01 0-1.96-.62-2.33-1.62-.76-2.05-1.54-4.12-2.34-6.15-.5-1.28.13-2.71 1.4-3.21 1.28-.5 2.72.13 3.21 1.4.81 2.06 1.61 4.17 2.38 6.25.47 1.29-.19 2.71-1.47 3.18-.28.1-.57.15-.85.15zm-4.85-12.35c-.97 0-1.89-.57-2.29-1.53-.84-2.01-1.71-4.05-2.59-6.05-.55-1.25.02-2.72 1.27-3.27s2.72.02 3.27 1.27c.9 2.03 1.78 4.1 2.63 6.14.53 1.26-.07 2.72-1.34 3.24-.31.13-.63.2-.95.2zm-5.34-12.14c-.94 0-1.83-.53-2.25-1.44-.92-1.98-1.87-3.97-2.83-5.93-.6-1.23-.09-2.72 1.14-3.32s2.72-.09 3.32 1.14c.97 1.99 1.94 4.02 2.88 6.02.58 1.24.04 2.72-1.2 3.29-.36.17-.71.24-1.06.24zm-574.93-10.14c-.43 0-.87-.11-1.26-.35-1.18-.7-1.56-2.22-.87-3.4.05-.08 1.27-2.13 3.74-5.72.78-1.13 2.32-1.41 3.45-.64 1.13.78 1.41 2.32.64 3.45-2.37 3.44-3.55 5.42-3.56 5.44-.47.78-1.29 1.22-2.14 1.22zm569.1-1.75c-.9 0-1.77-.49-2.21-1.35-1-1.95-2.02-3.89-3.07-5.81-.65-1.21-.2-2.71 1-3.36s2.71-.2 3.36 1c1.06 1.96 2.09 3.92 3.11 5.9.63 1.22.15 2.71-1.07 3.34-.35.19-.74.28-1.12.28zm-561.59-9.24c-.51 0-1.03-.16-1.47-.48-1.1-.81-1.34-2.37-.53-3.47 1.29-1.75 2.65-3.55 4.05-5.34.84-1.08 2.4-1.27 3.48-.43s1.27 2.4.43 3.48c-1.37 1.75-2.7 3.51-3.97 5.23-.48.66-1.23 1.01-1.99 1.01zm555.3-2.41c-.86 0-1.71-.45-2.16-1.26-1.08-1.91-2.18-3.8-3.29-5.68-.7-1.18-.31-2.7.87-3.4s2.7-.31 3.4.87c1.13 1.91 2.25 3.83 3.34 5.77.67 1.19.25 2.71-.94 3.38-.39.21-.81.32-1.22.32zm-547.16-8.05c-.55 0-1.11-.18-1.57-.56-1.06-.87-1.22-2.43-.35-3.49 1.38-1.69 2.83-3.41 4.29-5.12.89-1.04 2.46-1.16 3.5-.27s1.16 2.46.27 3.5c-1.44 1.68-2.86 3.37-4.22 5.04-.49.59-1.2.9-1.92.9zm540.42-3.34c-.83 0-1.64-.42-2.11-1.18-1.15-1.86-2.32-3.71-3.51-5.55-.74-1.15-.41-2.69.74-3.43s2.69-.41 3.43.74c1.2 1.86 2.39 3.74 3.56 5.63.72 1.17.36 2.69-.8 3.41-.41.26-.86.38-1.31.38zm-531.8-6.72c-.59 0-1.18-.21-1.65-.63-1.02-.91-1.11-2.48-.2-3.5 1.47-1.65 2.99-3.31 4.5-4.93.93-1 2.5-1.06 3.51-.12 1 .93 1.06 2.5.12 3.51-1.49 1.6-2.98 3.23-4.43 4.85-.49.54-1.17.82-1.85.82zm524.62-4.38c-.8 0-1.58-.38-2.06-1.09-1.22-1.81-2.46-3.61-3.72-5.4-.79-1.12-.52-2.67.6-3.46s2.67-.52 3.46.6c1.28 1.81 2.53 3.64 3.78 5.48.77 1.14.47 2.68-.67 3.44-.43.29-.91.43-1.39.43zm-515.6-5.31c-.62 0-1.25-.23-1.73-.7-.98-.95-1.01-2.52-.05-3.51 1.51-1.56 3.07-3.14 4.69-4.74.97-.96 2.54-.96 3.51.01.96.97.96 2.54-.01 3.51-1.59 1.58-3.13 3.14-4.62 4.67-.49.51-1.14.76-1.79.76zm508-5.49c-.76 0-1.52-.35-2-1.01-1.29-1.76-2.6-3.51-3.93-5.24-.83-1.09-.62-2.65.46-3.48 1.09-.83 2.64-.62 3.48.46 1.35 1.76 2.67 3.53 3.99 5.32.81 1.1.57 2.66-.53 3.47-.44.32-.96.48-1.47.48zm-498.6-3.83c-.65 0-1.31-.26-1.79-.77-.95-.99-.91-2.56.08-3.51 1.58-1.5 3.2-3.02 4.87-4.56 1.01-.93 2.58-.86 3.5.15.93 1.01.86 2.58-.15 3.5-1.64 1.51-3.24 3.01-4.8 4.49-.48.47-1.09.7-1.71.7zm490.59-6.65c-.73 0-1.45-.32-1.94-.94-1.35-1.7-2.74-3.41-4.13-5.08-.88-1.05-.73-2.62.32-3.49 1.06-.88 2.62-.73 3.49.32 1.41 1.7 2.82 3.43 4.19 5.15.85 1.07.68 2.63-.39 3.49-.46.37-1 .55-1.54.55zm-480.84-2.3c-.69 0-1.37-.28-1.86-.84-.91-1.03-.81-2.59.21-3.5 1.64-1.45 3.31-2.9 5.03-4.37 1.04-.89 2.61-.76 3.5.28s.76 2.61-.28 3.5c-1.69 1.44-3.35 2.88-4.96 4.31-.47.41-1.06.62-1.64.62zm472.41-7.85c-.69 0-1.39-.29-1.88-.86-1.42-1.65-2.89-3.3-4.35-4.92-.92-1.02-.84-2.59.18-3.5 1.02-.92 2.58-.84 3.5.18 1.48 1.65 2.97 3.33 4.41 5 .9 1.04.78 2.6-.25 3.5-.45.4-1.03.6-1.61.6zm-462.34-.74c-.72 0-1.43-.31-1.92-.91-.87-1.06-.72-2.62.34-3.49 1.69-1.39 3.42-2.78 5.19-4.18 1.07-.85 2.63-.67 3.48.41.85 1.07.67 2.63-.41 3.48-1.74 1.38-3.45 2.75-5.12 4.12-.45.39-1.01.57-1.56.57zm10.38-8.2c-.75 0-1.49-.34-1.98-.98-.83-1.09-.62-2.65.47-3.48 1.75-1.33 3.52-2.66 5.34-3.99 1.1-.81 2.66-.57 3.47.53s.57 2.66-.53 3.47c-1.79 1.31-3.54 2.62-5.26 3.93-.46.35-.98.52-1.51.52zm443.1-.88c-.66 0-1.32-.26-1.81-.78-1.5-1.59-3.03-3.18-4.55-4.73-.96-.98-.95-2.55.03-3.51s2.55-.95 3.51.03c1.55 1.58 3.1 3.19 4.62 4.81.94 1 .89 2.57-.11 3.51-.47.45-1.08.67-1.69.67zm-432.43-6.94c-.78 0-1.55-.37-2.03-1.05-.79-1.12-.52-2.67.6-3.46 1.79-1.27 3.62-2.53 5.48-3.79 1.13-.77 2.68-.47 3.45.66s.47 2.68-.66 3.45c-1.83 1.24-3.63 2.49-5.4 3.74-.44.3-.94.45-1.44.45zm423.16-2.5c-.62 0-1.25-.23-1.73-.7-1.56-1.52-3.16-3.04-4.75-4.53-1-.93-1.06-2.5-.12-3.51.94-1 2.5-1.06 3.51-.12 1.62 1.51 3.24 3.06 4.83 4.6.98.96 1 2.53.04 3.51-.49.5-1.14.75-1.78.75zm-412.21-4.94c-.81 0-1.6-.4-2.08-1.12-.75-1.15-.43-2.68.72-3.43 1.84-1.2 3.71-2.4 5.61-3.59 1.16-.73 2.69-.38 3.42.78s.38 2.69-.78 3.42c-1.87 1.18-3.72 2.36-5.53 3.54-.43.27-.9.4-1.36.4zm402.53-4.08c-.59 0-1.18-.21-1.65-.63-1.64-1.46-3.3-2.91-4.95-4.31-1.04-.89-1.17-2.45-.28-3.5.89-1.04 2.45-1.17 3.5-.28 1.67 1.42 3.36 2.89 5.03 4.38 1.02.91 1.11 2.48.2 3.5-.49.56-1.17.84-1.85.84zm-391.33-2.95c-.84 0-1.66-.43-2.13-1.2-.71-1.17-.33-2.7.84-3.41 1.88-1.14 3.79-2.27 5.73-3.39 1.19-.69 2.7-.28 3.39.9s.28 2.7-.9 3.39c-1.91 1.11-3.8 2.22-5.66 3.34-.39.25-.83.37-1.27.37zm381.25-5.62c-.55 0-1.1-.18-1.56-.55-1.69-1.37-3.42-2.74-5.14-4.07-1.08-.84-1.29-2.39-.45-3.48s2.39-1.29 3.48-.45c1.75 1.35 3.51 2.74 5.24 4.14 1.06.86 1.23 2.42.37 3.49-.5.61-1.22.92-1.94.92zm-369.81-1.01c-.87 0-1.72-.46-2.17-1.28-.67-1.2-.23-2.71.96-3.37 1.92-1.07 3.87-2.13 5.85-3.18 1.21-.65 2.71-.19 3.36 1.02.64 1.21.19 2.71-1.02 3.36-1.95 1.04-3.87 2.09-5.77 3.14-.38.21-.8.31-1.21.31zm11.68-6.23c-.9 0-1.77-.49-2.21-1.35-.62-1.22-.14-2.71 1.08-3.34 1.96-1 3.95-1.99 5.96-2.98 1.23-.6 2.72-.09 3.32 1.14s.09 2.72-1.14 3.32c-1.98.97-3.94 1.95-5.88 2.94-.37.19-.75.27-1.13.27zm347.65-.84c-.51 0-1.02-.16-1.46-.48-1.76-1.29-3.56-2.57-5.34-3.8-1.13-.78-1.41-2.33-.63-3.45.78-1.13 2.33-1.41 3.45-.63 1.81 1.25 3.64 2.56 5.44 3.88 1.11.81 1.35 2.36.54 3.47-.48.66-1.23 1.01-2 1.01zm-335.77-4.96c-.93 0-1.83-.53-2.25-1.43-.58-1.24-.04-2.72 1.2-3.3 2-.93 4.01-1.85 6.05-2.77 1.25-.56 2.72 0 3.28 1.25s0 2.72-1.25 3.28c-2.02.9-4.01 1.81-5.98 2.73-.34.16-.7.24-1.05.24zm324.9-2.57c-.47 0-.94-.13-1.36-.41-1.83-1.2-3.69-2.38-5.53-3.51-1.17-.72-1.53-2.25-.81-3.41.72-1.17 2.25-1.53 3.41-.81 1.88 1.16 3.77 2.36 5.64 3.58 1.15.75 1.47 2.29.72 3.43-.47.73-1.26 1.13-2.07 1.13zm-312.82-2.83c-.96 0-1.88-.57-2.28-1.51-.54-1.26.05-2.72 1.31-3.25 2.03-.86 4.08-1.71 6.15-2.55 1.27-.52 2.72.1 3.23 1.37.52 1.27-.1 2.72-1.37 3.23-2.04.83-4.07 1.67-6.07 2.52-.32.13-.65.19-.97.19zm301.56-4.11c-.42 0-.85-.11-1.24-.33-1.88-1.09-3.81-2.17-5.71-3.19-1.21-.65-1.65-2.16-1-3.36.65-1.21 2.16-1.65 3.36-1 1.95 1.05 3.91 2.15 5.83 3.26 1.19.69 1.59 2.2.9 3.39-.45.78-1.28 1.23-2.14 1.23zm-289.31-.86c-1 0-1.93-.6-2.31-1.59-.49-1.28.14-2.71 1.42-3.21 2.06-.79 4.13-1.57 6.23-2.34 1.28-.47 2.71.19 3.18 1.47s-.19 2.71-1.47 3.18c-2.07.76-4.12 1.53-6.15 2.31-.3.13-.6.18-.9.18zm12.42-4.55c-1.03 0-1.99-.64-2.34-1.67-.45-1.29.24-2.71 1.53-3.16 2.08-.72 4.18-1.43 6.3-2.13 1.3-.43 2.7.28 3.13 1.58s-.28 2.7-1.58 3.13c-2.09.69-4.17 1.39-6.23 2.1-.27.11-.54.15-.81.15zm265.25-.88c-.37 0-.75-.08-1.11-.26-1.95-.98-3.93-1.94-5.89-2.84-1.24-.58-1.78-2.05-1.21-3.29.58-1.24 2.05-1.78 3.29-1.21 2 .93 4.02 1.91 6.02 2.91 1.22.62 1.72 2.11 1.1 3.33-.41.86-1.29 1.36-2.2 1.36zm-252.69-3.25c-1.06 0-2.04-.68-2.37-1.75-.41-1.31.33-2.7 1.63-3.1 2.1-.65 4.23-1.29 6.37-1.92 1.31-.39 2.69.37 3.08 1.68.38 1.32-.37 2.69-1.68 3.08-2.12.62-4.21 1.25-6.29 1.9-.25.08-.49.11-.74.11zm240.7-2.32c-.32 0-.65-.06-.97-.2-2-.85-4.04-1.68-6.05-2.46-1.28-.49-1.91-1.93-1.42-3.21s1.93-1.91 3.21-1.42c2.06.8 4.15 1.65 6.2 2.52 1.26.54 1.85 1.99 1.31 3.25-.4.96-1.32 1.52-2.28 1.52zm-228-1.39c-1.09 0-2.09-.72-2.39-1.82-.36-1.32.41-2.69 1.74-3.05 2.12-.58 4.27-1.15 6.43-1.71 1.33-.34 2.68.46 3.02 1.78.34 1.33-.46 2.68-1.78 3.02-2.13.55-4.25 1.11-6.35 1.69-.24.06-.46.09-.67.09zm12.8-3.29c-1.12 0-2.14-.76-2.41-1.9-.32-1.33.5-2.67 1.83-2.99 2.14-.51 4.3-1.01 6.48-1.5 1.34-.3 2.66.54 2.96 1.88s-.54 2.66-1.88 2.96c-2.15.48-4.29.97-6.4 1.48-.19.05-.39.07-.58.07zm202.87-.09c-.27 0-.55-.04-.81-.14-2.06-.72-4.14-1.4-6.2-2.04-1.31-.4-2.04-1.79-1.64-3.1s1.79-2.04 3.1-1.64c2.11.65 4.25 1.36 6.37 2.09 1.29.45 1.98 1.86 1.53 3.16-.37 1.03-1.33 1.67-2.35 1.67zm-189.96-2.79c-1.15 0-2.18-.81-2.43-1.98-.28-1.34.59-2.65 1.93-2.93 2.16-.45 4.33-.88 6.52-1.29 1.34-.26 2.64.63 2.9 1.97.26 1.35-.63 2.64-1.97 2.9-2.17.41-4.32.84-6.45 1.28-.17.03-.34.05-.5.05zm177.32-1.11c-.21 0-.43-.03-.65-.09-2.11-.57-4.24-1.1-6.33-1.57-1.33-.31-2.17-1.63-1.87-2.97.31-1.34 1.63-2.17 2.97-1.87 2.15.49 4.34 1.04 6.51 1.62 1.32.36 2.11 1.72 1.75 3.04-.28 1.11-1.28 1.84-2.38 1.84zm-164.33-1.37c-1.18 0-2.23-.85-2.44-2.05-.24-1.35.67-2.63 2.02-2.87 2.17-.38 4.36-.74 6.56-1.09 1.35-.21 2.62.71 2.84 2.06.21 1.35-.71 2.62-2.06 2.84-2.18.35-4.34.71-6.49 1.08-.15.02-.29.03-.43.03zm151.45-1.57c-.15 0-.31-.01-.46-.04-2.14-.4-4.3-.76-6.42-1.07-1.36-.2-2.29-1.46-2.1-2.81.2-1.36 1.46-2.3 2.81-2.1 2.19.32 4.41.69 6.62 1.1 1.35.25 2.23 1.55 1.98 2.9-.22 1.19-1.26 2.02-2.43 2.02zm-138.39-.5c-1.21 0-2.27-.89-2.45-2.13-.19-1.36.75-2.61 2.1-2.81 2.18-.31 4.38-.61 6.59-.89 1.35-.18 2.6.79 2.78 2.15.17 1.36-.79 2.6-2.15 2.78-2.19.28-4.36.57-6.52.88-.11.01-.23.02-.35.02zm125.31-1.41c-.09 0-.18 0-.27-.01-2.19-.24-4.38-.46-6.55-.67-1.36-.13-2.36-1.34-2.23-2.71.13-1.36 1.34-2.36 2.71-2.23 2.19.21 4.39.44 6.61.68 1.36.15 2.35 1.37 2.2 2.73-.15 1.27-1.22 2.21-2.47 2.21zm-112.19-.27c-1.24 0-2.32-.93-2.46-2.2-.15-1.36.82-2.59 2.19-2.74 2.19-.25 4.39-.48 6.61-.7 1.37-.13 2.58.86 2.71 2.23.13 1.36-.86 2.58-2.23 2.71-2.19.22-4.37.45-6.54.69-.1 0-.19.01-.28.01zm99.02-1c-.07 0-.14 0-.21-.01-2.2-.19-4.39-.36-6.56-.52-1.37-.1-2.39-1.29-2.29-2.65.1-1.37 1.3-2.4 2.65-2.29 2.2.16 4.4.34 6.62.52 1.36.12 2.38 1.32 2.26 2.68-.11 1.29-1.19 2.27-2.47 2.27zm-85.86-.3c-1.28 0-2.36-.98-2.47-2.27-.11-1.36.9-2.56 2.26-2.68 2.2-.18 4.4-.35 6.63-.51 1.38-.1 2.55.94 2.65 2.3.1 1.37-.94 2.55-2.3 2.65-2.2.15-4.39.32-6.56.5-.07.01-.14.01-.21.01zm72.68-.67c-.05 0-.1 0-.15 0-2.2-.13-4.39-.26-6.57-.36-1.37-.07-2.42-1.23-2.36-2.6.07-1.37 1.23-2.42 2.6-2.36 2.2.11 4.41.23 6.63.37 1.37.08 2.41 1.26 2.32 2.63-.08 1.3-1.17 2.32-2.47 2.32zm-59.49-.25c-1.31 0-2.4-1.02-2.47-2.34-.08-1.37.97-2.54 2.34-2.61 2.2-.12 4.41-.23 6.64-.32 1.36-.07 2.52 1.01 2.58 2.37.06 1.37-1.01 2.52-2.37 2.58-2.2.09-4.39.2-6.57.32-.06 0-.1 0-.15 0zm46.28-.4c-.03 0-.06 0-.09 0-2.2-.08-4.4-.15-6.58-.2-1.37-.03-2.45-1.17-2.42-2.54s1.15-2.46 2.54-2.42c2.2.05 4.42.12 6.64.2 1.37.05 2.44 1.2 2.39 2.57-.06 1.34-1.16 2.39-2.48 2.39zm-33.07-.15c-1.34 0-2.44-1.06-2.48-2.41-.04-1.37 1.04-2.51 2.41-2.55 2.2-.06 4.42-.11 6.65-.14h.04c1.35 0 2.46 1.09 2.48 2.44.02 1.37-1.07 2.5-2.44 2.52-2.21.03-4.4.08-6.58.14-.03 0-.05 0-.08 0zm19.84-.17c-.01 0-.02 0-.03 0-1.92-.02-3.83-.03-5.73-.03h-.85c-1.37 0-2.48-1.11-2.48-2.48s1.11-2.48 2.48-2.48h.86c1.92 0 3.84.01 5.78.03 1.37.02 2.47 1.14 2.45 2.51-.01 1.36-1.12 2.45-2.48 2.45z" fill="#699ff0"/><path d="m2783.29 1471.56s-133.96.22-338.28.65c-3.05-1.31-4.68-2.07-4.68-2.07s23.09-126.34 142.89-153.46 121.22-142.89 196.04-165.98c61.54-18.95 116.53 6.1 153.89-.33 59.03 186.8-149.86 321.19-149.86 321.19z" fill="#a8d29f"/><path d="m2977.04 1480.66h-2708.48c-1.87 0-3.4-1.53-3.4-3.4v-3.7c0-1.87 1.53-3.4 3.4-3.4h2708.48c1.87 0 3.4 1.53 3.4 3.4v3.7c0 1.87-1.53 3.4-3.4 3.4z" fill="#283250"/><path d="m1005.07 1010.99s-1.52 1.63-4.35 4.68c-10.35 11.22-38.45 41.71-69.38 76.78-7.3 8.28-14.81 16.88-22.33 25.48-11.22 12.96-22.22 25.92-32.46 38.45l-.11.11c-3.16 3.7-6.1 7.3-9.04 10.89-6.1 7.52-11.76 14.7-16.99 21.46-15.68 20.47-26.68 37.03-28.75 45.41-12.52 52.39 11.87 199.85 18.19 235.9h-342.2c10.35-74.93 24.72-180.79 26.58-196.91 2.83-25.38-85.71-134.29-87.24-213.79-1.42-79.4 51.08-136.25 59.36-214.44 4.03-36.81-.55-84.73-6.43-125.57-3.05-21.67-6.64-41.06-9.47-55.76-1.42-7.19.98-13.83 5.45-18.41 1.2-1.2 2.5-2.4 3.92-3.16 5.45-3.59 12.52-4.46 19.28-1.52 19.6 8.39 41.39 30.61 47.05 86.04 0 0 16.44 10.35 43.02 27.23 10.78 6.75 23.2 14.59 36.92 23.31 10.56 6.64 21.89 13.83 33.76 21.35.76.44 1.53.98 2.29 1.42 4.79 3.05 9.48 6.1 14.49 9.25h.11c1.74 1.09 3.49 2.29 5.34 3.38 3.16 2.07 6.43 4.14 9.8 6.21.65.43 1.31.87 2.07 1.2 21.56 13.72 44.11 28.1 66.87 42.59h.11c3.7 2.17 7.41 4.57 11.11 6.97 2.83 1.85 5.77 3.59 8.71 5.45 3.59 2.4 7.3 4.68 11 6.97h.11c25.81 16.34 51.08 32.46 74.71 47.38 3.7 2.4 7.41 4.68 11 6.97 2.94 1.85 5.77 3.71 8.6 5.45 3.81 2.4 7.3 4.68 10.89 7.08h.11c45.09 28.42 79.94 50.64 92.68 58.81 3.37 2.14 5.22 3.23 5.22 3.34z" fill="#ffb27d"/><path d="m507.36 700.29c.52 9.25-5.87 17.36-15.03 18.74l-2.37.35c-3.11-21.58-6.65-41.03-9.48-55.74-1.4-7.19-3.55-14.1-2.94-21.46 14.89-7.29 20.62 10.33 22.45 17.47 3.05 11.63 6.53 27.26 7.37 40.64z" fill="#ffc197"/><path d="m909.01 1117.94c-11.22 12.96-22.22 25.92-32.46 38.45l-.11.11c-3.16 3.7-6.1 7.3-9.04 10.89-6.1 7.52-11.76 14.7-16.99 21.46-15.68 20.47-26.68 37.03-28.75 45.41-12.52 52.39 11.87 199.85 18.19 235.9h-222.61c41.28-61.53 46.61-169.9 46.94-219.67.11-12.53 4.14-27.56 10.67-43.46 12.42-30.71 33.76-65.13 53.37-93.56 18.08-26.36 34.74-47.48 41.5-55.87 0 0 0 0 0-.11 2.18-2.5 3.27-3.92 3.27-3.92l123.07-5.23h.11l1.63 8.71 1.31 7.41 5.66 30.71z" fill="#e2915a" opacity=".3"/><path d="m995.85 1173.81-368.33 38.07c-11.55 1.19-21.97-7.28-23.17-18.83l-76.12-736.57c-1.19-11.55 7.28-21.97 18.83-23.17l368.33-38.07c11.55-1.19 21.97 7.28 23.17 18.83l76.12 736.57c1.19 11.55-7.28 21.98-18.83 23.17z" fill="#d3671e"/><path d="m1035.62 1169.7-368.33 38.07c-11.55 1.19-21.97-7.28-23.17-18.83l-76.12-736.57c-1.19-11.55 7.28-21.97 18.83-23.17l368.33-38.07c11.55-1.19 21.97 7.28 23.17 18.83l76.12 736.57c1.19 11.55-7.28 21.98-18.83 23.17z" fill="#f99746"/><path d="m838.75 437.15c-.24-2.28-2.3-3.96-4.58-3.72l-106.66 11.02c-2.28.24-3.96 2.3-3.72 4.58s2.3 3.96 4.58 3.72l106.66-11.02c2.28-.24 3.96-2.3 3.72-4.58z" fill="#d3671e" opacity=".4"/><path d="m708.57 446.41c-2.28.24-3.96 2.3-3.72 4.58s2.3 3.96 4.58 3.72 3.96-2.3 3.72-4.58-2.3-3.96-4.58-3.72z" fill="#d3671e" opacity=".4"/><path d="m878.86 1142.43c-1.53-14.78-14.75-25.53-29.53-24s-25.53 14.75-24 29.53 14.75 25.53 29.53 24 25.53-14.75 24-29.53z" fill="#d86713" opacity=".4"/><path d="m638 470.28h342.96v633.09h-342.96z" fill="#fbecdb" transform="matrix(.9947 -.1028 .1028 .9947 -76.5954 87.382)"/><path d="m666.77 1028.44h342.96v73.49h-342.96z" fill="#fce6d2" transform="matrix(.9947 -.1028 .1028 .9947 -105.058 91.8138)"/><path d="m773.75 1060.96 176.06-18.2c2.04-.21 3.53-2.05 3.32-4.08-.21-2.04-2.05-3.53-4.08-3.32l-176.06 18.2c-2.04.21-3.53 2.05-3.32 4.08.21 2.04 2.05 3.53 4.08 3.32z" fill="#f1a34f"/><path d="m954.81 1054.9c-.21-2.04-2.05-3.53-4.08-3.32l-176.06 18.2c-2.04.21-3.53 2.05-3.32 4.08.21 2.04 2.05 3.53 4.08 3.32l176.06-18.2c2.04-.21 3.53-2.05 3.32-4.08z" fill="#f1a34f"/><path d="m746.08 1044.97c-.22-2.51-.87-4.79-1.85-6.97-4.03-10.13-14.38-16.66-25.7-15.46-11.33 1.2-20.15 9.69-22.11 20.37-.43 2.4-.54 4.79-.33 7.3 1.42 13.72 29.62 41.82 29.62 41.82s21.79-33.23 20.37-47.06zm-23.85 14.05c-6.42.65-12.2-4.03-12.85-10.46-.22-2.61.33-5.12 1.52-7.19 1.85-3.16 5.12-5.34 8.93-5.77 3.92-.44 7.51 1.09 9.91 3.81 1.64 1.74 2.72 4.03 3.05 6.64.66 6.54-4.03 12.32-10.56 12.97z" fill="#d3671e"/><path d="m662.46 568.1h197.75v163.06h-197.75z" fill="#d3671e" transform="matrix(-.9947 .1028 -.1028 -.9947 1585.417 1217.5391)"/><path d="m760.89 559.54h166.46v163.06h-166.46z" fill="#f1a34f" transform="matrix(.9947 -.1028 .1028 .9947 -61.4281 90.1693)"/><path d="m931.04 672.48 4.25 41.13-165.58 17.11-16.76-162.19z" fill="#d86713" opacity=".4"/><path d="m667.23 699.74 31.17-3.22-3.65-8.49 2.09-6.55-31.17 3.22z" fill="#f1a34f"/><path d="m660.48 634.41 31.17-3.22-3.66-8.48 2.1-6.56-31.17 3.23z" fill="#f1a34f"/><path d="m924.29 607.15-31.17 3.22 1.84-9.05-3.4-5.99 31.17-3.22z" fill="#d86713" opacity=".4"/><path d="m700.99 787.07c-.98-.65-2.07-1.2-3.27-1.74-3.05-1.2-6.54-1.74-10.13-1.42-8.5.87-15.36 6.86-17.75 14.6-.87 2.61-1.2 5.45-.87 8.39 1.2 11.44 11.54 19.82 22.98 18.62 4.68-.44 8.82-2.39 11.98-5.55 4.68-4.14 7.4-10.56 6.64-17.43-.65-6.54-4.35-12.2-9.58-15.47zm.87 31.69c-2.72 2.39-6.21 3.92-10.13 4.36-10.13.98-19.28-6.32-20.26-16.45-.22-2.29 0-4.58.65-6.75 1.85-7.19 7.95-12.85 15.79-13.61 3.05-.33 5.99.11 8.6 1.31 1.31.44 2.5 1.09 3.59 1.85 4.36 2.94 7.52 7.74 8.06 13.4.67 6.2-1.83 12.08-6.3 15.89z" fill="#ddb997"/><path d="m677.7 795.23 13.25 20.61 17.74-51.02-19.29 36.01z" fill="#d3671e"/><path d="m718.53 879.32c-.65-6.64-4.36-12.2-9.58-15.57-.98-.65-2.18-1.2-3.27-1.74-3.16-1.2-6.53-1.74-10.13-1.41-11.44 1.2-19.82 11.54-18.62 22.98s11.44 19.82 22.98 18.62c11.43-1.1 19.81-11.45 18.62-22.88zm-18.96 20.47c-10.13 1.09-19.17-6.32-20.26-16.45-.98-10.13 6.42-19.28 16.56-20.26 3.05-.33 5.99.11 8.6 1.2 1.31.43 2.51 1.09 3.59 1.85 4.36 2.94 7.52 7.73 8.06 13.4.99 10.13-6.42 19.17-16.55 20.26z" fill="#ddb997"/><path d="m685.62 871.92 13.25 20.61 17.75-51.02-19.3 36.01z" fill="#d3671e"/><path d="m726.47 955.99c-1.2-11.55-11.54-19.93-22.98-18.73s-19.82 11.54-18.62 22.98c1.2 11.54 11.44 19.82 22.98 18.73 11.44-1.2 19.82-11.54 18.62-22.98zm-18.95 20.48c-10.13 1.09-19.17-6.32-20.26-16.45-.98-10.13 6.32-19.28 16.45-20.26 10.13-1.09 19.28 6.32 20.26 16.45 1.09 10.13-6.32 19.17-16.45 20.26z" fill="#ddb997"/><path d="m938.05 775.77-196.95 20.35c-1.99.21-3.8-1.26-4-3.25l-.08-.8c-.21-2 1.26-3.8 3.25-4l196.95-20.35c2-.21 3.8 1.26 4 3.25l.08.8c.21 1.99-1.26 3.79-3.25 4z" fill="#ddb997"/><path d="m939.53 790.11-196.95 20.36c-2 .2-3.8-1.26-4-3.25l-.08-.8c-.21-1.99 1.26-3.8 3.25-4l196.95-20.35c2-.21 3.8 1.26 4 3.25l.08.8c.21 1.98-1.25 3.78-3.25 3.99z" fill="#ddb997"/><path d="m945.99 852.59-196.95 20.35c-2 .21-3.8-1.26-4-3.25l-.08-.8c-.21-1.99 1.26-3.8 3.25-4l196.95-20.35c1.99-.21 3.79 1.26 4 3.25l.08.8c.2 1.99-1.26 3.79-3.25 4z" fill="#ddb997"/><path d="m947.47 866.93-196.95 20.35c-1.99.21-3.79-1.26-4-3.25l-.08-.8c-.21-2 1.26-3.8 3.25-4l196.95-20.35c2-.21 3.8 1.26 4 3.25l.08.8c.21 1.99-1.26 3.79-3.25 4z" fill="#ddb997"/><path d="m953.93 929.4-196.95 20.36c-1.99.21-3.8-1.26-4-3.25l-.08-.8c-.21-1.99 1.26-3.79 3.25-4l196.95-20.36c2-.21 3.8 1.26 4 3.25l.08.8c.2 2-1.26 3.8-3.25 4z" fill="#ddb997"/><path d="m955.41 943.74-196.95 20.36c-2 .21-3.8-1.26-4-3.25l-.08-.8c-.21-2 1.26-3.8 3.25-4l196.95-20.36c2-.21 3.8 1.26 4 3.25l.08.8c.21 2-1.26 3.8-3.25 4z" fill="#ddb997"/><path d="m988.84 512.4s53.46-47.5 88.53-20.54-78.89 113.8-78.89 113.8z" fill="#ffb27d"/><path d="m1050.7 707.36-62.13 34.37c-18.01 9.96-40.9 3.38-50.86-14.63l-10.15-18.34c-9.96-18.01-3.38-40.9 14.63-50.86l62.12-34.37c18.01-9.96 40.9-3.38 50.86 14.63l10.15 18.34c9.97 18.01 3.39 40.89-14.62 50.86z" fill="#ffb27d"/><path d="m1061.45 811.44-62.12 34.37c-18.01 9.96-40.9 3.38-50.86-14.63l-10.15-18.34c-9.96-18.01-3.38-40.9 14.63-50.86l62.13-34.37c18.01-9.96 40.9-3.38 50.86 14.63l10.15 18.34c9.96 18.02 3.37 40.9-14.64 50.86z" fill="#ffb27d"/><path d="m1071.92 912.72-62.12 34.37c-18.01 9.96-40.9 3.38-50.86-14.63l-10.15-18.34c-9.96-18.01-3.38-40.9 14.63-50.86l62.13-34.37c18.01-9.96 40.9-3.38 50.86 14.63l10.15 18.34c9.95 18.01 3.37 40.9-14.64 50.86z" fill="#ffb27d"/><path d="m930.5 684.2c9.64-7.25 22.79-16.38 34.84-22.13 8.33-3.98 18.3-1.13 23.04 6.8l13.62 22.76c4.73 7.9 2.29 18.15-5.54 22.98-9.62 5.93-23.15 13.68-36.99 19.66-9.71 4.19-21.02.3-26.22-8.91l-8.27-14.66c-5.07-8.98-2.73-20.3 5.52-26.5z" fill="#ffc197"/><path d="m941.55 791.15c9.64-7.25 22.79-16.37 34.84-22.13 8.33-3.98 18.3-1.13 23.04 6.8l13.62 22.76c4.73 7.9 2.29 18.15-5.54 22.98-9.62 5.93-23.15 13.68-36.99 19.66-9.7 4.19-21.02.3-26.21-8.91l-8.27-14.66c-5.08-8.97-2.73-20.3 5.51-26.5z" fill="#ffc197"/><path d="m953.88 891.4c9.64-7.25 22.79-16.37 34.84-22.13 8.33-3.98 18.3-1.13 23.04 6.8l13.62 22.76c4.73 7.9 2.29 18.15-5.54 22.98-9.62 5.93-23.15 13.68-36.99 19.66-9.71 4.19-21.02.3-26.22-8.91l-8.27-14.66c-5.07-8.98-2.72-20.3 5.52-26.5z" fill="#ffc197"/><path d="m1289.87 1223.5 143.62 22.6-94.56-66.47-5.16 20.8-35.09 5.84z" fill="#ca5f00"/><path d="m1433.49 1246.1-118.87-63.47-117.29-7.59z" fill="#f1a34f"/><path d="m1338.93 1179.63 94.56 66.47-72.47-102.79z" fill="#f1a34f"/><path d="m1128.37 352.47-111.53-57.47 99.73 1.91-7.01 17.12 21.46 21.95z" fill="#ca5f00"/><path d="m1016.84 295 115.13 16.39 85.55 54.5z" fill="#f1a34f"/><path d="m1116.57 296.91-99.73-1.91 102.86-34.65z" fill="#f1a34f"/></svg>