<svg enable-background="new 0 0 640 480" viewBox="0 0 640 480" xmlns="http://www.w3.org/2000/svg"><path d="m155.75 189.03c0 1.74-1.39 3.16-3.11 3.16s-3.11-1.41-3.11-3.16c0-1.74 1.39-3.16 3.11-3.16 1.72.01 3.11 1.42 3.11 3.16z" fill="none" stroke="#d1d1f2" stroke-miterlimit="10" stroke-width="2.0209"/><ellipse cx="221.02" cy="75.28" fill="none" rx="4.17" ry="4.23" stroke="#d1d1f2" stroke-miterlimit="10" stroke-width="2.0209"/><path d="m361.9 172.5c0 1.27-1.02 2.3-2.27 2.3s-2.27-1.03-2.27-2.3 1.02-2.3 2.27-2.3 2.27 1.03 2.27 2.3z" fill="none" stroke="#d1d1f2" stroke-miterlimit="10" stroke-width="2.0209"/><path d="m188.04 79.16h-31.08c-.67 0-1.22-.55-1.22-1.22 0-.67.55-1.22 1.22-1.22h31.08c.67 0 1.22.55 1.22 1.22 0 .67-.55 1.22-1.22 1.22z" fill="#fff"/><path d="m363.49 145.56h-11.21c-.67 0-1.22-.55-1.22-1.22 0-.67.55-1.22 1.22-1.22h11.21c.67 0 1.22.55 1.22 1.22-.01.68-.55 1.22-1.22 1.22z" fill="#fff"/><path d="m331.69 74.29h-.24c-.97 0-1.76-.79-1.76-1.76v-.13c0-.97.79-1.76 1.76-1.76h.24c.97 0 1.76.79 1.76 1.76v.12c0 .98-.79 1.77-1.76 1.77z" fill="#64aef9"/><path d="m164.02 155.09-11.05 5.73 3.18 1.54-3.95 4.73 3.08 2.53 3.83-5.08 2.56 2.74z" fill="#fff"/><path d="m221.54 223.4h29.46c1.72 0 3.11-1.39 3.11-3.11 0-1.72-1.39-3.11-3.11-3.11h-29.46c-1.72 0-3.11 1.39-3.11 3.11.01 1.72 1.4 3.11 3.11 3.11z" fill="#0d005d"/><path d="m201.28 223.4h34.76c2.37 0 4.08-2.32 3.4-4.63l-16.6-57.22c-.45-1.54-1.83-2.59-3.4-2.59h-34.76c-2.37 0-4.08 2.32-3.4 4.63l16.6 57.22c.44 1.54 1.82 2.59 3.4 2.59z" fill="#0d005d"/><path d="m206.06 223.4h30.28c2.37 0 4.08-2.32 3.4-4.63l-16.6-57.22c-.45-1.54-1.83-2.59-3.4-2.59h-30.28c-2.37 0-4.08 2.32-3.4 4.63l16.6 57.22c.44 1.54 1.83 2.59 3.4 2.59z" fill="#b0adf9"/><path d="m201.29 223.4h36.79c1.72 0 3.11-1.39 3.11-3.11 0-1.72-1.39-3.11-3.11-3.11h-36.79c-1.72 0-3.11 1.39-3.11 3.11 0 1.72 1.39 3.11 3.11 3.11z" fill="#0d005d"/><path d="m250.04 245.84h8.91v12.05h-8.91z" fill="#eec4cb" transform="matrix(1 .00422868 -.00422868 1 1.0673 -1.0739)"/><path d="m245.4 244.98h19.02v6.41h-19.02z" fill="#64aef9" transform="matrix(-1 0 0 -1 509.8118 496.3711)"/><path d="m229.78 197.8-.63 3.84c-1.34 8.2 4.99 15.65 13.3 15.65h3.98v33.88l16.53.22.92-41.51c.12-6.6-5.19-12.02-11.79-12.04z" fill="#64aef9"/><path d="m246.44 244.68h16.68" fill="none" stroke="#0d005d" stroke-miterlimit="10" stroke-width="1.0285"/><path d="m249.94 256.16c2.1.56 6.9 2.04 9.13-1.19l15.05 8.15-26.57-.17 1.18-6c.09-.57.65-.94 1.21-.79z" fill="#0d005d"/><g fill="#fff"><path d="m247.54 263.04h26.57v2.3h-26.57z" transform="matrix(1 .00657415 -.00657415 1 1.7424 -1.709)"/><path d="m258.91 258.53c.07-.03.13-.08.17-.14.97-1.34 1.95-2 1.96-2.01.19-.13.24-.39.12-.58-.13-.19-.39-.24-.58-.12-.05.03-1.11.74-2.18 2.21-.14.19-.09.45.09.59.13.1.29.11.42.05z"/><path d="m260.96 259.61c.07-.03.13-.08.17-.14.97-1.34 1.95-2 1.96-2.01.19-.13.24-.39.12-.58-.13-.19-.39-.24-.58-.12-.05.03-1.11.74-2.18 2.21-.14.19-.09.45.09.59.13.09.28.11.42.05z"/><path d="m263 260.69c.07-.03.13-.08.17-.14.97-1.34 1.95-2 1.96-2.01.19-.13.24-.39.12-.58-.13-.19-.39-.24-.58-.12-.05.03-1.11.74-2.18 2.21-.14.19-.09.45.09.59.13.09.29.1.42.05z"/></g><path d="m226.71 245.84h8.91v12.05h-8.91z" fill="#eec4cb" transform="matrix(1 .00422868 -.00422868 1 1.0671 -.9753)"/><path d="m226.75 255.65c2.1.56 6.84 2.39 9.07-.84l15.05 8.15-26.57-.17 1.24-6.35c.09-.57.65-.94 1.21-.79z" fill="#0d005d"/><path d="m224.3 262.88h26.57v2.3h-26.57z" fill="#fff" transform="matrix(1 .00657415 -.00657415 1 1.7409 -1.5562)"/><path d="m235.67 258.38c.07-.03.13-.08.17-.14.97-1.34 1.95-2 1.96-2.01.19-.13.25-.39.12-.58s-.39-.24-.58-.12c-.05.03-1.11.74-2.18 2.21-.14.19-.09.45.09.59.13.09.28.1.42.05z" fill="#fff"/><path d="m237.71 259.45c.07-.03.13-.08.17-.14.97-1.34 1.95-2 1.96-2.01.19-.13.24-.39.12-.58-.13-.19-.39-.24-.58-.12-.05.03-1.11.74-2.18 2.21-.14.19-.09.45.09.59.13.1.29.11.42.05z" fill="#fff"/><path d="m239.76 260.53c.07-.03.13-.08.17-.14.97-1.34 1.95-2 1.96-2.01.19-.13.24-.39.12-.58-.13-.19-.39-.24-.58-.12-.05.03-1.11.74-2.18 2.21-.14.19-.09.45.09.59.13.1.29.11.42.05z" fill="#fff"/><path d="m222.07 244.98h19.02v6.41h-19.02z" fill="#64aef9" transform="matrix(-1 0 0 -1 463.1533 496.3711)"/><path d="m206.46 197.8-.63 3.84c-1.34 8.2 4.99 15.65 13.3 15.65h3.98v33.88l16.53.22.92-41.51c.12-6.6-5.19-12.02-11.79-12.04z" fill="#64aef9"/><path d="m223.11 244.81h16.68" fill="none" stroke="#0d005d" stroke-miterlimit="10" stroke-width="1.0285"/><path d="m240.68 217.84.05-8.57c0-6.47-5.21-11.72-11.63-11.73l-2.95-.01" fill="none" stroke="#0d005d" stroke-miterlimit="10" stroke-width="1.0285"/><path d="m245.28 156.47s8.21 11.21 14.03 24.47c.65 1.49.51 3.22-.38 4.57-2.02 3.05-7.31 2.35-9.34-.49 0 0-15.54-21.37-14.88-22.23.15-.21 10.57-6.32 10.57-6.32z" fill="#4b3de4"/><path d="m254.91 177.05 20.37-8.13 1.76 10.58-20.51 7.74c-.74.28-1.55.36-2.32.19-2.65-.59-4.53-3.18-4.04-6.02.4-2.37 2.35-4.16 4.74-4.36z" fill="#4b3de4"/><path d="m229.4 153.63 14.1 1.81c1.44.18 2.47 1.48 2.32 2.92l-9.11 39.52-30.26-.07 4.28-39.31c-.18-1.48.88-2.82 2.36-2.98z" fill="#4b3de4"/><path d="m241.83 174.79c0-.47 2.53-10.08 2.53-10.08" fill="none" stroke="#0d005d" stroke-miterlimit="10" stroke-width="1.0285"/><path d="m234.31 154.26 2.61.34s1.17 4.36-4.89 4.8c-6.31.46-8.8-1.88-10.02-5l6.95-1.36z" fill="#eec4cb"/><path d="m222.78 163.13s-7.68 15.22-16.36 27.48c-.97 1.37-3.27 2.06-4.95 1.99-3.8-.16-5.41-4.25-3.97-7.58 0 0 12.15-28.08 13.83-28.54.26-.08 11.45 6.65 11.45 6.65z" fill="#4b3de4"/><path d="m231.56 187.14-6.61-.51.21 6.62 5.72-.01z" fill="#eec4cb"/><path d="m203.1 182.35 23.75.71-.46 10.63-24.68-.52c-3.51-.47-5.65-4.12-4.35-7.41.92-2.31 3.28-3.71 5.74-3.41z" fill="#4b3de4"/><path d="m218.2 169-6.28 13.62 14.93.45.02 3.56" fill="none" stroke="#0d005d" stroke-miterlimit="10" stroke-width="1.0285"/><path d="m211.92 182.62-3.32 1.63" fill="none" stroke="#0d005d" stroke-miterlimit="10" stroke-width="1.0285"/><path d="m231.07 187.14s15.15-5.84 13.47 6.09h-14.54z" fill="#eec4cb"/><ellipse cx="238.85" cy="139.9" fill="#dc5871" rx="2.98" ry="2.98" transform="matrix(.4127 -.9109 .9109 .4127 12.8503 299.7262)"/><path d="m235.3 144.22-1.38 10.58c-.27 2.97-2.33 2.99-5.26 2.7-2.5-.25-4.56-1.19-4.63-3.7l1.07-11.48z" fill="#eec4cb"/><path d="m234.09 152.8-6.86-6.73 7.87.68z" fill="#dc5871"/><path d="m229.95 147.95 3.43.34c3.5.35 6.6-2.27 6.83-5.79l.52-7.91c.26-3.91-2.63-7.32-6.53-7.71-3.99-.4-8.25 2.45-8.65 6.44l-.44 9c-.14 2.87 1.98 5.34 4.84 5.63z" fill="#eec4cb"/><path d="m227.26 138.55 1.02-6.79s7.59 2.04 12.52.94l.06-.59c.23-2.32-1.54-4.52-3.8-5.05-2.09-.49-6-.79-8.45-.35-2.36.43-3.68 2.65-3.72 5.2l-.14 3.58z" fill="#0d005d"/><path d="m226.87 139.02-1.8 4.13.11-2.54z" fill="#0d005d"/><path d="m221.48 138.17c-.16 1.64 1.03 3.1 2.67 3.26s3.1-1.03 3.26-2.67-1.03-3.1-2.67-3.26-3.1 1.04-3.26 2.67z" fill="#eec4cb"/><path d="m225.39 139.45s.21-2.15-1.88-2.01" style="fill:none;stroke:#0d005d;stroke-width:.7606;stroke-linecap:round;stroke-linejoin:round;stroke-miterlimit:10"/><path d="m236.43 139.51.14 2.35-.95-.1" style="fill:none;stroke:#0d005d;stroke-width:.7606;stroke-linecap:round;stroke-linejoin:round;stroke-miterlimit:10"/><path d="m232.97 135.64s1.62-.08 1.58.78c0 0-.04.58-1.46.62-1.41.04-1.77-.12-1.86-.67-.09-.56.98-.76 1.74-.73z" fill="#0d005d"/><path d="m239.1 136.2s-1.32-.25-1.48.55c0 0-.1.54 1.05.73s1.55.02 1.69-.42c.16-.49-.63-.81-1.26-.86z" fill="#0d005d"/><path d="m236.28 143.01-4.48-.44s-.17 1.57 2.44 1.83c1.72.17 2.04-1.39 2.04-1.39z" fill="#fff"/><path d="m233.97 138.96c-.04.33-.34.55-.67.51s-.55-.34-.51-.67.34-.55.67-.51c.33.05.55.35.51.67z" fill="#0d005d"/><path d="m239.29 139.29c-.04.33-.34.55-.67.51s-.55-.34-.51-.67.34-.55.67-.51.56.34.51.67z" fill="#0d005d"/><path d="m258.11 139.8-7.37 36.64c-.32 1.57.88 3.03 2.48 3.03h53.08c1.19 0 2.23-.83 2.48-2l7.84-36.64c.34-1.58-.86-3.06-2.48-3.06h-53.54c-1.21 0-2.25.85-2.49 2.03z" fill="#0d005d"/><path d="m260.51 141.53-7.37 36.64c-.32 1.57.88 3.03 2.48 3.03h53.08c1.19 0 2.23-.83 2.48-2l7.84-36.64c.34-1.58-.86-3.06-2.48-3.06h-53.55c-1.21-.01-2.25.84-2.48 2.03z" fill="#fff"/><path d="m279.83 171.51-.99 9.69h4.31z" fill="#0d005d"/><path d="m279.83 171.31 4.4 21.69h16.02l-7.52-21.69z" fill="#fff"/><circle cx="288.45" cy="154.53" fill="none" r="3.24" stroke="#b8b6f1" stroke-miterlimit="10" stroke-width="2.0283"/><path d="m309.91 191.4h-54.21c-.48 0-.86.39-.86.86 0 .48.39.86.86.86h54.21c.48 0 .86-.39.86-.86.01-.48-.38-.86-.86-.86z" fill="#fff"/><path d="m278.78 266.17 23.72-70.48 19.08 69.62" fill="none" stroke="#0d005d" stroke-miterlimit="10" stroke-width="2.0283"/><path d="m168.68 193.13h168.53v4.77h-168.53z" fill="#0d005d" transform="matrix(-1 0 0 -1 505.8828 391.0261)"/><path d="m181.68 266.17 23.72-70.48 19.09 69.62" fill="none" stroke="#0d005d" stroke-miterlimit="10" stroke-width="2.0283"/><path d="m145.56 265.82h211.21" fill="none" stroke="#fff" stroke-miterlimit="10" stroke-width="2.0209"/></svg>