<svg enable-background="new 0 0 500 500" viewBox="0 0 500 500" xmlns="http://www.w3.org/2000/svg"><path d="m416.78 398.49h33.12v.25h-33.12z" fill="#ebebeb"/><path d="m322.53 401.21h8.69v.25h-8.69z" fill="#ebebeb"/><path d="m396.59 389.21h19.19v.25h-19.19z" fill="#ebebeb"/><path d="m52.46 390.89h43.19v.25h-43.19z" fill="#ebebeb"/><path d="m104.56 390.89h6.33v.25h-6.33z" fill="#ebebeb"/><path d="m131.47 395.11h93.68v.25h-93.68z" fill="#ebebeb"/><path d="m237.01 337.8h-193.09c-3.15 0-5.71-2.56-5.71-5.71v-271.43c0-3.15 2.56-5.71 5.71-5.71h193.1c3.15 0 5.71 2.56 5.71 5.71v271.43c-.01 3.15-2.57 5.71-5.72 5.71zm-193.09-282.6c-3.01 0-5.46 2.45-5.46 5.46v271.43c0 3.01 2.45 5.46 5.46 5.46h193.1c3.01 0 5.46-2.45 5.46-5.46v-271.43c0-3.01-2.45-5.46-5.46-5.46z" fill="#ebebeb"/><path d="m453.31 337.8h-193.1c-3.15 0-5.71-2.56-5.71-5.71v-271.43c0-3.15 2.56-5.71 5.71-5.71h193.1c3.15 0 5.71 2.56 5.71 5.71v271.43c0 3.15-2.56 5.71-5.71 5.71zm-193.1-282.6c-3.01 0-5.46 2.45-5.46 5.46v271.43c0 3.01 2.45 5.46 5.46 5.46h193.1c3.01 0 5.46-2.45 5.46-5.46v-271.43c0-3.01-2.45-5.46-5.46-5.46z" fill="#ebebeb"/><path d="m0 382.4h500v.25h-500z" fill="#ebebeb"/><path d="m245.65 270.87h185.13v99.63h-185.13z" fill="#e6e6e6"/><path d="m248.86 374.64h11.64v8.79h-11.64z" fill="#e6e6e6"/><path d="m433.28 263.46h11.64v119.97h-11.64z" fill="#e6e6e6"/><path d="m430.31 263.46h-3.1-178.35-3.1-3.1v119.97h6.21v-6.72h178.35v6.72h6.21v-119.97zm-3.1 52.53h-86.07v-41.67h86.07zm-178.35-41.67h86.07v91.53h-86.07zm92.28 91.53v-43.66h86.07v43.66z" fill="#f0f0f0"/><path d="m254.67 278.8h80.26v87.05h-80.26z" fill="#f5f5f5"/><path d="m331.3 319.72c0 2.06-1.67 3.73-3.73 3.73s-3.73-1.67-3.73-3.73 1.67-3.73 3.73-3.73 3.73 1.67 3.73 3.73z" fill="#fafafa"/><path d="m327.57 323.45c-1.5 0-2.79-.9-3.38-2.18-.22.47-.35 1-.35 1.55 0 2.06 1.67 3.73 3.73 3.73s3.73-1.67 3.73-3.73c0-.56-.13-1.08-.35-1.55-.59 1.28-1.88 2.18-3.38 2.18z" fill="#e0e0e0"/><path d="m285.8 365.85h19.15l9.15-87.05h-19.15z" fill="#fafafa"/><path d="m309.85 365.85h3.81l9.15-87.05h-3.81z" fill="#fafafa"/><path d="m352.95 278.71h7.58v37.23h-7.58z" fill="#fafafa"/><path d="m384.4 278.71h7.58v37.23h-7.58z" fill="#f5f5f5"/><path d="m360.53 281.33h7.58v34.62h-7.58z" fill="#f5f5f5"/><path d="m376.81 281.33h7.58v34.62h-7.58z" fill="#fafafa"/><path d="m371.91 278.71h4.9v37.23h-4.9z" fill="#ebebeb"/><path d="m368.12 281.33h3.79v34.62h-3.79z" fill="#fafafa"/><path d="m391.98 278.71h7.58v37.23h-7.58z" fill="#ebebeb"/><path d="m399.56 281.33h7.58v34.62h-7.58z" fill="#e6e6e6"/><path d="m415.84 281.33h7.58v34.62h-7.58z" fill="#e6e6e6"/><path d="m410.94 278.71h4.9v37.23h-4.9z" fill="#fafafa"/><path d="m407.15 281.33h3.79v34.62h-3.79z" fill="#ebebeb"/><path d="m423.43 279.6h3.79v36.35h-3.79z" fill="#ebebeb"/><path d="m419.63 328.62h7.58v37.23h-7.58z" fill="#ebebeb" transform="matrix(-1 0 0 -1 846.8542 694.4655)"/><path d="m388.19 328.62h7.58v37.23h-7.58z" fill="#fafafa" transform="matrix(-1 0 0 -1 783.961 694.4655)"/><path d="m412.05 331.23h7.58v34.62h-7.58z" fill="#fafafa" transform="matrix(-1 0 0 -1 831.6854 697.082)"/><path d="m395.77 331.23h7.58v34.62h-7.58z" fill="#ebebeb" transform="matrix(-1 0 0 -1 799.1298 697.082)"/><path d="m403.36 328.62h4.9v37.23h-4.9z" fill="#fafafa" transform="matrix(-1 0 0 -1 811.6154 694.4655)"/><path d="m408.26 331.23h3.79v34.62h-3.79z" fill="#f5f5f5" transform="matrix(-1 0 0 -1 820.3088 697.082)"/><path d="m380.6 328.62h7.58v37.23h-7.58z" fill="#ebebeb" transform="matrix(-1 0 0 -1 768.7922 694.4655)"/><path d="m373.02 331.23h7.58v34.62h-7.58z" fill="#f5f5f5" transform="matrix(-1 0 0 -1 753.6233 697.082)"/><path d="m356.74 331.23h7.58v34.62h-7.58z" fill="#e6e6e6" transform="matrix(-1 0 0 -1 721.0677 697.082)"/><path d="m364.33 328.62h4.9v37.23h-4.9z" fill="#fafafa" transform="matrix(-1 0 0 -1 733.5533 694.4655)"/><path d="m348.05 328.62h4.9v37.23h-4.9z" fill="#fafafa" transform="matrix(-1 0 0 -1 700.9977 694.4655)"/><path d="m369.23 331.23h3.79v34.62h-3.79z" fill="#ebebeb" transform="matrix(-1 0 0 -1 742.2466 697.082)"/><path d="m352.95 329.5h3.79v36.35h-3.79z" fill="#ebebeb" transform="matrix(-1 0 0 -1 709.691 695.3474)"/><path d="m168.48 140.63c-.24-20.71-11.82-40.01-30.48-49.31-18.59-9.27-41.39-7.15-57.93 5.4-13.87 10.52-21.69 26.93-21.82 44.25-.04 5.1 0 10.2 0 15.29v77.43 93.29 34.4c0 5.64-.67 11.74 0 17.35.03.25 0 .52 0 .77 0 1.77 2.75 1.77 2.75 0 0-13.19 0-26.39 0-39.58 0-28.6 0-57.21 0-85.81 0-27.44 0-54.87 0-82.31 0-8.28 0-16.56 0-24.84 0-7.68.15-15.15 2.58-22.6 6.95-21.3 27.4-36.09 49.78-36.09 22.39 0 42.84 14.79 49.78 36.09 1.72 5.27 2.51 10.73 2.58 16.27.02 1.77 2.78 1.77 2.76 0z" fill="#f5f5f5"/><path d="m195.28 147.92c0-18.12-14.69-32.82-32.82-32.82-18.12 0-32.82 14.69-32.82 32.82z" fill="#f0f0f0"/><path d="m165.98 115.29c16.47 1.76 29.3 15.69 29.3 32.63h-58.59c0-16.94 12.83-30.87 29.29-32.63z" fill="#f5f5f5"/><path d="m51.72 284.78h16v97.67h-16z" fill="#f5f5f5"/><path d="m82.87 383.06h-46.51v-.27c0-3.24 2.63-5.86 5.86-5.86h34.78c3.24 0 5.86 2.63 5.86 5.86v.27z" fill="#f5f5f5"/><path d="m416.76 238.1 1.26-9.75h-11.04l1.26 9.75c-5.11 1.77-8.78 6.61-8.78 12.32 0 4.05 1.85 9.26 4.75 13.04h16.6c2.9-3.78 4.75-8.98 4.75-13.04-.01-5.71-3.69-10.55-8.8-12.32z" fill="#f5f5f5"/><path d="m423.91 198.52s-12.19 19.17-11.75 42.83c0-.01 6.57-28.56 11.75-42.83z" fill="#f0f0f0"/><path d="m401.41 188.5s15.28 22.42 11.98 50.58c0 0-5.41-35.58-11.98-50.58z" fill="#f0f0f0"/><path d="m413.16 245.91s3.97-29.12-13.92-37.91c0 0 9.49 7.31 13.92 37.91z" fill="#f5f5f5"/><path d="m415 254.32c-.05-.34-4.63-34.29 2.26-63.51l.97.23c-6.85 29.04-2.29 62.81-2.24 63.14z" fill="#f5f5f5"/><path d="m414.81 191.33-.33.07c-.5.11-.8.63-.65 1.12l.45 1.44c.2.63 1 .82 1.46.35l.52-.54c.44-.45 1.2-.3 1.44.28l.79 1.98c.2.51.82.71 1.28.41l1.64-1.05c.47-.3.54-.97.14-1.36l-.27-.27c-.54-.53-.2-1.46.56-1.5l1.45-.08c.52-.03.9-.5.81-1.02l-.2-1.23c-.1-.59-.74-.91-1.27-.63l-.1.05c-.72.38-1.52-.35-1.22-1.1l.44-1.11c.22-.54-.14-1.14-.72-1.2l-1.56-.16c-.52-.05-.96.35-.96.87 0 .88-1.16 1.21-1.62.45l-.22-.36c-.29-.48-.96-.57-1.37-.17l-1.12 1.11c-.36.36-.34.95.04 1.28l.94.82c.58.51.35 1.4-.35 1.55z" fill="#ebebeb"/><ellipse cx="245.18" cy="412.39" fill="#f5f5f5" rx="193.89" ry="11.32"/><path d="m216.03 303.12h10.08v46.8h-10.08z" fill="#407bff" transform="matrix(-1 0 0 -1 442.1299 653.0353)"/><path d="m216.03 303.12h10.08v46.8h-10.08z" fill="#fff" opacity=".3" transform="matrix(-1 0 0 -1 442.1299 653.0353)"/><path d="m228.27 250.14h8.06v46.8h-8.06z" fill="#407bff" transform="matrix(-1 0 0 -1 464.5988 547.0722)"/><path d="m228.27 250.14h8.06v46.8h-8.06z" fill="#fff" opacity=".3" transform="matrix(-1 0 0 -1 464.5988 547.0722)"/><path d="m252.96 276.55c-13.74 1.17-27.57 1.17-41.31 0-9.64-.82-17.4-9.93-17.4-19.56 0-7.59 0-11.39 0-18.98 0-9.63 7.76-16.15 17.4-15.33 13.74 1.17 27.57 1.17 41.31 0 9.64-.82 17.4 5.69 17.4 15.33v18.98c-.01 9.63-7.77 18.74-17.4 19.56z" fill="#407bff"/><path d="m252.96 276.55c-13.74 1.17-27.57 1.17-41.31 0-9.64-.82-17.4-9.93-17.4-19.56 0-7.59 0-11.39 0-18.98 0-9.63 7.76-16.15 17.4-15.33 13.74 1.17 27.57 1.17 41.31 0 9.64-.82 17.4 5.69 17.4 15.33v18.98c-.01 9.63-7.77 18.74-17.4 19.56z" fill="#fff" opacity=".4"/><path d="m262.61 310.33h-83.09c-2.13 0-3.85-1.72-3.85-3.85v-1.84c0-4.82 3.91-8.73 8.73-8.73h73.33c4.82 0 8.73 3.91 8.73 8.73v1.84c0 2.13-1.72 3.85-3.85 3.85z" fill="#407bff"/><path d="m262.61 310.33h-83.09c-2.13 0-3.85-1.72-3.85-3.85v-1.84c0-4.82 3.91-8.73 8.73-8.73h73.33c4.82 0 8.73 3.91 8.73 8.73v1.84c0 2.13-1.72 3.85-3.85 3.85z" fill="#fff" opacity=".4"/><path d="m265.62 399.21-38.3-7.74c.03-.12.05-.25.05-.39v-43.7c0-.86-.69-1.55-1.55-1.55h-9.51c-.86 0-1.55.69-1.55 1.55v43.7c0 .13.02.26.05.39l-38.3 7.74c-.49.1-.84.53-.84 1.03v1.74c0 .64.57 1.14 1.21 1.04l41.93-6.35v5.09c0 .69.56 1.24 1.24 1.24h2.03c.69 0 1.24-.56 1.24-1.24v-5.09l41.93 6.35c.64.1 1.21-.4 1.21-1.04v-1.74c0-.5-.35-.93-.84-1.03z" fill="#407bff"/><path d="m265.62 399.21-38.3-7.74c.03-.12.05-.25.05-.39v-43.7c0-.86-.69-1.55-1.55-1.55h-9.51c-.86 0-1.55.69-1.55 1.55v43.7c0 .13.02.26.05.39l-38.3 7.74c-.49.1-.84.53-.84 1.03v1.74c0 .64.57 1.14 1.21 1.04l41.93-6.35v5.09c0 .69.56 1.24 1.24 1.24h2.03c.69 0 1.24-.56 1.24-1.24v-5.09l41.93 6.35c.64.1 1.21-.4 1.21-1.04v-1.74c0-.5-.35-.93-.84-1.03z" fill="#fff" opacity=".4"/><path d="m268.67 215.57s-5.99 39.28-4.99 73.69 6.98 96.76 6.98 96.76h16.46s-1.59-75.81-.29-95.26c1.29-19.45 13.72-75.99 13.72-75.99z" fill="#407bff"/><path d="m268.67 215.57s-5.99 39.28-4.99 73.69 6.98 96.76 6.98 96.76h16.46s-1.59-75.81-.29-95.26c1.29-19.45 13.72-75.99 13.72-75.99z" opacity=".6"/><path d="m292.71 228.25-2.85-1.24s-6.77 37.18-2.76 60.58c1.25-12.23 5.34-33.69 8.68-50.16z" opacity=".4"/><path d="m282.15 387.85.32 10.1-6.94.16-.83-10.81z" fill="#ffc3bd"/><path d="m275.12 392.7h7.18l-.15-4.85-4.48-.34h-2.95z" opacity=".1"/><path d="m271.55 398.63c-1-.03-2.02-.25-2.33-.69-.16-.26-.14-.59.04-.82.14-.22.36-.37.61-.42 1.35-.32 4.09 1.37 4.21 1.45.07.04.1.12.08.2s-.08.14-.16.15c-.81.11-1.63.16-2.45.13zm-1.22-1.6c-.12-.01-.25.01-.36.03-.16.02-.3.11-.38.25-.15.23-.1.35-.05.41.35.53 2.37.62 3.87.48-.95-.57-1.99-.97-3.08-1.17z" fill="#407bff"/><path d="m273.97 398.49c-.03.01-.05 0-.08-.01-.94-.46-2.81-2.26-2.61-3.15.03-.22.2-.47.72-.51.38-.03.76.1 1.04.36.99.87 1.13 3.04 1.14 3.14 0 .07-.03.13-.09.17-.03.01-.07.01-.12 0zm-1.84-3.31-.11-.01c-.34.02-.37.15-.39.2-.07.54 1.15 1.94 2.12 2.56-.06-.91-.41-1.78-.98-2.49-.17-.16-.4-.26-.64-.26z" fill="#407bff"/><path d="m274.86 397.4 8.74.3c.33.01.61.25.67.57l1.33 7.16c.12.63-.29 1.25-.93 1.37-.08.02-.16.02-.25.02-3.15-.16-5.94-.43-9.87-.56-4.63-.16-3.47.44-8.92.33-3.28-.07-3.75-3.82-2.36-3.95 6.39-.58 7.12-2.48 9.65-4.67.57-.42 1.25-.62 1.94-.57z" fill="#263238"/><path d="m268.7 385.02 1 4.99h18.45v-4.99z" fill="#407bff"/><path d="m325.63 384.85 1.32 13.1-6.94.16-1.83-11.81z" fill="#ffc3bd"/><path d="m316.02 398.63c-1-.03-2.02-.25-2.33-.69-.16-.26-.14-.59.04-.82.14-.22.36-.37.61-.42 1.35-.32 4.09 1.37 4.21 1.45.07.04.1.12.08.2s-.08.14-.16.15c-.81.11-1.63.16-2.45.13zm-1.22-1.6c-.12-.01-.25.01-.36.03-.16.02-.3.11-.38.25-.15.23-.1.35-.05.41.35.53 2.37.62 3.87.48-.95-.57-1.99-.97-3.08-1.17z" fill="#407bff"/><path d="m318.45 398.49c-.03.01-.05 0-.08-.01-.94-.46-2.81-2.26-2.61-3.15.03-.22.2-.47.72-.51.38-.03.76.1 1.04.36.99.87 1.13 3.04 1.14 3.14 0 .07-.03.13-.09.17-.03.01-.08.01-.12 0zm-1.85-3.31-.11-.01c-.34.02-.37.15-.39.2-.07.54 1.15 1.94 2.12 2.56-.06-.91-.41-1.78-.98-2.49-.17-.16-.4-.26-.64-.26z" fill="#407bff"/><path d="m319.33 397.4 8.74.3c.33.01.61.25.67.57l1.33 7.16c.12.63-.29 1.25-.93 1.37-.08.02-.16.02-.25.02-3.15-.16-5.94-.43-9.87-.56-4.63-.16-3.47.44-8.92.33-3.28-.07-3.75-3.82-2.36-3.95 6.39-.58 7.12-2.48 9.65-4.67.57-.42 1.26-.62 1.94-.57z" fill="#263238"/><path d="m319.02 391.75 7.23-.69-.42-4.15-7.45.72z" opacity=".1"/><path d="m288.72 214.52s.71 49.12 8.28 85.87c7.58 36.75 16.93 85.63 16.93 85.63l15.58-1.99s-5.14-53.86-10.05-94.76-6.9-77.56-6.9-77.56z" fill="#407bff"/><path d="m288.72 214.52s.71 49.12 8.28 85.87c7.58 36.75 16.93 85.63 16.93 85.63l15.58-1.99s-5.14-53.86-10.05-94.76-6.9-77.56-6.9-77.56z" opacity=".6"/><path d="m312.23 385.15 1.51 4.86 18.35-1.94-.52-4.96z" fill="#407bff"/><path d="m296.8 145.88c-4.94.11-9.37.68-13.34 1.56-1.27 3.1-3.53 8.64-4.1 10.4-.8 2.49-.32 8.67-1.69 8.95s-4.3-2.96-6.67-7.32c-1.25-2.31-3.05-3.97-4.46-5.02-10.1 6.63-13.6 14.69-13.6 14.69 13.38 17.7 14.71 53.36 14.71 53.36 31.22 2.9 46.29-4.9 46.29-4.9-6.15-25.58-10.95-57.05-12.52-67.85-.34-2.28-2.32-3.92-4.62-3.87z" fill="#407bff"/><g opacity=".7"><path d="m296.8 145.88c-4.94.11-9.37.68-13.34 1.56-1.27 3.1-3.53 8.64-4.1 10.4-.8 2.49-.32 8.67-1.69 8.95s-4.3-2.96-6.67-7.32c-1.25-2.31-3.05-3.97-4.46-5.02-10.1 6.63-13.6 14.69-13.6 14.69 13.38 17.7 14.71 53.36 14.71 53.36 31.22 2.9 46.29-4.9 46.29-4.9-6.15-25.58-10.95-57.05-12.52-67.85-.34-2.28-2.32-3.92-4.62-3.87z" fill="#fff"/><path d="m259.77 172.63s4.88 1.54 9.12 10.33c9.77 20.24-1.72 18.33-1.72 18.33s-4.9-22.6-7.4-28.66z" opacity=".1"/><path d="m304.77 171.18c-.91-5.47-1.69-10.38-2.3-14.39l-.96-.45-3.86 1.04s2.72 7.58 7.12 13.8z" opacity=".1"/></g><path d="m318.09 149.22s22.02 4.03 25.68 7.36 13.3 18.63 16.63 23.44c3.32 4.82 4.23 17.08-1.87 16.6-6.11-.48-3.57-8.62-3.57-8.62s-2.2-3.16-2.03-7.48c0 0-7.81-7.81-15.13-16.13l-19.23-4.32z" fill="#ffc3bd"/><path d="m297.25 149.22s1.5-6.94 19.35-2.37c0 0 .73 7.67.56 15.52 0 0-17.79 2.15-19.29-3.98-1.49-6.14-.62-9.17-.62-9.17z" fill="#407bff"/><path d="m297.25 149.22s1.5-6.94 19.35-2.37c0 0 .73 7.67.56 15.52 0 0-17.79 2.15-19.29-3.98-1.49-6.14-.62-9.17-.62-9.17z" fill="#fff" opacity=".7"/><path d="m315.42 145.86s1.03 4.4 1.18 17.53h3.86s1.19-10.38-1.22-17.53z" fill="#407bff"/><path d="m282.17 121.78s2.53 2.99 7.02 2.66c0 0-3.64 2.91-8.34.67 0 0-2.27-3.88 1.32-3.33z" fill="#263238"/><path d="m267.14 155.34c.59-5.23-.83-8.92-1.02-15.26l11.78-4.54c.96 6 1.32 13.4 6.46 14.58 0 0-3.6 2.76-4.57 6.04-1.36 4.57-.45 10.13-2.63 10.59-3.75.77-7.48-10.75-10.02-11.41z" fill="#ffc3bd"/><path d="m279.49 144.42c.35 1.35.96 2.62 1.79 3.74-5.85 3.18-10.21 1.32-13.11-1.86 3.68-1.12 7.49-1.75 11.32-1.88z" opacity=".2"/><path d="m261.34 129.5c1.05 8.06 1.23 12.84 5.61 16.68 6.58 5.78 16.33 1.31 17.73-6.92 1.25-7.41-.67-19.35-8.81-21.97-5.89-1.89-12.21 1.35-14.1 7.25-.51 1.6-.66 3.3-.43 4.96z" fill="#ffc3bd"/><path d="m280.17 132.69s1.75 3.68 3.53 5.4c-1.09 1.18-3.11.83-3.11.83z" fill="#ed893e"/><path d="m274.86 131.28c.03.65.39 1.16.81 1.15s.75-.56.74-1.2c-.02-.65-.39-1.16-.81-1.15-.43.01-.73.59-.74 1.2z" fill="#263238"/><path d="m282.17 131.05c.03.66.39 1.16.81 1.15s.75-.56.74-1.2c-.02-.65-.39-1.16-.81-1.14s-.75.55-.74 1.19z" fill="#263238"/><path d="m271.86 129.91c.16.02.33-.06.39-.22.67-1.06 1.75-1.79 2.99-2.02.21-.04.35-.23.32-.44-.03-.2-.23-.34-.43-.31h-.01c-1.48.26-2.78 1.16-3.55 2.45-.09.19 0 .41.19.5.02.03.06.04.1.04z" fill="#263238"/><path d="m284.26 127.6c.14.02.27-.04.36-.15.13-.17.09-.41-.07-.54-.96-.79-2.25-1.05-3.45-.69-.19.06-.3.26-.24.45 0 .01.01.02.01.03.07.2.28.3.48.23h.01c.94-.25 1.94-.03 2.69.58.06.06.13.09.21.09z" fill="#263238"/><path d="m272.93 138.96s2.85 2.32 6.43 1.24c0 0-.25 1-.2 3.16 0 .01-5.22 2.13-6.23-4.4z" fill="#263238"/><path d="m278.42 140.41c-3.12.47-5.49-1.45-5.49-1.45.08.53.19.99.31 1.43 1.02.83 2.63 1.69 4.87 1.48z" fill="#fff"/><path d="m278.85 143.47c-.67-1.46-3.37-1.39-4.67-1.27 1.53 1.96 3.84 1.51 4.67 1.27z" fill="#c13b37"/><path d="m261.93 136.74s7.73-1.57 2.99-10.38c0 0 4.91-.14 6.61-3.64 0 0 12.76 2.98 15.67-1.76l-3.48-.49s5.86-.84 4.13-5.66c0 0-2.52 2.59-5.91 1.96 0 0 4.62-4.53-.46-6.11 0 0-2.47 3.74-13.3 3.08s-13.14 5.57-12.32 8.48l.42 1.42s-4 6.41 1.41 10.39c5.4 3.96 4.24 2.71 4.24 2.71z" fill="#263238"/><path d="m256.27 123.62s-3.49-.87-3.19-3.94h-.06c-.33 1.18-1.17 5.42 3.92 5z" fill="#263238"/><path d="m258.5 136.76c.65 1.93 2.05 3.53 3.89 4.42 2.45 1.18 4.16-.89 3.89-3.44-.24-2.29-1.79-5.67-4.45-5.78-2.66-.1-4.1 2.43-3.33 4.8z" fill="#ffc3bd"/><path d="m266.33 153.08s7.03 4.61 11.02 12.59c0 0 .59-14.59 5.03-18.83h4.44v5.61l-4.44.37 4.44 2.92s-7.86 9.67-8.73 14.16c0 0-5.96-5.74-9.71-7.23l.86-3.37-3.49 1.75-1.87-4.74z" fill="#407bff"/><path d="m327.1 226.07-36.39-11.55-4.73-38.99 36.39 11.55z" fill="#407bff"/><path d="m327.1 226.07 32.57-19.91-4.73-39-32.57 19.92z" fill="#407bff"/><path d="m327.1 226.07 32.57-19.91-4.73-39-32.57 19.92z" opacity=".2"/><path d="m354.94 167.16-32.57 19.92-36.39-11.55 32.57-19.92z" fill="#407bff"/><path d="m354.94 167.16-32.57 19.92-36.39-11.55 32.57-19.92z" opacity=".5"/><path d="m354.94 167.16s-36.32-11.53-36.37-11.54l3.82 31.45z" fill="#407bff"/><path d="m354.94 167.16s-36.32-11.53-36.37-11.54l3.82 31.45z" opacity=".3"/><path d="m322.37 187.08-10.6 17.25-36.39-11.55 10.6-17.25z" fill="#407bff"/><path d="m322.37 187.08-10.6 17.25-36.39-11.55 10.6-17.25z" fill="#fff" opacity=".3"/><path d="m322.37 187.08 14.42 14.22 32.57-19.92-14.42-14.22z" fill="#407bff"/><path d="m322.37 187.08 14.42 14.22 32.57-19.92-14.42-14.22z" fill="#fff" opacity=".3"/><path d="m365.43 169.01c-3.57-1.13-36.06-11.44-36.06-11.44l-10.82-1.96 36.39 11.55 10.48 1.9v-.05z" fill="#407bff"/><path d="m365.43 169.01c-3.57-1.13-36.06-11.44-36.06-11.44l-10.82-1.96 36.39 11.55 10.48 1.9v-.05z" fill="#fff" opacity=".2"/><path d="m308.51 160.1s-31.35 19.17-32.16 19.67v.07l9.62-4.3 32.57-19.92z" fill="#407bff"/><path d="m308.51 160.1s-31.35 19.17-32.16 19.67v.07l9.62-4.3 32.57-19.92z" fill="#fff" opacity=".2"/><path d="m251.86 190.48s-7.74-12.33 0-20.82 15.43 15.1 15.43 15.1-6.81-1.78-15.43 5.72z" fill="#407bff"/><path d="m251.86 190.48s-7.74-12.33 0-20.82 15.43 15.1 15.43 15.1-6.81-1.78-15.43 5.72z" fill="#fff" opacity=".7"/><path d="m265.79 186s5.65 11.31 8.15 16.63c0 0 7.97 3.25 24.93 5.7 0 0 8.62-5.01 13.31-3.04 5.17 2.18 6.56 4.51 4.16 7.31s-7.15 1.83-7.15 1.83-3.66 1.14-8.65.33c0 0-15.36.46-29.43-2.66-8.61-1.91-16.13-22.17-16.13-22.17z" fill="#ffc3bd"/><path d="m250.7 190.48s2.59-3.98 7.7-5.73 9.28-1.18 9.28-1.18l.94 4.17s-6.64-1.16-15.68 5.74z" fill="#407bff"/><path d="m343.77 206.41v1.54l-4.79 2.76v-1.24l2.67-5.75-2.62 1.51v-1.54l4.69-2.71v1.24l-2.67 5.75z" fill="#fff"/><path d="m346.22 199.56v6.98l-1.6.92v-6.98z" fill="#fff"/><path d="m352.5 198.32c0 1.33-1.07 3.01-2.44 3.8l-1.05.6v2.19l-1.6.92v-6.98l2.64-1.53c1.38-.77 2.45-.32 2.45 1zm-1.59.92c0-.51-.36-.69-.85-.41l-1.05.6v1.79l1.05-.6c.49-.27.85-.87.85-1.38z" fill="#fff"/><path d="m405.84 208.12-34.94-16.28c-.6-.28-.86-1-.58-1.6l21.76-46.72c.28-.6 1-.86 1.6-.58l21.52 10.03 7.69 21.39-15.46 33.18c-.27.6-.98.86-1.59.58z" fill="#407bff"/><path d="m422.9 174.35-7.69-21.38-1.14-.53-8.31 17.83 15.65 7.29z" opacity=".1"/><path d="m422.96 174.23-14.51-6.75 6.76-14.51z" fill="none"/><path d="m422.96 174.23-14.51-6.75 6.76-14.51z" opacity=".2"/><path d="m385.31 166.93h28.51v18.07h-28.51z" fill="#407bff" transform="matrix(.9065 .4223 -.4223 .9065 111.6797 -152.2728)"/><path d="m385.31 166.93h28.51v18.07h-28.51z" fill="#fff" opacity=".7" transform="matrix(.9065 .4223 -.4223 .9065 111.6797 -152.2728)"/><path d="m392.7 175.88-8.25 3 11.25 5.25z" fill="#407bff"/><path d="m392.7 175.88-8.25 3 11.25 5.25z" fill="#fff" opacity=".2"/><path d="m393.17 182.95 15.5 7.22.7-1.5-3.74-10.26z" fill="#407bff"/><path d="m393.17 182.95 15.5 7.22.7-1.5-3.74-10.26z" fill="#fff" opacity=".4"/><path d="m400.85 173.68c-.71 1.52-2.52 2.18-4.05 1.47-1.52-.71-2.18-2.52-1.47-4.05.71-1.52 2.52-2.18 4.05-1.47 1.52.71 2.18 2.52 1.47 4.05z" fill="#fff"/><path d="m306.76 106.74 2.9 2.87 3.94-1.04 1.08 3.94 3.93 1.07-1.03 3.95 2.87 2.9-2.87 2.9 1.03 3.94-3.93 1.08-1.08 3.94-3.94-1.04-2.9 2.87-2.9-2.87-3.95 1.04-1.07-3.94-3.94-1.08 1.04-3.94-2.88-2.9 2.88-2.9-1.04-3.95 3.94-1.07 1.07-3.94 3.95 1.04z" fill="#407bff"/><path d="m304.82 117.41c0 .76-.62 1.26-1.39 1.26h-1.81v-4.31h1.69c.75 0 1.36.49 1.36 1.23 0 .36-.14.64-.38.84.32.21.53.54.53.98zm-2.22-2.12v.76h.7c.22 0 .38-.16.38-.38s-.15-.38-.38-.38zm1.23 2.05c0-.24-.16-.41-.41-.41h-.82v.82h.82c.25 0 .41-.17.41-.41z" fill="#fff"/><path d="m306.63 114.36v4.31h-.98v-4.31z" fill="#fff"/><path d="m311.9 116.64c0 1.32-.92 2.12-2.12 2.12-1.35 0-2.33-1-2.33-2.23 0-1.25.99-2.25 2.26-2.25.82 0 1.52.41 1.88.98l-.84.48c-.18-.28-.57-.5-1.05-.5-.73 0-1.27.54-1.27 1.29 0 .73.52 1.27 1.35 1.27.57 0 .95-.25 1.1-.66h-1.15v-.86h2.16v.36z" fill="#fff"/><path d="m303.86 122.67c0 1.22-.9 2.15-2.09 2.15h-1.72v-4.31h1.72c1.19 0 2.09.94 2.09 2.16zm-.94 0c0-.74-.47-1.21-1.14-1.21h-.74v2.41h.74c.67 0 1.14-.46 1.14-1.2z" fill="#fff"/><path d="m307.4 123.87v.95h-2.71v-4.31h2.68v.95h-1.69v.71h1.54v.94h-1.54v.76z" fill="#fff"/><path d="m310.8 124.14h-1.6l-.22.68h-1.08l1.46-4.31h1.26l1.46 4.31h-1.08zm-.3-.92-.5-1.58-.5 1.58z" fill="#fff"/><path d="m315.22 123.87v.95h-2.52v-4.31h.98v3.36z" fill="#fff"/><path d="m371.86 117.04c.72 1.24 2.05 2.01 3.49 2.01 2.23.01 4.03 1.81 4.04 4.04.01 1.44.77 2.76 2.01 3.49 1.92 1.12 2.58 3.59 1.48 5.52-.71 1.25-.71 2.78 0 4.03 1.1 1.93.44 4.4-1.48 5.52-1.24.72-2.01 2.05-2.01 3.49-.01 2.23-1.81 4.03-4.04 4.04-1.44.01-2.76.77-3.49 2.01-1.12 1.92-3.59 2.58-5.52 1.48-1.25-.71-2.78-.71-4.03 0-1.93 1.1-4.4.44-5.52-1.48-.72-1.24-2.05-2.01-3.49-2.01-2.23-.01-4.03-1.81-4.04-4.04-.01-1.44-.77-2.76-2.01-3.49-1.92-1.12-2.58-3.59-1.48-5.52.71-1.25.71-2.78 0-4.03-1.1-1.93-.44-4.4 1.48-5.52 1.24-.72 2.01-2.05 2.01-3.49.01-2.23 1.81-4.03 4.04-4.04 1.44-.01 2.76-.77 3.49-2.01 1.12-1.92 3.59-2.58 5.52-1.48 1.25.71 2.78.71 4.03 0 1.93-1.1 4.4-.44 5.52 1.48z" fill="#407bff"/><path d="m371.86 117.04c.72 1.24 2.05 2.01 3.49 2.01 2.23.01 4.03 1.81 4.04 4.04.01 1.44.77 2.76 2.01 3.49 1.92 1.12 2.58 3.59 1.48 5.52-.71 1.25-.71 2.78 0 4.03 1.1 1.93.44 4.4-1.48 5.52-1.24.72-2.01 2.05-2.01 3.49-.01 2.23-1.81 4.03-4.04 4.04-1.44.01-2.76.77-3.49 2.01-1.12 1.92-3.59 2.58-5.52 1.48-1.25-.71-2.78-.71-4.03 0-1.93 1.1-4.4.44-5.52-1.48-.72-1.24-2.05-2.01-3.49-2.01-2.23-.01-4.03-1.81-4.04-4.04-.01-1.44-.77-2.76-2.01-3.49-1.92-1.12-2.58-3.59-1.48-5.52.71-1.25.71-2.78 0-4.03-1.1-1.93-.44-4.4 1.48-5.52 1.24-.72 2.01-2.05 2.01-3.49.01-2.23 1.81-4.03 4.04-4.04 1.44-.01 2.76-.77 3.49-2.01 1.12-1.92 3.59-2.58 5.52-1.48 1.25.71 2.78.71 4.03 0 1.93-1.1 4.4-.44 5.52 1.48z" fill="#fff" opacity=".8"/><path d="m353.75 130.7-.21 1.31-3.5-.55.95-5.97 1.36.22-.74 4.66z" fill="#407bff"/><path d="m354.85 126.67c.07-.42.47-.71.89-.65.42.07.71.47.65.89-.07.42-.47.71-.89.65s-.72-.47-.65-.89zm-.06 1.17 1.28.2-.68 4.26-1.28-.2z" fill="#407bff"/><path d="m363.22 130.86-.41 2.62-1.28-.2.4-2.51c.07-.43-.09-.73-.5-.8-.43-.07-.71.19-.79.7l-.38 2.41-1.28-.2.4-2.51c.07-.43-.09-.73-.5-.8-.43-.07-.71.19-.79.7l-.38 2.41-1.28-.2.68-4.26 1.28.2-.06.39c.24-.26.65-.42 1.22-.33.5.08.85.34 1.03.74.29-.3.72-.46 1.33-.37.95.14 1.48.94 1.31 2.01z" fill="#407bff"/><path d="m364.51 128.2c.07-.42.47-.71.89-.65.42.07.71.47.65.89-.07.42-.47.71-.89.65s-.72-.47-.65-.89zm-.05 1.17 1.28.2-.68 4.26-1.28-.2z" fill="#407bff"/><path d="m368.13 131.21-.24 1.51c-.06.37.25.45.82.51l-.18 1.16c-1.7-.09-2.11-.67-1.92-1.87l.24-1.51-.68-.11.19-1.23.68.11.13-.81 1.34-.18-.19 1.19.88.14-.19 1.23z" fill="#407bff"/><path d="m371.67 133.83c.35.06.67-.03.87-.19l.93.75c-.51.51-1.19.71-2 .58-1.46-.23-2.21-1.36-2.01-2.63s1.28-2.11 2.63-1.89c1.25.2 2.01 1.31 1.81 2.59-.03.18-.07.35-.13.5l-3.03-.48c.09.48.46.7.93.77zm1.03-1.43c-.06-.52-.41-.76-.8-.82-.49-.08-.85.11-1.04.53z" fill="#407bff"/><path d="m379.67 130.03-.95 5.97-1.28-.2.06-.4c-.33.28-.78.41-1.35.32-1.12-.18-1.88-1.3-1.68-2.57s1.28-2.11 2.39-1.93c.57.09.96.35 1.19.72l.33-2.11zm-1.88 3.63c.1-.64-.26-1.11-.85-1.2s-1.08.24-1.18.88.26 1.11.85 1.2c.58.1 1.07-.24 1.18-.88z" fill="#407bff"/><path d="m353.55 137.99c.28-1.76 1.88-2.88 3.6-2.61 1.71.27 2.89 1.84 2.61 3.6s-1.88 2.88-3.6 2.61-2.89-1.84-2.61-3.6zm4.84.77c.17-1.07-.49-1.9-1.46-2.05s-1.85.43-2.02 1.5.49 1.9 1.46 2.05 1.85-.44 2.02-1.5z" fill="#407bff"/><path d="m364.73 138.36-.01.09.79.13-.19 1.23-.79-.13-.48 3.04-1.28-.2.48-3.04-1.11-.18-.48 3.04-1.28-.2.48-3.04-.57-.09.19-1.23.57.09c.19-1.19.96-1.81 2.36-1.5l-.19 1.23c-.47-.12-.81-.02-.89.47l1.11.18.01-.09c.19-1.19.96-1.81 2.36-1.5l-.19 1.23c-.48-.12-.82-.02-.89.47z" fill="#407bff"/><path d="m367.74 142.25c.35.06.67-.03.87-.19l.93.75c-.51.51-1.19.71-2 .58-1.46-.23-2.21-1.36-2.01-2.63s1.28-2.11 2.63-1.89c1.25.2 2.01 1.31 1.81 2.59-.03.18-.07.35-.13.5l-3.03-.48c.1.48.47.69.93.77zm1.04-1.43c-.06-.52-.41-.76-.8-.82-.49-.08-.85.11-1.04.53z" fill="#407bff"/><path d="m373.69 139.78-.23 1.45c-.52-.17-1.3-.07-1.43.77l-.31 1.93-1.28-.2.68-4.26 1.28.2-.12.76c.25-.55.87-.73 1.41-.65z" fill="#407bff"/><g opacity=".2"><path d="m353.75 130.7-.21 1.31-3.5-.55.95-5.97 1.36.22-.74 4.66z"/><path d="m354.85 126.67c.07-.42.47-.71.89-.65.42.07.71.47.65.89-.07.42-.47.71-.89.65s-.72-.47-.65-.89zm-.06 1.17 1.28.2-.68 4.26-1.28-.2z"/><path d="m363.22 130.86-.41 2.62-1.28-.2.4-2.51c.07-.43-.09-.73-.5-.8-.43-.07-.71.19-.79.7l-.38 2.41-1.28-.2.4-2.51c.07-.43-.09-.73-.5-.8-.43-.07-.71.19-.79.7l-.38 2.41-1.28-.2.68-4.26 1.28.2-.06.39c.24-.26.65-.42 1.22-.33.5.08.85.34 1.03.74.29-.3.72-.46 1.33-.37.95.14 1.48.94 1.31 2.01z"/><path d="m364.51 128.2c.07-.42.47-.71.89-.65.42.07.71.47.65.89-.07.42-.47.71-.89.65s-.72-.47-.65-.89zm-.05 1.17 1.28.2-.68 4.26-1.28-.2z"/><path d="m368.13 131.21-.24 1.51c-.06.37.25.45.82.51l-.18 1.16c-1.7-.09-2.11-.67-1.92-1.87l.24-1.51-.68-.11.19-1.23.68.11.13-.81 1.34-.18-.19 1.19.88.14-.19 1.23z"/><path d="m371.67 133.83c.35.06.67-.03.87-.19l.93.75c-.51.51-1.19.71-2 .58-1.46-.23-2.21-1.36-2.01-2.63s1.28-2.11 2.63-1.89c1.25.2 2.01 1.31 1.81 2.59-.03.18-.07.35-.13.5l-3.03-.48c.09.48.46.7.93.77zm1.03-1.43c-.06-.52-.41-.76-.8-.82-.49-.08-.85.11-1.04.53z"/><path d="m379.67 130.03-.95 5.97-1.28-.2.06-.4c-.33.28-.78.41-1.35.32-1.12-.18-1.88-1.3-1.68-2.57s1.28-2.11 2.39-1.93c.57.09.96.35 1.19.72l.33-2.11zm-1.88 3.63c.1-.64-.26-1.11-.85-1.2s-1.08.24-1.18.88.26 1.11.85 1.2c.58.1 1.07-.24 1.18-.88z"/><path d="m353.55 137.99c.28-1.76 1.88-2.88 3.6-2.61 1.71.27 2.89 1.84 2.61 3.6s-1.88 2.88-3.6 2.61-2.89-1.84-2.61-3.6zm4.84.77c.17-1.07-.49-1.9-1.46-2.05s-1.85.43-2.02 1.5.49 1.9 1.46 2.05 1.85-.44 2.02-1.5z"/><path d="m364.73 138.36-.01.09.79.13-.19 1.23-.79-.13-.48 3.04-1.28-.2.48-3.04-1.11-.18-.48 3.04-1.28-.2.48-3.04-.57-.09.19-1.23.57.09c.19-1.19.96-1.81 2.36-1.5l-.19 1.23c-.47-.12-.81-.02-.89.47l1.11.18.01-.09c.19-1.19.96-1.81 2.36-1.5l-.19 1.23c-.48-.12-.82-.02-.89.47z"/><path d="m367.74 142.25c.35.06.67-.03.87-.19l.93.75c-.51.51-1.19.71-2 .58-1.46-.23-2.21-1.36-2.01-2.63s1.28-2.11 2.63-1.89c1.25.2 2.01 1.31 1.81 2.59-.03.18-.07.35-.13.5l-3.03-.48c.1.48.47.69.93.77zm1.04-1.43c-.06-.52-.41-.76-.8-.82-.49-.08-.85.11-1.04.53z"/><path d="m373.69 139.78-.23 1.45c-.52-.17-1.3-.07-1.43.77l-.31 1.93-1.28-.2.68-4.26 1.28.2-.12.76c.25-.55.87-.73 1.41-.65z"/></g><path d="m276.48 273.18h66.3v10h-66.3z" fill="#407bff"/><path d="m276.48 273.18h66.3v10h-66.3z" fill="#fff" opacity=".6"/><path d="m159.85 409.68h-5.28c-.65 0-1.19-.53-1.19-1.19v-125.31h7.65v125.32c0 .65-.53 1.18-1.18 1.18z" fill="#407bff"/><path d="m159.85 409.68h-5.28c-.65 0-1.19-.53-1.19-1.19v-125.31h7.65v125.32c0 .65-.53 1.18-1.18 1.18z" fill="#fff" opacity=".5"/><path d="m337.18 409.68h-5.28c-.65 0-1.19-.53-1.19-1.19v-125.31h7.65v125.32c0 .65-.53 1.18-1.18 1.18z" fill="#407bff"/><path d="m337.18 409.68h-5.28c-.65 0-1.19-.53-1.19-1.19v-125.31h7.65v125.32c0 .65-.53 1.18-1.18 1.18z" fill="#fff" opacity=".5"/><path d="m101.57 273.18h193.82v10h-193.82z" fill="#407bff"/><path d="m101.57 273.18h193.82v10h-193.82z" fill="#fff" opacity=".7"/><path d="m112.46 409.68h-5.28c-.65 0-1.19-.53-1.19-1.19v-125.31h7.65v125.32c0 .65-.53 1.18-1.18 1.18z" fill="#407bff"/><path d="m112.46 409.68h-5.28c-.65 0-1.19-.53-1.19-1.19v-125.31h7.65v125.32c0 .65-.53 1.18-1.18 1.18z" fill="#fff" opacity=".6"/><path d="m289.79 409.68h-5.28c-.65 0-1.19-.53-1.19-1.19v-125.31h7.65v125.32c0 .65-.53 1.18-1.18 1.18z" fill="#407bff"/><path d="m289.79 409.68h-5.28c-.65 0-1.19-.53-1.19-1.19v-125.31h7.65v125.32c0 .65-.53 1.18-1.18 1.18z" fill="#fff" opacity=".6"/><g fill="#407bff"><path d="m178.62 270.84h-2.47c-.26 0-.47-.21-.47-.47v-2.62c0-.26.21-.47.47-.47h1.78c.21 0 .4.14.46.35l.7 2.62c.06.29-.16.59-.47.59z"/><path d="m182.04 270.84h-2.47c-.26 0-.47-.21-.47-.47v-2.62c0-.26.21-.47.47-.47h1.78c.21 0 .4.14.46.35l.7 2.62c.06.29-.16.59-.47.59z"/><path d="m185.46 270.84h-2.47c-.26 0-.47-.21-.47-.47v-2.62c0-.26.21-.47.47-.47h1.78c.21 0 .4.14.46.35l.7 2.62c.06.29-.16.59-.47.59z"/><path d="m188.88 270.84h-2.47c-.26 0-.47-.21-.47-.47v-2.62c0-.26.21-.47.47-.47h1.78c.21 0 .4.14.46.35l.7 2.62c.06.29-.16.59-.47.59z"/><path d="m192.3 270.84h-2.47c-.26 0-.47-.21-.47-.47v-2.62c0-.26.21-.47.47-.47h1.78c.21 0 .4.14.46.35l.7 2.62c.06.29-.16.59-.47.59z"/><path d="m195.72 270.84h-2.47c-.26 0-.47-.21-.47-.47v-2.62c0-.26.21-.47.47-.47h1.78c.21 0 .4.14.46.35l.7 2.62c.06.29-.16.59-.47.59z"/><path d="m199.14 270.84h-2.47c-.26 0-.47-.21-.47-.47v-2.62c0-.26.21-.47.47-.47h1.78c.21 0 .4.14.46.35l.7 2.62c.06.29-.16.59-.47.59z"/><path d="m202.56 270.84h-2.47c-.26 0-.47-.21-.47-.47v-2.62c0-.26.21-.47.47-.47h1.78c.21 0 .4.14.46.35l.7 2.62c.06.29-.16.59-.47.59z"/><path d="m205.98 270.84h-2.47c-.26 0-.47-.21-.47-.47v-2.62c0-.26.21-.47.47-.47h1.78c.21 0 .4.14.46.35l.7 2.62c.06.29-.16.59-.47.59z"/><path d="m209.4 270.84h-2.47c-.26 0-.47-.21-.47-.47v-2.62c0-.26.21-.47.47-.47h1.78c.21 0 .4.14.46.35l.7 2.62c.06.29-.16.59-.47.59z"/><path d="m212.82 270.84h-2.47c-.26 0-.47-.21-.47-.47v-2.62c0-.26.21-.47.47-.47h1.78c.21 0 .4.14.46.35l.7 2.62c.06.29-.16.59-.47.59z"/><path d="m216.24 270.84h-2.48c-.26 0-.47-.21-.47-.47v-2.62c0-.26.21-.47.47-.47h1.78c.21 0 .4.14.46.35l.7 2.62c.07.29-.15.59-.46.59z"/><path d="m219.66 270.84h-2.47c-.26 0-.47-.21-.47-.47v-2.62c0-.26.21-.47.47-.47h1.78c.21 0 .4.14.46.35l.7 2.62c.07.29-.16.59-.47.59z"/><path d="m223.08 270.84h-2.47c-.26 0-.47-.21-.47-.47v-2.62c0-.26.21-.47.47-.47h1.78c.21 0 .4.14.46.35l.7 2.62c.07.29-.16.59-.47.59z"/><path d="m226.5 270.84h-2.47c-.26 0-.47-.21-.47-.47v-2.62c0-.26.21-.47.47-.47h1.78c.21 0 .4.14.46.35l.7 2.62c.07.29-.16.59-.47.59z"/></g><g fill="#fff" opacity=".6"><path d="m178.62 270.84h-2.47c-.26 0-.47-.21-.47-.47v-2.62c0-.26.21-.47.47-.47h1.78c.21 0 .4.14.46.35l.7 2.62c.06.29-.16.59-.47.59z"/><path d="m182.04 270.84h-2.47c-.26 0-.47-.21-.47-.47v-2.62c0-.26.21-.47.47-.47h1.78c.21 0 .4.14.46.35l.7 2.62c.06.29-.16.59-.47.59z"/><path d="m185.46 270.84h-2.47c-.26 0-.47-.21-.47-.47v-2.62c0-.26.21-.47.47-.47h1.78c.21 0 .4.14.46.35l.7 2.62c.06.29-.16.59-.47.59z"/><path d="m188.88 270.84h-2.47c-.26 0-.47-.21-.47-.47v-2.62c0-.26.21-.47.47-.47h1.78c.21 0 .4.14.46.35l.7 2.62c.06.29-.16.59-.47.59z"/><path d="m192.3 270.84h-2.47c-.26 0-.47-.21-.47-.47v-2.62c0-.26.21-.47.47-.47h1.78c.21 0 .4.14.46.35l.7 2.62c.06.29-.16.59-.47.59z"/><path d="m195.72 270.84h-2.47c-.26 0-.47-.21-.47-.47v-2.62c0-.26.21-.47.47-.47h1.78c.21 0 .4.14.46.35l.7 2.62c.06.29-.16.59-.47.59z"/><path d="m199.14 270.84h-2.47c-.26 0-.47-.21-.47-.47v-2.62c0-.26.21-.47.47-.47h1.78c.21 0 .4.14.46.35l.7 2.62c.06.29-.16.59-.47.59z"/><path d="m202.56 270.84h-2.47c-.26 0-.47-.21-.47-.47v-2.62c0-.26.21-.47.47-.47h1.78c.21 0 .4.14.46.35l.7 2.62c.06.29-.16.59-.47.59z"/><path d="m205.98 270.84h-2.47c-.26 0-.47-.21-.47-.47v-2.62c0-.26.21-.47.47-.47h1.78c.21 0 .4.14.46.35l.7 2.62c.06.29-.16.59-.47.59z"/><path d="m209.4 270.84h-2.47c-.26 0-.47-.21-.47-.47v-2.62c0-.26.21-.47.47-.47h1.78c.21 0 .4.14.46.35l.7 2.62c.06.29-.16.59-.47.59z"/><path d="m212.82 270.84h-2.47c-.26 0-.47-.21-.47-.47v-2.62c0-.26.21-.47.47-.47h1.78c.21 0 .4.14.46.35l.7 2.62c.06.29-.16.59-.47.59z"/><path d="m216.24 270.84h-2.48c-.26 0-.47-.21-.47-.47v-2.62c0-.26.21-.47.47-.47h1.78c.21 0 .4.14.46.35l.7 2.62c.07.29-.15.59-.46.59z"/><path d="m219.66 270.84h-2.47c-.26 0-.47-.21-.47-.47v-2.62c0-.26.21-.47.47-.47h1.78c.21 0 .4.14.46.35l.7 2.62c.07.29-.16.59-.47.59z"/><path d="m223.08 270.84h-2.47c-.26 0-.47-.21-.47-.47v-2.62c0-.26.21-.47.47-.47h1.78c.21 0 .4.14.46.35l.7 2.62c.07.29-.16.59-.47.59z"/><path d="m226.5 270.84h-2.47c-.26 0-.47-.21-.47-.47v-2.62c0-.26.21-.47.47-.47h1.78c.21 0 .4.14.46.35l.7 2.62c.07.29-.16.59-.47.59z"/></g><path d="m173.65 269.06h55.34v4.12h-55.34z" fill="#407bff"/><path d="m173.65 269.06h55.34v4.12h-55.34z" fill="#fff" opacity=".5"/><path d="m216.23 179.2h-6.62l4.89 69.95h6.62c1.1 0 1.92-.89 1.85-1.99l-4.61-65.97c-.08-1.1-1.04-1.99-2.13-1.99z" fill="#407bff"/><path d="m216.23 179.2h-6.62l4.89 69.95h6.62c1.1 0 1.92-.89 1.85-1.99l-4.61-65.97c-.08-1.1-1.04-1.99-2.13-1.99z" fill="#fff" opacity=".7"/><path d="m217.32 249.15h-99.24c-1.1 0-2.05-.89-2.13-1.99l-4.61-65.97c-.08-1.1.75-1.99 1.85-1.99h99.24c1.1 0 2.05.89 2.13 1.99l4.61 65.97c.07 1.1-.76 1.99-1.85 1.99z" fill="#407bff"/><path d="m217.32 249.15h-99.24c-1.1 0-2.05-.89-2.13-1.99l-4.61-65.97c-.08-1.1.75-1.99 1.85-1.99h99.24c1.1 0 2.05.89 2.13 1.99l4.61 65.97c.07 1.1-.76 1.99-1.85 1.99z" fill="#fff" opacity=".5"/><path d="m133.06 246.18c-.35 0-.65-.29-.68-.63l-.17-2.38c-.02-.35.24-.63.59-.63.35 0 .65.29.68.63l.17 2.38c.03.34-.24.63-.59.63z" fill="#407bff"/><path d="m135.99 246.18c-.35 0-.65-.29-.68-.63l-.17-2.38c-.02-.35.24-.63.59-.63.35 0 .65.29.68.63l.17 2.38c.03.34-.24.63-.59.63z" fill="#407bff"/><path d="m138.92 246.18c-.35 0-.65-.29-.68-.63l-.17-2.38c-.02-.35.24-.63.59-.63.35 0 .65.29.68.63l.17 2.38c.02.34-.24.63-.59.63z" fill="#407bff"/><path d="m129.33 244.36c.07 1.01-.69 1.82-1.69 1.82-1.01 0-1.88-.82-1.95-1.82-.07-1.01.69-1.82 1.69-1.82 1.01 0 1.88.81 1.95 1.82z" fill="#fff"/><path d="m128.8 244.36c.05.71-.49 1.29-1.2 1.29s-1.33-.58-1.38-1.29.49-1.29 1.2-1.29 1.33.58 1.38 1.29z" fill="#407bff"/><path d="m161.02 233.67c-1.39 0-2.45 1.09-2.42 2.47l.28 13.01h24.21l-1.54-13.01c-.16-1.39-1.38-2.47-2.77-2.47zm9.9 14.39c-2.75 0-5.14-2.23-5.34-4.99-.19-2.75 1.88-4.99 4.64-4.99 2.75 0 5.14 2.23 5.34 4.99s-1.89 4.99-4.64 4.99z" opacity=".1"/><path d="m178.13 236.14c-.07-1.39-1.21-2.47-2.6-2.47h-17.77c-1.39 0-2.53 1.09-2.6 2.47l-1.78 37.03h26.53zm-11.48 11.92c-2.75 0-4.99-2.23-4.99-4.99s2.23-4.99 4.99-4.99c2.75 0 4.99 2.23 4.99 4.99s-2.24 4.99-4.99 4.99z" fill="#407bff"/><path d="m178.13 236.14c-.07-1.39-1.21-2.47-2.6-2.47h-17.77c-1.39 0-2.53 1.09-2.6 2.47l-1.78 37.03h26.53zm-11.48 11.92c-2.75 0-4.99-2.23-4.99-4.99s2.23-4.99 4.99-4.99c2.75 0 4.99 2.23 4.99 4.99s-2.24 4.99-4.99 4.99z" fill="#fff" opacity=".3"/><path d="m143.81 273.18h-17.59v-1.56c0-3.07 2.57-5.51 5.64-5.34l6.89.37c2.84.15 5.06 2.5 5.06 5.34z" fill="#407bff"/><path d="m143.81 273.18h-17.59v-1.56c0-3.07 2.57-5.51 5.64-5.34l6.89.37c2.84.15 5.06 2.5 5.06 5.34z" fill="#fff" opacity=".8"/></svg>