<svg enable-background="new 0 0 3500 2000" viewBox="0 0 3500 2000" xmlns="http://www.w3.org/2000/svg"><path d="m0 0h3500v2000h-3500z" fill="#fef8f8"/><path d="m2370.7 116.5c457.5 280.7 313.8 757.8 509.6 900.6 253.8 185.1 393.7 949.6-111.8 964.8-1005.4 30.3-2304.6 0-2304.6 0s-365.2-328.7-150.3-875.5c215-546.8 770.9-404.1 977.3-650.2s622.3-620.3 1079.8-339.7z" fill="#caf0ff"/><path d="m2801.8 1966.7v-173.2h-75.9v34.6h-26.6v-69.3h-97.3v69.3h-21.3v-53.3h-21.3v-319.7h-26.6v-202.5h-129.2l1.3 244.1-86.2 1v-195.5h-133.6v207.8l-40 1.3v-209.5h-46.6v-89.3h-28v-60h-109.2v60h-28v89.3h-46.6v113.5l-21.5 1.3-6.5-336.2h-143.9v178.8l-50.6 1.3v-279.3h-17.3v-59h-151.9v59h-17.3v440h-32v-180.7h-26.6v-57.5h-38.6v-167.6h-56v167.6h-38.6v57.4h-26.9v198.7h-18.7l-14.7-.2v-230.2l-394.4 3.8v518.4h-33.2v-67.9h-119.9v130.6h-34.6v-48h-75.9v82.6 14.7h-75.9v123.9h2310.1z" fill="#4188e4" opacity=".9"/><g fill="#fff"><path d="m2103.2 169.1c-42.9 0-79.4 27.2-93.3 65.3-9.8-5.5-21.1-8.6-33.1-8.6-37.6 0-68.1 30.5-68.1 68.1 0 2.2.1 4.4.3 6.6h443.1c-5.6-24.3-27.3-42.4-53.3-42.4-4.8 0-9.4.6-13.8 1.8-12.8-27.4-40.7-46.4-72.9-46.4-8.3 0-16.4 1.3-24 3.6-17.2-28.7-48.8-48-84.9-48z"/><path d="m717.8 903.1c3-12.8 14.4-22.4 28.2-22.4 2.5 0 5 .3 7.3.9 6.8-14.5 21.5-24.6 38.6-24.6 4.4 0 8.7.7 12.7 1.9 9.2-15.2 25.9-25.4 45-25.4 22.7 0 42 14.4 49.3 34.6 5.2-2.9 11.2-4.5 17.5-4.5 19.9 0 36 16.1 36 36 0 1.2-.1 2.3-.2 3.5z"/><path d="m1522.6 555.4c3.6-15.6 17.5-27.2 34.2-27.2 3.1 0 6 .4 8.8 1.1 8.2-17.6 26.1-29.7 46.7-29.7 5.3 0 10.5.8 15.4 2.3 11.1-18.4 31.4-30.8 54.5-30.8 27.5 0 50.9 17.4 59.8 41.9 6.3-3.5 13.5-5.5 21.2-5.5 24.1 0 43.6 19.5 43.6 43.6 0 1.4-.1 2.8-.2 4.2h-284z"/><path d="m2321.7 723c3.6-15.6 17.5-27.2 34.2-27.2 3.1 0 6 .4 8.8 1.1 8.2-17.6 26.1-29.7 46.7-29.7 5.3 0 10.5.8 15.4 2.3 11.1-18.4 31.4-30.8 54.5-30.8 27.5 0 50.9 17.4 59.8 41.9 6.3-3.5 13.5-5.5 21.2-5.5 24.1 0 43.6 19.5 43.6 43.6 0 1.4-.1 2.8-.2 4.2h-284z"/><path d="m434 1095.6c3.6-15.6 17.5-27.2 34.2-27.2 3.1 0 6 .4 8.8 1.1 8.2-17.6 26.1-29.7 46.7-29.7 5.3 0 10.5.8 15.4 2.3 11.1-18.4 31.4-30.8 54.5-30.8 27.5 0 50.9 17.4 59.8 41.9 6.3-3.5 13.5-5.5 21.2-5.5 24.1 0 43.6 19.5 43.6 43.6 0 1.4-.1 2.8-.2 4.2h-284z"/><path d="m956.9 950.8-9.7-7.8c.2-.3 6.1-7.6 17.5-20.1l9.2 8.4c-11 12.2-16.9 19.4-17 19.5z"/><path d="m2376.1 917c-12.9-12.4-26-24.6-39-36.3l8.3-9.3c13.1 11.8 26.3 24.1 39.3 36.6zm-1365.3-24.1-8.8-8.9c12.5-12.4 25.7-24.8 39.2-36.9l8.3 9.3c-13.3 12-26.3 24.3-38.7 36.5zm1286.2-47.2c-13.7-11.5-27.6-22.8-41.3-33.5l7.7-9.8c13.9 10.8 27.9 22.2 41.7 33.8zm-1207.1-24-7.9-9.6c13.8-11.4 28-22.6 42.3-33.2l7.5 10c-14.2 10.5-28.3 21.5-41.9 32.8zm1123.2-41.5c-14.5-10.4-29.2-20.6-43.8-30.2l6.9-10.4c14.7 9.7 29.6 19.9 44.2 30.5zm-1038.1-22.4-7-10.3c14.9-10.1 30-20 45.1-29.2l6.5 10.6c-14.9 9.2-29.9 18.9-44.6 28.9zm949.2-36c-15.3-9.1-30.9-17.9-46.3-26.1l5.8-11c15.6 8.3 31.3 17.1 46.9 26.4zm-858.6-19.6-6-10.9c15.8-8.6 31.9-16.9 47.9-24.6l5.4 11.2c-15.8 7.6-31.7 15.8-47.3 24.3zm764.7-30.1c-16.1-7.5-32.5-14.6-48.7-21.1l4.6-11.6c16.4 6.6 33 13.7 49.4 21.3zm-668.9-15.9-4.8-11.5c16.6-6.9 33.6-13.4 50.3-19.2l4.1 11.8c-16.5 5.7-33.2 12.1-49.6 18.9zm570.3-23.4c-16.9-5.6-34-10.7-50.9-15.2l3.2-12c17.1 4.5 34.5 9.7 51.6 15.4zm-470.1-11.5-3.4-12c17.3-4.9 34.9-9.2 52.3-13l2.6 12.2c-17.1 3.7-34.4 8-51.5 12.8zm367.6-15.6c-17.4-3.4-35-6.3-52.4-8.5l1.6-12.4c17.7 2.3 35.6 5.2 53.2 8.6zm-263.9-6.5-1.8-12.3c17.8-2.6 35.8-4.6 53.5-6l1 12.4c-17.4 1.3-35.2 3.3-52.7 5.9zm158.7-7c-17.6-1-35.5-1.5-53-1.3l-.1-12.5c17.8-.2 36 .3 53.9 1.3z"/><path d="m2432.3 973.4c-6-6.3-12.2-12.6-18.3-18.8l8.9-8.7c6.1 6.2 12.3 12.6 18.4 19z"/><path d="m2682.2 489.2c-25 7.9-48.7 19.9-73.8 27.3-49.3 14.4-103.9 10.1-150.4-12-52.2-24.8-94.1-70.8-149.9-85.9-40.7-11-83.9-4.2-125.8-8.4-41.9-4.3-88-25.6-98.1-66.5-1.9-7.7-2.3-16.1 1.1-23.3 7.2-15 27.1-17.7 43.7-18.5 42.5-1.9 85.2-3.9 127.3 1.6 53.6 7 107.8 26.1 160.6 13.9 16.1-3.7 31.5-10.2 47.5-14.4 37.9-9.8 77.6-5.7 116.4 1.4-51-67.7-118.4-131.8-210.1-188-16.7-10.2-33.3-19.6-49.9-28.1-34 21.5-65.9 47.3-102.8 63.3-53.4 23-113.5 23.7-171.6 20.4-34.7-2-72.9-4.2-100.5 16.8-20.2 15.4-30.6 40.7-49.4 57.8-22.7 20.7-54.6 27.1-84.4 34.6-37.9 9.6-76.1 23.1-104.6 49.8s-44.9 69.4-31.2 106c17.5 46.4 73.4 64.7 122.8 68.9 63.2 5.4 128.3-2.3 189.2 15.4 41.4 12 78.6 35 117.2 54.1 66.9 33 138.8 54.4 210.9 73.3 53.5 14 108.1 26.9 163.4 25.3 41-1.2 81.4-10.3 122.4-12.5 43.5-2.3 88.8 2.9 129.3-12.9-13-51.7-28.3-105.5-49.3-159.4z" opacity=".3"/><path d="m1529.4 385.2c-6.9-3.6-15.3-2.2-23-1.3-28.3 3.4-57.4-.3-83.8-10.8-13.5-5.3-26.4-12.4-39.2-19.4-34.2 35.2-65.2 70-92.5 102.5-4.8 5.7-9.8 11.3-15 16.6 5 2.2 10 4.5 14.9 7 14.1 7.2 29.1 18 30 33.8.9 15.4-12.3 27.7-25.3 35.8-35.8 22.2-80.9 31.4-108.1 63.7-24 28.4-30.7 71.6-62.3 91.1-14.1 8.7-31.2 11.1-47.7 12.3-55.1 4-112.7-2.8-163.7 18.4-11.2 4.6-21.8 10.6-33.3 14.4-15 5-31 6.3-46.8 7.3-72.2 4.3-144.8 1.8-216.5-7.3-51.2 28.9-100.2 64.3-145.1 109.1 3.1 1.4 6.2 2.9 9.3 4.3 31.9 14.8 64.4 29.7 99.2 35.2 32 5 64.7 1.9 97-1.3 39.3-3.9 79-7.8 116.7-19.6 41.6-13 80.1-35.3 122.5-45.1 46.7-10.9 95.3-6.2 143.2-4.6 63.6 2.1 128.5-1.5 188.4-22.9 60-21.3 115-62.2 142.9-119.4 14.7-30.3 22.2-65.1 45.1-89.7 23.8-25.5 60.1-35.5 86-58.7 38.5-34.4 46.4-98.1 17.6-140.9-2.8-4.1-6-8.2-10.5-10.5z" opacity=".3"/></g><path d="m1727 1121h116.3v15.6h-116.3z" fill="#4188e4" opacity=".3"/><g fill="#4188e4" opacity=".2"><path d="m863.9 1250h46.7v60.4h-46.7z"/><path d="m863.9 1444.5h46.7v60.4h-46.7z"/><path d="m935.6 1250h46.7v60.4h-46.7z"/><path d="m1007.3 1250h46.7v60.4h-46.7z"/><path d="m1007.3 1576h46.7v60.4h-46.7z"/><path d="m935.6 1346.5h46.7v60.4h-46.7z"/><path d="m935.6 1679.2h46.7v60.4h-46.7z"/><path d="m935.6 1444.5h46.7v60.4h-46.7z"/><path d="m1068.9 1444.5h46.7v60.4h-46.7z"/><path d="m1068.9 1679.2h46.7v60.4h-46.7z"/><path d="m1127.6 1250h46.7v60.4h-46.7z"/><path d="m1505.9 1010.3h25.9v33.6h-25.9z"/><path d="m1559.9 1010.3h25.9v33.6h-25.9z"/><path d="m1505.9 1069.5h25.9v33.6h-25.9z"/><path d="m1613.8 1069.5h25.9v33.6h-25.9z"/><path d="m1559.9 1128.8h25.9v33.6h-25.9z"/><path d="m1613.8 1128.8h25.9v33.6h-25.9z"/><path d="m1505.9 1188.1h25.9v33.6h-25.9z"/><path d="m1613.8 1188.1h25.9v33.6h-25.9z"/><path d="m1505.9 1247.3h25.9v33.6h-25.9z"/><path d="m1559.9 1247.3h25.9v33.6h-25.9z"/><path d="m1613.8 1306.6h25.9v33.6h-25.9z"/><path d="m1505.9 1425.1h25.9v33.6h-25.9z"/><path d="m1925.9 1326h25.9v33.6h-25.9z"/><path d="m2069.9 1326h25.9v33.6h-25.9z"/><path d="m1996 1234.8h25.9v33.6h-25.9z"/><path d="m2412.7 1285.5h25.9v33.6h-25.9z"/><path d="m2499.4 1285.5h25.9v33.6h-25.9z"/><path d="m2499.4 1345.4h25.9v33.6h-25.9z"/><path d="m2412.7 1405.2h25.9v33.6h-25.9z"/><path d="m2499.4 1405.2h25.9v33.6h-25.9z"/><path d="m2412.7 1465.1h25.9v33.6h-25.9z"/><path d="m2456 1524.9h25.9v33.6h-25.9z"/><path d="m2499.4 1524.9h25.9v33.6h-25.9z"/><path d="m2499.4 1584.8h25.9v33.6h-25.9z"/><path d="m2412.7 1644.6h25.9v33.6h-25.9z"/><path d="m2456 1644.6h25.9v33.6h-25.9z"/><path d="m2051.7 1234.8h25.9v33.6h-25.9z"/><path d="m1925.9 1393.6h25.9v33.6h-25.9z"/><path d="m1973.9 1393.6h25.9v33.6h-25.9z"/><path d="m1925.9 1461.1h25.9v33.6h-25.9z"/><path d="m2021.9 1461.1h25.9v33.6h-25.9z"/><path d="m2069.9 1461.1h25.9v33.6h-25.9z"/><path d="m1973.9 1528.7h25.9v33.6h-25.9z"/><path d="m1925.9 1596.3h25.9v33.6h-25.9z"/><path d="m2021.9 1596.3h25.9v33.6h-25.9z"/><path d="m2069.9 1596.3h25.9v33.6h-25.9z"/><path d="m1925.9 1731.4h25.9v33.6h-25.9z"/><path d="m2021.9 1731.4h25.9v33.6h-25.9z"/><path d="m1127.6 1576h46.7v60.4h-46.7z"/><path d="m1277.6 1265.8h143.1v15.6h-143.1z"/><path d="m1727 1221.8h116.3v15.6h-116.3z"/><path d="m1727 1255.3h116.3v15.6h-116.3z"/><path d="m1727 1356.1h116.3v15.6h-116.3z"/><path d="m2193 1326h116.3v15.6h-116.3z"/><path d="m2193 1359.6h116.3v15.6h-116.3z"/><path d="m2193 1426.8h116.3v15.6h-116.3z"/><path d="m2193 1527.5h116.3v15.6h-116.3z"/><path d="m2193 1594.6h116.3v15.6h-116.3z"/><path d="m2193 1661.8h116.3v15.6h-116.3z"/><path d="m2193 1728.9h116.3v15.6h-116.3z"/><path d="m1727 1456.8h116.3v15.6h-116.3z"/><path d="m1727 1523.9h116.3v15.6h-116.3z"/><path d="m1277.6 1310.5h143.1v15.6h-143.1z"/><path d="m1277.6 1355.1h143.1v15.6h-143.1z"/><path d="m1277.6 1444.5h143.1v15.6h-143.1z"/><path d="m1277.6 1533.8h143.1v15.6h-143.1z"/><path d="m1277.6 1578.5h143.1v15.6h-143.1z"/><path d="m1277.6 1667.8h143.1v15.6h-143.1z"/><path d="m1277.6 1757.1h143.1v15.6h-143.1z"/></g><path d="m1727 1154.6h116.3v15.6h-116.3z" fill="#4188e4" opacity=".3"/><path d="m898.2 1042.5 33.6 66.7 35.3-65.8c10.4-24.1-6.3-51.7-32.6-52.8-.4 0-.8 0-1.2 0s-.8 0-1.2 0c-26.3.4-43.7 27.5-33.9 51.9zm17.2-13.8c.1-9.6 8-17.3 17.6-17.2s17.3 8 17.2 17.6-8 17.3-17.6 17.2-17.3-8-17.2-17.6z" fill="#ff5b7e"/><path d="m421.3 1680.8c14.1-2.8 25-14.1 27.6-28.4 7.4-40.5 30.8-111.7 104-113 86.2-1.5 101.5 63.1 99.5 110.1-.5 11.8 9.1 21.5 20.8 21 25.5-1.1 62.7 4.9 62.7 48.3 0 0 23.1 81.9-42.5 101.6s-97.2-6.2-125.3 20.1c-25.9 24.3-110.6 49.6-151.5-5.8-6.4-8.7-14.3-16-23.3-21.8-15.3-9.9-35.5-34.1-18.7-89.4 6.6-21.5 24-37.9 45.6-42.5.3-.1.7-.1 1.1-.2z" fill="#70c0fd"/><path d="m581.1 1752c-5.9 4.6-11.6 9.8-16.7 15.7-1.3 1.5-2.5 3-3.8 4.6.4-7.3 1.3-13 2.7-16.8 1.6-4.3 6.1-11.6 11.6-21.9 6-7.6 13.4-15.3 21.3-22 8.5-7.2 17.8-13.3 28.4-16.6-11.1 1.7-21.3 6.5-30.8 12.4-3 1.9-6 3.9-9 6.1 12.6-28.5 25-70.3 19.9-125.8 0 0-1.4 37.3-9.5 71.4-1.3-5.5-3.1-10.8-5.3-15.9-5.3-12.2-8.9-17.6-16.3-28.1 6.2 11.3 9.1 17 13 29.6 7.8 26.8 2.7 35.8-1.5 45-12.5 27.1-27.7 46.7-34.2 62.6-2.4-5.2-4.9-10.3-7.4-15.4-5.4-10.9-10.9-21.6-16.6-32.3-.9-1.7-1.9-3.4-2.8-5.2-.7-2.3-1.7-5.5-2.9-12.9-.6-3.8-1.1-7.6-1.5-11.4-.9-9.9-.9-15.3-.8-23.2-.9 8.1-1.3 13.4-1.3 23.3 0 3.9.2 7.8.5 11.8 0 .6.1 1.3.2 1.9 0-.1-.1-.1-.1-.2-3-5.2-6-10.4-9.2-15.5s-6.4-10.1-9.8-15-7-9.6-10.8-14c3.6 4.7 6.8 9.6 9.9 14.7s6 10.3 8.8 15.6 5.5 10.7 8.2 16.1 5.2 10.9 7.8 16.3c.3.7.6 1.4 1 2.1-1.7-.5-3.3-1-6.1-1.7-13-3.3-23.7-4.2-33.5-4.9 8.9 1.6 19.6 3.6 32.6 8.4 3.1 1.1 6.6 2.6 9.6 4 3.8 8.4 7.4 16.8 10.9 25.3 2.3 5.6 4.6 11.2 6.8 16.8 1.1 2.8 2.2 5.6 3.3 8.5v.1c0 .7 0 1.4.1 2.1.4 5 1.3 17.1 2.4 32.5-8.1-4.2-17.2-7.4-27-9.3-10.9-2.1-18.9-1.8-35.7-2.4-1.4-.9-3.5-2.7-5.6-5.1-5.2-5.9-8.9-13.7-10.3-23 .6 9.4 3.6 17.9 8.6 24.8.8 1.1 1.6 2.1 2.4 3.1-4.8-.2-9.5-.6-14.2-1.2-5.1-.7-10.3-1.6-15.3-3.1-5-1.6-9.9-3.7-14.2-7.2 4.1 3.8 8.9 6.4 13.8 8.4 4.6 1.8 9.3 3.1 14.1 4.2-1 .2-1.9.3-2.9.5-3.5.6-7 1.3-10.5 2.2s-6.9 1.8-10.3 3-6.7 2.6-9.9 4.3c3.3-1.5 6.7-2.5 10.1-3.4s6.9-1.5 10.4-2.1c3.5-.5 7-1 10.5-1.3s13.5-.7 17-.7c17.9 2.4 28.8 2.5 40.9 5.9 10.5 2.9 20 7.4 27.9 12.8.3.2.7.5 1 .7 2.6 41.8 4.9 99-.6 113.5-8.2 21.6 41.4 13.8 41.4 13.8s-16.7-9.3-23.2-57.8c-3.8-28.2-8.1-64.7-8.4-92.3.2-.5.5-1 .7-1.5.8-1.7 1.6-3.3 2.5-4.9 1.8-3.2 3.7-6.4 5.9-9.4 4.2-6.1 9.1-11.6 14.4-16.7 8.3-8.2 21.2-17.1 36.1-23.4-15.3 4.5-29.2 11.9-38.7 19.5z" fill="#07085b"/><path d="m923.3 1761.9c33.4.6 66.3-8.5 94.2-26.8 22.5-14.7 43.5-36.3 47.4-66.7 8.9-69.6-31.2-67.3-41-95.7s19.3-41.1 6.7-92.8c-6.8-27.8-28.2-39.8-61.6-84.5-33.4-44.6-73.8-67.5-103.3-50.9s-28.3 52.5-50.3 64.4c-21.9 11.9-55.7 53.5-42.8 132.7 12.9 79.1-74.2 49.6-40.1 141.2 25.1 67.1 134.3 78 190.8 79.1z" fill="#70c0fd"/><path d="m883.6 1702c3.1 44 7.6 219.1 1.1 234.3-9.8 22.7 41.8-5.6 41.8-5.6s-13.7-104.5-21.7-155.6c-3.5-22.7-10-91.1-10.1-97.1.3-.5.5-1.1.8-1.6.9-1.8 2-3.5 3-5.2 2.1-3.4 4.5-6.7 7.1-9.9 5.1-6.4 10.9-12.2 17.3-17.6 12-10.3 28.4-19.1 43.5-24.6-18.9 4.8-35.6 12.7-46.7 20.4-7.2 4.8-13.9 10.3-20.1 16.5-1.6 1.6-3.1 3.2-4.5 4.9.5-7.6 1.6-13.7 3.2-17.6 1.9-4.5 7.3-12.2 14-23 7-7.7 16-16 25.7-23.2 10.5-7.7 21.7-14 34.3-17.5-13.2 1.8-25.4 6.7-37.1 13-3.7 2-7.3 4.1-10.9 6.5 15.2-30 30.2-73.9 24-132.3 0 0-1.7 39.2-11.4 75.1-1.6-5.8-3.8-11.4-6.3-16.7-6.4-12.9-10.7-18.5-19.6-29.5 7.4 11.9 10.9 17.9 15.7 31.1 9.1 27.3 3.7 37-1.8 47.3-15.1 28.5-33.4 49.1-41.2 65.8-2.9-5.4-5.9-10.8-8.9-16.2-6.5-11.4-13.1-22.8-20-33.9-1.1-1.8-2.2-3.6-3.4-5.4-1-3.1-1.2-3.3-2.2-7.7-.5-2-.9-3.9-1.2-5.9-.7-4-1.4-8-1.8-12s-.8-8.1-.9-12.2c-.2-4.3-.1-9 0-12.2-.4 3.1-1 7.9-1.2 12.2-.3 4.1-.4 8.2-.4 12.3s.2 8.2.5 12.4c.1.7.1 1.4.2 2 0-.1-.1-.1-.1-.2-3.6-5.5-7.3-10.9-11.1-16.3-3.8-5.3-7.7-10.6-11.8-15.8-4.1-5.1-8.4-10.1-13-14.7 4.3 4.9 8.2 10.1 12 15.5 3.7 5.4 7.2 10.9 10.6 16.4 3.4 5.6 6.7 11.2 9.9 16.9s6.3 11.4 9.4 17.2c.4.7.8 1.5 1.2 2.2-6.9-1.9-13.7-3.2-20.8-4.3-11.5-1.7-15.8-2-26.9-2.7 11 1.7 15.2 2.4 26.4 5.2 11.5 2.9 19.8 5.9 24.5 7.9 4.5 8.8 8.9 17.7 13.2 26.6 2.8 5.9 5.6 11.8 8.2 17.7 1.1 2.4 2.6 4.6 3.2 7.2 1.7 9.4 4.3 49.9 4.3 49.9z" fill="#07085b"/><path d="m2428.7 1083.7 33.3 66.8 35.5-65.6c10.5-24.1-6.1-51.7-32.4-52.9-.4 0-.8 0-1.2 0s-.8 0-1.2 0c-26.1.3-43.7 27.3-34 51.7zm17.3-13.7c.2-9.6 8.1-17.3 17.7-17.1s17.3 8.1 17.1 17.7-8.1 17.3-17.7 17.1-17.3-8.1-17.1-17.7z" fill="#07085b"/><path d="m652.5 1904.7s2.9-48 44.7-43.6c0 0 56.9-90.7 116.4 37.3 0 0 53.8-29.1 73.6 34.1 0 0 33.1-61.7 80.2-41.3s63.2 76.6 63.2 76.6l-347.7 7.4z" fill="#70c0fd"/><path d="m1690.6 997c-1.7 1.2-32.4 56.2-32.4 56.2l-41.2-36.2 40-66.7 33.5 18.8v27.9z" fill="#ffc0bb"/><path d="m1633.9 988.8c5.1 14.4 15.5 33.4 36.3 43 8.8-15.6 19.4-34.1 20.4-34.8v-28l-33.5-18.8z" fill="#f99893"/><path d="m1259.8 1552.8s-11.7-8.2-22.8 18.1 3.8 36.8 3.8 36.8 19.2-14.2 19-16.9-.9-36.7-.9-36.7z" fill="#fff"/><path d="m1279 1543.3s-9.4-5.8-20 10.8c-3.9 6.1-8 15.3-11.8 28.9-14.2 50.6 0 50.6 0 50.6l23.8-10.1s22.8-58 21.4-62.8c-1.4-4.6-13.4-17.4-13.4-17.4z" fill="#ff5b7e"/><path d="m1479.1 1413h-395.7c-3.1 0-5.6 2.5-5.6 5.6v4.3c0 3.1 2.5 5.6 5.6 5.6h395.7c3.1 0 5.6-2.5 5.6-5.6v-4.3c0-3.1-2.5-5.6-5.6-5.6z" fill="#283f56"/><path d="m1380.9 1420.8h27.3v72.4h-27.3z" fill="#283f56"/><path d="m1188.9 1473.4h-9.1c-6.6 0-11.9-5.3-11.9-11.9v-54.9h32.9v54.9c0 6.6-5.3 11.9-11.9 11.9z" fill="#283f56"/><path d="m1196.2 1457c3.9 4.5 99.7 94.6 99.7 94.6l-8.1 11.1-101.2-99.8z" fill="#283f56"/><path d="m2066 1623.2h5.4c11.2 0 20.2 9.1 20.2 20.2v26h-25s-11.1-19.2-15.2-15.2c-3.9 4.1 14.6-31 14.6-31z" fill="#ffe5b6"/><ellipse cx="1413.4" cy="1819.9" fill="#1a1a1a" rx="146.7" ry="146.7" transform="matrix(.7071 -.7071 .7071 .7071 -872.9098 1532.4375)"/><path d="m1479.5 1819.9c0 36.5-29.6 66.1-66.1 66.1s-66.1-29.6-66.1-66.1 29.6-66.1 66.1-66.1 66.1 29.6 66.1 66.1z" fill="#9e9da2"/><ellipse cx="2108.9" cy="1819.9" fill="#1a1a1a" rx="146.7" ry="146.7" transform="matrix(.02497684 -.9997 .9997 .02497684 236.838 3882.6575)"/><path d="m2175 1819.9c0 36.5-29.6 66.1-66.1 66.1s-66.1-29.6-66.1-66.1 29.6-66.1 66.1-66.1 66.1 29.6 66.1 66.1z" fill="#9e9da2"/><path d="m1588.5 1798.3h-346.6c-16.9 0-30.5-13.7-30.5-30.5v-31.4c0-16.9 13.7-30.5 30.5-30.5h346.6z" fill="#283f56"/><path d="m1654.9 1532.9h-288.6c-11 0-19.9-8.9-19.9-19.9v-15.3c0-11 8.9-19.9 19.9-19.9h288.6c11 0 19.9 8.9 19.9 19.9v15.3c0 11-8.9 19.9-19.9 19.9z" fill="#ff5b7e"/><path d="m1663.3 1527.7s-26.3 14.5-47.5 75.2-16.7 152.3 115.4 159.4h202.9l20.2-35.6s-17.2-242.2-56.7-349.5h66.8s20.2 206.2 91 234c6.8 2.7 11.2 9.3 11.2 16.7v40.8l-107.3 138.7h-353.2s-83 7.3-103.2-133.6l-239.5-3.7c-13.1-.2-22.4-12.9-18.6-25.5 7.5-24.3 22.7-58.6 50.3-66.2 43.8-11.9 368.2-50.7 368.2-50.7z" fill="#333"/><path d="m1276.4 1586.4c.3.5.7 1.1 1 1.6h344.1l3.5-8.1c18.9-41.5 38.3-52.2 38.3-52.2h-352.9c-30.1 0-49.4 32.8-34 58.7z" fill="#283f56"/><path d="m1255.5 1705.9h257.1c27.6 0 47-27.2 38-53.3-13.7-39.4-45.5-81.8-123.9-89-101.2-9.4-162.4 71.5-186.7 116.4-6.3 11.6 2.2 25.9 15.5 25.9z" fill="#ff5b7e"/><path d="m1959.4 1807.4 78.9-127.5s40.5-31.4 120.4-15.2c49.7 10.1 79 43.2 94.1 66.9 7 11-.8 25.4-13.8 25.4h-121.6c-37.3 0-72.5 16.9-95.9 45.9l-3.1 3.9c-16.9 20.9-42.3 33.1-69.2 33.1-18.2 0-35.7-6.9-48.9-19.4l-13.8-13h72.9z" fill="#ff5b7e"/><path d="m1969.9 1250.3c0-10.7-9.8-18.8-20.3-16.7-44.8 8.8-91.8 44.7-91.8 87.6s47 78.8 91.8 87.6c10.5 2.1 20.3-6 20.3-16.7z" fill="#ff5b7e"/><path d="m1969.9 1250.7v141c29.9-9.5 51.6-37.5 51.6-70.5 0-33.1-21.7-61-51.6-70.5z" fill="#fff"/><path d="m1106.8 1202.7h348.9v210.4h-348.9z" fill="#ff5b7e"/><path d="m1099.4 1176.2h363.7v26.5h-363.7z" fill="#d12a56"/><path d="m1191.5 1455.7c0 4-3.2 7.2-7.2 7.2s-7.2-3.2-7.2-7.2 3.2-7.2 7.2-7.2 7.2 3.2 7.2 7.2z" fill="#282828"/><path d="m1493 1627.4h-166.1c-1.9 0-3.5-1.6-3.5-3.5v-2.7c0-1.9 1.6-3.5 3.5-3.5h166.1c1.9 0 3.5 1.6 3.5 3.5v2.7c-.1 2-1.6 3.5-3.5 3.5z" fill="#333"/><path d="m1493 1651.8h-166.1c-1.9 0-3.5-1.6-3.5-3.5v-2.7c0-1.9 1.6-3.5 3.5-3.5h166.1c1.9 0 3.5 1.6 3.5 3.5v2.7c-.1 1.9-1.6 3.5-3.5 3.5z" fill="#333"/><path d="m1793.9 1635-12.7 136.2-10.8 19.6-19.6-14.1.4-145.2z" fill="#ffc0bb"/><path d="m1867.5 1622.2-6.3 149-10.9 19.6-19.6-14.1.4-145.2z" fill="#ffc0bb"/><path d="m1911.1 1800.1-84.6.3c-.7 0-1.2-.5-1.2-1.2v-6.4c0-.7.5-1.2 1.2-1.2l84.6-.3c.7 0 1.2.5 1.2 1.2v6.4c0 .7-.5 1.2-1.2 1.2z" fill="#daeef7"/><path d="m1829.2 1765-2.8 24.3c-.3 3 1.3 5.7 3.5 5.7l76.6-.3c2 0 4-1.3 5-3.6 1.1-2.4 1.3-6-2.2-10.8-6.9-9.7-29.4-12-40.5-20.2l-35.7.1c-1.9.1-3.5 2.1-3.9 4.8z" fill="#ff5b7e"/><path d="m1863.6 1774.4c-.6-.3-.8-1.3-.4-2 1.5-3.3 6.2-11.5 15.7-9.8.6.1.9.8.8 1.6-.1.7-.6 1.2-1.1 1.1-8.6-1.4-12.6 5.7-13.8 8.5-.2.6-.8.8-1.2.6z" fill="#daeef7"/><path d="m1871.5 1777.5c-.6-.3-.8-1.3-.4-2 1.5-3.3 6.2-11.5 15.7-9.8.6.1.9.8.8 1.6-.1.7-.6 1.2-1.1 1.1-8.6-1.4-12.6 5.7-13.8 8.5-.2.6-.7.8-1.2.6z" fill="#daeef7"/><path d="m1878.9 1780.4c-.6-.3-.8-1.3-.4-2 1.5-3.3 6.2-11.5 15.7-9.8.6.1.9.8.8 1.6-.1.7-.6 1.2-1.1 1.1-8.6-1.4-12.6 5.7-13.8 8.5-.2.6-.7.8-1.2.6z" fill="#daeef7"/><path d="m1850.4 1795c-6.1-19.6-16.5-21.8-22.2-21.3l-1.8 15.7c-.3 3 1.3 5.7 3.5 5.7z" fill="#e87b50" opacity=".3"/><path d="m1493 1676.1h-166.1c-1.9 0-3.5-1.6-3.5-3.5v-2.7c0-1.9 1.6-3.5 3.5-3.5h166.1c1.9 0 3.5 1.6 3.5 3.5v2.7c-.1 1.9-1.6 3.5-3.5 3.5z" fill="#333"/><path d="m1813.8 1434.5c10 .8 51.6 17.7 57 47.8s0 263.6 0 263.6h-46.2s-37-185-37-190.4 26.2-121 26.2-121z" fill="#282828"/><path d="m1496.3 1367.5c.8 2.3-10.2 105.6 95.1 114.1s166.2 22.4 166.2 22.4-14.6 233.5-13.9 245.1c0 0 36.2 6.2 51.6 3.9 0 0 82.5-259 58.6-312.2s-214.3-73.2-214.3-73.2h-143.3z" fill="#333"/><path d="m1671.5 1181.8s1.1 50.3 4.4 54.9c3.3 4.7 162.9 65.6 162.9 65.6l-26.2 29.6-117.5-33.6s-84.2-30.2-83.3-32.4 5.5-33.1 9.7-45.2 19.9-39.5 19.9-39.5z" fill="#f9b7b4"/><path d="m1612.7 1006.4s-106.6 38.7-118.7 249.1l-5.2 119.7s121.4 52 190.8 6.9c0 0 7-213.6 14.3-291.6 1.2-13.2-4.1-26.1-14.3-34.5-23.3-19.3-63-51.4-66.9-49.6z" fill="#feb546"/><path d="m1575.7 1155.9s-26.1 107.7 10.4 137.3c22.7 18.5 234.6 54.7 234.6 54.7l13.7-33s-168.7-60.2-178.8-67.2 6.8-99.1 6.8-99.1z" fill="#ffc0bb"/><path d="m1658.1 1045.3c-9.5-8.5-23.2-10.7-35-5.7-16.3 6.9-39.6 26.4-52.2 81.4l-10.7 47.4s79.2 19.4 103.5 18.3l12.4-73.3s7.1-45.8-18-68.1z" fill="#f4a640"/><path d="m1398.8 1176.2h-64.8l-121.6 236.8h64.9z" fill="#333"/><path d="m1317.2 1325.9-43.5-22.3c-6.7-3.4-9.3-11.6-5.9-18.3l12.8-24.9c3.4-6.7 11.6-9.3 18.3-5.9l43.5 22.3c6.7 3.4 9.3 11.6 5.9 18.3l-12.8 24.9c-3.4 6.7-11.6 9.3-18.3 5.9zm-21.9-64.4c-2.8-1.4-6.2-.3-7.6 2.4l-12.8 24.9c-1.4 2.8-.3 6.2 2.4 7.6l43.5 22.3c2.8 1.4 6.2.3 7.6-2.4l12.8-24.9c1.4-2.8.3-6.2-2.4-7.6z" fill="#ffe5b6"/><path d="m1647.2 927.1c5.4 11.7 1 24.8-9.7 29.3s-23.8-1.3-29.2-13-1-24.8 9.7-29.3 23.8 1.3 29.2 13z" fill="#ffc0bb"/><path d="m1829.2 1800.1-84.6.3c-.7 0-1.2-.5-1.2-1.2v-6.4c0-.7.5-1.2 1.2-1.2l84.6-.3c.7 0 1.2.5 1.2 1.2v6.4c0 .7-.5 1.2-1.2 1.2z" fill="#daeef7"/><path d="m1747.3 1765-2.8 24.3c-.3 3 1.3 5.7 3.5 5.7l76.6-.3c2 0 4-1.3 5-3.6 1.1-2.4 1.3-6-2.2-10.8-6.9-9.7-29.4-12-40.5-20.2l-35.7.1c-1.9.1-3.6 2.1-3.9 4.8z" fill="#ff5b7e"/><path d="m1781.7 1774.4c-.6-.3-.8-1.3-.4-2 1.5-3.3 6.2-11.5 15.7-9.8.6.1.9.8.8 1.6-.1.7-.6 1.2-1.1 1.1-8.6-1.4-12.6 5.7-13.8 8.5-.2.6-.8.8-1.2.6z" fill="#daeef7"/><path d="m1789.6 1777.5c-.6-.3-.8-1.3-.4-2 1.5-3.3 6.2-11.5 15.7-9.8.6.1.9.8.8 1.6-.1.7-.6 1.2-1.1 1.1-8.6-1.4-12.6 5.7-13.8 8.5-.2.6-.7.8-1.2.6z" fill="#daeef7"/><path d="m1797 1780.4c-.6-.3-.8-1.3-.4-2 1.5-3.3 6.2-11.5 15.7-9.8.6.1.9.8.8 1.6-.1.7-.6 1.2-1.1 1.1-8.6-1.4-12.6 5.7-13.8 8.5-.2.6-.7.8-1.2.6z" fill="#daeef7"/><path d="m1768.5 1795c-6.1-19.6-16.5-21.8-22.2-21.3l-1.8 15.7c-.3 3 1.3 5.7 3.5 5.7z" fill="#e87b50" opacity=".3"/><path d="m1978.6 1843.3h-427.7c-10.1 0-18.3-8.2-18.3-18.3v-14.1c0-10.1 8.2-18.3 18.3-18.3h427.7c10.1 0 18.3 8.2 18.3 18.3v14.1c-.1 10.1-8.2 18.3-18.3 18.3z" fill="#283f56"/><path d="m1335 1968h-283.4s-129.6-40.1 0-38.7c0 0-76.2-56.7 39.1-43.2 115.4 13.5 126.2 47.9 126.2 47.9s22.9-40.7 118.1 34z" fill="#fff" opacity=".8"/><path d="m1706.9 1967.1 184.3-1.3s-100.7-58-114.9-32.7c0 0-178.4-36.9-69.4 34z" fill="#fff" opacity=".8"/><path d="m2285.4 1967.3h-323.2s-28.9-34.7 34.7-22.1c0 0-41.2-53.1 54.1-31.8l57.9 19.4s-94.6-119.6 11.6-78.1 164.9 112.6 164.9 112.6z" fill="#fff" opacity=".8"/><path d="m1523.8 1967.1h-85.4s-11.1-24.3 20-12.1c0 0-41.9-81.7 65.4 12.1z" fill="#fff" opacity=".8"/><path d="m1728.3 978.4-4.2 16.3s-36.6-29.6-36.3-30.2 6.6-11.1 9.4-10.3c2.7.9 25.6 9.7 25.6 10.3s5.5 13.9 5.5 13.9z" fill="#fff"/><path d="m1702.7 967.2c11.1 10.8 22 13.1 26.9 13.5 1.6-5.6 2.6-9.7 2.6-9.7s12.3-3.8 16.2-8.2c0 0-12.4-17-12.6-25s12.2-55.8-22.2-82.9-54.9 21.5-54.9 21.5l-14.6 50.3-20 30.4s4.8 27.5 32.1 46.9 57.5 12 62.6 9.6c1.3-.6 4.9-12.5 8.1-23.5-17.7-6.2-24.2-22.9-24.2-22.9z" fill="#ffc0bb"/><path d="m1709.1 936.3c1.5 2.5 4.8 3.4 7.4 2s3.6-4.6 2.1-7.1-4.8-3.4-7.4-2-3.5 4.6-2.1 7.1z" fill="#333"/><path d="m1701.3 926.7c1.9-1.6 3.8-3 5.7-4.2s4-2.1 6.1-2.7 4.3-1 6.5-.9h.9.9l1.7.1c1.2.1 2.3.3 3.6.3-1-.7-2-1.4-3.1-1.9-1.2-.4-2.3-1-3.6-1.1-2.5-.6-5.2-.4-7.8.4-2.6.7-4.9 2.1-6.8 3.9-1.8 1.6-3.3 3.7-4.1 6.1z" fill="#333"/><path d="m1664.4 900s-12.1 10.2-15.1 57.3c-2.3 36.5-32.9 42.4-32.3 42.2s8.6-80.2 10.1-82.9 11.8-33.1 13.4-33.9 22.4 12.8 23.6 13.2c1.2.3.3 4.1.3 4.1z" fill="#d12a56"/><path d="m1761.3 866.5s-12.3-80.8-116-76.4-100.3 124.6-100.3 124.6-4.2 87.1 57.9 87.1c0 0 42 2.7 42-49.7 0-50.7 15.4-50.7 15.4-50.7z" fill="#ff5b7e"/><path d="m1567.7 831.9c-24 36.2-22.6 82.7-22.6 82.7s-4.2 87.1 57.9 87.1c0 0 40.9 2.6 42-47.7-57.1-20.1-75.4-70.2-77.3-122.1z" fill="#ff5b7e" opacity=".5"/><path d="m1613.1 969c0 6.5-5.3 11.8-11.8 11.8s-11.8-5.3-11.8-11.8 5.3-11.8 11.8-11.8c6.5.1 11.8 5.3 11.8 11.8z" fill="#d12a56"/><path d="m1660.3 901.4c3.1-1.1 82.2-7.2 119.3-10 6.3-.5 8.6-8.7 3.4-12.3l-21.7-15.1z" fill="#1a1a1a"/><path d="m1660.3 901.4c3.5-1.2 80.7-26.8 103-34.1 3.2-1.1 4.8-4.6 3.5-7.7l-3-7c-1.3-3.1-5.1-4.4-8-2.8z" fill="#283f56"/><path d="m1814.9 1311.4s26.2-15.9 37.6-15.9 35.3 6.8 35.3 18.2-6.8 18.2-6.8 18.2l-23.1 19.9s-11 8.5-15.6 4-18.2 1.1-40.8-11.3c-22.1-12.2-1.4-19.4 2-22.8s11.4-10.3 11.4-10.3z" fill="#ffc0bb"/><path d="m1887.5 1328.2c0 13.4-10.8 24.2-24.2 24.2s-24.2-10.8-24.2-24.2 10.8-24.2 24.2-24.2c13.3 0 24.2 10.9 24.2 24.2z" fill="#1a1a1a"/><path d="m2978.2 1995.8h-2534.3c-5.8 0-10.5-4.7-10.5-10.5v-8.1c0-5.8 4.7-10.5 10.5-10.5h2534.3c5.8 0 10.5 4.7 10.5 10.5v8.1c0 5.8-4.7 10.5-10.5 10.5z" fill="#07085b"/><path d="m2489.3 1810c-27.5.5-54.7-7-77.8-22.1-18.5-12.1-35.9-29.9-39.1-55.1-7.3-57.5 25.8-55.6 33.9-79s-16-33.9-5.6-76.6c5.6-22.9 23.3-32.9 50.8-69.7s60.9-55.7 85.3-42 23.4 43.3 41.5 53.1 45.9 44.2 35.3 109.5 61.2 41 33.1 116.5c-20.6 55.5-110.7 64.5-157.4 65.4z" fill="#70c0fd"/><path d="m2522.1 1760.6c-2.6 36.3-6.3 180.8-.9 193.4 8.1 18.7-34.5-4.6-34.5-4.6s11.3-86.3 17.9-128.4c2.9-18.8 8.3-75.2 8.3-80.1-.2-.4-.5-.9-.7-1.3-9.5-17.9-29.3-36.6-58.5-47.3 22.4 5.7 43.4 17 58.9 34.4-.4-6.3-1.3-11.3-2.6-14.6-4.3-10.3-11.8-22.7-32.7-38.1-4.3-3.1-8.7-6-13.4-8.5-2.3-1.2-4.8-2.4-7.2-3.4-2.5-1-5-1.9-7.6-2.6 2.7.4 5.3.9 8 1.5 2.6.7 5.2 1.5 7.8 2.4 5.1 1.9 10.1 4.2 14.9 6.8 3 1.7 6 3.4 9 5.3-12.6-24.8-24.9-61-19.8-109.2 0 0 1.4 32.4 9.4 62 1.3-4.8 3.1-9.4 5.2-13.8 4.7-9.5 7.4-12.9 11.6-18.7 1.5-1.9 3.1-3.8 4.6-5.7-1.3 2.1-2.6 4.1-3.9 6.2-3.4 6.1-5.6 9.8-9.1 19.5-1.5 4.5-2.7 9.1-3.4 13.7-1 7.8-.5 13.4-.5 13.4 1.6 4.2 3.3 8.2 5.3 11.9 12.5 23.6 27.6 40.5 34 54.3 2.4-4.5 4.9-8.9 7.3-13.4 5.3-9.4 10.8-18.8 16.5-28 .9-1.5 1.9-3 2.8-4.5 2.2-6.6 3.6-14.4 4.3-21.1.9-8.5.9-13.1.8-20.1.9 6.9 1.3 11.6 1.3 20.3 0 3.4-.2 6.8-.5 10.2 0 .6-.1 1.1-.2 1.7 0 0 .1-.1.1-.1 3-4.5 6-9 9.1-13.4s6.4-8.8 9.7-13c3.4-4.2 6.9-8.3 10.8-12.1-3.6 4.1-6.8 8.4-9.9 12.8s-6 9-8.8 13.6-5.5 9.2-8.2 13.9c-2.6 4.7-5.2 9.4-7.7 14.2-.3.6-.6 1.2-1 1.8 1.1-.3 2.7-.7 6.1-1.5 13-2.9 23.7-3.6 33.3-4.2-8.9 1.4-19.5 3.1-32.5 7.3-3.2 1-6.5 2.2-9.6 3.5-3.7 7.3-7.3 14.6-10.9 21.9-2.3 4.9-4.6 9.7-6.8 14.6-.9 2-2.2 3.8-2.6 5.9-1.3 7.8-3.5 41.2-3.5 41.2z" fill="#07085b"/><path d="m465.2 1967.1s24.9-37.6 70.2-29.5c0 0 25-53 94.2-53.6 70.2-.6 83.5 48.3 83.5 48.3s20-16.9 65.3.5c45.3 17.3 61.3 48.6 61.3 48.6z" fill="#07085b"/><path d="m2784.7 1904.7s-2.9-48-44.7-43.6c0 0-56.9-90.7-116.4 37.3 0 0-53.8-29.1-73.6 34.1 0 0-33.1-61.7-80.2-41.3s-63.2 76.6-63.2 76.6l347.7 7.4z" fill="#70c0fd"/><path d="m2972 1967.1s-24.9-37.6-70.2-29.5c0 0-25-53-94.2-53.6-70.2-.6-83.5 48.3-83.5 48.3s-20-16.9-65.3.5c-45.3 17.3-61.3 48.6-61.3 48.6z" fill="#07085b"/><path d="m2702.2 1687c-26.1-13.4-48-35.6-55.9-62.7-7.6-26.2-1.7-54 4.7-80.4 2.8-11.6 5.6-24 1.1-35.1-2.8-6.9-8.2-12.5-13.1-18.3-42.2-49.7-51.8-117.9-46.5-181.5 1.5-17.7 4.1-35.7 12.9-51.3s24.8-28.6 43.4-29.8c28.7-1.9 56.1 23.5 83.5 15 19.6-6.1 29.5-27.2 47.3-37.2 14.9-8.4 33.4-7.9 50.7-7.1 5.5.2 11 .5 16.1 2.5 11.5 4.5 17.3 16.5 20.9 27.7 5.9 18.2 8.8 37.1 14.7 55.3s15.3 36.1 31.3 47.6c12.8 9.3 28.6 13.7 43.1 20.5 35.6 16.8 61.6 47.9 80.8 81 5.8 9.9 11.1 20.1 14 31.1 9.2 34.4-8.6 73.8-41.3 91.1-12.2 6.4-25.9 10-38 16.5-27.8 14.9-44 43.2-59.9 69.4-15.9 26.3-35.1 53.6-65 64.1-40.9 14.1-107.6.6-144.8-18.4z" fill="#70c0fd"/><path d="m2990.9 1512.7c-6.5-.9-13-1.4-19.5-1.7s-13.1-.2-19.6 0c-1.8.1-3.6.1-5.4.2 8.3-4 16.5-8.4 24.3-13.9 8.4-5.9 16.4-13 22.7-22.1-6.8 8.5-15 14.8-23.6 19.8-8.6 5.1-17.7 9-26.8 12.3-8.4 3.1-16.9 5.7-25.4 8.1 1.3-2.3 2.5-4.6 3.5-7 2.4-5.3 4.4-10.9 5.8-16.7 1.5-5.8 2.4-11.7 2.8-17.6s.3-11.9-.2-17.8c0 5.9-.4 11.8-1.3 17.5s-2.3 11.3-4.1 16.6-4.1 10.4-6.8 15c-1.3 2.3-2.7 4.6-4.3 6.7-1.2 1.7-3.4 4.8-5 5.7-7 1.9-14.1 3.6-21.1 5.4-22.5 5.8-54.1 13.2-88.9 43-1.5-17.4-3-37.3-4.1-51.2-.9-11.9-.2-23.8 2.1-35.4 0-.1 0-.1 0-.2 2.4-11.9 4.9-23.9 7.5-35.8 4-18 8.1-36 12.5-53.9 8.9-37.6 6.8-42.5 7.6-51.1.2-2.3.2-4.7 0-7 0-.1 0-.2 0-.4-.6-7.8-1.5-15.5-2.6-23.2-2.8-19.5-5.3-29.8-9.1-45.2 2.6 15.8 4.1 26.3 5.3 45.7.4 7.7.6 15.3.6 23 0 3.8-.1 7.6-.3 11.4-.1 1.9-.2 3.8-.3 5.7-.1.9-.1 1.9-.2 2.8 0 .6-3.2 14-4.4 17.8-7.3 23.1-14.2 46.4-20.8 69.9-3.1 11-6.1 22-9 33.1 0 0-1.5 5.1-3 14.9-.7-2.1-6.4-18-9.2-24.5-14-33-28.2-61.2-51.5-95-9-13-10.1-14.2-22-29.6 14.7 21.7 10.4 15.1 20.4 31.2 21.3 35.1 34 64.3 46.1 97.5 4.4 13.2 6.7 19.8 11.1 37.2.5 2.1 1.1 4.2 1.5 6.3.3 1.2.5 2.4.8 3.5-1 16.3-.3 32.7 1.6 48.9.8 6.6 8.5 125.3 9.4 168.8 2 97.7-15.3 208.3-15.3 208.3s103.4 32.2 82.4-6.7c-14.1-26.1-47.9-262-55.3-344.9.6-.6 1.1-1.2 1.7-1.8 31.4-34 64.1-45.1 87.3-53.3 10.7-3.7 21.5-7.4 32.2-11.4 6.3-1.3 24.6-4.6 31-5.5 6.4-.8 12.9-1.4 19.3-1.8 6.5-.3 12.9-.4 19.4-.1 6.5.4 12.9 1.1 19.3 2.6-6.1-1.8-12.6-3.1-19.1-4.1z" fill="#07085b"/></svg>