<?xml version="1.0" encoding="utf-8"?>
<!-- Generator: Adobe Illustrator 23.0.1, SVG Export Plug-In . SVG Version: 6.00 Build 0)  -->
<svg version="1.1" id="Layer_1" xmlns="http://www.w3.org/2000/svg" xmlns:xlink="http://www.w3.org/1999/xlink" x="0px" y="0px"
	 viewBox="0 0 640 480" style="enable-background:new 0 0 640 480;" xml:space="preserve">
<style type="text/css">
	.st0{fill:#FFFFFF;stroke:#5067FF;stroke-width:5;stroke-miterlimit:10;}
	.st1{fill:none;}
	.st2{fill:#5067FF;}
	.st3{fill:#FFFFFF;}
</style>
<circle class="st0" cx="324.4" cy="182" r="82.4"/>
<rect x="296.5" y="136" class="st1" width="6.3" height="9.9"/>
<circle class="st2" cx="324.4" cy="182" r="71"/>
<g>
	<g>
		<g>
			<path class="st3" d="M348.5,187.8c-6.3,0-11.5,5.1-11.5,11.5s5.1,11.5,11.5,11.5c6.3,0,11.5-5.1,11.5-11.5
				S354.9,187.8,348.5,187.8z M348.5,205c-3.2,0-5.7-2.6-5.7-5.7s2.6-5.7,5.7-5.7c3.2,0,5.7,2.6,5.7,5.7
				C354.3,202.4,351.7,205,348.5,205z"/>
		</g>
	</g>
	<g>
		<g>
			<path class="st3" d="M309.4,187.8c-6.3,0-11.5,5.1-11.5,11.5s5.1,11.5,11.5,11.5s11.5-5.1,11.5-11.5S315.7,187.8,309.4,187.8z
				 M309.4,205c-3.2,0-5.7-2.6-5.7-5.7s2.6-5.7,5.7-5.7c3.2,0,5.7,2.6,5.7,5.7C315.1,202.4,312.5,205,309.4,205z"/>
		</g>
	</g>
	<g>
		<g>
			<path class="st3" d="M356.3,155c-0.5-1-1.5-1.6-2.6-1.6h-15.1v5.7h13.3l7.8,15.5l5.1-2.6L356.3,155z"/>
		</g>
	</g>
	<g>
		<g>
			<rect x="318.2" y="196.5" class="st3" width="21.7" height="5.7"/>
		</g>
	</g>
	<g>
		<g>
			<path class="st3" d="M300.7,196.5h-9.9c-1.6,0-2.9,1.3-2.9,2.9c0,1.6,1.3,2.9,2.9,2.9h9.9c1.6,0,2.9-1.3,2.9-2.9
				S302.3,196.5,300.7,196.5z"/>
		</g>
	</g>
	<g>
		<g>
			<path class="st3" d="M370.2,179l-5.6-7.3c-0.5-0.7-1.4-1.1-2.3-1.1h-20.8v-20.1c0-1.6-1.3-2.9-2.9-2.9h-47.8
				c-1.6,0-2.9,1.3-2.9,2.9s1.3,2.9,2.9,2.9h44.9v20.1c0,1.6,1.3,2.9,2.9,2.9h22.3l4.2,5.4v14.8h-7.9c-1.6,0-2.9,1.3-2.9,2.9
				c0,1.6,1.3,2.9,2.9,2.9h10.8c1.6,0,2.9-1.3,2.9-2.9v-18.6C370.8,180.1,370.6,179.5,370.2,179z"/>
		</g>
	</g>
	<g>
		<g>
			<path class="st3" d="M300.5,182h-13.2c-1.6,0-2.9,1.3-2.9,2.9c0,1.6,1.3,2.9,2.9,2.9h13.2c1.6,0,2.9-1.3,2.9-2.9
				C303.4,183.3,302.1,182,300.5,182z"/>
		</g>
	</g>
	<g>
		<g>
			<path class="st3" d="M307.1,170.7h-24.5c-1.6,0-2.9,1.3-2.9,2.9c0,1.6,1.3,2.9,2.9,2.9h24.5c1.6,0,2.9-1.3,2.9-2.9
				S308.7,170.7,307.1,170.7z"/>
		</g>
	</g>
	<g>
		<g>
			<path class="st3" d="M311.8,159.4h-24.5c-1.6,0-2.9,1.3-2.9,2.9c0,1.6,1.3,2.9,2.9,2.9h24.5c1.6,0,2.9-1.3,2.9-2.9
				C314.7,160.7,313.4,159.4,311.8,159.4z"/>
		</g>
	</g>
</g>
</svg>
