<?xml version="1.0" encoding="utf-8"?>
<!-- Generator: Adobe Illustrator 23.0.1, SVG Export Plug-In . SVG Version: 6.00 Build 0)  -->
<svg version="1.1" id="_x3C_Layer_x3E_" xmlns="http://www.w3.org/2000/svg" xmlns:xlink="http://www.w3.org/1999/xlink" x="0px"
	 y="0px" viewBox="0 0 3116 1640" style="enable-background:new 0 0 3116 1640;" xml:space="preserve">
<style type="text/css">
	.st0{fill:#FFFFFF;}
	.st1{fill:#EBF3FA;}
	.st2{fill:#F8FBFF;}
	.st3{fill:#C4D9ED;}
	.st4{fill:#D5E7F7;}
	.st5{fill:#DCEAF9;}
	.st6{opacity:0.8;}
	.st7{fill:#ADC9E0;}
	.st8{fill:#ABC6DD;}
	.st9{fill:#A8302D;}
	.st10{opacity:0.3;fill:#A8302D;}
	.st11{fill:#661717;}
	.st12{fill:#C94C43;}
	.st13{fill:#631818;}
	.st14{fill:#822121;}
	.st15{fill:#4444C6;}
	.st16{fill:#A2C2DD;}
	.st17{fill:#2F40A5;}
	.st18{fill:#445CC6;}
	.st19{fill:#4450C6;}
	.st20{opacity:0.3;fill:#8E2323;}
	.st21{fill:#26308C;}
	.st22{fill:#F99746;}
	.st23{fill:#699FF0;}
	.st24{fill:#A8D29F;}
	.st25{fill:#283250;}
	.st26{fill:#FFB27D;}
	.st27{fill:#FFC197;}
	.st28{opacity:0.3;fill:#E2915A;}
	.st29{fill:#D3671E;}
	.st30{opacity:0.4;fill:#D3671E;}
	.st31{opacity:0.4;fill:#D86713;}
	.st32{fill:#FBECDB;}
	.st33{fill:#FCE6D2;}
	.st34{fill:#F1A34F;}
	.st35{fill:#DDB997;}
	.st36{fill:#CA5F00;}
</style>
<rect class="st0" width="3116" height="1640"/>
<g>
	<path class="st1" d="M2783.29,1471.56c0,0-133.96,0.22-338.28,0.65c-598.25,1.09-1800.07,3.05-2009.72,2.07
		c-281.32-1.31-475.94-729.26,50.1-679.82c571.34,53.58,153.46-274.24,489.99-328.58c366.27-59.25,440.11,168.59,703.13,75.47
		c359.51-127.32,554.79-82.99,679.93,9.91c137.23,101.94,189.83,262.37,281.97,318.45c2.07,1.31,4.14,2.5,6.21,3.59
		c179.05,98.02,260.08,192.88,286.54,277.07C2992.18,1337.17,2783.29,1471.56,2783.29,1471.56z"/>
	<path class="st2" d="M2640.43,869.75L1283.3,1100.51L1181.96,979l1176.45-427.72C2495.66,653.22,2548.31,813.6,2640.43,869.75z"/>
	<path class="st2" d="M1931.87,583.01L588.91,1015.77c39.56-28.84-51.42-185.19,1.99-237.07L1931.87,583.01z"/>
	<path class="st2" d="M2097.04,510.01c-17.88,0-32.37,14.49-32.37,32.37c0,17.88,14.49,32.37,32.37,32.37
		c17.88,0,32.37-14.49,32.37-32.37C2129.41,524.5,2114.92,510.01,2097.04,510.01z"/>
	<g>
		<g>
			<rect x="1678.06" y="615.66" class="st3" width="153.23" height="745.13"/>
			<rect x="1712.48" y="615.66" class="st4" width="153.23" height="745.13"/>
			
				<rect x="1712.51" y="615.46" transform="matrix(-1 -1.224647e-16 1.224647e-16 -1 3578.2178 1273.9736)" class="st3" width="153.19" height="43.06"/>
			
				<rect x="1712.51" y="708.84" transform="matrix(-1 -1.224647e-16 1.224647e-16 -1 3578.2178 1460.7461)" class="st3" width="153.19" height="43.06"/>
			
				<rect x="1712.51" y="802.23" transform="matrix(-1 -1.224647e-16 1.224647e-16 -1 3578.2178 1647.5186)" class="st3" width="153.19" height="43.06"/>
			
				<rect x="1712.51" y="895.62" transform="matrix(-1 -1.224647e-16 1.224647e-16 -1 3578.2178 1834.29)" class="st3" width="153.19" height="43.06"/>
			
				<rect x="1712.51" y="989" transform="matrix(-1 -1.224647e-16 1.224647e-16 -1 3578.2178 2021.0616)" class="st3" width="153.19" height="43.06"/>
			
				<rect x="1712.51" y="1082.39" transform="matrix(-1 -1.224647e-16 1.224647e-16 -1 3578.2178 2207.833)" class="st3" width="153.19" height="43.06"/>
			
				<rect x="1712.51" y="1175.77" transform="matrix(-1 -1.224647e-16 1.224647e-16 -1 3578.2178 2394.6064)" class="st3" width="153.19" height="43.06"/>
			
				<rect x="1712.51" y="1269.16" transform="matrix(-1 -1.224647e-16 1.224647e-16 -1 3578.2178 2581.3779)" class="st3" width="153.19" height="43.06"/>
		</g>
		<g>
			<rect x="1923.01" y="721.09" class="st3" width="153.23" height="639.69"/>
			<rect x="1957.42" y="721.09" class="st4" width="153.23" height="639.69"/>
			
				<rect x="1957.46" y="720.92" transform="matrix(-1 -1.224647e-16 1.224647e-16 -1 4068.1143 1478.8125)" class="st3" width="153.19" height="36.96"/>
			
				<rect x="1957.46" y="801.09" transform="matrix(-1 -1.224647e-16 1.224647e-16 -1 4068.1143 1639.1543)" class="st3" width="153.19" height="36.96"/>
			
				<rect x="1957.46" y="881.27" transform="matrix(-1 -1.224647e-16 1.224647e-16 -1 4068.1143 1799.4971)" class="st3" width="153.19" height="36.96"/>
			
				<rect x="1957.46" y="961.44" transform="matrix(-1 -1.224647e-16 1.224647e-16 -1 4068.1143 1959.8398)" class="st3" width="153.19" height="36.96"/>
			
				<rect x="1957.46" y="1041.61" transform="matrix(-1 -1.224647e-16 1.224647e-16 -1 4068.1143 2120.1836)" class="st3" width="153.19" height="36.96"/>
			
				<rect x="1957.46" y="1121.78" transform="matrix(-1 -1.224647e-16 1.224647e-16 -1 4068.1143 2280.5273)" class="st3" width="153.19" height="36.96"/>
			
				<rect x="1957.46" y="1201.95" transform="matrix(-1 -1.224647e-16 1.224647e-16 -1 4068.1143 2440.8711)" class="st3" width="153.19" height="36.96"/>
			
				<rect x="1957.46" y="1282.13" transform="matrix(-1 -1.224647e-16 1.224647e-16 -1 4068.1143 2601.2148)" class="st3" width="153.19" height="36.96"/>
		</g>
		
			<rect x="1595.13" y="1337.93" transform="matrix(-1 -1.224647e-16 1.224647e-16 -1 3254.4287 2769.4258)" class="st5" width="64.17" height="93.57"/>
		<path class="st4" d="M1614.73,1210.29v259.77H935.05l-4.63-0.04l-173.46-1.63c-0.14-0.25-0.32-0.56-0.52-0.9
			c-0.29-0.5-0.62-1.09-1.01-1.76c-0.13-0.24-0.27-0.48-0.42-0.74c-0.51-0.92-1.1-1.96-1.75-3.15c-0.79-1.44-1.68-3.09-2.66-4.92
			v-0.01c-3.65-6.84-8.49-16.32-13.98-28.1c-1.81-3.87-3.67-7.99-5.61-12.35c-0.77-1.74-1.54-3.5-2.32-5.31v-0.01
			c-0.76-1.75-1.52-3.53-2.28-5.35c-0.03-0.06-0.05-0.12-0.08-0.18c-0.52-1.25-1.06-2.52-1.59-3.81c-0.56-1.32-1.11-2.65-1.66-4
			c-2.84-6.98-5.74-14.38-8.63-22.19c-0.08-0.2-0.15-0.41-0.23-0.62c0,0,0,0,0-0.01c-1.89-5.11-3.78-10.39-5.64-15.83
			c-1.03-2.99-2.04-6.02-3.06-9.1c-0.06-0.19-0.13-0.37-0.19-0.57c-0.45-1.37-0.89-2.74-1.33-4.12c-0.37-1.17-0.74-2.33-1.11-3.5
			c-0.76-2.42-1.52-4.86-2.27-7.32c-0.96-3.17-1.92-6.38-2.85-9.64c-1.27-4.42-2.51-8.91-3.72-13.48c-0.36-1.37-0.73-2.75-1.08-4.12
			c-1.06-4.13-2.11-8.31-3.12-12.54c-0.33-1.36-0.65-2.72-0.96-4.09c-0.2-0.84-0.4-1.69-0.59-2.53c-1.53-6.7-2.98-13.52-4.33-20.47
			c-1.49-7.65-2.87-15.45-4.1-23.38c-1.14-7.32-2.17-14.76-3.06-22.3c-0.84-7.12-1.56-14.32-2.15-21.61
			c-1.38-17.05-2.02-34.56-1.75-52.38c0.47-31.04,3.72-63.07,10.72-95.5c0.25-1.18,0.52-2.36,0.78-3.54
			c1.73-7.72,3.67-15.45,5.83-23.19c1.65-5.9,3.43-11.81,5.35-17.72c1.39-4.28,2.85-8.57,4.39-12.86
			c3.48-9.71,7.34-19.42,11.61-29.13h3.63v-8.06c23.19-50.03,57.37-99.6,106.02-146.48c0.91-0.88,1.82-1.75,2.73-2.62h2.85v99.37
			h87.94V746.33h97.04v105.11h22.12V725.95h97.04v235.28h122.73v137.19h45.85v34.56h105.33v-59.52h60.47V911.74h74.7v298.54H1614.73
			z"/>
		
			<rect x="1033.91" y="741.84" transform="matrix(-1 -1.224647e-16 1.224647e-16 -1 2164.9072 1507.6425)" class="st3" width="97.09" height="23.97"/>
		
			<rect x="1033.91" y="786.87" transform="matrix(-1 -1.224647e-16 1.224647e-16 -1 2164.9072 1597.7109)" class="st3" width="97.09" height="23.97"/>
		
			<rect x="1033.91" y="827.39" transform="matrix(-1 -1.224647e-16 1.224647e-16 -1 2164.9072 1678.743)" class="st3" width="97.09" height="23.97"/>
		
			<rect x="914.77" y="827.39" transform="matrix(-1 -1.224647e-16 1.224647e-16 -1 1926.6309 1678.743)" class="st3" width="97.09" height="23.97"/>
		
			<rect x="914.77" y="786.87" transform="matrix(-1 -1.224647e-16 1.224647e-16 -1 1926.6309 1597.7109)" class="st3" width="97.09" height="23.97"/>
		
			<rect x="914.77" y="746.41" transform="matrix(-1 -1.224647e-16 1.224647e-16 -1 1926.6309 1516.8018)" class="st3" width="97.09" height="23.97"/>
		
			<rect x="914.74" y="866.67" transform="matrix(-1 -1.224647e-16 1.224647e-16 -1 2045.7412 1757.3115)" class="st3" width="216.26" height="23.97"/>
		
			<rect x="914.74" y="905.95" transform="matrix(-1 -1.224647e-16 1.224647e-16 -1 2045.7412 1835.8799)" class="st3" width="216.26" height="23.97"/>
		
			<rect x="1464.63" y="911.76" transform="matrix(-1 -1.224647e-16 1.224647e-16 -1 3004.625 1860.5254)" class="st3" width="75.36" height="37"/>
		
			<rect x="1464.63" y="966.79" transform="matrix(-1 -1.224647e-16 1.224647e-16 -1 3004.625 1970.585)" class="st3" width="75.36" height="37"/>
		
			<rect x="1464.63" y="1021.82" transform="matrix(-1 -1.224647e-16 1.224647e-16 -1 3004.625 2080.6436)" class="st3" width="75.36" height="37"/>
		
			<rect x="1464.63" y="1079.5" transform="matrix(-1 -1.224647e-16 1.224647e-16 -1 3004.625 2196.0117)" class="st3" width="75.36" height="37"/>
		
			<rect x="1464.63" y="1135.4" transform="matrix(-1 -1.224647e-16 1.224647e-16 -1 3004.625 2307.8047)" class="st3" width="75.36" height="37"/>
		
			<rect x="1464.63" y="1191.3" transform="matrix(-1 -1.224647e-16 1.224647e-16 -1 3004.625 2419.5967)" class="st3" width="75.36" height="37"/>
		
			<rect x="1464.63" y="1249.78" transform="matrix(-1 -1.224647e-16 1.224647e-16 -1 3004.625 2536.5557)" class="st3" width="75.36" height="37"/>
		
			<rect x="914.74" y="944.35" transform="matrix(-1 -1.224647e-16 1.224647e-16 -1 2045.7412 1903.9113)" class="st3" width="216.26" height="15.22"/>
		<rect x="1437.89" y="911.76" class="st3" width="27.79" height="161.71"/>
		<rect x="1348.96" y="1073.47" class="st3" width="55.89" height="59.52"/>
		<path class="st3" d="M914.77,746.41v23.97l-0.02,96.28l-0.01,23.97v17.61h-19.26V748.32c0.87-0.64,1.73-1.28,2.59-1.91H914.77z"/>
		<rect x="1022.07" y="725.95" class="st3" width="11.84" height="125.4"/>
		<g class="st6">
			<g>
				<g>
					<g>
						
							<rect x="1217.17" y="984.83" transform="matrix(-1 -1.224647e-16 1.224647e-16 -1 2450.7832 1992.8506)" class="st3" width="16.45" height="23.19"/>
						
							<rect x="1186.4" y="984.83" transform="matrix(-1 -1.224647e-16 1.224647e-16 -1 2389.2598 1992.8506)" class="st3" width="16.45" height="23.19"/>
						
							<rect x="1156.33" y="984.83" transform="matrix(-1 -1.224647e-16 1.224647e-16 -1 2329.1123 1992.8506)" class="st3" width="16.45" height="23.19"/>
						
							<rect x="1127.82" y="984.83" transform="matrix(-1 -1.224647e-16 1.224647e-16 -1 2272.084 1992.8506)" class="st3" width="16.45" height="23.19"/>
						
							<rect x="1098.75" y="984.83" transform="matrix(-1 -1.224647e-16 1.224647e-16 -1 2213.96 1992.8506)" class="st3" width="16.45" height="23.19"/>
					</g>
					<g>
						
							<rect x="1069.36" y="984.83" transform="matrix(-1 -1.224647e-16 1.224647e-16 -1 2155.1729 1992.8506)" class="st3" width="16.45" height="23.19"/>
						
							<rect x="1038.6" y="984.83" transform="matrix(-1 -1.224647e-16 1.224647e-16 -1 2093.6475 1992.8506)" class="st3" width="16.45" height="23.19"/>
						
							<rect x="1008.53" y="984.83" transform="matrix(-1 -1.224647e-16 1.224647e-16 -1 2033.501 1992.8506)" class="st3" width="16.45" height="23.19"/>
						
							<rect x="980.01" y="984.83" transform="matrix(-1 -1.224647e-16 1.224647e-16 -1 1976.4736 1992.8506)" class="st3" width="16.45" height="23.19"/>
						
							<rect x="950.95" y="984.83" transform="matrix(-1 -1.224647e-16 1.224647e-16 -1 1918.3496 1992.8506)" class="st3" width="16.45" height="23.19"/>
					</g>
				</g>
				<g>
					<g>
						
							<rect x="920.66" y="984.83" transform="matrix(-1 -1.224647e-16 1.224647e-16 -1 1857.7813 1992.8506)" class="st3" width="16.45" height="23.19"/>
						
							<rect x="889.9" y="984.83" transform="matrix(-1 -1.224647e-16 1.224647e-16 -1 1796.2568 1992.8506)" class="st3" width="16.45" height="23.19"/>
						
							<rect x="859.83" y="984.83" transform="matrix(-1 -1.224647e-16 1.224647e-16 -1 1736.1104 1992.8506)" class="st3" width="16.45" height="23.19"/>
						
							<rect x="831.32" y="984.83" transform="matrix(-1 -1.224647e-16 1.224647e-16 -1 1679.083 1992.8506)" class="st3" width="16.45" height="23.19"/>
						
							<rect x="802.25" y="984.83" transform="matrix(-1 -1.224647e-16 1.224647e-16 -1 1620.959 1992.8506)" class="st3" width="16.45" height="23.19"/>
					</g>
					<g>
						
							<rect x="772.86" y="984.83" transform="matrix(-1 -1.224647e-16 1.224647e-16 -1 1562.1699 1992.8506)" class="st3" width="16.45" height="23.19"/>
						
							<rect x="742.1" y="984.83" transform="matrix(-1 -1.224647e-16 1.224647e-16 -1 1500.6465 1992.8506)" class="st3" width="16.45" height="23.19"/>
						
							<rect x="712.02" y="984.83" transform="matrix(-1 -1.224647e-16 1.224647e-16 -1 1440.499 1992.8506)" class="st3" width="16.45" height="23.19"/>
						<path class="st3" d="M699.96,995.16v12.86h-4.39C696.97,1003.74,698.43,999.45,699.96,995.16z"/>
					</g>
				</g>
			</g>
			<g>
				<g>
					<g>
						
							<rect x="1217.17" y="1025.75" transform="matrix(-1 -1.224647e-16 1.224647e-16 -1 2450.7832 2074.6826)" class="st3" width="16.45" height="23.19"/>
						
							<rect x="1186.4" y="1025.75" transform="matrix(-1 -1.224647e-16 1.224647e-16 -1 2389.2598 2074.6826)" class="st3" width="16.45" height="23.19"/>
						
							<rect x="1156.33" y="1025.75" transform="matrix(-1 -1.224647e-16 1.224647e-16 -1 2329.1123 2074.6826)" class="st3" width="16.45" height="23.19"/>
						
							<rect x="1127.82" y="1025.75" transform="matrix(-1 -1.224647e-16 1.224647e-16 -1 2272.084 2074.6826)" class="st3" width="16.45" height="23.19"/>
						
							<rect x="1098.75" y="1025.75" transform="matrix(-1 -1.224647e-16 1.224647e-16 -1 2213.96 2074.6826)" class="st3" width="16.45" height="23.19"/>
					</g>
					<g>
						
							<rect x="1069.36" y="1025.75" transform="matrix(-1 -1.224647e-16 1.224647e-16 -1 2155.1729 2074.6826)" class="st3" width="16.45" height="23.19"/>
						
							<rect x="1038.6" y="1025.75" transform="matrix(-1 -1.224647e-16 1.224647e-16 -1 2093.6475 2074.6826)" class="st3" width="16.45" height="23.19"/>
						
							<rect x="1008.53" y="1025.75" transform="matrix(-1 -1.224647e-16 1.224647e-16 -1 2033.501 2074.6826)" class="st3" width="16.45" height="23.19"/>
						
							<rect x="980.01" y="1025.75" transform="matrix(-1 -1.224647e-16 1.224647e-16 -1 1976.4736 2074.6826)" class="st3" width="16.45" height="23.19"/>
						
							<rect x="950.95" y="1025.75" transform="matrix(-1 -1.224647e-16 1.224647e-16 -1 1918.3496 2074.6826)" class="st3" width="16.45" height="23.19"/>
					</g>
				</g>
				<g>
					<g>
						
							<rect x="920.66" y="1025.75" transform="matrix(-1 -1.224647e-16 1.224647e-16 -1 1857.7813 2074.6826)" class="st3" width="16.45" height="23.19"/>
						
							<rect x="889.9" y="1025.75" transform="matrix(-1 -1.224647e-16 1.224647e-16 -1 1796.2568 2074.6826)" class="st3" width="16.45" height="23.19"/>
						
							<rect x="859.83" y="1025.75" transform="matrix(-1 -1.224647e-16 1.224647e-16 -1 1736.1104 2074.6826)" class="st3" width="16.45" height="23.19"/>
						
							<rect x="831.32" y="1025.75" transform="matrix(-1 -1.224647e-16 1.224647e-16 -1 1679.083 2074.6826)" class="st3" width="16.45" height="23.19"/>
						
							<rect x="802.25" y="1025.75" transform="matrix(-1 -1.224647e-16 1.224647e-16 -1 1620.959 2074.6826)" class="st3" width="16.45" height="23.19"/>
					</g>
					<g>
						
							<rect x="772.86" y="1025.75" transform="matrix(-1 -1.224647e-16 1.224647e-16 -1 1562.1699 2074.6826)" class="st3" width="16.45" height="23.19"/>
						
							<rect x="742.1" y="1025.75" transform="matrix(-1 -1.224647e-16 1.224647e-16 -1 1500.6465 2074.6826)" class="st3" width="16.45" height="23.19"/>
						
							<rect x="712.02" y="1025.75" transform="matrix(-1 -1.224647e-16 1.224647e-16 -1 1440.499 2074.6826)" class="st3" width="16.45" height="23.19"/>
						<path class="st3" d="M699.96,1025.75v23.19h-15.57c1.73-7.72,3.67-15.45,5.83-23.19H699.96z"/>
					</g>
				</g>
			</g>
			<g>
				<g>
					<g>
						
							<rect x="1217.17" y="1066.04" transform="matrix(-1 -1.224647e-16 1.224647e-16 -1 2450.7832 2155.2617)" class="st3" width="16.45" height="23.19"/>
						
							<rect x="1186.4" y="1066.04" transform="matrix(-1 -1.224647e-16 1.224647e-16 -1 2389.2598 2155.2617)" class="st3" width="16.45" height="23.19"/>
						
							<rect x="1156.33" y="1066.04" transform="matrix(-1 -1.224647e-16 1.224647e-16 -1 2329.1123 2155.2617)" class="st3" width="16.45" height="23.19"/>
						
							<rect x="1127.82" y="1066.04" transform="matrix(-1 -1.224647e-16 1.224647e-16 -1 2272.084 2155.2617)" class="st3" width="16.45" height="23.19"/>
						
							<rect x="1098.75" y="1066.04" transform="matrix(-1 -1.224647e-16 1.224647e-16 -1 2213.96 2155.2617)" class="st3" width="16.45" height="23.19"/>
					</g>
					<g>
						
							<rect x="1069.36" y="1066.04" transform="matrix(-1 -1.224647e-16 1.224647e-16 -1 2155.1729 2155.2617)" class="st3" width="16.45" height="23.19"/>
						
							<rect x="1038.6" y="1066.04" transform="matrix(-1 -1.224647e-16 1.224647e-16 -1 2093.6475 2155.2617)" class="st3" width="16.45" height="23.19"/>
						
							<rect x="1008.53" y="1066.04" transform="matrix(-1 -1.224647e-16 1.224647e-16 -1 2033.501 2155.2617)" class="st3" width="16.45" height="23.19"/>
						
							<rect x="980.01" y="1066.04" transform="matrix(-1 -1.224647e-16 1.224647e-16 -1 1976.4736 2155.2617)" class="st3" width="16.45" height="23.19"/>
						
							<rect x="950.95" y="1066.04" transform="matrix(-1 -1.224647e-16 1.224647e-16 -1 1918.3496 2155.2617)" class="st3" width="16.45" height="23.19"/>
					</g>
				</g>
				<g>
					<g>
						
							<rect x="920.66" y="1066.04" transform="matrix(-1 -1.224647e-16 1.224647e-16 -1 1857.7813 2155.2617)" class="st3" width="16.45" height="23.19"/>
						
							<rect x="889.9" y="1066.04" transform="matrix(-1 -1.224647e-16 1.224647e-16 -1 1796.2568 2155.2617)" class="st3" width="16.45" height="23.19"/>
						
							<rect x="859.83" y="1066.04" transform="matrix(-1 -1.224647e-16 1.224647e-16 -1 1736.1104 2155.2617)" class="st3" width="16.45" height="23.19"/>
						
							<rect x="831.32" y="1066.04" transform="matrix(-1 -1.224647e-16 1.224647e-16 -1 1679.083 2155.2617)" class="st3" width="16.45" height="23.19"/>
						
							<rect x="802.25" y="1066.04" transform="matrix(-1 -1.224647e-16 1.224647e-16 -1 1620.959 2155.2617)" class="st3" width="16.45" height="23.19"/>
					</g>
					<g>
						
							<rect x="772.86" y="1066.04" transform="matrix(-1 -1.224647e-16 1.224647e-16 -1 1562.1699 2155.2617)" class="st3" width="16.45" height="23.19"/>
						
							<rect x="742.1" y="1066.04" transform="matrix(-1 -1.224647e-16 1.224647e-16 -1 1500.6465 2155.2617)" class="st3" width="16.45" height="23.19"/>
						
							<rect x="712.02" y="1066.04" transform="matrix(-1 -1.224647e-16 1.224647e-16 -1 1440.499 2155.2617)" class="st3" width="16.45" height="23.19"/>
						
							<rect x="683.51" y="1066.04" transform="matrix(-1 -1.224647e-16 1.224647e-16 -1 1383.4707 2155.2617)" class="st3" width="16.45" height="23.19"/>
					</g>
				</g>
			</g>
			<g>
				<g>
					<g>
						<g>
							
								<rect x="1217.17" y="1108.84" transform="matrix(-1 -1.224647e-16 1.224647e-16 -1 2450.7832 2240.874)" class="st3" width="16.45" height="23.19"/>
							
								<rect x="1186.4" y="1108.84" transform="matrix(-1 -1.224647e-16 1.224647e-16 -1 2389.2598 2240.874)" class="st3" width="16.45" height="23.19"/>
							
								<rect x="1156.33" y="1108.84" transform="matrix(-1 -1.224647e-16 1.224647e-16 -1 2329.1123 2240.874)" class="st3" width="16.45" height="23.19"/>
							
								<rect x="1127.82" y="1108.84" transform="matrix(-1 -1.224647e-16 1.224647e-16 -1 2272.084 2240.874)" class="st3" width="16.45" height="23.19"/>
							
								<rect x="1098.75" y="1108.84" transform="matrix(-1 -1.224647e-16 1.224647e-16 -1 2213.96 2240.874)" class="st3" width="16.45" height="23.19"/>
						</g>
						<g>
							
								<rect x="1069.36" y="1108.84" transform="matrix(-1 -1.224647e-16 1.224647e-16 -1 2155.1729 2240.874)" class="st3" width="16.45" height="23.19"/>
							
								<rect x="1038.6" y="1108.84" transform="matrix(-1 -1.224647e-16 1.224647e-16 -1 2093.6475 2240.874)" class="st3" width="16.45" height="23.19"/>
							
								<rect x="1008.53" y="1108.84" transform="matrix(-1 -1.224647e-16 1.224647e-16 -1 2033.501 2240.874)" class="st3" width="16.45" height="23.19"/>
							
								<rect x="980.01" y="1108.84" transform="matrix(-1 -1.224647e-16 1.224647e-16 -1 1976.4736 2240.874)" class="st3" width="16.45" height="23.19"/>
							
								<rect x="950.95" y="1108.84" transform="matrix(-1 -1.224647e-16 1.224647e-16 -1 1918.3496 2240.874)" class="st3" width="16.45" height="23.19"/>
						</g>
					</g>
					<g>
						<g>
							
								<rect x="920.66" y="1108.84" transform="matrix(-1 -1.224647e-16 1.224647e-16 -1 1857.7813 2240.874)" class="st3" width="16.45" height="23.19"/>
							
								<rect x="889.9" y="1108.84" transform="matrix(-1 -1.224647e-16 1.224647e-16 -1 1796.2568 2240.874)" class="st3" width="16.45" height="23.19"/>
							
								<rect x="859.83" y="1108.84" transform="matrix(-1 -1.224647e-16 1.224647e-16 -1 1736.1104 2240.874)" class="st3" width="16.45" height="23.19"/>
							
								<rect x="831.32" y="1108.84" transform="matrix(-1 -1.224647e-16 1.224647e-16 -1 1679.083 2240.874)" class="st3" width="16.45" height="23.19"/>
							
								<rect x="802.25" y="1108.84" transform="matrix(-1 -1.224647e-16 1.224647e-16 -1 1620.959 2240.874)" class="st3" width="16.45" height="23.19"/>
						</g>
						<g>
							
								<rect x="772.86" y="1108.84" transform="matrix(-1 -1.224647e-16 1.224647e-16 -1 1562.1699 2240.874)" class="st3" width="16.45" height="23.19"/>
							
								<rect x="742.1" y="1108.84" transform="matrix(-1 -1.224647e-16 1.224647e-16 -1 1500.6465 2240.874)" class="st3" width="16.45" height="23.19"/>
							
								<rect x="712.02" y="1108.84" transform="matrix(-1 -1.224647e-16 1.224647e-16 -1 1440.499 2240.874)" class="st3" width="16.45" height="23.19"/>
							
								<rect x="683.51" y="1108.84" transform="matrix(-1 -1.224647e-16 1.224647e-16 -1 1383.4707 2240.874)" class="st3" width="16.45" height="23.19"/>
						</g>
					</g>
				</g>
				<g>
					<g>
						<g>
							
								<rect x="1217.17" y="1149.76" transform="matrix(-1 -1.224647e-16 1.224647e-16 -1 2450.7832 2322.7061)" class="st3" width="16.45" height="23.19"/>
							
								<rect x="1186.4" y="1149.76" transform="matrix(-1 -1.224647e-16 1.224647e-16 -1 2389.2598 2322.7061)" class="st3" width="16.45" height="23.19"/>
							
								<rect x="1156.33" y="1149.76" transform="matrix(-1 -1.224647e-16 1.224647e-16 -1 2329.1123 2322.7061)" class="st3" width="16.45" height="23.19"/>
							
								<rect x="1127.82" y="1149.76" transform="matrix(-1 -1.224647e-16 1.224647e-16 -1 2272.084 2322.7061)" class="st3" width="16.45" height="23.19"/>
							
								<rect x="1098.75" y="1149.76" transform="matrix(-1 -1.224647e-16 1.224647e-16 -1 2213.96 2322.7061)" class="st3" width="16.45" height="23.19"/>
						</g>
						<g>
							
								<rect x="1069.36" y="1149.76" transform="matrix(-1 -1.224647e-16 1.224647e-16 -1 2155.1729 2322.7061)" class="st3" width="16.45" height="23.19"/>
							
								<rect x="1038.6" y="1149.76" transform="matrix(-1 -1.224647e-16 1.224647e-16 -1 2093.6475 2322.7061)" class="st3" width="16.45" height="23.19"/>
							
								<rect x="1008.53" y="1149.76" transform="matrix(-1 -1.224647e-16 1.224647e-16 -1 2033.501 2322.7061)" class="st3" width="16.45" height="23.19"/>
							
								<rect x="980.01" y="1149.76" transform="matrix(-1 -1.224647e-16 1.224647e-16 -1 1976.4736 2322.7061)" class="st3" width="16.45" height="23.19"/>
							
								<rect x="950.95" y="1149.76" transform="matrix(-1 -1.224647e-16 1.224647e-16 -1 1918.3496 2322.7061)" class="st3" width="16.45" height="23.19"/>
						</g>
					</g>
					<g>
						<g>
							
								<rect x="920.66" y="1149.76" transform="matrix(-1 -1.224647e-16 1.224647e-16 -1 1857.7813 2322.7061)" class="st3" width="16.45" height="23.19"/>
							
								<rect x="889.9" y="1149.76" transform="matrix(-1 -1.224647e-16 1.224647e-16 -1 1796.2568 2322.7061)" class="st3" width="16.45" height="23.19"/>
							
								<rect x="859.83" y="1149.76" transform="matrix(-1 -1.224647e-16 1.224647e-16 -1 1736.1104 2322.7061)" class="st3" width="16.45" height="23.19"/>
							
								<rect x="831.32" y="1149.76" transform="matrix(-1 -1.224647e-16 1.224647e-16 -1 1679.083 2322.7061)" class="st3" width="16.45" height="23.19"/>
							
								<rect x="802.25" y="1149.76" transform="matrix(-1 -1.224647e-16 1.224647e-16 -1 1620.959 2322.7061)" class="st3" width="16.45" height="23.19"/>
						</g>
						<g>
							
								<rect x="772.86" y="1149.76" transform="matrix(-1 -1.224647e-16 1.224647e-16 -1 1562.1699 2322.7061)" class="st3" width="16.45" height="23.19"/>
							
								<rect x="742.1" y="1149.76" transform="matrix(-1 -1.224647e-16 1.224647e-16 -1 1500.6465 2322.7061)" class="st3" width="16.45" height="23.19"/>
							
								<rect x="712.02" y="1149.76" transform="matrix(-1 -1.224647e-16 1.224647e-16 -1 1440.499 2322.7061)" class="st3" width="16.45" height="23.19"/>
							
								<rect x="683.51" y="1149.76" transform="matrix(-1 -1.224647e-16 1.224647e-16 -1 1383.4707 2322.7061)" class="st3" width="16.45" height="23.19"/>
						</g>
					</g>
				</g>
				<g>
					<g>
						<g>
							
								<rect x="1217.17" y="1190.05" transform="matrix(-1 -1.224647e-16 1.224647e-16 -1 2450.7832 2403.2822)" class="st3" width="16.45" height="23.19"/>
							
								<rect x="1186.4" y="1190.05" transform="matrix(-1 -1.224647e-16 1.224647e-16 -1 2389.2598 2403.2822)" class="st3" width="16.45" height="23.19"/>
							
								<rect x="1156.33" y="1190.05" transform="matrix(-1 -1.224647e-16 1.224647e-16 -1 2329.1123 2403.2822)" class="st3" width="16.45" height="23.19"/>
							
								<rect x="1127.82" y="1190.05" transform="matrix(-1 -1.224647e-16 1.224647e-16 -1 2272.084 2403.2822)" class="st3" width="16.45" height="23.19"/>
							
								<rect x="1098.75" y="1190.05" transform="matrix(-1 -1.224647e-16 1.224647e-16 -1 2213.96 2403.2822)" class="st3" width="16.45" height="23.19"/>
						</g>
						<g>
							
								<rect x="1069.36" y="1190.05" transform="matrix(-1 -1.224647e-16 1.224647e-16 -1 2155.1729 2403.2822)" class="st3" width="16.45" height="23.19"/>
							
								<rect x="1038.6" y="1190.05" transform="matrix(-1 -1.224647e-16 1.224647e-16 -1 2093.6475 2403.2822)" class="st3" width="16.45" height="23.19"/>
							
								<rect x="1008.53" y="1190.05" transform="matrix(-1 -1.224647e-16 1.224647e-16 -1 2033.501 2403.2822)" class="st3" width="16.45" height="23.19"/>
							
								<rect x="980.01" y="1190.05" transform="matrix(-1 -1.224647e-16 1.224647e-16 -1 1976.4736 2403.2822)" class="st3" width="16.45" height="23.19"/>
							
								<rect x="950.95" y="1190.05" transform="matrix(-1 -1.224647e-16 1.224647e-16 -1 1918.3496 2403.2822)" class="st3" width="16.45" height="23.19"/>
						</g>
					</g>
					<g>
						<g>
							
								<rect x="920.66" y="1190.05" transform="matrix(-1 -1.224647e-16 1.224647e-16 -1 1857.7813 2403.2822)" class="st3" width="16.45" height="23.19"/>
							
								<rect x="889.9" y="1190.05" transform="matrix(-1 -1.224647e-16 1.224647e-16 -1 1796.2568 2403.2822)" class="st3" width="16.45" height="23.19"/>
							
								<rect x="859.83" y="1190.05" transform="matrix(-1 -1.224647e-16 1.224647e-16 -1 1736.1104 2403.2822)" class="st3" width="16.45" height="23.19"/>
							
								<rect x="831.32" y="1190.05" transform="matrix(-1 -1.224647e-16 1.224647e-16 -1 1679.083 2403.2822)" class="st3" width="16.45" height="23.19"/>
							
								<rect x="802.25" y="1190.05" transform="matrix(-1 -1.224647e-16 1.224647e-16 -1 1620.959 2403.2822)" class="st3" width="16.45" height="23.19"/>
						</g>
						<g>
							
								<rect x="772.86" y="1190.05" transform="matrix(-1 -1.224647e-16 1.224647e-16 -1 1562.1699 2403.2822)" class="st3" width="16.45" height="23.19"/>
							
								<rect x="742.1" y="1190.05" transform="matrix(-1 -1.224647e-16 1.224647e-16 -1 1500.6465 2403.2822)" class="st3" width="16.45" height="23.19"/>
							
								<rect x="712.02" y="1190.05" transform="matrix(-1 -1.224647e-16 1.224647e-16 -1 1440.499 2403.2822)" class="st3" width="16.45" height="23.19"/>
							
								<rect x="683.51" y="1190.05" transform="matrix(-1 -1.224647e-16 1.224647e-16 -1 1383.4707 2403.2822)" class="st3" width="16.45" height="23.19"/>
						</g>
					</g>
				</g>
			</g>
		</g>
		
			<rect x="967.68" y="1262.69" transform="matrix(-1 -1.224647e-16 1.224647e-16 -1 2316.6406 2731.0762)" class="st3" width="381.28" height="205.69"/>
		
			<rect x="1256.8" y="1365.54" transform="matrix(-1 -1.224647e-16 1.224647e-16 -1 2894.8701 2833.9229)" class="st3" width="381.28" height="102.85"/>
		<path class="st3" d="M937.11,1294.74v173.65H756.96c-0.14-0.25-0.32-0.56-0.52-0.9c-0.29-0.5-0.62-1.09-1.01-1.76
			c-0.13-0.24-0.27-0.48-0.42-0.74c-0.51-0.92-1.1-1.96-1.75-3.15c-0.79-1.44-1.68-3.09-2.66-4.92v-0.01
			c-3.65-6.84-8.49-16.32-13.98-28.1c-1.81-3.87-3.67-7.99-5.61-12.35c-0.77-1.74-1.54-3.5-2.32-5.31v-0.01
			c-0.76-1.75-1.52-3.53-2.28-5.35c-0.03-0.06-0.05-0.12-0.08-0.18c-0.52-1.25-1.06-2.52-1.59-3.81c-0.56-1.32-1.11-2.65-1.66-4
			c-2.84-6.98-5.74-14.38-8.63-22.19c-0.08-0.2-0.15-0.41-0.23-0.62c0,0,0,0,0-0.01c-1.89-5.11-3.78-10.39-5.64-15.83
			c-1.03-2.99-2.04-6.02-3.06-9.1c-0.06-0.19-0.13-0.37-0.19-0.57c-0.45-1.37-0.89-2.74-1.33-4.12c-0.37-1.17-0.74-2.33-1.11-3.5
			c-0.76-2.42-1.52-4.86-2.27-7.32c-0.96-3.17-1.92-6.38-2.85-9.64c-1.27-4.42-2.51-8.91-3.72-13.48c-0.36-1.37-0.73-2.75-1.08-4.12
			c-1.06-4.13-2.11-8.31-3.12-12.54H937.11z"/>
		
			<rect x="1252.45" y="1286.78" transform="matrix(-1 -1.224647e-16 1.224647e-16 -1 2575.9404 2611.6543)" class="st4" width="71.04" height="38.1"/>
		
			<rect x="1161.26" y="1286.78" transform="matrix(-1 -1.224647e-16 1.224647e-16 -1 2393.5654 2611.6543)" class="st4" width="71.04" height="38.1"/>
		
			<rect x="1071.81" y="1286.78" transform="matrix(-1 -1.224647e-16 1.224647e-16 -1 2214.6641 2611.6543)" class="st4" width="71.04" height="38.1"/>
		
			<rect x="984.08" y="1286.78" transform="matrix(-1 -1.224647e-16 1.224647e-16 -1 2039.2031 2611.6543)" class="st4" width="71.04" height="38.1"/>
		
			<rect x="935.05" y="1262.69" transform="matrix(-1 -1.224647e-16 1.224647e-16 -1 1906.6906 2732.8467)" class="st7" width="36.6" height="207.46"/>
		
			<rect x="1523.01" y="895.66" transform="matrix(-1 -1.224647e-16 1.224647e-16 -1 3048.0039 1807.4199)" class="st5" width="1.98" height="16.1"/>
		
			<rect x="1451.81" y="895.66" transform="matrix(-1 -1.224647e-16 1.224647e-16 -1 2905.5947 1807.4199)" class="st5" width="1.98" height="16.1"/>
		<path class="st4" d="M676.79,1221.96c0.89,7.54,1.92,14.98,3.06,22.3c1.23,7.93,2.61,15.73,4.1,23.38
			c1.35,6.95,2.8,13.77,4.33,20.47c0.19,0.84,0.39,1.69,0.59,2.53c0.31,1.37,0.63,2.73,0.96,4.09c1.01,4.23,2.06,8.41,3.12,12.54
			c0.35,1.38,0.72,2.75,1.08,4.12c1.21,4.57,2.45,9.06,3.72,13.48c0.94,3.25,1.89,6.47,2.85,9.64c0.75,2.47,1.51,4.91,2.27,7.32
			c0.36,1.17,0.73,2.34,1.11,3.5c0.45,1.38,0.89,2.75,1.33,4.12c0.06,0.2,0.13,0.39,0.19,0.57c1.01,3.08,2.03,6.11,3.06,9.1
			c1.87,5.44,3.75,10.72,5.64,15.83c0,0.01,0,0.01,0,0.01c0.08,0.2,0.15,0.41,0.23,0.62c2.89,7.81,5.79,15.22,8.63,22.19
			c0.56,1.35,1.11,2.69,1.66,4c0.53,1.29,1.06,2.56,1.59,3.81c0.03,0.06,0.05,0.12,0.08,0.18v-183.81H676.79z"/>
		<g>
			<path class="st4" d="M726.4,1290.65v115.12c-0.03-0.06-0.05-0.12-0.08-0.18c-0.52-1.25-1.06-2.52-1.59-3.81
				c-0.56-1.32-1.11-2.65-1.66-4c-2.84-6.98-5.74-14.38-8.63-22.19c-0.08-0.2-0.15-0.41-0.23-0.62c0,0,0,0,0-0.01
				c-1.89-5.11-3.78-10.39-5.64-15.83c-1.03-2.99-2.04-6.02-3.06-9.1c-0.06-0.19-0.13-0.37-0.19-0.57
				c-0.45-1.37-0.89-2.74-1.33-4.12c-0.37-1.17-0.74-2.33-1.11-3.5c-0.76-2.42-1.52-4.86-2.27-7.32c-0.96-3.17-1.92-6.38-2.85-9.64
				c-1.27-4.42-2.51-8.91-3.72-13.48c-0.36-1.37-0.73-2.75-1.08-4.12c-1.06-4.13-2.11-8.31-3.12-12.54
				c-0.33-1.36-0.65-2.72-0.96-4.09H726.4z"/>
			<path class="st3" d="M726.4,1267.65v57.23h-28.64c-1.27-4.42-2.51-8.91-3.72-13.48c-0.36-1.37-0.73-2.75-1.08-4.12
				c-1.06-4.13-2.11-8.31-3.12-12.54c-0.33-1.36-0.65-2.72-0.96-4.09c-0.2-0.84-0.4-1.69-0.59-2.53c-1.53-6.7-2.98-13.52-4.33-20.47
				H726.4z"/>
			<g>
				<g>
					<g>
						<path class="st3" d="M708.57,1341.84v17.3c-1.03-2.99-2.04-6.02-3.06-9.1c-0.06-0.19-0.13-0.37-0.19-0.57
							c-0.45-1.37-0.89-2.74-1.33-4.12c-0.37-1.17-0.74-2.33-1.11-3.5H708.57z"/>
					</g>
				</g>
			</g>
			
				<rect x="695.13" y="1283.73" transform="matrix(-1 -1.224647e-16 1.224647e-16 -1 1401.5547 2587.0049)" class="st7" width="11.3" height="19.55"/>
		</g>
		<g>
			
				<rect x="1565.9" y="1290.66" transform="matrix(-1 -1.224647e-16 1.224647e-16 -1 3393.5898 2757.3701)" class="st4" width="261.79" height="176.06"/>
			
				<rect x="1565.9" y="1267.65" transform="matrix(-1 -1.224647e-16 1.224647e-16 -1 3393.5898 2592.5273)" class="st3" width="261.79" height="57.22"/>
			<g>
				<g>
					<g>
						
							<rect x="1796.42" y="1341.83" transform="matrix(-1 -1.224647e-16 1.224647e-16 -1 3606.2861 2702.6191)" class="st3" width="13.45" height="18.95"/>
						
							<rect x="1771.28" y="1341.83" transform="matrix(-1 -1.224647e-16 1.224647e-16 -1 3556.002 2702.6191)" class="st3" width="13.45" height="18.95"/>
						
							<rect x="1746.7" y="1341.83" transform="matrix(-1 -1.224647e-16 1.224647e-16 -1 3506.8418 2702.6191)" class="st3" width="13.45" height="18.95"/>
						
							<rect x="1723.39" y="1341.83" transform="matrix(-1 -1.224647e-16 1.224647e-16 -1 3460.2314 2702.6191)" class="st3" width="13.44" height="18.95"/>
						
							<rect x="1699.64" y="1341.83" transform="matrix(-1 -1.224647e-16 1.224647e-16 -1 3412.7266 2702.6191)" class="st3" width="13.45" height="18.95"/>
					</g>
					<g>
						
							<rect x="1675.62" y="1341.83" transform="matrix(-1 -1.224647e-16 1.224647e-16 -1 3364.6777 2702.6191)" class="st3" width="13.45" height="18.95"/>
						
							<rect x="1650.47" y="1341.83" transform="matrix(-1 -1.224647e-16 1.224647e-16 -1 3314.3926 2702.6191)" class="st3" width="13.45" height="18.95"/>
						
							<rect x="1625.89" y="1341.83" transform="matrix(-1 -1.224647e-16 1.224647e-16 -1 3265.2324 2702.6191)" class="st3" width="13.45" height="18.95"/>
						
							<rect x="1602.59" y="1341.83" transform="matrix(-1 -1.224647e-16 1.224647e-16 -1 3218.6211 2702.6191)" class="st3" width="13.45" height="18.95"/>
						
							<rect x="1578.84" y="1341.83" transform="matrix(-1 -1.224647e-16 1.224647e-16 -1 3171.1162 2702.6191)" class="st3" width="13.44" height="18.95"/>
					</g>
				</g>
				<g>
					<g>
						
							<rect x="1796.42" y="1375.28" transform="matrix(-1 -1.224647e-16 1.224647e-16 -1 3606.2861 2769.5029)" class="st3" width="13.45" height="18.95"/>
						
							<rect x="1771.28" y="1375.28" transform="matrix(-1 -1.224647e-16 1.224647e-16 -1 3556.002 2769.5029)" class="st3" width="13.45" height="18.95"/>
						
							<rect x="1746.7" y="1375.28" transform="matrix(-1 -1.224647e-16 1.224647e-16 -1 3506.8418 2769.5029)" class="st3" width="13.45" height="18.95"/>
						
							<rect x="1723.39" y="1375.28" transform="matrix(-1 -1.224647e-16 1.224647e-16 -1 3460.2314 2769.5029)" class="st3" width="13.44" height="18.95"/>
						
							<rect x="1699.64" y="1375.28" transform="matrix(-1 -1.224647e-16 1.224647e-16 -1 3412.7266 2769.5029)" class="st3" width="13.45" height="18.95"/>
					</g>
					<g>
						
							<rect x="1675.62" y="1375.28" transform="matrix(-1 -1.224647e-16 1.224647e-16 -1 3364.6777 2769.5029)" class="st3" width="13.45" height="18.95"/>
						
							<rect x="1650.47" y="1375.28" transform="matrix(-1 -1.224647e-16 1.224647e-16 -1 3314.3926 2769.5029)" class="st3" width="13.45" height="18.95"/>
						
							<rect x="1625.89" y="1375.28" transform="matrix(-1 -1.224647e-16 1.224647e-16 -1 3265.2324 2769.5029)" class="st3" width="13.45" height="18.95"/>
						
							<rect x="1602.59" y="1375.28" transform="matrix(-1 -1.224647e-16 1.224647e-16 -1 3218.6211 2769.5029)" class="st3" width="13.45" height="18.95"/>
						
							<rect x="1578.84" y="1375.28" transform="matrix(-1 -1.224647e-16 1.224647e-16 -1 3171.1162 2769.5029)" class="st3" width="13.44" height="18.95"/>
					</g>
				</g>
				<g>
					<g>
						
							<rect x="1796.42" y="1408.21" transform="matrix(-1 -1.224647e-16 1.224647e-16 -1 3606.2861 2835.3613)" class="st3" width="13.45" height="18.95"/>
						
							<rect x="1771.28" y="1408.21" transform="matrix(-1 -1.224647e-16 1.224647e-16 -1 3556.002 2835.3613)" class="st3" width="13.45" height="18.95"/>
						
							<rect x="1746.7" y="1408.21" transform="matrix(-1 -1.224647e-16 1.224647e-16 -1 3506.8418 2835.3613)" class="st3" width="13.45" height="18.95"/>
						
							<rect x="1723.39" y="1408.21" transform="matrix(-1 -1.224647e-16 1.224647e-16 -1 3460.2314 2835.3613)" class="st3" width="13.44" height="18.95"/>
						
							<rect x="1699.64" y="1408.21" transform="matrix(-1 -1.224647e-16 1.224647e-16 -1 3412.7266 2835.3613)" class="st3" width="13.45" height="18.95"/>
					</g>
					<g>
						
							<rect x="1675.62" y="1408.21" transform="matrix(-1 -1.224647e-16 1.224647e-16 -1 3364.6777 2835.3613)" class="st3" width="13.45" height="18.95"/>
						
							<rect x="1650.47" y="1408.21" transform="matrix(-1 -1.224647e-16 1.224647e-16 -1 3314.3926 2835.3613)" class="st3" width="13.45" height="18.95"/>
						
							<rect x="1625.89" y="1408.21" transform="matrix(-1 -1.224647e-16 1.224647e-16 -1 3265.2324 2835.3613)" class="st3" width="13.45" height="18.95"/>
						
							<rect x="1602.59" y="1408.21" transform="matrix(-1 -1.224647e-16 1.224647e-16 -1 3218.6211 2835.3613)" class="st3" width="13.45" height="18.95"/>
						
							<rect x="1578.84" y="1408.21" transform="matrix(-1 -1.224647e-16 1.224647e-16 -1 3171.1162 2835.3613)" class="st3" width="13.44" height="18.95"/>
					</g>
				</g>
			</g>
			
				<rect x="1796.42" y="1283.73" transform="matrix(-1 -1.224647e-16 1.224647e-16 -1 3604.1387 2587.0049)" class="st7" width="11.3" height="19.55"/>
			
				<rect x="1684.25" y="1283.73" transform="matrix(-1 -1.224647e-16 1.224647e-16 -1 3379.8057 2587.0049)" class="st7" width="11.3" height="19.55"/>
			
				<rect x="1595.03" y="1283.73" transform="matrix(-1 -1.224647e-16 1.224647e-16 -1 3201.3496 2587.0049)" class="st7" width="11.3" height="19.55"/>
		</g>
		<g>
			
				<rect x="1844.13" y="1290.66" transform="matrix(-1 -1.224647e-16 1.224647e-16 -1 3950.0557 2757.3701)" class="st4" width="261.79" height="176.06"/>
			
				<rect x="1844.13" y="1267.65" transform="matrix(-1 -1.224647e-16 1.224647e-16 -1 3950.0557 2592.5273)" class="st3" width="261.79" height="57.22"/>
			<g>
				<g>
					<g>
						
							<rect x="2074.65" y="1341.83" transform="matrix(-1 -1.224647e-16 1.224647e-16 -1 4162.7539 2702.6191)" class="st3" width="13.45" height="18.95"/>
						
							<rect x="2049.51" y="1341.83" transform="matrix(-1 -1.224647e-16 1.224647e-16 -1 4112.4688 2702.6191)" class="st3" width="13.45" height="18.95"/>
						
							<rect x="2024.93" y="1341.83" transform="matrix(-1 -1.224647e-16 1.224647e-16 -1 4063.3096 2702.6191)" class="st3" width="13.44" height="18.95"/>
						
							<rect x="2001.63" y="1341.83" transform="matrix(-1 -1.224647e-16 1.224647e-16 -1 4016.6982 2702.6191)" class="st3" width="13.44" height="18.95"/>
						
							<rect x="1977.87" y="1341.83" transform="matrix(-1 -1.224647e-16 1.224647e-16 -1 3969.1914 2702.6191)" class="st3" width="13.45" height="18.95"/>
					</g>
					<g>
						
							<rect x="1953.85" y="1341.83" transform="matrix(-1 -1.224647e-16 1.224647e-16 -1 3921.1445 2702.6191)" class="st3" width="13.45" height="18.95"/>
						
							<rect x="1928.71" y="1341.83" transform="matrix(-1 -1.224647e-16 1.224647e-16 -1 3870.8584 2702.6191)" class="st3" width="13.44" height="18.95"/>
						
							<rect x="1904.13" y="1341.83" transform="matrix(-1 -1.224647e-16 1.224647e-16 -1 3821.6982 2702.6191)" class="st3" width="13.44" height="18.95"/>
						
							<rect x="1880.82" y="1341.83" transform="matrix(-1 -1.224647e-16 1.224647e-16 -1 3775.0879 2702.6191)" class="st3" width="13.45" height="18.95"/>
						
							<rect x="1857.07" y="1341.83" transform="matrix(-1 -1.224647e-16 1.224647e-16 -1 3727.584 2702.6191)" class="st3" width="13.45" height="18.95"/>
					</g>
				</g>
				<g>
					<g>
						
							<rect x="2074.65" y="1375.28" transform="matrix(-1 -1.224647e-16 1.224647e-16 -1 4162.7539 2769.5029)" class="st3" width="13.45" height="18.95"/>
						
							<rect x="2049.51" y="1375.28" transform="matrix(-1 -1.224647e-16 1.224647e-16 -1 4112.4688 2769.5029)" class="st3" width="13.45" height="18.95"/>
						
							<rect x="2024.93" y="1375.28" transform="matrix(-1 -1.224647e-16 1.224647e-16 -1 4063.3096 2769.5029)" class="st3" width="13.44" height="18.95"/>
						
							<rect x="2001.63" y="1375.28" transform="matrix(-1 -1.224647e-16 1.224647e-16 -1 4016.6982 2769.5029)" class="st3" width="13.44" height="18.95"/>
						
							<rect x="1977.87" y="1375.28" transform="matrix(-1 -1.224647e-16 1.224647e-16 -1 3969.1914 2769.5029)" class="st3" width="13.45" height="18.95"/>
					</g>
					<g>
						
							<rect x="1953.85" y="1375.28" transform="matrix(-1 -1.224647e-16 1.224647e-16 -1 3921.1445 2769.5029)" class="st3" width="13.45" height="18.95"/>
						
							<rect x="1928.71" y="1375.28" transform="matrix(-1 -1.224647e-16 1.224647e-16 -1 3870.8584 2769.5029)" class="st3" width="13.44" height="18.95"/>
						
							<rect x="1904.13" y="1375.28" transform="matrix(-1 -1.224647e-16 1.224647e-16 -1 3821.6982 2769.5029)" class="st3" width="13.44" height="18.95"/>
						
							<rect x="1880.82" y="1375.28" transform="matrix(-1 -1.224647e-16 1.224647e-16 -1 3775.0879 2769.5029)" class="st3" width="13.45" height="18.95"/>
						
							<rect x="1857.07" y="1375.28" transform="matrix(-1 -1.224647e-16 1.224647e-16 -1 3727.584 2769.5029)" class="st3" width="13.45" height="18.95"/>
					</g>
				</g>
				<g>
					<g>
						
							<rect x="2074.65" y="1408.21" transform="matrix(-1 -1.224647e-16 1.224647e-16 -1 4162.7539 2835.3613)" class="st3" width="13.45" height="18.95"/>
						
							<rect x="2049.51" y="1408.21" transform="matrix(-1 -1.224647e-16 1.224647e-16 -1 4112.4688 2835.3613)" class="st3" width="13.45" height="18.95"/>
						
							<rect x="2024.93" y="1408.21" transform="matrix(-1 -1.224647e-16 1.224647e-16 -1 4063.3096 2835.3613)" class="st3" width="13.44" height="18.95"/>
						
							<rect x="2001.63" y="1408.21" transform="matrix(-1 -1.224647e-16 1.224647e-16 -1 4016.6982 2835.3613)" class="st3" width="13.44" height="18.95"/>
						
							<rect x="1977.87" y="1408.21" transform="matrix(-1 -1.224647e-16 1.224647e-16 -1 3969.1914 2835.3613)" class="st3" width="13.45" height="18.95"/>
					</g>
					<g>
						
							<rect x="1953.85" y="1408.21" transform="matrix(-1 -1.224647e-16 1.224647e-16 -1 3921.1445 2835.3613)" class="st3" width="13.45" height="18.95"/>
						
							<rect x="1928.71" y="1408.21" transform="matrix(-1 -1.224647e-16 1.224647e-16 -1 3870.8584 2835.3613)" class="st3" width="13.44" height="18.95"/>
						
							<rect x="1904.13" y="1408.21" transform="matrix(-1 -1.224647e-16 1.224647e-16 -1 3821.6982 2835.3613)" class="st3" width="13.44" height="18.95"/>
						
							<rect x="1880.82" y="1408.21" transform="matrix(-1 -1.224647e-16 1.224647e-16 -1 3775.0879 2835.3613)" class="st3" width="13.45" height="18.95"/>
						
							<rect x="1857.07" y="1408.21" transform="matrix(-1 -1.224647e-16 1.224647e-16 -1 3727.584 2835.3613)" class="st3" width="13.45" height="18.95"/>
					</g>
				</g>
			</g>
			
				<rect x="2074.65" y="1283.73" transform="matrix(-1 -1.224647e-16 1.224647e-16 -1 4160.6064 2587.0049)" class="st7" width="11.3" height="19.55"/>
			
				<rect x="1962.49" y="1283.73" transform="matrix(-1 -1.224647e-16 1.224647e-16 -1 3936.2715 2587.0049)" class="st7" width="11.3" height="19.55"/>
			
				<rect x="1873.26" y="1283.73" transform="matrix(-1 -1.224647e-16 1.224647e-16 -1 3757.8164 2587.0049)" class="st7" width="11.3" height="19.55"/>
		</g>
		<g>
			
				<rect x="2392.09" y="1290.66" transform="matrix(-1 -1.224647e-16 1.224647e-16 -1 5045.9648 2757.3701)" class="st4" width="261.79" height="176.06"/>
			
				<rect x="2392.09" y="1267.65" transform="matrix(-1 -1.224647e-16 1.224647e-16 -1 5045.9648 2592.5273)" class="st3" width="261.79" height="57.22"/>
			<g>
				<g>
					<g>
						
							<rect x="2622.61" y="1341.83" transform="matrix(-1 -1.224647e-16 1.224647e-16 -1 5258.6611 2702.6191)" class="st3" width="13.44" height="18.95"/>
						
							<rect x="2597.46" y="1341.83" transform="matrix(-1 -1.224647e-16 1.224647e-16 -1 5208.375 2702.6191)" class="st3" width="13.45" height="18.95"/>
						
							<rect x="2572.89" y="1341.83" transform="matrix(-1 -1.224647e-16 1.224647e-16 -1 5159.2178 2702.6191)" class="st3" width="13.44" height="18.95"/>
						
							<rect x="2549.58" y="1341.83" transform="matrix(-1 -1.224647e-16 1.224647e-16 -1 5112.6055 2702.6191)" class="st3" width="13.45" height="18.95"/>
						
							<rect x="2525.83" y="1341.83" transform="matrix(-1 -1.224647e-16 1.224647e-16 -1 5065.1016 2702.6191)" class="st3" width="13.45" height="18.95"/>
					</g>
					<g>
						
							<rect x="2501.8" y="1341.83" transform="matrix(-1 -1.224647e-16 1.224647e-16 -1 5017.0508 2702.6191)" class="st3" width="13.45" height="18.95"/>
						
							<rect x="2476.66" y="1341.83" transform="matrix(-1 -1.224647e-16 1.224647e-16 -1 4966.7676 2702.6191)" class="st3" width="13.45" height="18.95"/>
						
							<rect x="2452.08" y="1341.83" transform="matrix(-1 -1.224647e-16 1.224647e-16 -1 4917.6074 2702.6191)" class="st3" width="13.45" height="18.95"/>
						
							<rect x="2428.78" y="1341.83" transform="matrix(-1 -1.224647e-16 1.224647e-16 -1 4870.9961 2702.6191)" class="st3" width="13.45" height="18.95"/>
						
							<rect x="2405.02" y="1341.83" transform="matrix(-1 -1.224647e-16 1.224647e-16 -1 4823.4922 2702.6191)" class="st3" width="13.45" height="18.95"/>
					</g>
				</g>
				<g>
					<g>
						
							<rect x="2622.61" y="1375.28" transform="matrix(-1 -1.224647e-16 1.224647e-16 -1 5258.6611 2769.5029)" class="st3" width="13.44" height="18.95"/>
						
							<rect x="2597.46" y="1375.28" transform="matrix(-1 -1.224647e-16 1.224647e-16 -1 5208.375 2769.5029)" class="st3" width="13.45" height="18.95"/>
						
							<rect x="2572.89" y="1375.28" transform="matrix(-1 -1.224647e-16 1.224647e-16 -1 5159.2178 2769.5029)" class="st3" width="13.44" height="18.95"/>
						
							<rect x="2549.58" y="1375.28" transform="matrix(-1 -1.224647e-16 1.224647e-16 -1 5112.6055 2769.5029)" class="st3" width="13.45" height="18.95"/>
						
							<rect x="2525.83" y="1375.28" transform="matrix(-1 -1.224647e-16 1.224647e-16 -1 5065.1016 2769.5029)" class="st3" width="13.45" height="18.95"/>
					</g>
					<g>
						
							<rect x="2501.8" y="1375.28" transform="matrix(-1 -1.224647e-16 1.224647e-16 -1 5017.0508 2769.5029)" class="st3" width="13.45" height="18.95"/>
						
							<rect x="2476.66" y="1375.28" transform="matrix(-1 -1.224647e-16 1.224647e-16 -1 4966.7676 2769.5029)" class="st3" width="13.45" height="18.95"/>
						
							<rect x="2452.08" y="1375.28" transform="matrix(-1 -1.224647e-16 1.224647e-16 -1 4917.6074 2769.5029)" class="st3" width="13.45" height="18.95"/>
						
							<rect x="2428.78" y="1375.28" transform="matrix(-1 -1.224647e-16 1.224647e-16 -1 4870.9961 2769.5029)" class="st3" width="13.45" height="18.95"/>
						
							<rect x="2405.02" y="1375.28" transform="matrix(-1 -1.224647e-16 1.224647e-16 -1 4823.4922 2769.5029)" class="st3" width="13.45" height="18.95"/>
					</g>
				</g>
				<g>
					<g>
						
							<rect x="2622.61" y="1408.21" transform="matrix(-1 -1.224647e-16 1.224647e-16 -1 5258.6611 2835.3613)" class="st3" width="13.44" height="18.95"/>
						
							<rect x="2597.46" y="1408.21" transform="matrix(-1 -1.224647e-16 1.224647e-16 -1 5208.375 2835.3613)" class="st3" width="13.45" height="18.95"/>
						
							<rect x="2572.89" y="1408.21" transform="matrix(-1 -1.224647e-16 1.224647e-16 -1 5159.2178 2835.3613)" class="st3" width="13.44" height="18.95"/>
						
							<rect x="2549.58" y="1408.21" transform="matrix(-1 -1.224647e-16 1.224647e-16 -1 5112.6055 2835.3613)" class="st3" width="13.45" height="18.95"/>
						
							<rect x="2525.83" y="1408.21" transform="matrix(-1 -1.224647e-16 1.224647e-16 -1 5065.1016 2835.3613)" class="st3" width="13.45" height="18.95"/>
					</g>
					<g>
						
							<rect x="2501.8" y="1408.21" transform="matrix(-1 -1.224647e-16 1.224647e-16 -1 5017.0508 2835.3613)" class="st3" width="13.45" height="18.95"/>
						
							<rect x="2476.66" y="1408.21" transform="matrix(-1 -1.224647e-16 1.224647e-16 -1 4966.7676 2835.3613)" class="st3" width="13.45" height="18.95"/>
						
							<rect x="2452.08" y="1408.21" transform="matrix(-1 -1.224647e-16 1.224647e-16 -1 4917.6074 2835.3613)" class="st3" width="13.45" height="18.95"/>
						
							<rect x="2428.78" y="1408.21" transform="matrix(-1 -1.224647e-16 1.224647e-16 -1 4870.9961 2835.3613)" class="st3" width="13.45" height="18.95"/>
						
							<rect x="2405.02" y="1408.21" transform="matrix(-1 -1.224647e-16 1.224647e-16 -1 4823.4922 2835.3613)" class="st3" width="13.45" height="18.95"/>
					</g>
				</g>
			</g>
			
				<rect x="2622.61" y="1283.73" transform="matrix(-1 -1.224647e-16 1.224647e-16 -1 5256.5146 2587.0049)" class="st7" width="11.3" height="19.55"/>
			
				<rect x="2510.44" y="1283.73" transform="matrix(-1 -1.224647e-16 1.224647e-16 -1 5032.1807 2587.0049)" class="st7" width="11.3" height="19.55"/>
			
				<rect x="2421.21" y="1283.73" transform="matrix(-1 -1.224647e-16 1.224647e-16 -1 4853.7246 2587.0049)" class="st7" width="11.3" height="19.55"/>
		</g>
	</g>
	<path class="st8" d="M2364.22,1428.38c0-1.04,0-2.09-0.03-3.14c0-6.39-0.03-12.91-0.06-18.32c-0.06-8.7-3.05-16.65-6.4-22.83
		c-4.36-7.98-9.29-13.03-9.29-13.03l-10.25-8.28l-34.43-27.7l-0.2-0.43c0.79-0.81,1.49-1.72,2.01-2.75c0.75-1.5,1.17-3.2,1.17-4.96
		v-19.85c0-6.1-4.99-11.12-11.12-11.12h-3.56c-2.07,0-4,0.59-5.67,1.59l-23.63-51.05c-1.44-6.8-3.35-13.02-5.45-18.55
		c-6.45-17.02-24.75-28.6-45.55-28.6h-0.7h-121.7h-55.61v0.01h-0.01v0.3h-234.64v252.67h29.19c2.58,13.06,10.48,22.64,19.95,22.64
		c0,0,11.54,0,13.15,0c9.47,0,17.37-9.58,19.95-22.64h60.87c2.58,13.06,10.48,22.64,19.95,22.64c0,0,11.54,0,13.15,0
		c9.46,0,17.37-9.58,19.95-22.64h38.5h7.68h20.08h70.41c-0.45-2.6-0.66-5.29-0.66-8.07c0-0.2,0.06-0.38,0.06-0.58l0.6,8.65h6.27
		c2.58,13.06,10.48,22.64,19.95,22.64c0,0,11.54,0,13.15,0c9.47,0,17.37-9.58,19.95-22.64h21.44h76.69
		c2.58,13.06,10.48,22.64,19.95,22.64c0,0,11.54,0,13.15,0c9.52,0,17.46-9.68,19.99-22.86
		C2354.66,1451.02,2364.25,1440.88,2364.22,1428.38z"/>
	<g>
		<g>
			<path class="st9" d="M2014.78,1027.53v52.31c0,4.65-1.1,9.14-3.07,13.08c-4.8,9.61-14.81,16.23-26.23,16.23h-9.38
				c-16.07,0-29.3-13.16-29.3-29.3v-52.31c0-5.52,1.58-10.63,4.25-15.05c0-0.08,0-0.08,0-0.08c5.2-8.51,14.5-14.18,25.05-14.18h9.38
				C2001.63,998.22,2014.78,1011.46,2014.78,1027.53z"/>
			<path class="st10" d="M2011.71,1092.91c-4.8,9.61-14.81,16.23-26.23,16.23h-9.38c-16.07,0-29.3-13.16-29.3-29.3v-52.31
				c0-5.52,1.58-10.63,4.25-15.05C1951.6,1015.71,1964.05,1087.48,2011.71,1092.91z"/>
		</g>
		<polygon class="st11" points="1550.2,1410.38 1695.05,1410.38 1695.05,1264.18 1543.93,1264.18 		"/>
		<path class="st12" d="M2006.97,1101.34l-711.68,17.55V743.6h467.34c44.55,0,85.35,24.94,105.67,64.59l30.58,59.69L2006.97,1101.34
			z"/>
		<g>
			<path class="st13" d="M1602.67,1386.6c0,39.69,20.47,83.46,20.47,83.46s30.43,0,34.66,0c30.45,0,55.13-37.37,55.13-83.46
				s-59.34-83.46-89.79-83.46C1592.69,1303.14,1602.67,1340.5,1602.67,1386.6z"/>
			<ellipse class="st14" cx="1623.14" cy="1386.6" rx="55.13" ry="83.46"/>
			<ellipse class="st11" cx="1623.84" cy="1386.6" rx="41.53" ry="62.87"/>
		</g>
		<g>
			<path class="st13" d="M2001.15,1386.6c0,39.69,20.47,83.46,20.47,83.46s30.43,0,34.66,0c30.45,0,55.13-37.37,55.13-83.46
				s-59.34-83.46-89.79-83.46C1991.17,1303.14,2001.15,1340.5,2001.15,1386.6z"/>
			<path class="st14" d="M1966.49,1386.6c0,46.09,24.68,83.46,55.13,83.46c30.45,0,55.13-37.37,55.13-83.46
				s-24.68-83.46-55.13-83.46C1991.17,1303.14,1966.49,1340.5,1966.49,1386.6z"/>
			<path class="st11" d="M1980.79,1386.6c0,34.72,18.59,62.87,41.52,62.87s41.53-28.15,41.53-62.87c0-34.72-18.59-62.87-41.53-62.87
				S1980.79,1351.88,1980.79,1386.6z"/>
		</g>
		<g>
			<path class="st13" d="M1086.08,1386.6c0,39.69,20.47,83.46,20.47,83.46s30.43,0,34.66,0c30.45,0,55.13-37.37,55.13-83.46
				s-59.34-83.46-89.78-83.46C1076.1,1303.14,1086.08,1340.5,1086.08,1386.6z"/>
			<path class="st14" d="M1051.42,1386.6c0,46.09,24.68,83.46,55.13,83.46c30.45,0,55.13-37.37,55.13-83.46
				s-24.68-83.46-55.13-83.46C1076.1,1303.14,1051.42,1340.5,1051.42,1386.6z"/>
			<path class="st11" d="M1065.72,1386.6c0,34.72,18.59,62.87,41.52,62.87s41.53-28.15,41.53-62.87c0-34.72-18.59-62.87-41.53-62.87
				S1065.72,1351.88,1065.72,1386.6z"/>
		</g>
		<path class="st15" d="M2166.29,1347.21c0.08,34.9-28.2,63.18-63.02,63.18h-408.22c1.18-6.85,1.81-13.94,1.81-21.27
			c0-53.96-32.38-97.76-72.24-97.76c-39.94,0-72.32,43.8-72.32,97.76c0,7.33,0.55,14.42,1.73,21.27h-238.54
			c0,0-9.61-106.5-8.43-159.92c0.95-46.48,0.95-137.54-1.81-159.76c0-3.31,230.03-3.71,288.09-3.94c7.88-0.08,12.6-0.08,13.08-0.08
			l0.79,0.55l0.87,0.63c10.71,7.48,70.74,49.55,108,74.21c32.85,21.66,275.32,30.49,370.41,33.17c23.63,0.63,38.21,0.87,38.21,0.87
			s13,13.31,24.5,34.35c8.82,16.31,16.7,37.26,16.86,60.19c0.08,14.26,0.16,31.43,0.16,48.29
			C2166.29,1341.69,2166.29,1344.45,2166.29,1347.21z"/>
		<path class="st16" d="M1949.58,1086.69h-319.83c-7.4,0-14.1-4.33-17.17-11.03l-79.17-176.14c-2.6-5.75,1.66-12.29,7.96-12.29
			h337.4c7.41,0,14.18,4.41,17.17,11.26l56.72,129.59l14.18,32.38C1972.19,1072.83,1963.13,1086.69,1949.58,1086.69z"/>
		<path class="st17" d="M1800.62,1338.93c-0.08,5.52-0.31,10.71-0.63,15.36c-2.28,30.64-33.09,56.09-33.09,56.09h-71.84
			c1.18-6.85,1.81-13.94,1.81-21.27c0-18.36-3.78-35.53-10.24-50.18c-12.68-28.52-35.69-47.58-62-47.58
			c-26.39,0-49.39,19.07-62.08,47.58c-6.46,14.65-10.24,31.83-10.24,50.18c0,7.33,0.55,14.42,1.73,21.27h-258.78V743.62H1503v132.34
			c0,0,62.31,146.37,90.36,210.81c6.93,16.07,11.82,27.02,13.08,29.38c6.22,11.89,151.01,85.16,174.96,106.74
			C1794.71,1234.87,1801.32,1297.1,1800.62,1338.93z"/>
		<path class="st16" d="M1505.32,918.92l68.13,167.8h-116.9c0,0-23.98-4.01-27.05-53.02c-3.28-52.32-3.28-142.6-3.28-142.6
			l51.31-0.25C1497.09,893.81,1500.15,904.55,1505.32,918.92z"/>
		<polygon class="st18" points="2124.7,1196.11 1745.63,1196.11 1607.22,1087.24 1606.43,1086.69 1988.81,1086.69 2097.68,1174.29 
					"/>
		<path class="st3" d="M2149.2,1230.46c-2.21,3.63-5.04,5.99-8.11,6.54l-53.17,9.85c-4.49,0.87-7.96-6.93-6.78-14.97l5.2-35.76
			l0.16-0.87l1.02-7.33c0.94-6.3,3.7-11.11,7.09-12.45l3.07-1.18l27.02,21.82C2124.7,1196.11,2137.7,1209.42,2149.2,1230.46z"/>
		<path class="st9" d="M1794.71,1260.08l-34.27-3.39c-11.97-1.18-21.66-10.16-23.79-21.98l-7.88-43.33
			c-0.16-0.71-0.24-1.34-0.16-2.05c24.42,14.02,44.98,26.55,52.78,33.56C1787.07,1228.02,1791.55,1242.2,1794.71,1260.08z"/>
		<path class="st3" d="M1859.78,1266.54l-64.99-6.46h-0.08l-34.27-3.39c-11.97-1.18-21.66-10.16-23.79-21.98l-7.88-43.33
			c-0.16-0.71-0.24-1.34-0.16-2.05v-0.08c-0.39-9.14,7.96-16.54,17.33-14.65l101.23,20.56c6.46,1.34,11.58,6.14,13.31,12.45
			l11.9,43.96C1874.59,1259.61,1868.05,1267.41,1859.78,1266.54z"/>
		<path class="st19" d="M1898.9,867.87h-394.91c0,0-1.53-25.27-11.44-54.13c-8.82-25.49-24.07-53.91-50.75-70.14h322.7
			c52.6,0,99.22,28.1,117.73,70.14c0.87,1.74,1.63,3.48,2.29,5.23C1890.08,833.56,1895.09,849.9,1898.9,867.87z"/>
		<path class="st16" d="M1794.79,1260.08l-34.35-3.39c-11.97-1.18-21.66-10.16-23.79-21.98l-7.88-43.33
			c-0.16-0.71-0.24-1.42-0.16-2.13c24.42,14.1,44.98,26.63,52.78,33.64C1787.07,1228.02,1791.55,1242.2,1794.79,1260.08z"/>
		<path class="st20" d="M2166.29,1347.21c0.08,34.9-29.54,63.18-66.09,63.18h-405.15c1.18-6.85,1.81-13.94,1.81-21.27
			c0-18.36-3.78-35.53-10.24-50.18h479.59C2166.29,1341.69,2166.29,1344.45,2166.29,1347.21z"/>
		<path class="st20" d="M1552.31,1389.11c0,7.33,0.55,14.42,1.73,21.27h-258.78v-71.45h267.29
			C1556.09,1353.59,1552.31,1370.76,1552.31,1389.11z"/>
		<path class="st20" d="M1899.41,1199.19h155.01c4.95,0,8.74,6.68,7.98,14.08l-5.5,53.87c-0.81,7.92-5.32,13.77-10.62,13.77h-127.71
			c-8.19,0-15.41-8.1-17.79-19.95l-9.2-45.8C1889.98,1207.21,1893.91,1199.19,1899.41,1199.19z"/>
		<path class="st3" d="M1952.65,1028.08c-182.84-9.37-306.52-107.21-343.86-140.85h269.97c7.41,0,14.18,4.41,17.17,11.26
			L1952.65,1028.08z"/>
		<rect x="676.82" y="743.6" class="st21" width="691.58" height="666.83"/>
		<path class="st13" d="M1538.78,1000.56c0,0,5.92,67.82-27.57,86.39h62.55L1538.78,1000.56z"/>
		<path class="st13" d="M1547.97,1045.94c0,0-14.12-10.05-15.34-18.38v47.43h18.48L1547.97,1045.94z"/>
		<g>
			<path class="st12" d="M1532.62,1027.53v52.31c0,4.65-1.1,9.14-3.07,13.08c-4.8,9.61-14.81,16.23-26.23,16.23h-9.38
				c-16.07,0-29.3-13.16-29.3-29.3v-52.31c0-5.52,1.57-10.63,4.25-15.05c0-0.08,0-0.08,0-0.08c5.2-8.51,14.5-14.18,25.05-14.18h9.38
				C1519.46,998.22,1532.62,1011.46,1532.62,1027.53z"/>
			<path class="st20" d="M1529.54,1092.91c-4.8,9.61-14.81,16.23-26.23,16.23h-9.38c-16.07,0-29.3-13.16-29.3-29.3v-52.31
				c0-5.52,1.57-10.63,4.25-15.05C1469.44,1015.71,1481.89,1087.48,1529.54,1092.91z"/>
		</g>
		<path class="st11" d="M902.7,1410.43H732.58c-3.59-15.36-14.41-124.7,80.92-124.7C900.14,1285.72,906.51,1385.49,902.7,1410.43z"
			/>
		<g>
			<path class="st13" d="M785.83,1386.6c0,39.69,20.47,83.46,20.47,83.46s30.43,0,34.66,0c30.45,0,55.13-37.37,55.13-83.46
				s-59.34-83.46-89.79-83.46C775.86,1303.14,785.83,1340.5,785.83,1386.6z"/>
			<path class="st14" d="M751.17,1386.6c0,46.09,24.68,83.46,55.13,83.46c30.45,0,55.13-37.37,55.13-83.46s-24.68-83.46-55.13-83.46
				C775.86,1303.14,751.17,1340.5,751.17,1386.6z"/>
			<path class="st11" d="M765.47,1386.6c0,34.72,18.59,62.87,41.53,62.87c22.93,0,41.52-28.15,41.52-62.87
				c0-34.72-18.59-62.87-41.52-62.87C784.06,1323.73,765.47,1351.88,765.47,1386.6z"/>
		</g>
		<path class="st20" d="M1898.9,867.87h-394.91c0,0-1.53-25.27-11.44-54.13h389.68c0.87,1.74,1.63,3.48,2.29,5.23
			C1890.08,833.56,1895.09,849.9,1898.9,867.87z"/>
	</g>
	<path class="st22" d="M1562.55,331.14c-71.34,0-129.18,57.84-129.18,129.18c0,71.34,129.18,229.96,129.18,229.96
		s129.18-158.61,129.18-229.96C1691.73,388.97,1633.9,331.14,1562.55,331.14z M1562.55,519.39c-33.35,0-60.38-27.04-60.38-60.38
		c0-33.35,27.03-60.38,60.38-60.38c33.35,0,60.38,27.03,60.38,60.38C1622.93,492.35,1595.9,519.39,1562.55,519.39z"/>
	<g>
		<path class="st23" d="M1305.27,1149.45c-0.71,0-1.42-0.31-1.91-0.9l-3.09-3.75c-0.87-1.06-0.72-2.62,0.33-3.49
			c1.06-0.87,2.62-0.72,3.49,0.33l3.09,3.74c0.87,1.06,0.73,2.62-0.33,3.49C1306.39,1149.26,1305.83,1149.45,1305.27,1149.45z
			 M1297.97,1140.59c-0.72,0-1.43-0.31-1.92-0.91c-1.38-1.69-2.78-3.39-4.2-5.13c-0.87-1.06-0.71-2.62,0.35-3.49
			c1.06-0.87,2.62-0.71,3.49,0.35c1.41,1.73,2.81,3.43,4.19,5.12c0.87,1.06,0.71,2.62-0.34,3.49
			C1299.08,1140.41,1298.53,1140.59,1297.97,1140.59z M1289.61,1130.34c-0.72,0-1.44-0.31-1.93-0.92c-1.38-1.7-2.76-3.42-4.16-5.16
			c-0.86-1.07-0.68-2.63,0.38-3.49c1.07-0.86,2.63-0.68,3.49,0.38c1.39,1.74,2.77,3.45,4.14,5.15c0.86,1.06,0.7,2.63-0.37,3.49
			C1290.71,1130.16,1290.16,1130.34,1289.61,1130.34z M1281.33,1120.01c-0.73,0-1.46-0.32-1.95-0.94c-1.36-1.72-2.73-3.45-4.1-5.21
			c-0.85-1.08-0.66-2.64,0.42-3.48c1.08-0.84,2.64-0.66,3.48,0.42c1.37,1.75,2.73,3.48,4.09,5.19c0.85,1.07,0.67,2.63-0.4,3.48
			C1282.41,1119.83,1281.87,1120.01,1281.33,1120.01z M1273.17,1109.59c-0.74,0-1.48-0.33-1.96-0.96c-1.34-1.74-2.69-3.49-4.04-5.26
			c-0.83-1.09-0.62-2.65,0.47-3.48c1.09-0.83,2.65-0.62,3.48,0.47c1.34,1.76,2.69,3.51,4.02,5.23c0.84,1.08,0.64,2.64-0.44,3.48
			C1274.23,1109.42,1273.7,1109.59,1273.17,1109.59z M1265.14,1099.06c-0.75,0-1.5-0.34-1.98-0.99c-1.32-1.76-2.64-3.53-3.97-5.32
			c-0.81-1.1-0.58-2.65,0.52-3.47c1.1-0.82,2.65-0.58,3.47,0.52c1.32,1.78,2.63,3.54,3.95,5.29c0.82,1.09,0.6,2.65-0.49,3.47
			C1266.18,1098.9,1265.66,1099.06,1265.14,1099.06z M1257.27,1088.43c-0.77,0-1.52-0.35-2.01-1.02c-1.3-1.78-2.59-3.58-3.88-5.38
			c-0.8-1.11-0.54-2.66,0.57-3.46c1.11-0.8,2.66-0.54,3.46,0.58c1.29,1.8,2.57,3.58,3.86,5.35c0.81,1.11,0.56,2.66-0.55,3.46
			C1258.29,1088.27,1257.78,1088.43,1257.27,1088.43z M1249.57,1077.66c-0.78,0-1.55-0.37-2.03-1.06c-1.27-1.8-2.53-3.62-3.79-5.45
			c-0.78-1.13-0.49-2.67,0.64-3.45c1.13-0.78,2.67-0.49,3.45,0.64c1.25,1.82,2.51,3.62,3.76,5.42c0.79,1.12,0.52,2.67-0.61,3.46
			C1250.56,1077.51,1250.07,1077.66,1249.57,1077.66z M1242.07,1066.76c-0.8,0-1.58-0.38-2.06-1.09c-1.23-1.83-2.46-3.67-3.68-5.53
			c-0.75-1.14-0.44-2.68,0.71-3.44c1.14-0.75,2.68-0.44,3.44,0.71c1.21,1.84,2.43,3.67,3.66,5.49c0.77,1.14,0.46,2.68-0.67,3.44
			C1243.03,1066.62,1242.55,1066.76,1242.07,1066.76z M1234.79,1055.71c-0.81,0-1.61-0.4-2.09-1.14c-1.2-1.86-2.39-3.72-3.57-5.6
			c-0.73-1.16-0.38-2.69,0.78-3.42s2.69-0.38,3.42,0.78c1.17,1.86,2.35,3.72,3.54,5.56c0.74,1.15,0.41,2.69-0.74,3.43
			C1235.71,1055.58,1235.25,1055.71,1234.79,1055.71z M1227.74,1044.51c-0.83,0-1.65-0.42-2.12-1.18c-1.16-1.88-2.3-3.78-3.44-5.69
			c-0.7-1.18-0.32-2.7,0.86-3.4c1.18-0.7,2.7-0.32,3.4,0.86c1.13,1.89,2.27,3.77,3.41,5.63c0.72,1.17,0.35,2.7-0.82,3.41
			C1228.63,1044.39,1228.18,1044.51,1227.74,1044.51z M1220.96,1033.15c-0.86,0-1.69-0.44-2.15-1.24c-1.11-1.91-2.21-3.84-3.3-5.77
			c-0.67-1.19-0.25-2.71,0.94-3.38c1.19-0.67,2.71-0.25,3.38,0.94c1.08,1.91,2.17,3.82,3.27,5.71c0.69,1.18,0.28,2.7-0.9,3.39
			C1221.81,1033.04,1221.38,1033.15,1220.96,1033.15z M1214.46,1021.62c-0.88,0-1.73-0.47-2.18-1.29c-1.06-1.95-2.12-3.91-3.16-5.88
			c-0.64-1.21-0.18-2.71,1.03-3.35c1.21-0.64,2.71-0.18,3.35,1.03c1.03,1.95,2.07,3.89,3.13,5.82c0.66,1.2,0.21,2.71-0.99,3.37
			C1215.27,1021.52,1214.86,1021.62,1214.46,1021.62z M1208.26,1009.89c-0.9,0-1.77-0.49-2.21-1.35c-1.01-1.98-2-3.97-2.99-5.96
			c-0.6-1.23-0.1-2.72,1.13-3.32c1.23-0.6,2.72-0.1,3.32,1.13c0.97,1.97,1.95,3.94,2.95,5.9c0.62,1.22,0.14,2.71-1.08,3.34
			C1209.03,1009.8,1208.64,1009.89,1208.26,1009.89z M1202.42,997.99c-0.93,0-1.82-0.52-2.24-1.42c-0.95-2.01-1.88-4.02-2.8-6.05
			c-0.56-1.25-0.01-2.72,1.24-3.28c1.25-0.56,2.72-0.01,3.28,1.24c0.91,2,1.83,3.99,2.76,5.98c0.58,1.24,0.05,2.72-1.18,3.3
			C1203.13,997.92,1202.77,997.99,1202.42,997.99z M1196.96,985.93c-0.96,0-1.87-0.56-2.28-1.5c-0.88-2.04-1.75-4.08-2.59-6.14
			c-0.52-1.27,0.08-2.72,1.35-3.24c1.27-0.52,2.72,0.08,3.24,1.35c0.84,2.03,1.69,4.05,2.56,6.06c0.54,1.26-0.03,2.72-1.29,3.26
			C1197.62,985.86,1197.29,985.93,1196.96,985.93z M1191.91,973.68c-0.99,0-1.93-0.6-2.31-1.58c-0.81-2.07-1.6-4.14-2.37-6.23
			c-0.48-1.29,0.18-2.71,1.47-3.19c1.29-0.48,2.71,0.18,3.19,1.46c0.76,2.05,1.54,4.1,2.34,6.14c0.5,1.28-0.13,2.71-1.41,3.21
			C1192.52,973.63,1192.21,973.68,1191.91,973.68z M1187.32,961.28c-1.03,0-1.99-0.64-2.34-1.67c-0.73-2.1-1.44-4.2-2.13-6.32
			c-0.42-1.3,0.29-2.7,1.59-3.13c1.3-0.42,2.7,0.29,3.13,1.59c0.68,2.08,1.38,4.16,2.1,6.22c0.45,1.29-0.23,2.71-1.53,3.16
			C1187.86,961.23,1187.59,961.28,1187.32,961.28z M1183.22,948.7c-1.06,0-2.05-0.69-2.37-1.76c-0.64-2.12-1.27-4.28-1.87-6.4
			c-0.37-1.32,0.4-2.69,1.72-3.06c1.32-0.37,2.69,0.4,3.06,1.72c0.59,2.09,1.2,4.21,1.84,6.3c0.4,1.31-0.34,2.7-1.65,3.09
			C1183.7,948.66,1183.46,948.7,1183.22,948.7z M1179.65,935.96c-1.11,0-2.11-0.74-2.4-1.86c-0.55-2.16-1.09-4.34-1.58-6.48
			c-0.31-1.33,0.52-2.67,1.85-2.98c1.34-0.31,2.67,0.52,2.98,1.85c0.49,2.1,1.01,4.25,1.56,6.37c0.34,1.33-0.46,2.68-1.79,3.02
			C1180.06,935.94,1179.85,935.96,1179.65,935.96z M1176.66,923.08c-1.15,0-2.18-0.81-2.43-1.98c-0.45-2.18-0.88-4.39-1.28-6.55
			c-0.25-1.35,0.65-2.64,1.99-2.89c1.35-0.25,2.64,0.65,2.89,2c0.39,2.13,0.81,4.29,1.25,6.43c0.28,1.34-0.58,2.65-1.92,2.93
			C1176.99,923.06,1176.82,923.08,1176.66,923.08z M1174.28,910.06c-1.2,0-2.26-0.87-2.45-2.1c-0.34-2.2-0.66-4.42-0.95-6.61
			c-0.18-1.36,0.78-2.6,2.14-2.78c1.36-0.17,2.6,0.78,2.78,2.14c0.28,2.15,0.59,4.33,0.93,6.49c0.21,1.35-0.71,2.62-2.07,2.83
			C1174.54,910.05,1174.41,910.06,1174.28,910.06z M1172.57,896.93c-1.25,0-2.33-0.95-2.46-2.22c-0.23-2.22-0.43-4.46-0.6-6.66
			c-0.1-1.37,0.92-2.56,2.28-2.66c1.36-0.12,2.56,0.92,2.66,2.28c0.17,2.16,0.36,4.35,0.59,6.53c0.14,1.36-0.85,2.58-2.21,2.72
			C1172.74,896.93,1172.66,896.93,1172.57,896.93z M1171.56,883.73c-1.31,0-2.41-1.03-2.48-2.36c-0.11-2.23-0.19-4.48-0.23-6.69
			c-0.03-1.37,1.06-2.5,2.43-2.53c1.37-0.06,2.5,1.06,2.53,2.43c0.04,2.17,0.12,4.37,0.23,6.55c0.07,1.37-0.99,2.53-2.36,2.6
			C1171.64,883.72,1171.6,883.73,1171.56,883.73z M1171.29,870.47c-0.01,0-0.01,0-0.02,0c-1.37-0.01-2.47-1.13-2.46-2.5
			c0.02-2.23,0.07-4.48,0.15-6.69c0.05-1.37,1.19-2.42,2.57-2.39c1.37,0.05,2.44,1.2,2.39,2.57c-0.08,2.16-0.13,4.36-0.15,6.54
			C1173.76,869.38,1172.65,870.47,1171.29,870.47z M1171.79,857.24c-0.06,0-0.11,0-0.17-0.01c-1.37-0.09-2.4-1.27-2.31-2.64
			c0.15-2.22,0.33-4.47,0.55-6.68c0.13-1.36,1.35-2.36,2.71-2.23c1.36,0.13,2.36,1.34,2.23,2.71c-0.21,2.16-0.39,4.36-0.53,6.53
			C1174.17,856.24,1173.08,857.24,1171.79,857.24z M1173.06,844.06c-0.1,0-0.21-0.01-0.32-0.02c-1.36-0.17-2.32-1.42-2.15-2.77
			c0.28-2.2,0.6-4.43,0.94-6.62c0.21-1.35,1.48-2.27,2.84-2.06c1.35,0.21,2.28,1.48,2.06,2.84c-0.34,2.14-0.65,4.32-0.92,6.47
			C1175.36,843.15,1174.29,844.06,1173.06,844.06z M1175.13,831c-0.15,0-0.31-0.01-0.46-0.04c-1.35-0.25-2.23-1.55-1.98-2.9
			c0.41-2.18,0.86-4.38,1.34-6.55c0.3-1.34,1.62-2.19,2.96-1.89c1.34,0.29,2.18,1.62,1.89,2.96c-0.47,2.12-0.91,4.27-1.31,6.41
			C1177.34,830.17,1176.29,831,1175.13,831z M1177.98,818.09c-0.2,0-0.41-0.02-0.61-0.08c-1.33-0.34-2.13-1.68-1.8-3.01
			c0.54-2.14,1.13-4.32,1.74-6.46c0.38-1.32,1.75-2.08,3.06-1.71c1.32,0.38,2.08,1.75,1.71,3.06c-0.6,2.09-1.17,4.22-1.7,6.31
			C1180.1,817.34,1179.09,818.09,1177.98,818.09z M1181.6,805.38c-0.25,0-0.5-0.04-0.75-0.12c-1.31-0.41-2.03-1.81-1.61-3.11
			c0.67-2.1,1.38-4.24,2.12-6.34c0.45-1.29,1.87-1.97,3.16-1.52c1.29,0.45,1.97,1.87,1.52,3.16c-0.72,2.06-1.42,4.14-2.07,6.2
			C1183.63,804.7,1182.65,805.38,1181.6,805.38z M1185.97,792.89c-0.29,0-0.59-0.05-0.89-0.16c-1.28-0.49-1.92-1.92-1.43-3.2
			c0.79-2.06,1.62-4.15,2.48-6.21c0.53-1.26,1.98-1.86,3.24-1.34c1.26,0.53,1.86,1.98,1.34,3.24c-0.84,2.01-1.65,4.06-2.43,6.07
			C1187.9,792.29,1186.96,792.89,1185.97,792.89z M1191.05,780.69c-0.34,0-0.69-0.07-1.02-0.22c-1.25-0.56-1.81-2.03-1.25-3.28
			c0.91-2.02,1.86-4.05,2.82-6.05c0.6-1.23,2.08-1.75,3.31-1.15c1.23,0.6,1.75,2.08,1.15,3.31c-0.95,1.96-1.88,3.96-2.77,5.93
			C1192.9,780.14,1191.99,780.69,1191.05,780.69z M1196.8,768.78c-0.38,0-0.77-0.09-1.14-0.28c-1.22-0.63-1.69-2.13-1.06-3.34
			c1.01-1.96,2.07-3.94,3.15-5.89c0.66-1.2,2.17-1.64,3.37-0.98c1.2,0.66,1.64,2.17,0.98,3.37c-1.05,1.91-2.09,3.86-3.08,5.77
			C1198.56,768.29,1197.7,768.78,1196.8,768.78z M1203.18,757.2c-0.43,0-0.86-0.11-1.25-0.34c-1.18-0.69-1.58-2.21-0.89-3.39
			c1.11-1.89,2.27-3.82,3.44-5.72c0.72-1.16,2.25-1.52,3.41-0.8s1.52,2.25,0.8,3.41c-1.15,1.86-2.29,3.75-3.38,5.61
			C1204.86,756.76,1204.03,757.2,1203.18,757.2z M1210.14,745.96c-0.46,0-0.94-0.13-1.35-0.4c-1.15-0.75-1.47-2.29-0.72-3.43
			c1.2-1.84,2.45-3.71,3.71-5.54c0.78-1.13,2.32-1.42,3.45-0.64c1.13,0.78,1.41,2.32,0.64,3.45c-1.24,1.8-2.47,3.63-3.65,5.44
			C1211.74,745.56,1210.95,745.96,1210.14,745.96z M1217.63,735.06c-0.5,0-1.01-0.15-1.45-0.47c-1.11-0.8-1.36-2.35-0.56-3.46
			c1.29-1.79,2.62-3.59,3.96-5.36c0.83-1.09,2.38-1.31,3.47-0.48c1.09,0.83,1.31,2.38,0.48,3.47c-1.32,1.74-2.63,3.52-3.9,5.27
			C1219.16,734.7,1218.4,735.06,1217.63,735.06z M1225.6,724.51c-0.54,0-1.08-0.17-1.54-0.53c-1.07-0.85-1.26-2.41-0.41-3.48
			c1.36-1.72,2.77-3.46,4.19-5.19c0.87-1.06,2.43-1.21,3.49-0.34c1.06,0.87,1.21,2.43,0.34,3.49c-1.4,1.7-2.79,3.41-4.12,5.11
			C1227.06,724.18,1226.33,724.51,1225.6,724.51z M1234.01,714.3c-0.57,0-1.15-0.2-1.62-0.6c-1.04-0.89-1.16-2.46-0.27-3.5
			c1.44-1.67,2.9-3.34,4.39-5.01c0.91-1.02,2.48-1.11,3.5-0.2c1.02,0.91,1.11,2.48,0.2,3.5c-1.47,1.65-2.91,3.29-4.33,4.94
			C1235.41,714.01,1234.71,714.3,1234.01,714.3z M1242.82,704.44c-0.6,0-1.21-0.22-1.69-0.66c-1-0.93-1.06-2.5-0.13-3.51
			c1.5-1.61,3.02-3.23,4.57-4.84c0.95-0.99,2.52-1.02,3.51-0.07c0.99,0.95,1.02,2.52,0.07,3.51c-1.53,1.59-3.03,3.18-4.51,4.77
			C1244.15,704.17,1243.49,704.44,1242.82,704.44z M1251.99,694.91c-0.63,0-1.27-0.24-1.75-0.72c-0.97-0.97-0.97-2.54-0.01-3.51
			c1.55-1.56,3.13-3.12,4.74-4.67c0.98-0.95,2.55-0.93,3.51,0.05c0.95,0.98,0.93,2.55-0.05,3.51c-1.58,1.54-3.14,3.08-4.68,4.61
			C1253.26,694.67,1252.63,694.91,1251.99,694.91z M1261.49,685.7c-0.66,0-1.32-0.26-1.81-0.78c-0.94-1-0.89-2.57,0.11-3.51
			c1.6-1.51,3.23-3.01,4.89-4.51c1.01-0.92,2.58-0.85,3.5,0.17c0.92,1.01,0.85,2.58-0.17,3.5c-1.63,1.49-3.24,2.97-4.83,4.46
			C1262.7,685.48,1262.09,685.7,1261.49,685.7z M1271.27,676.8c-0.69,0-1.37-0.28-1.86-0.84c-0.91-1.03-0.81-2.59,0.22-3.5
			c1.65-1.45,3.32-2.91,5.02-4.36c1.04-0.89,2.61-0.77,3.5,0.27c0.89,1.04,0.77,2.61-0.27,3.5c-1.68,1.44-3.33,2.87-4.96,4.31
			C1272.44,676.6,1271.85,676.8,1271.27,676.8z M1281.32,668.2c-0.71,0-1.42-0.3-1.91-0.89c-0.88-1.05-0.73-2.62,0.32-3.49
			c1.69-1.41,3.4-2.81,5.14-4.21c1.06-0.86,2.63-0.7,3.49,0.37c0.86,1.06,0.7,2.63-0.37,3.49c-1.72,1.39-3.41,2.78-5.09,4.17
			C1282.44,668.01,1281.87,668.2,1281.32,668.2z M1291.56,659.83c-0.71,0-1.41-0.3-1.9-0.89c-0.88-1.05-0.74-2.61,0.31-3.49
			c1.67-1.4,3.33-2.84,4.94-4.28c1.02-0.91,2.59-0.83,3.5,0.2c0.91,1.02,0.83,2.59-0.2,3.5c-1.65,1.47-3.35,2.95-5.06,4.38
			C1292.68,659.64,1292.12,659.83,1291.56,659.83z M1301.41,651.01c-0.65,0-1.31-0.26-1.79-0.77c-0.95-0.99-0.91-2.56,0.08-3.51
			c1.57-1.5,3.14-3.04,4.65-4.59c0.96-0.98,2.53-1,3.51-0.04c0.98,0.96,1,2.53,0.04,3.51c-1.55,1.58-3.15,3.17-4.76,4.71
			C1302.64,650.78,1302.02,651.01,1301.41,651.01z M1310.66,641.56c-0.6,0-1.2-0.21-1.67-0.65c-1.01-0.92-1.08-2.49-0.16-3.5
			c1.47-1.61,2.92-3.25,4.32-4.89c0.89-1.04,2.45-1.17,3.5-0.28c1.04,0.89,1.17,2.45,0.28,3.5c-1.44,1.68-2.93,3.37-4.43,5.02
			C1312,641.29,1311.33,641.56,1310.66,641.56z M1319.23,631.5c-0.54,0-1.08-0.18-1.54-0.54c-1.07-0.85-1.25-2.41-0.4-3.48
			c1.35-1.7,2.68-3.44,3.96-5.18c0.81-1.1,2.36-1.34,3.47-0.53c1.1,0.81,1.34,2.36,0.53,3.47c-1.32,1.79-2.69,3.58-4.07,5.32
			C1320.69,631.18,1319.96,631.5,1319.23,631.5z M1327.07,620.85c-0.48,0-0.97-0.14-1.39-0.43c-1.13-0.77-1.42-2.31-0.65-3.45
			c1.22-1.79,2.42-3.62,3.58-5.46c0.73-1.16,2.26-1.51,3.42-0.78c1.16,0.73,1.51,2.26,0.78,3.42c-1.19,1.88-2.42,3.77-3.67,5.61
			C1328.64,620.47,1327.86,620.85,1327.07,620.85z M1334.11,609.66c-0.42,0-0.85-0.11-1.24-0.34c-1.19-0.69-1.59-2.2-0.9-3.39
			c1.08-1.87,2.15-3.79,3.17-5.7c0.64-1.21,2.14-1.67,3.35-1.03c1.21,0.64,1.67,2.15,1.03,3.35c-1.05,1.97-2.14,3.94-3.25,5.86
			C1335.8,609.22,1334.97,609.66,1334.11,609.66z M1340.32,598c-0.36,0-0.73-0.08-1.08-0.25c-1.23-0.6-1.75-2.08-1.15-3.31
			c0.95-1.95,1.87-3.94,2.74-5.91c0.55-1.25,2.02-1.82,3.27-1.27c1.25,0.55,1.82,2.02,1.27,3.27c-0.89,2.02-1.84,4.07-2.81,6.07
			C1342.12,597.48,1341.24,598,1340.32,598z M1345.65,585.91c-0.31,0-0.62-0.06-0.92-0.18c-1.27-0.51-1.89-1.95-1.39-3.22
			c0.8-2.01,1.58-4.06,2.31-6.1c0.46-1.29,1.88-1.96,3.17-1.5c1.29,0.46,1.96,1.88,1.5,3.17c-0.75,2.09-1.55,4.2-2.37,6.26
			C1347.57,585.32,1346.64,585.91,1345.65,585.91z M1350.11,573.47c-0.25,0-0.5-0.04-0.75-0.12c-1.31-0.42-2.03-1.81-1.61-3.12
			c0.66-2.06,1.29-4.16,1.87-6.25c0.37-1.32,1.74-2.09,3.06-1.72c1.32,0.37,2.09,1.74,1.72,3.06c-0.6,2.14-1.25,4.3-1.92,6.42
			C1352.13,572.8,1351.16,573.47,1350.11,573.47z M1353.68,560.75c-0.19,0-0.39-0.02-0.59-0.07c-1.33-0.32-2.15-1.67-1.82-3
			c0.51-2.1,1-4.24,1.44-6.37c0.28-1.34,1.59-2.2,2.93-1.92c1.34,0.28,2.2,1.59,1.92,2.93c-0.45,2.18-0.95,4.38-1.48,6.53
			C1355.81,559.99,1354.79,560.75,1353.68,560.75z M1356.38,547.8c-0.14,0-0.28-0.01-0.43-0.04c-1.35-0.23-2.25-1.52-2.02-2.87
			c0.37-2.13,0.71-4.31,1.01-6.46c0.19-1.36,1.45-2.3,2.8-2.11c1.36,0.19,2.3,1.44,2.11,2.8c-0.31,2.2-0.66,4.43-1.04,6.61
			C1358.61,546.95,1357.56,547.8,1356.38,547.8z M1358.22,534.7c-0.09,0-0.18,0-0.27-0.01c-1.36-0.15-2.35-1.37-2.2-2.73
			c0.23-2.14,0.44-4.34,0.6-6.51c0.11-1.37,1.3-2.39,2.66-2.28c1.37,0.11,2.39,1.3,2.28,2.66c-0.17,2.23-0.38,4.47-0.62,6.67
			C1360.54,533.75,1359.47,534.7,1358.22,534.7z M1359.24,521.5c-0.04,0-0.08,0-0.12,0c-1.37-0.06-2.43-1.23-2.36-2.59
			c0.1-2.16,0.17-4.36,0.21-6.54c0.02-1.37,1.17-2.45,2.52-2.44c1.37,0.02,2.46,1.15,2.44,2.52c-0.04,2.23-0.11,4.48-0.21,6.69
			C1361.65,520.47,1360.55,521.5,1359.24,521.5z M1359.46,508.27c-1.36,0-2.46-1.09-2.48-2.45c-0.03-2.17-0.08-4.37-0.17-6.55
			c-0.05-1.37,1.01-2.52,2.38-2.58c1.35-0.04,2.52,1.01,2.58,2.38c0.09,2.22,0.15,4.47,0.17,6.69c0.02,1.37-1.08,2.49-2.45,2.51
			C1359.48,508.27,1359.47,508.27,1359.46,508.27z M1358.93,495.03c-1.29,0-2.38-1-2.47-2.31c-0.15-2.15-0.32-4.35-0.53-6.53
			c-0.13-1.36,0.87-2.57,2.24-2.7c1.36-0.14,2.57,0.87,2.7,2.24c0.21,2.22,0.39,4.46,0.54,6.66c0.09,1.37-0.94,2.55-2.31,2.64
			C1359.04,495.03,1358.99,495.03,1358.93,495.03z M1357.69,481.86c-1.24,0-2.31-0.92-2.46-2.18c-0.26-2.16-0.55-4.34-0.87-6.49
			c-0.2-1.36,0.74-2.62,2.09-2.81c1.35-0.2,2.62,0.74,2.81,2.09c0.32,2.19,0.62,4.42,0.89,6.62c0.16,1.36-0.8,2.6-2.16,2.76
			C1357.89,481.86,1357.79,481.86,1357.69,481.86z M1355.77,468.78c-1.19,0-2.23-0.85-2.44-2.06c-0.37-2.12-0.77-4.29-1.19-6.44
			c-0.27-1.34,0.61-2.65,1.95-2.91c1.34-0.26,2.65,0.61,2.91,1.95c0.43,2.19,0.84,4.4,1.21,6.56c0.23,1.35-0.67,2.63-2.02,2.87
			C1356.05,468.77,1355.91,468.78,1355.77,468.78z M1353.21,455.8c-1.14,0-2.16-0.79-2.42-1.94c-0.47-2.12-0.98-4.27-1.5-6.38
			c-0.33-1.33,0.48-2.67,1.81-3c1.33-0.33,2.67,0.48,3,1.81c0.53,2.15,1.04,4.34,1.53,6.5c0.3,1.34-0.55,2.66-1.88,2.96
			C1353.57,455.78,1353.39,455.8,1353.21,455.8z M1350.04,442.96c-1.09,0-2.09-0.73-2.39-1.83c-0.57-2.09-1.17-4.22-1.79-6.31
			c-0.39-1.31,0.36-2.69,1.68-3.08c1.31-0.39,2.69,0.36,3.08,1.68c0.63,2.13,1.24,4.29,1.82,6.42c0.36,1.32-0.42,2.68-1.74,3.04
			C1350.47,442.93,1350.25,442.96,1350.04,442.96z M1346.28,430.25c-1.05,0-2.03-0.67-2.36-1.73c-0.66-2.07-1.36-4.17-2.07-6.25
			c-0.45-1.3,0.24-2.71,1.54-3.15c1.3-0.45,2.71,0.24,3.15,1.54c0.73,2.11,1.44,4.25,2.11,6.35c0.42,1.31-0.3,2.7-1.61,3.12
			C1346.79,430.21,1346.53,430.25,1346.28,430.25z M1341.97,417.7c-1.01,0-1.96-0.62-2.33-1.62c-0.76-2.05-1.54-4.12-2.34-6.15
			c-0.5-1.28,0.13-2.71,1.4-3.21c1.28-0.5,2.72,0.13,3.21,1.4c0.81,2.06,1.61,4.17,2.38,6.25c0.47,1.29-0.19,2.71-1.47,3.18
			C1342.54,417.65,1342.25,417.7,1341.97,417.7z M1337.12,405.35c-0.97,0-1.89-0.57-2.29-1.53c-0.84-2.01-1.71-4.05-2.59-6.05
			c-0.55-1.25,0.02-2.72,1.27-3.27c1.25-0.55,2.72,0.02,3.27,1.27c0.9,2.03,1.78,4.1,2.63,6.14c0.53,1.26-0.07,2.72-1.34,3.24
			C1337.76,405.28,1337.44,405.35,1337.12,405.35z M1331.78,393.21c-0.94,0-1.83-0.53-2.25-1.44c-0.92-1.98-1.87-3.97-2.83-5.93
			c-0.6-1.23-0.09-2.72,1.14-3.32s2.72-0.09,3.32,1.14c0.97,1.99,1.94,4.02,2.88,6.02c0.58,1.24,0.04,2.72-1.2,3.29
			C1332.48,393.14,1332.13,393.21,1331.78,393.21z M756.85,383.07c-0.43,0-0.87-0.11-1.26-0.35c-1.18-0.7-1.56-2.22-0.87-3.4
			c0.05-0.08,1.27-2.13,3.74-5.72c0.78-1.13,2.32-1.41,3.45-0.64c1.13,0.78,1.41,2.32,0.64,3.45c-2.37,3.44-3.55,5.42-3.56,5.44
			C758.52,382.63,757.7,383.07,756.85,383.07z M1325.95,381.32c-0.9,0-1.77-0.49-2.21-1.35c-1-1.95-2.02-3.89-3.07-5.81
			c-0.65-1.21-0.2-2.71,1-3.36c1.2-0.65,2.71-0.2,3.36,1c1.06,1.96,2.09,3.92,3.11,5.9c0.63,1.22,0.15,2.71-1.07,3.34
			C1326.72,381.23,1326.33,381.32,1325.95,381.32z M764.36,372.08c-0.51,0-1.03-0.16-1.47-0.48c-1.1-0.81-1.34-2.37-0.53-3.47
			c1.29-1.75,2.65-3.55,4.05-5.34c0.84-1.08,2.4-1.27,3.48-0.43c1.08,0.84,1.27,2.4,0.43,3.48c-1.37,1.75-2.7,3.51-3.97,5.23
			C765.87,371.73,765.12,372.08,764.36,372.08z M1319.66,369.67c-0.86,0-1.71-0.45-2.16-1.26c-1.08-1.91-2.18-3.8-3.29-5.68
			c-0.7-1.18-0.31-2.7,0.87-3.4c1.18-0.7,2.7-0.31,3.4,0.87c1.13,1.91,2.25,3.83,3.34,5.77c0.67,1.19,0.25,2.71-0.94,3.38
			C1320.49,369.56,1320.07,369.67,1319.66,369.67z M772.5,361.62c-0.55,0-1.11-0.18-1.57-0.56c-1.06-0.87-1.22-2.43-0.35-3.49
			c1.38-1.69,2.83-3.41,4.29-5.12c0.89-1.04,2.46-1.16,3.5-0.27c1.04,0.89,1.16,2.46,0.27,3.5c-1.44,1.68-2.86,3.37-4.22,5.04
			C773.93,361.31,773.22,361.62,772.5,361.62z M1312.92,358.28c-0.83,0-1.64-0.42-2.11-1.18c-1.15-1.86-2.32-3.71-3.51-5.55
			c-0.74-1.15-0.41-2.69,0.74-3.43c1.15-0.74,2.69-0.41,3.43,0.74c1.2,1.86,2.39,3.74,3.56,5.63c0.72,1.17,0.36,2.69-0.8,3.41
			C1313.82,358.16,1313.37,358.28,1312.92,358.28z M781.12,351.56c-0.59,0-1.18-0.21-1.65-0.63c-1.02-0.91-1.11-2.48-0.2-3.5
			c1.47-1.65,2.99-3.31,4.5-4.93c0.93-1,2.5-1.06,3.51-0.12c1,0.93,1.06,2.5,0.12,3.51c-1.49,1.6-2.98,3.23-4.43,4.85
			C782.48,351.28,781.8,351.56,781.12,351.56z M1305.74,347.18c-0.8,0-1.58-0.38-2.06-1.09c-1.22-1.81-2.46-3.61-3.72-5.4
			c-0.79-1.12-0.52-2.67,0.6-3.46c1.12-0.79,2.67-0.52,3.46,0.6c1.28,1.81,2.53,3.64,3.78,5.48c0.77,1.14,0.47,2.68-0.67,3.44
			C1306.7,347.04,1306.22,347.18,1305.74,347.18z M790.14,341.87c-0.62,0-1.25-0.23-1.73-0.7c-0.98-0.95-1.01-2.52-0.05-3.51
			c1.51-1.56,3.07-3.14,4.69-4.74c0.97-0.96,2.54-0.96,3.51,0.01c0.96,0.97,0.96,2.54-0.01,3.51c-1.59,1.58-3.13,3.14-4.62,4.67
			C791.44,341.62,790.79,341.87,790.14,341.87z M1298.14,336.38c-0.76,0-1.52-0.35-2-1.01c-1.29-1.76-2.6-3.51-3.93-5.24
			c-0.83-1.09-0.62-2.65,0.46-3.48c1.09-0.83,2.64-0.62,3.48,0.46c1.35,1.76,2.67,3.53,3.99,5.32c0.81,1.1,0.57,2.66-0.53,3.47
			C1299.17,336.22,1298.65,336.38,1298.14,336.38z M799.54,332.55c-0.65,0-1.31-0.26-1.79-0.77c-0.95-0.99-0.91-2.56,0.08-3.51
			c1.58-1.5,3.2-3.02,4.87-4.56c1.01-0.93,2.58-0.86,3.5,0.15c0.93,1.01,0.86,2.58-0.15,3.5c-1.64,1.51-3.24,3.01-4.8,4.49
			C800.77,332.32,800.16,332.55,799.54,332.55z M1290.13,325.9c-0.73,0-1.45-0.32-1.94-0.94c-1.35-1.7-2.74-3.41-4.13-5.08
			c-0.88-1.05-0.73-2.62,0.32-3.49c1.06-0.88,2.62-0.73,3.49,0.32c1.41,1.7,2.82,3.43,4.19,5.15c0.85,1.07,0.68,2.63-0.39,3.49
			C1291.21,325.72,1290.67,325.9,1290.13,325.9z M809.29,323.6c-0.69,0-1.37-0.28-1.86-0.84c-0.91-1.03-0.81-2.59,0.21-3.5
			c1.64-1.45,3.31-2.9,5.03-4.37c1.04-0.89,2.61-0.76,3.5,0.28c0.89,1.04,0.76,2.61-0.28,3.5c-1.69,1.44-3.35,2.88-4.96,4.31
			C810.46,323.39,809.87,323.6,809.29,323.6z M1281.7,315.75c-0.69,0-1.39-0.29-1.88-0.86c-1.42-1.65-2.89-3.3-4.35-4.92
			c-0.92-1.02-0.84-2.59,0.18-3.5c1.02-0.92,2.58-0.84,3.5,0.18c1.48,1.65,2.97,3.33,4.41,5c0.9,1.04,0.78,2.6-0.25,3.5
			C1282.86,315.55,1282.28,315.75,1281.7,315.75z M819.36,315.01c-0.72,0-1.43-0.31-1.92-0.91c-0.87-1.06-0.72-2.62,0.34-3.49
			c1.69-1.39,3.42-2.78,5.19-4.18c1.07-0.85,2.63-0.67,3.48,0.41c0.85,1.07,0.67,2.63-0.41,3.48c-1.74,1.38-3.45,2.75-5.12,4.12
			C820.47,314.83,819.91,315.01,819.36,315.01z M829.74,306.81c-0.75,0-1.49-0.34-1.98-0.98c-0.83-1.09-0.62-2.65,0.47-3.48
			c1.75-1.33,3.52-2.66,5.34-3.99c1.1-0.81,2.66-0.57,3.47,0.53c0.81,1.1,0.57,2.66-0.53,3.47c-1.79,1.31-3.54,2.62-5.26,3.93
			C830.79,306.64,830.27,306.81,829.74,306.81z M1272.84,305.93c-0.66,0-1.32-0.26-1.81-0.78c-1.5-1.59-3.03-3.18-4.55-4.73
			c-0.96-0.98-0.95-2.55,0.03-3.51c0.98-0.96,2.55-0.95,3.51,0.03c1.55,1.58,3.1,3.19,4.62,4.81c0.94,1,0.89,2.57-0.11,3.51
			C1274.06,305.71,1273.45,305.93,1272.84,305.93z M840.41,298.99c-0.78,0-1.55-0.37-2.03-1.05c-0.79-1.12-0.52-2.67,0.6-3.46
			c1.79-1.27,3.62-2.53,5.48-3.79c1.13-0.77,2.68-0.47,3.45,0.66c0.77,1.13,0.47,2.68-0.66,3.45c-1.83,1.24-3.63,2.49-5.4,3.74
			C841.41,298.84,840.91,298.99,840.41,298.99z M1263.57,296.49c-0.62,0-1.25-0.23-1.73-0.7c-1.56-1.52-3.16-3.04-4.75-4.53
			c-1-0.93-1.06-2.5-0.12-3.51c0.94-1,2.5-1.06,3.51-0.12c1.62,1.51,3.24,3.06,4.83,4.6c0.98,0.96,1,2.53,0.04,3.51
			C1264.86,296.24,1264.21,296.49,1263.57,296.49z M851.36,291.55c-0.81,0-1.6-0.4-2.08-1.12c-0.75-1.15-0.43-2.68,0.72-3.43
			c1.84-1.2,3.71-2.4,5.61-3.59c1.16-0.73,2.69-0.38,3.42,0.78c0.73,1.16,0.38,2.69-0.78,3.42c-1.87,1.18-3.72,2.36-5.53,3.54
			C852.29,291.42,851.82,291.55,851.36,291.55z M1253.89,287.47c-0.59,0-1.18-0.21-1.65-0.63c-1.64-1.46-3.3-2.91-4.95-4.31
			c-1.04-0.89-1.17-2.45-0.28-3.5c0.89-1.04,2.45-1.17,3.5-0.28c1.67,1.42,3.36,2.89,5.03,4.38c1.02,0.91,1.11,2.48,0.2,3.5
			C1255.25,287.19,1254.57,287.47,1253.89,287.47z M862.56,284.52c-0.84,0-1.66-0.43-2.13-1.2c-0.71-1.17-0.33-2.7,0.84-3.41
			c1.88-1.14,3.79-2.27,5.73-3.39c1.19-0.69,2.7-0.28,3.39,0.9c0.69,1.18,0.28,2.7-0.9,3.39c-1.91,1.11-3.8,2.22-5.66,3.34
			C863.44,284.4,863,284.52,862.56,284.52z M1243.81,278.9c-0.55,0-1.1-0.18-1.56-0.55c-1.69-1.37-3.42-2.74-5.14-4.07
			c-1.08-0.84-1.29-2.39-0.45-3.48c0.84-1.09,2.39-1.29,3.48-0.45c1.75,1.35,3.51,2.74,5.24,4.14c1.06,0.86,1.23,2.42,0.37,3.49
			C1245.25,278.59,1244.53,278.9,1243.81,278.9z M874,277.89c-0.87,0-1.72-0.46-2.17-1.28c-0.67-1.2-0.23-2.71,0.96-3.37
			c1.92-1.07,3.87-2.13,5.85-3.18c1.21-0.65,2.71-0.19,3.36,1.02c0.64,1.21,0.19,2.71-1.02,3.36c-1.95,1.04-3.87,2.09-5.77,3.14
			C874.83,277.79,874.41,277.89,874,277.89z M885.68,271.66c-0.9,0-1.77-0.49-2.21-1.35c-0.62-1.22-0.14-2.71,1.08-3.34
			c1.96-1,3.95-1.99,5.96-2.98c1.23-0.6,2.72-0.09,3.32,1.14c0.6,1.23,0.09,2.72-1.14,3.32c-1.98,0.97-3.94,1.95-5.88,2.94
			C886.44,271.58,886.06,271.66,885.68,271.66z M1233.33,270.82c-0.51,0-1.02-0.16-1.46-0.48c-1.76-1.29-3.56-2.57-5.34-3.8
			c-1.13-0.78-1.41-2.33-0.63-3.45c0.78-1.13,2.33-1.41,3.45-0.63c1.81,1.25,3.64,2.56,5.44,3.88c1.11,0.81,1.35,2.36,0.54,3.47
			C1234.85,270.47,1234.1,270.82,1233.33,270.82z M897.56,265.86c-0.93,0-1.83-0.53-2.25-1.43c-0.58-1.24-0.04-2.72,1.2-3.3
			c2-0.93,4.01-1.85,6.05-2.77c1.25-0.56,2.72,0,3.28,1.25c0.56,1.25,0,2.72-1.25,3.28c-2.02,0.9-4.01,1.81-5.98,2.73
			C898.27,265.78,897.91,265.86,897.56,265.86z M1222.46,263.29c-0.47,0-0.94-0.13-1.36-0.41c-1.83-1.2-3.69-2.38-5.53-3.51
			c-1.17-0.72-1.53-2.25-0.81-3.41c0.72-1.17,2.25-1.53,3.41-0.81c1.88,1.16,3.77,2.36,5.64,3.58c1.15,0.75,1.47,2.29,0.72,3.43
			C1224.06,262.89,1223.27,263.29,1222.46,263.29z M909.64,260.46c-0.96,0-1.88-0.57-2.28-1.51c-0.54-1.26,0.05-2.72,1.31-3.25
			c2.03-0.86,4.08-1.71,6.15-2.55c1.27-0.52,2.72,0.1,3.23,1.37c0.52,1.27-0.1,2.72-1.37,3.23c-2.04,0.83-4.07,1.67-6.07,2.52
			C910.29,260.4,909.96,260.46,909.64,260.46z M1211.2,256.35c-0.42,0-0.85-0.11-1.24-0.33c-1.88-1.09-3.81-2.17-5.71-3.19
			c-1.21-0.65-1.65-2.16-1-3.36c0.65-1.21,2.16-1.65,3.36-1c1.95,1.05,3.91,2.15,5.83,3.26c1.19,0.69,1.59,2.2,0.9,3.39
			C1212.89,255.9,1212.06,256.35,1211.2,256.35z M921.89,255.49c-1,0-1.93-0.6-2.31-1.59c-0.49-1.28,0.14-2.71,1.42-3.21
			c2.06-0.79,4.13-1.57,6.23-2.34c1.28-0.47,2.71,0.19,3.18,1.47s-0.19,2.71-1.47,3.18c-2.07,0.76-4.12,1.53-6.15,2.31
			C922.49,255.44,922.19,255.49,921.89,255.49z M934.31,250.94c-1.03,0-1.99-0.64-2.34-1.67c-0.45-1.29,0.24-2.71,1.53-3.16
			c2.08-0.72,4.18-1.43,6.3-2.13c1.3-0.43,2.7,0.28,3.13,1.58c0.43,1.3-0.28,2.7-1.58,3.13c-2.09,0.69-4.17,1.39-6.23,2.1
			C934.85,250.9,934.58,250.94,934.31,250.94z M1199.56,250.06c-0.37,0-0.75-0.08-1.11-0.26c-1.95-0.98-3.93-1.94-5.89-2.84
			c-1.24-0.58-1.78-2.05-1.21-3.29c0.58-1.24,2.05-1.78,3.29-1.21c2,0.93,4.02,1.91,6.02,2.91c1.22,0.62,1.72,2.11,1.1,3.33
			C1201.35,249.56,1200.47,250.06,1199.56,250.06z M946.87,246.81c-1.06,0-2.04-0.68-2.37-1.75c-0.41-1.31,0.33-2.7,1.63-3.1
			c2.1-0.65,4.23-1.29,6.37-1.92c1.31-0.39,2.69,0.37,3.08,1.68c0.38,1.32-0.37,2.69-1.68,3.08c-2.12,0.62-4.21,1.25-6.29,1.9
			C947.36,246.78,947.12,246.81,946.87,246.81z M1187.57,244.49c-0.32,0-0.65-0.06-0.97-0.2c-2-0.85-4.04-1.68-6.05-2.46
			c-1.28-0.49-1.91-1.93-1.42-3.21c0.49-1.28,1.93-1.91,3.21-1.42c2.06,0.8,4.15,1.65,6.2,2.52c1.26,0.54,1.85,1.99,1.31,3.25
			C1189.45,243.93,1188.53,244.49,1187.57,244.49z M959.57,243.1c-1.09,0-2.09-0.72-2.39-1.82c-0.36-1.32,0.41-2.69,1.74-3.05
			c2.12-0.58,4.27-1.15,6.43-1.71c1.33-0.34,2.68,0.46,3.02,1.78c0.34,1.33-0.46,2.68-1.78,3.02c-2.13,0.55-4.25,1.11-6.35,1.69
			C960,243.07,959.78,243.1,959.57,243.1z M972.37,239.81c-1.12,0-2.14-0.76-2.41-1.9c-0.32-1.33,0.5-2.67,1.83-2.99
			c2.14-0.51,4.3-1.01,6.48-1.5c1.34-0.3,2.66,0.54,2.96,1.88c0.3,1.34-0.54,2.66-1.88,2.96c-2.15,0.48-4.29,0.97-6.4,1.48
			C972.76,239.79,972.56,239.81,972.37,239.81z M1175.24,239.72c-0.27,0-0.55-0.04-0.81-0.14c-2.06-0.72-4.14-1.4-6.2-2.04
			c-1.31-0.4-2.04-1.79-1.64-3.1c0.4-1.31,1.79-2.04,3.1-1.64c2.11,0.65,4.25,1.36,6.37,2.09c1.29,0.45,1.98,1.86,1.53,3.16
			C1177.22,239.08,1176.26,239.72,1175.24,239.72z M985.28,236.93c-1.15,0-2.18-0.81-2.43-1.98c-0.28-1.34,0.59-2.65,1.93-2.93
			c2.16-0.45,4.33-0.88,6.52-1.29c1.34-0.26,2.64,0.63,2.9,1.97c0.26,1.35-0.63,2.64-1.97,2.9c-2.17,0.41-4.32,0.84-6.45,1.28
			C985.61,236.91,985.44,236.93,985.28,236.93z M1162.6,235.82c-0.21,0-0.43-0.03-0.65-0.09c-2.11-0.57-4.24-1.1-6.33-1.57
			c-1.33-0.31-2.17-1.63-1.87-2.97c0.31-1.34,1.63-2.17,2.97-1.87c2.15,0.49,4.34,1.04,6.51,1.62c1.32,0.36,2.11,1.72,1.75,3.04
			C1164.7,235.09,1163.7,235.82,1162.6,235.82z M998.27,234.45c-1.18,0-2.23-0.85-2.44-2.05c-0.24-1.35,0.67-2.63,2.02-2.87
			c2.17-0.38,4.36-0.74,6.56-1.09c1.35-0.21,2.62,0.71,2.84,2.06c0.21,1.35-0.71,2.62-2.06,2.84c-2.18,0.35-4.34,0.71-6.49,1.08
			C998.55,234.44,998.41,234.45,998.27,234.45z M1149.72,232.88c-0.15,0-0.31-0.01-0.46-0.04c-2.14-0.4-4.3-0.76-6.42-1.07
			c-1.36-0.2-2.29-1.46-2.1-2.81c0.2-1.36,1.46-2.3,2.81-2.1c2.19,0.32,4.41,0.69,6.62,1.1c1.35,0.25,2.23,1.55,1.98,2.9
			C1151.93,232.05,1150.89,232.88,1149.72,232.88z M1011.33,232.38c-1.21,0-2.27-0.89-2.45-2.13c-0.19-1.36,0.75-2.61,2.1-2.81
			c2.18-0.31,4.38-0.61,6.59-0.89c1.35-0.18,2.6,0.79,2.78,2.15c0.17,1.36-0.79,2.6-2.15,2.78c-2.19,0.28-4.36,0.57-6.52,0.88
			C1011.57,232.37,1011.45,232.38,1011.33,232.38z M1136.64,230.97c-0.09,0-0.18,0-0.27-0.01c-2.19-0.24-4.38-0.46-6.55-0.67
			c-1.36-0.13-2.36-1.34-2.23-2.71c0.13-1.36,1.34-2.36,2.71-2.23c2.19,0.21,4.39,0.44,6.61,0.68c1.36,0.15,2.35,1.37,2.2,2.73
			C1138.96,230.03,1137.89,230.97,1136.64,230.97z M1024.45,230.7c-1.24,0-2.32-0.93-2.46-2.2c-0.15-1.36,0.82-2.59,2.19-2.74
			c2.19-0.25,4.39-0.48,6.61-0.7c1.37-0.13,2.58,0.86,2.71,2.23c0.13,1.36-0.86,2.58-2.23,2.71c-2.19,0.22-4.37,0.45-6.54,0.69
			C1024.63,230.69,1024.54,230.7,1024.45,230.7z M1123.47,229.7c-0.07,0-0.14,0-0.21-0.01c-2.2-0.19-4.39-0.36-6.56-0.52
			c-1.37-0.1-2.39-1.29-2.29-2.65c0.1-1.37,1.3-2.4,2.65-2.29c2.2,0.16,4.4,0.34,6.62,0.52c1.36,0.12,2.38,1.32,2.26,2.68
			C1125.83,228.72,1124.75,229.7,1123.47,229.7z M1037.61,229.4c-1.28,0-2.36-0.98-2.47-2.27c-0.11-1.36,0.9-2.56,2.26-2.68
			c2.2-0.18,4.4-0.35,6.63-0.51c1.38-0.1,2.55,0.94,2.65,2.3c0.1,1.37-0.94,2.55-2.3,2.65c-2.2,0.15-4.39,0.32-6.56,0.5
			C1037.75,229.4,1037.68,229.4,1037.61,229.4z M1110.29,228.73c-0.05,0-0.1,0-0.15,0c-2.2-0.13-4.39-0.26-6.57-0.36
			c-1.37-0.07-2.42-1.23-2.36-2.6c0.07-1.37,1.23-2.42,2.6-2.36c2.2,0.11,4.41,0.23,6.63,0.37c1.37,0.08,2.41,1.26,2.32,2.63
			C1112.68,227.71,1111.59,228.73,1110.29,228.73z M1050.8,228.48c-1.31,0-2.4-1.02-2.47-2.34c-0.08-1.37,0.97-2.54,2.34-2.61
			c2.2-0.12,4.41-0.23,6.64-0.32c1.36-0.07,2.52,1.01,2.58,2.37c0.06,1.37-1.01,2.52-2.37,2.58c-2.2,0.09-4.39,0.2-6.57,0.32
			C1050.89,228.48,1050.85,228.48,1050.8,228.48z M1097.08,228.08c-0.03,0-0.06,0-0.09,0c-2.2-0.08-4.4-0.15-6.58-0.2
			c-1.37-0.03-2.45-1.17-2.42-2.54c0.03-1.37,1.15-2.46,2.54-2.42c2.2,0.05,4.42,0.12,6.64,0.2c1.37,0.05,2.44,1.2,2.39,2.57
			C1099.5,227.03,1098.4,228.08,1097.08,228.08z M1064.01,227.93c-1.34,0-2.44-1.06-2.48-2.41c-0.04-1.37,1.04-2.51,2.41-2.55
			c2.2-0.06,4.42-0.11,6.65-0.14c0.01,0,0.02,0,0.04,0c1.35,0,2.46,1.09,2.48,2.44c0.02,1.37-1.07,2.5-2.44,2.52
			c-2.21,0.03-4.4,0.08-6.58,0.14C1064.06,227.93,1064.04,227.93,1064.01,227.93z M1083.85,227.76c-0.01,0-0.02,0-0.03,0
			c-1.92-0.02-3.83-0.03-5.73-0.03l-0.85,0c0,0,0,0,0,0c-1.37,0-2.48-1.11-2.48-2.48c0-1.37,1.11-2.48,2.48-2.48l0.86,0
			c1.92,0,3.84,0.01,5.78,0.03c1.37,0.02,2.47,1.14,2.45,2.51C1086.32,226.67,1085.21,227.76,1083.85,227.76z"/>
	</g>
	<path class="st24" d="M2783.29,1471.56c0,0-133.96,0.22-338.28,0.65c-3.05-1.31-4.68-2.07-4.68-2.07s23.09-126.34,142.89-153.46
		c119.8-27.12,121.22-142.89,196.04-165.98c61.54-18.95,116.53,6.1,153.89-0.33C2992.18,1337.17,2783.29,1471.56,2783.29,1471.56z"
		/>
	<path class="st25" d="M2977.04,1480.66H268.56c-1.87,0-3.4-1.53-3.4-3.4v-3.7c0-1.87,1.53-3.4,3.4-3.4h2708.48
		c1.87,0,3.4,1.53,3.4,3.4v3.7C2980.44,1479.13,2978.91,1480.66,2977.04,1480.66z"/>
	<g>
		<g>
			<path class="st26" d="M1005.07,1010.99c0,0-1.52,1.63-4.35,4.68c-10.35,11.22-38.45,41.71-69.38,76.78
				c-7.3,8.28-14.81,16.88-22.33,25.48c-11.22,12.96-22.22,25.92-32.46,38.45l-0.11,0.11c-3.16,3.7-6.1,7.3-9.04,10.89
				c-6.1,7.52-11.76,14.7-16.99,21.46c-15.68,20.47-26.68,37.03-28.75,45.41c-12.52,52.39,11.87,199.85,18.19,235.9h-342.2
				c10.35-74.93,24.72-180.79,26.58-196.91c2.83-25.38-85.71-134.29-87.24-213.79c-1.42-79.4,51.08-136.25,59.36-214.44
				c4.03-36.81-0.55-84.73-6.43-125.57c-3.05-21.67-6.64-41.06-9.47-55.76c-1.42-7.19,0.98-13.83,5.45-18.41
				c1.2-1.2,2.5-2.4,3.92-3.16c5.45-3.59,12.52-4.46,19.28-1.52c19.6,8.39,41.39,30.61,47.05,86.04c0,0,16.44,10.35,43.02,27.23
				c10.78,6.75,23.2,14.59,36.92,23.31c10.56,6.64,21.89,13.83,33.76,21.35c0.76,0.44,1.53,0.98,2.29,1.42
				c4.79,3.05,9.48,6.1,14.49,9.25h0.11c1.74,1.09,3.49,2.29,5.34,3.38c3.16,2.07,6.43,4.14,9.8,6.21c0.65,0.43,1.31,0.87,2.07,1.2
				c21.56,13.72,44.11,28.1,66.87,42.59h0.11c3.7,2.17,7.41,4.57,11.11,6.97c2.83,1.85,5.77,3.59,8.71,5.45
				c3.59,2.4,7.3,4.68,11,6.97h0.11c25.81,16.34,51.08,32.46,74.71,47.38c3.7,2.4,7.41,4.68,11,6.97c2.94,1.85,5.77,3.71,8.6,5.45
				c3.81,2.4,7.3,4.68,10.89,7.08h0.11c45.09,28.42,79.94,50.64,92.68,58.81C1003.22,1009.79,1005.07,1010.88,1005.07,1010.99z"/>
			<path class="st27" d="M507.36,700.29c0.52,9.25-5.87,17.36-15.03,18.74l-2.37,0.35c-3.11-21.58-6.65-41.03-9.48-55.74
				c-1.4-7.19-3.55-14.1-2.94-21.46c14.89-7.29,20.62,10.33,22.45,17.47C503.04,671.28,506.52,686.91,507.36,700.29z"/>
		</g>
		<path class="st28" d="M909.01,1117.94c-11.22,12.96-22.22,25.92-32.46,38.45l-0.11,0.11c-3.16,3.7-6.1,7.3-9.04,10.89
			c-6.1,7.52-11.76,14.7-16.99,21.46c-15.68,20.47-26.68,37.03-28.75,45.41c-12.52,52.39,11.87,199.85,18.19,235.9H617.24
			c41.28-61.53,46.61-169.9,46.94-219.67c0.11-12.53,4.14-27.56,10.67-43.46c12.42-30.71,33.76-65.13,53.37-93.56
			c18.08-26.36,34.74-47.48,41.5-55.87c0,0,0,0,0-0.11c2.18-2.5,3.27-3.92,3.27-3.92l123.07-5.23h0.11l1.63,8.71l1.31,7.41
			l5.66,30.71L909.01,1117.94z"/>
		<g>
			<g>
				<path class="st29" d="M995.85,1173.81l-368.33,38.07c-11.55,1.19-21.97-7.28-23.17-18.83l-76.12-736.57
					c-1.19-11.55,7.28-21.97,18.83-23.17l368.33-38.07c11.55-1.19,21.97,7.28,23.17,18.83l76.12,736.57
					C1015.87,1162.19,1007.4,1172.62,995.85,1173.81z"/>
				<path class="st22" d="M1035.62,1169.7l-368.33,38.07c-11.55,1.19-21.97-7.28-23.17-18.83l-76.12-736.57
					c-1.19-11.55,7.28-21.97,18.83-23.17l368.33-38.07c11.55-1.19,21.97,7.28,23.17,18.83l76.12,736.57
					C1055.64,1158.08,1047.17,1168.51,1035.62,1169.7z"/>
				<g>
					<path class="st30" d="M838.75,437.15c-0.24-2.28-2.3-3.96-4.58-3.72l-106.66,11.02c-2.28,0.24-3.96,2.3-3.72,4.58
						c0.24,2.28,2.3,3.96,4.58,3.72l106.66-11.02C837.31,441.49,838.99,439.43,838.75,437.15z"/>
					<path class="st30" d="M708.57,446.41c-2.28,0.24-3.96,2.3-3.72,4.58c0.24,2.28,2.3,3.96,4.58,3.72
						c2.28-0.24,3.96-2.3,3.72-4.58C712.91,447.85,710.85,446.17,708.57,446.41z"/>
				</g>
				<path class="st31" d="M878.86,1142.43c-1.53-14.78-14.75-25.53-29.53-24c-14.78,1.53-25.53,14.75-24,29.53
					c1.53,14.78,14.75,25.53,29.53,24C869.64,1170.43,880.39,1157.21,878.86,1142.43z"/>
				
					<rect x="638" y="470.28" transform="matrix(0.9947 -0.1028 0.1028 0.9947 -76.5954 87.382)" class="st32" width="342.96" height="633.09"/>
				
					<rect x="666.77" y="1028.44" transform="matrix(0.9947 -0.1028 0.1028 0.9947 -105.058 91.8138)" class="st33" width="342.96" height="73.49"/>
				<g>
					<path class="st34" d="M773.75,1060.96l176.06-18.2c2.04-0.21,3.53-2.05,3.32-4.08c-0.21-2.04-2.05-3.53-4.08-3.32l-176.06,18.2
						c-2.04,0.21-3.53,2.05-3.32,4.08l0,0C769.88,1059.68,771.72,1061.17,773.75,1060.96z"/>
					<path class="st34" d="M954.81,1054.9c-0.21-2.04-2.05-3.53-4.08-3.32l-176.06,18.2c-2.04,0.21-3.53,2.05-3.32,4.08
						c0.21,2.04,2.05,3.53,4.08,3.32l176.06-18.2C953.53,1058.77,955.02,1056.93,954.81,1054.9z"/>
				</g>
				<path class="st29" d="M746.08,1044.97c-0.22-2.51-0.87-4.79-1.85-6.97c-4.03-10.13-14.38-16.66-25.7-15.46
					c-11.33,1.2-20.15,9.69-22.11,20.37c-0.43,2.4-0.54,4.79-0.33,7.3c1.42,13.72,29.62,41.82,29.62,41.82
					S747.5,1058.8,746.08,1044.97z M722.23,1059.02c-6.42,0.65-12.2-4.03-12.85-10.46c-0.22-2.61,0.33-5.12,1.52-7.19
					c1.85-3.16,5.12-5.34,8.93-5.77c3.92-0.44,7.51,1.09,9.91,3.81c1.64,1.74,2.72,4.03,3.05,6.64
					C733.45,1052.59,728.76,1058.37,722.23,1059.02z"/>
				<g>
					
						<rect x="662.46" y="568.1" transform="matrix(-0.9947 0.1028 -0.1028 -0.9947 1585.417 1217.5391)" class="st29" width="197.75" height="163.06"/>
					
						<rect x="760.89" y="559.54" transform="matrix(0.9947 -0.1028 0.1028 0.9947 -61.4281 90.1693)" class="st34" width="166.46" height="163.06"/>
					<polygon class="st31" points="931.04,672.48 935.29,713.61 769.71,730.72 752.95,568.53 					"/>
					<polygon class="st34" points="667.23,699.74 698.4,696.52 694.75,688.03 696.84,681.48 665.67,684.7 					"/>
					<polygon class="st34" points="660.48,634.41 691.65,631.19 687.99,622.71 690.09,616.15 658.92,619.38 					"/>
					<polygon class="st31" points="924.29,607.15 893.12,610.37 894.96,601.32 891.56,595.33 922.73,592.11 					"/>
				</g>
			</g>
			<g>
				<g>
					<g>
						<path class="st35" d="M700.99,787.07c-0.98-0.65-2.07-1.2-3.27-1.74c-3.05-1.2-6.54-1.74-10.13-1.42
							c-8.5,0.87-15.36,6.86-17.75,14.6c-0.87,2.61-1.2,5.45-0.87,8.39c1.2,11.44,11.54,19.82,22.98,18.62
							c4.68-0.44,8.82-2.39,11.98-5.55c4.68-4.14,7.4-10.56,6.64-17.43C709.92,796,706.22,790.34,700.99,787.07z M701.86,818.76
							c-2.72,2.39-6.21,3.92-10.13,4.36c-10.13,0.98-19.28-6.32-20.26-16.45c-0.22-2.29,0-4.58,0.65-6.75
							c1.85-7.19,7.95-12.85,15.79-13.61c3.05-0.33,5.99,0.11,8.6,1.31c1.31,0.44,2.5,1.09,3.59,1.85c4.36,2.94,7.52,7.74,8.06,13.4
							C708.83,809.07,706.33,814.95,701.86,818.76z"/>
					</g>
					<polygon class="st29" points="677.7,795.23 690.95,815.84 708.69,764.82 689.4,800.83 					"/>
				</g>
				<g>
					<g>
						<path class="st35" d="M718.53,879.32c-0.65-6.64-4.36-12.2-9.58-15.57c-0.98-0.65-2.18-1.2-3.27-1.74
							c-3.16-1.2-6.53-1.74-10.13-1.41c-11.44,1.2-19.82,11.54-18.62,22.98c1.2,11.44,11.44,19.82,22.98,18.62
							C711.34,901.1,719.72,890.75,718.53,879.32z M699.57,899.79c-10.13,1.09-19.17-6.32-20.26-16.45
							c-0.98-10.13,6.42-19.28,16.56-20.26c3.05-0.33,5.99,0.11,8.6,1.2c1.31,0.43,2.51,1.09,3.59,1.85
							c4.36,2.94,7.52,7.73,8.06,13.4C717.11,889.66,709.7,898.7,699.57,899.79z"/>
					</g>
					<polygon class="st29" points="685.62,871.92 698.87,892.53 716.62,841.51 697.32,877.52 					"/>
				</g>
				<g>
					<g>
						<path class="st35" d="M726.47,955.99c-1.2-11.55-11.54-19.93-22.98-18.73c-11.44,1.2-19.82,11.54-18.62,22.98
							c1.2,11.54,11.44,19.82,22.98,18.73C719.29,977.77,727.67,967.43,726.47,955.99z M707.52,976.47
							c-10.13,1.09-19.17-6.32-20.26-16.45c-0.98-10.13,6.32-19.28,16.45-20.26c10.13-1.09,19.28,6.32,20.26,16.45
							C725.06,966.34,717.65,975.38,707.52,976.47z"/>
					</g>
				</g>
				<g>
					<path class="st35" d="M938.05,775.77l-196.95,20.35c-1.99,0.21-3.8-1.26-4-3.25l-0.08-0.8c-0.21-2,1.26-3.8,3.25-4
						l196.95-20.35c2-0.21,3.8,1.26,4,3.25l0.08,0.8C941.51,773.76,940.04,775.56,938.05,775.77z"/>
					<path class="st35" d="M939.53,790.11l-196.95,20.36c-2,0.2-3.8-1.26-4-3.25l-0.08-0.8c-0.21-1.99,1.26-3.8,3.25-4l196.95-20.35
						c2-0.21,3.8,1.26,4,3.25l0.08,0.8C942.99,788.1,941.53,789.9,939.53,790.11z"/>
				</g>
				<g>
					<path class="st35" d="M945.99,852.59l-196.95,20.35c-2,0.21-3.8-1.26-4-3.25l-0.08-0.8c-0.21-1.99,1.26-3.8,3.25-4
						l196.95-20.35c1.99-0.21,3.79,1.26,4,3.25l0.08,0.8C949.44,850.58,947.98,852.38,945.99,852.59z"/>
					<path class="st35" d="M947.47,866.93l-196.95,20.35c-1.99,0.21-3.79-1.26-4-3.25l-0.08-0.8c-0.21-2,1.26-3.8,3.25-4
						l196.95-20.35c2-0.21,3.8,1.26,4,3.25l0.08,0.8C950.93,864.92,949.46,866.72,947.47,866.93z"/>
				</g>
				<g>
					<path class="st35" d="M953.93,929.4l-196.95,20.36c-1.99,0.21-3.8-1.26-4-3.25l-0.08-0.8c-0.21-1.99,1.26-3.79,3.25-4
						l196.95-20.36c2-0.21,3.8,1.26,4,3.25l0.08,0.8C957.38,927.4,955.92,929.2,953.93,929.4z"/>
					<path class="st35" d="M955.41,943.74L758.46,964.1c-2,0.21-3.8-1.26-4-3.25l-0.08-0.8c-0.21-2,1.26-3.8,3.25-4l196.95-20.36
						c2-0.21,3.8,1.26,4,3.25l0.08,0.8C958.87,941.74,957.4,943.54,955.41,943.74z"/>
				</g>
			</g>
		</g>
		<g>
			<path class="st26" d="M988.84,512.4c0,0,53.46-47.5,88.53-20.54c35.07,26.96-78.89,113.8-78.89,113.8L988.84,512.4z"/>
			<path class="st26" d="M1050.7,707.36l-62.13,34.37c-18.01,9.96-40.9,3.38-50.86-14.63l-10.15-18.34
				c-9.96-18.01-3.38-40.9,14.63-50.86l62.12-34.37c18.01-9.96,40.9-3.38,50.86,14.63l10.15,18.34
				C1075.29,674.51,1068.71,697.39,1050.7,707.36z"/>
			<path class="st26" d="M1061.45,811.44l-62.12,34.37c-18.01,9.96-40.9,3.38-50.86-14.63l-10.15-18.34
				c-9.96-18.01-3.38-40.9,14.63-50.86l62.13-34.37c18.01-9.96,40.9-3.38,50.86,14.63l10.15,18.34
				C1086.05,778.6,1079.46,801.48,1061.45,811.44z"/>
			<path class="st26" d="M1071.92,912.72l-62.12,34.37c-18.01,9.96-40.9,3.38-50.86-14.63l-10.15-18.34
				c-9.96-18.01-3.38-40.9,14.63-50.86l62.13-34.37c18.01-9.96,40.9-3.38,50.86,14.63l10.15,18.34
				C1096.51,879.87,1089.93,902.76,1071.92,912.72z"/>
			<path class="st27" d="M930.5,684.2c9.64-7.25,22.79-16.38,34.84-22.13c8.33-3.98,18.3-1.13,23.04,6.8l13.62,22.76
				c4.73,7.9,2.29,18.15-5.54,22.98c-9.62,5.93-23.15,13.68-36.99,19.66c-9.71,4.19-21.02,0.3-26.22-8.91l-8.27-14.66
				C919.91,701.72,922.25,690.4,930.5,684.2z"/>
			<path class="st27" d="M941.55,791.15c9.64-7.25,22.79-16.37,34.84-22.13c8.33-3.98,18.3-1.13,23.04,6.8l13.62,22.76
				c4.73,7.9,2.29,18.15-5.54,22.98c-9.62,5.93-23.15,13.68-36.99,19.66c-9.7,4.19-21.02,0.3-26.21-8.91l-8.27-14.66
				C930.96,808.68,933.31,797.35,941.55,791.15z"/>
			<path class="st27" d="M953.88,891.4c9.64-7.25,22.79-16.37,34.84-22.13c8.33-3.98,18.3-1.13,23.04,6.8l13.62,22.76
				c4.73,7.9,2.29,18.15-5.54,22.98c-9.62,5.93-23.15,13.68-36.99,19.66c-9.71,4.19-21.02,0.3-26.22-8.91l-8.27-14.66
				C943.29,908.92,945.64,897.6,953.88,891.4z"/>
		</g>
	</g>
	<g>
		<polygon class="st36" points="1289.87,1223.5 1433.49,1246.1 1338.93,1179.63 1333.77,1200.43 1298.68,1206.27 		"/>
		<polygon class="st34" points="1433.49,1246.1 1314.62,1182.63 1197.33,1175.04 		"/>
		<polygon class="st34" points="1338.93,1179.63 1433.49,1246.1 1361.02,1143.31 		"/>
	</g>
	<g>
		<polygon class="st36" points="1128.37,352.47 1016.84,295 1116.57,296.91 1109.56,314.03 1131.02,335.98 		"/>
		<polygon class="st34" points="1016.84,295 1131.97,311.39 1217.52,365.89 		"/>
		<polygon class="st34" points="1116.57,296.91 1016.84,295 1119.7,260.35 		"/>
	</g>
</g>
</svg>
