<?xml version="1.0" encoding="utf-8"?>
<!-- Generator: Adobe Illustrator 23.0.1, SVG Export Plug-In . SVG Version: 6.00 Build 0)  -->
<svg version="1.1" id="Layer_1" xmlns="http://www.w3.org/2000/svg" xmlns:xlink="http://www.w3.org/1999/xlink" x="0px" y="0px"
	 viewBox="0 0 640 480" style="enable-background:new 0 0 640 480;" xml:space="preserve">
<style type="text/css">
	.st0{fill:none;stroke:#D1D1F2;stroke-width:2.0209;stroke-miterlimit:10;}
	.st1{fill:#FFFFFF;}
	.st2{fill:#64AEF9;}
	.st3{fill:#0D005D;}
	.st4{fill:#B0ADF9;}
	.st5{fill:#EEC4CB;}
	.st6{fill:none;stroke:#0D005D;stroke-width:1.0285;stroke-miterlimit:10;}
	.st7{fill:#4B3DE4;}
	.st8{fill:#DC5871;}
	.st9{fill:none;stroke:#0D005D;stroke-width:0.7606;stroke-linecap:round;stroke-linejoin:round;stroke-miterlimit:10;}
	.st10{fill:none;stroke:#B8B6F1;stroke-width:2.0283;stroke-miterlimit:10;}
	.st11{fill:none;stroke:#0D005D;stroke-width:2.0283;stroke-miterlimit:10;}
	.st12{fill:none;stroke:#FFFFFF;stroke-width:2.0209;stroke-miterlimit:10;}
</style>
<g>
	<g>
		<path class="st0" d="M155.75,189.03c0,1.74-1.39,3.16-3.11,3.16c-1.72,0-3.11-1.41-3.11-3.16c0-1.74,1.39-3.16,3.11-3.16
			C154.36,185.88,155.75,187.29,155.75,189.03z"/>
		<ellipse class="st0" cx="221.02" cy="75.28" rx="4.17" ry="4.23"/>
		<path class="st0" d="M361.9,172.5c0,1.27-1.02,2.3-2.27,2.3c-1.25,0-2.27-1.03-2.27-2.3s1.02-2.3,2.27-2.3
			C360.88,170.2,361.9,171.23,361.9,172.5z"/>
	</g>
	<g>
		<path class="st1" d="M188.04,79.16h-31.08c-0.67,0-1.22-0.55-1.22-1.22l0,0c0-0.67,0.55-1.22,1.22-1.22h31.08
			c0.67,0,1.22,0.55,1.22,1.22l0,0C189.26,78.61,188.71,79.16,188.04,79.16z"/>
		<path class="st1" d="M363.49,145.56h-11.21c-0.67,0-1.22-0.55-1.22-1.22l0,0c0-0.67,0.55-1.22,1.22-1.22h11.21
			c0.67,0,1.22,0.55,1.22,1.22l0,0C364.7,145.02,364.16,145.56,363.49,145.56z"/>
		<path class="st2" d="M331.69,74.29h-0.24c-0.97,0-1.76-0.79-1.76-1.76V72.4c0-0.97,0.79-1.76,1.76-1.76h0.24
			c0.97,0,1.76,0.79,1.76,1.76v0.12C333.45,73.5,332.66,74.29,331.69,74.29z"/>
		<polygon class="st1" points="164.02,155.09 152.97,160.82 156.15,162.36 152.2,167.09 155.28,169.62 159.11,164.54 161.67,167.28 
					"/>
	</g>
</g>
<g>
	<g>
		<g>
			<path class="st3" d="M221.54,223.4H251c1.72,0,3.11-1.39,3.11-3.11l0,0c0-1.72-1.39-3.11-3.11-3.11h-29.46
				c-1.72,0-3.11,1.39-3.11,3.11l0,0C218.44,222.01,219.83,223.4,221.54,223.4z"/>
			<path class="st3" d="M201.28,223.4h34.76c2.37,0,4.08-2.32,3.4-4.63l-16.6-57.22c-0.45-1.54-1.83-2.59-3.4-2.59h-34.76
				c-2.37,0-4.08,2.32-3.4,4.63l16.6,57.22C198.32,222.35,199.7,223.4,201.28,223.4z"/>
			<path class="st4" d="M206.06,223.4h30.28c2.37,0,4.08-2.32,3.4-4.63l-16.6-57.22c-0.45-1.54-1.83-2.59-3.4-2.59h-30.28
				c-2.37,0-4.08,2.32-3.4,4.63l16.6,57.22C203.1,222.35,204.49,223.4,206.06,223.4z"/>
			<path class="st3" d="M201.29,223.4h36.79c1.72,0,3.11-1.39,3.11-3.11l0,0c0-1.72-1.39-3.11-3.11-3.11h-36.79
				c-1.72,0-3.11,1.39-3.11,3.11l0,0C198.18,222.01,199.57,223.4,201.29,223.4z"/>
		</g>
		<g>
			<g>
				<g>
					<g>
						
							<rect x="250.04" y="245.84" transform="matrix(1 4.228675e-03 -4.228675e-03 1 1.0673 -1.0739)" class="st5" width="8.91" height="12.05"/>
					</g>
					<g>
						
							<rect x="245.4" y="244.98" transform="matrix(-1 -1.224647e-16 1.224647e-16 -1 509.8118 496.3711)" class="st2" width="19.02" height="6.41"/>
						<g>
							<path class="st2" d="M229.78,197.8l-0.63,3.84c-1.34,8.2,4.99,15.65,13.3,15.65h3.98v33.88l16.53,0.22l0.92-41.51
								c0.12-6.6-5.19-12.02-11.79-12.04L229.78,197.8z"/>
							<line class="st6" x1="246.44" y1="244.68" x2="263.12" y2="244.68"/>
						</g>
					</g>
					<g>
						<path class="st3" d="M249.94,256.16c2.1,0.56,6.9,2.04,9.13-1.19l15.05,8.15l-26.57-0.17l1.18-6
							C248.82,256.38,249.38,256.01,249.94,256.16z"/>
						
							<rect x="247.54" y="263.04" transform="matrix(1 6.574146e-03 -6.574146e-03 1 1.7424 -1.709)" class="st1" width="26.57" height="2.3"/>
						<path class="st1" d="M258.91,258.53c0.07-0.03,0.13-0.08,0.17-0.14c0.97-1.34,1.95-2,1.96-2.01c0.19-0.13,0.24-0.39,0.12-0.58
							c-0.13-0.19-0.39-0.24-0.58-0.12c-0.05,0.03-1.11,0.74-2.18,2.21c-0.14,0.19-0.09,0.45,0.09,0.59
							C258.62,258.58,258.78,258.59,258.91,258.53z"/>
						<path class="st1" d="M260.96,259.61c0.07-0.03,0.13-0.08,0.17-0.14c0.97-1.34,1.95-2,1.96-2.01c0.19-0.13,0.24-0.39,0.12-0.58
							c-0.13-0.19-0.39-0.24-0.58-0.12c-0.05,0.03-1.11,0.74-2.18,2.21c-0.14,0.19-0.09,0.45,0.09,0.59
							C260.67,259.65,260.82,259.67,260.96,259.61z"/>
						<path class="st1" d="M263,260.69c0.07-0.03,0.13-0.08,0.17-0.14c0.97-1.34,1.95-2,1.96-2.01c0.19-0.13,0.24-0.39,0.12-0.58
							c-0.13-0.19-0.39-0.24-0.58-0.12c-0.05,0.03-1.11,0.74-2.18,2.21c-0.14,0.19-0.09,0.45,0.09,0.59
							C262.71,260.73,262.87,260.74,263,260.69z"/>
					</g>
				</g>
				<g>
					<g>
						<g>
							<g>
								
									<rect x="226.71" y="245.84" transform="matrix(1 4.228675e-03 -4.228675e-03 1 1.0671 -0.9753)" class="st5" width="8.91" height="12.05"/>
							</g>
							<g>
								<path class="st3" d="M226.75,255.65c2.1,0.56,6.84,2.39,9.07-0.84l15.05,8.15l-26.57-0.17l1.24-6.35
									C225.63,255.87,226.19,255.5,226.75,255.65z"/>
								
									<rect x="224.3" y="262.88" transform="matrix(1 6.574146e-03 -6.574146e-03 1 1.7409 -1.5562)" class="st1" width="26.57" height="2.3"/>
								<path class="st1" d="M235.67,258.38c0.07-0.03,0.13-0.08,0.17-0.14c0.97-1.34,1.95-2,1.96-2.01
									c0.19-0.13,0.25-0.39,0.12-0.58c-0.13-0.19-0.39-0.24-0.58-0.12c-0.05,0.03-1.11,0.74-2.18,2.21
									c-0.14,0.19-0.09,0.45,0.09,0.59C235.38,258.42,235.53,258.43,235.67,258.38z"/>
								<path class="st1" d="M237.71,259.45c0.07-0.03,0.13-0.08,0.17-0.14c0.97-1.34,1.95-2,1.96-2.01
									c0.19-0.13,0.24-0.39,0.12-0.58c-0.13-0.19-0.39-0.24-0.58-0.12c-0.05,0.03-1.11,0.74-2.18,2.21
									c-0.14,0.19-0.09,0.45,0.09,0.59C237.42,259.5,237.58,259.51,237.71,259.45z"/>
								<path class="st1" d="M239.76,260.53c0.07-0.03,0.13-0.08,0.17-0.14c0.97-1.34,1.95-2,1.96-2.01
									c0.19-0.13,0.24-0.39,0.12-0.58c-0.13-0.19-0.39-0.24-0.58-0.12c-0.05,0.03-1.11,0.74-2.18,2.21
									c-0.14,0.19-0.09,0.45,0.09,0.59C239.47,260.58,239.63,260.59,239.76,260.53z"/>
							</g>
						</g>
						<g>
							
								<rect x="222.07" y="244.98" transform="matrix(-1 -1.224647e-16 1.224647e-16 -1 463.1533 496.3711)" class="st2" width="19.02" height="6.41"/>
							<g>
								<path class="st2" d="M206.46,197.8l-0.63,3.84c-1.34,8.2,4.99,15.65,13.3,15.65h3.98v33.88l16.53,0.22l0.92-41.51
									c0.12-6.6-5.19-12.02-11.79-12.04L206.46,197.8z"/>
								<line class="st6" x1="223.11" y1="244.81" x2="239.79" y2="244.81"/>
								<path class="st6" d="M240.68,217.84l0.05-8.57c0-6.47-5.21-11.72-11.63-11.73l-2.95-0.01"/>
							</g>
						</g>
					</g>
				</g>
			</g>
			<g>
				<g>
					<path class="st7" d="M245.28,156.47c0,0,8.21,11.21,14.03,24.47c0.65,1.49,0.51,3.22-0.38,4.57l0,0
						c-2.02,3.05-7.31,2.35-9.34-0.49c0,0-15.54-21.37-14.88-22.23C234.86,162.58,245.28,156.47,245.28,156.47z"/>
					<path class="st7" d="M254.91,177.05l20.37-8.13l1.76,10.58l-20.51,7.74c-0.74,0.28-1.55,0.36-2.32,0.19
						c-2.65-0.59-4.53-3.18-4.04-6.02l0,0C250.57,179.04,252.52,177.25,254.91,177.05z"/>
				</g>
				<g>
					<g>
						<path class="st7" d="M229.4,153.63l14.1,1.81c1.44,0.18,2.47,1.48,2.32,2.92l-9.11,39.52l-30.26-0.07l4.28-39.31
							c-0.18-1.48,0.88-2.82,2.36-2.98L229.4,153.63z"/>
						<path class="st6" d="M241.83,174.79c0-0.47,2.53-10.08,2.53-10.08"/>
					</g>
					<path class="st5" d="M234.31,154.26l2.61,0.34c0,0,1.17,4.36-4.89,4.8c-6.31,0.46-8.8-1.88-10.02-5l6.95-1.36L234.31,154.26z"
						/>
				</g>
				<g>
					<path class="st7" d="M222.78,163.13c0,0-7.68,15.22-16.36,27.48c-0.97,1.37-3.27,2.06-4.95,1.99l0,0
						c-3.8-0.16-5.41-4.25-3.97-7.58c0,0,12.15-28.08,13.83-28.54C211.59,156.4,222.78,163.13,222.78,163.13z"/>
					<g>
						<g>
							<polygon class="st5" points="231.56,187.14 224.95,186.63 225.16,193.25 230.88,193.24 							"/>
						</g>
						<g>
							<path class="st7" d="M203.1,182.35l23.75,0.71l-0.46,10.63l-24.68-0.52c-3.51-0.47-5.65-4.12-4.35-7.41l0,0
								C198.28,183.45,200.64,182.05,203.1,182.35z"/>
							<g>
								<polyline class="st6" points="218.2,169 211.92,182.62 226.85,183.07 226.87,186.63 								"/>
								<line class="st6" x1="211.92" y1="182.62" x2="208.6" y2="184.25"/>
							</g>
						</g>
						<path class="st5" d="M231.07,187.14c0,0,15.15-5.84,13.47,6.09h-14.54L231.07,187.14z"/>
					</g>
				</g>
			</g>
			<g>
				
					<ellipse transform="matrix(0.4127 -0.9109 0.9109 0.4127 12.8503 299.7262)" class="st8" cx="238.85" cy="139.9" rx="2.98" ry="2.98"/>
				<path class="st5" d="M235.3,144.22l-1.38,10.58c-0.27,2.97-2.33,2.99-5.26,2.7l0,0c-2.5-0.25-4.56-1.19-4.63-3.7l1.07-11.48
					L235.3,144.22z"/>
				<polygon class="st8" points="234.09,152.8 227.23,146.07 235.1,146.75 				"/>
				<path class="st5" d="M229.95,147.95l3.43,0.34c3.5,0.35,6.6-2.27,6.83-5.79l0.52-7.91c0.26-3.91-2.63-7.32-6.53-7.71h0
					c-3.99-0.4-8.25,2.45-8.65,6.44l-0.44,9C224.97,145.19,227.09,147.66,229.95,147.95z"/>
				<path class="st3" d="M227.26,138.55l1.02-6.79c0,0,7.59,2.04,12.52,0.94l0.06-0.59c0.23-2.32-1.54-4.52-3.8-5.05
					c-2.09-0.49-6-0.79-8.45-0.35c-2.36,0.43-3.68,2.65-3.72,5.2l-0.14,3.58L227.26,138.55z"/>
				<polygon class="st3" points="226.87,139.02 225.07,143.15 225.18,140.61 				"/>
				<g>
					<path class="st5" d="M221.48,138.17c-0.16,1.64,1.03,3.1,2.67,3.26c1.64,0.16,3.1-1.03,3.26-2.67c0.16-1.64-1.03-3.1-2.67-3.26
						S221.64,136.54,221.48,138.17z"/>
					<path class="st9" d="M225.39,139.45c0,0,0.21-2.15-1.88-2.01"/>
				</g>
				<g>
					<polyline class="st9" points="236.43,139.51 236.57,141.86 235.62,141.76 					"/>
					<path class="st3" d="M232.97,135.64c0,0,1.62-0.08,1.58,0.78c0,0-0.04,0.58-1.46,0.62c-1.41,0.04-1.77-0.12-1.86-0.67
						C231.14,135.81,232.21,135.61,232.97,135.64z"/>
					<path class="st3" d="M239.1,136.2c0,0-1.32-0.25-1.48,0.55c0,0-0.1,0.54,1.05,0.73c1.15,0.19,1.55,0.02,1.69-0.42
						C240.52,136.57,239.73,136.25,239.1,136.2z"/>
					<path class="st1" d="M236.28,143.01l-4.48-0.44c0,0-0.17,1.57,2.44,1.83C235.96,144.57,236.28,143.01,236.28,143.01z"/>
					<path class="st3" d="M233.97,138.96c-0.04,0.33-0.34,0.55-0.67,0.51c-0.33-0.04-0.55-0.34-0.51-0.67
						c0.04-0.33,0.34-0.55,0.67-0.51C233.79,138.34,234.01,138.64,233.97,138.96z"/>
					<path class="st3" d="M239.29,139.29c-0.04,0.33-0.34,0.55-0.67,0.51c-0.33-0.04-0.55-0.34-0.51-0.67
						c0.04-0.33,0.34-0.55,0.67-0.51C239.11,138.66,239.34,138.96,239.29,139.29z"/>
				</g>
			</g>
		</g>
	</g>
	<g>
		<g>
			<g>
				<path class="st3" d="M258.11,139.8l-7.37,36.64c-0.32,1.57,0.88,3.03,2.48,3.03h53.08c1.19,0,2.23-0.83,2.48-2l7.84-36.64
					c0.34-1.58-0.86-3.06-2.48-3.06H260.6C259.39,137.77,258.35,138.62,258.11,139.8z"/>
				<path class="st1" d="M260.51,141.53l-7.37,36.64c-0.32,1.57,0.88,3.03,2.48,3.03h53.08c1.19,0,2.23-0.83,2.48-2l7.84-36.64
					c0.34-1.58-0.86-3.06-2.48-3.06h-53.55C261.78,139.49,260.74,140.34,260.51,141.53z"/>
				<polygon class="st3" points="279.83,171.51 278.84,181.2 283.15,181.2 				"/>
				<polygon class="st1" points="279.83,171.31 284.23,193 300.25,193 292.73,171.31 				"/>
				<circle class="st10" cx="288.45" cy="154.53" r="3.24"/>
			</g>
			<path class="st1" d="M309.91,191.4H255.7c-0.48,0-0.86,0.39-0.86,0.86l0,0c0,0.48,0.39,0.86,0.86,0.86h54.21
				c0.48,0,0.86-0.39,0.86-0.86l0,0C310.78,191.78,310.39,191.4,309.91,191.4z"/>
		</g>
		<g>
			<polyline class="st11" points="278.78,266.17 302.5,195.69 321.58,265.31 			"/>
			<g>
				
					<rect x="168.68" y="193.13" transform="matrix(-1 -1.224647e-16 1.224647e-16 -1 505.8828 391.0261)" class="st3" width="168.53" height="4.77"/>
			</g>
			<polyline class="st11" points="181.68,266.17 205.4,195.69 224.49,265.31 			"/>
		</g>
		<line class="st12" x1="145.56" y1="265.82" x2="356.77" y2="265.82"/>
	</g>
</g>
</svg>
