<?xml version="1.0" encoding="utf-8"?>
<!-- Generator: Adobe Illustrator 23.0.1, SVG Export Plug-In . SVG Version: 6.00 Build 0)  -->
<svg version="1.1" xmlns="http://www.w3.org/2000/svg" xmlns:xlink="http://www.w3.org/1999/xlink" x="0px" y="0px"
	 viewBox="0 0 500 500" style="enable-background:new 0 0 500 500;" xml:space="preserve">
<style type="text/css">
	.st0{fill:#EBEBEB;}
	.st1{fill:#E6E6E6;}
	.st2{fill:#F0F0F0;}
	.st3{fill:#F5F5F5;}
	.st4{fill:#FAFAFA;}
	.st5{fill:#E0E0E0;}
	.st6{display:none;}
	.st7{display:inline;}
	.st8{fill:#407BFF;}
	.st9{opacity:0.9;fill:#FFFFFF;}
	.st10{opacity:0.3;fill:#FFFFFF;}
	.st11{opacity:0.4;}
	.st12{fill:#FFFFFF;}
	.st13{opacity:0.4;fill:#FFFFFF;}
	.st14{opacity:0.6;}
	.st15{fill:#FFC3BD;}
	.st16{opacity:0.1;}
	.st17{fill:#263238;}
	.st18{opacity:0.7;}
	.st19{opacity:0.7;fill:#FFFFFF;}
	.st20{opacity:0.2;enable-background:new    ;}
	.st21{fill:#ED893E;}
	.st22{fill:#C13B37;}
	.st23{opacity:0.2;}
	.st24{opacity:0.5;}
	.st25{opacity:0.3;}
	.st26{opacity:0.2;fill:#FFFFFF;}
	.st27{fill:none;}
	.st28{opacity:0.8;fill:#FFFFFF;}
	.st29{opacity:0.6;fill:#FFFFFF;}
	.st30{opacity:0.5;fill:#FFFFFF;}
</style>
<g id="Background_Complete">
	<g>
		<rect x="416.78" y="398.49" class="st0" width="33.12" height="0.25"/>
		<rect x="322.53" y="401.21" class="st0" width="8.69" height="0.25"/>
		<rect x="396.59" y="389.21" class="st0" width="19.19" height="0.25"/>
		<rect x="52.46" y="390.89" class="st0" width="43.19" height="0.25"/>
		<rect x="104.56" y="390.89" class="st0" width="6.33" height="0.25"/>
		<rect x="131.47" y="395.11" class="st0" width="93.68" height="0.25"/>
		<path class="st0" d="M237.01,337.8H43.92c-3.15,0-5.71-2.56-5.71-5.71V60.66c0-3.15,2.56-5.71,5.71-5.71h193.1
			c3.15,0,5.71,2.56,5.71,5.71v271.43C242.72,335.24,240.16,337.8,237.01,337.8z M43.92,55.2c-3.01,0-5.46,2.45-5.46,5.46v271.43
			c0,3.01,2.45,5.46,5.46,5.46h193.1c3.01,0,5.46-2.45,5.46-5.46V60.66c0-3.01-2.45-5.46-5.46-5.46H43.92z"/>
		<path class="st0" d="M453.31,337.8h-193.1c-3.15,0-5.71-2.56-5.71-5.71V60.66c0-3.15,2.56-5.71,5.71-5.71h193.1
			c3.15,0,5.71,2.56,5.71,5.71v271.43C459.02,335.24,456.46,337.8,453.31,337.8z M260.21,55.2c-3.01,0-5.46,2.45-5.46,5.46v271.43
			c0,3.01,2.45,5.46,5.46,5.46h193.1c3.01,0,5.46-2.45,5.46-5.46V60.66c0-3.01-2.45-5.46-5.46-5.46H260.21z"/>
		<rect y="382.4" class="st0" width="500" height="0.25"/>
	</g>
	<g>
		<rect x="245.65" y="270.87" class="st1" width="185.13" height="99.63"/>
		<rect x="248.86" y="374.64" class="st1" width="11.64" height="8.79"/>
		<rect x="433.28" y="263.46" class="st1" width="11.64" height="119.97"/>
		<path class="st2" d="M430.31,263.46h-3.1H248.86h-3.1h-3.1v119.97h6.21v-6.72h178.35v6.72h6.21V263.46H430.31z M427.21,315.99
			h-86.07v-41.67h86.07V315.99z M248.86,274.32h86.07v91.53h-86.07V274.32z M341.14,365.85v-43.66h86.07v43.66H341.14z"/>
		<rect x="254.67" y="278.8" class="st3" width="80.26" height="87.05"/>
		<path class="st4" d="M331.3,319.72c0,2.06-1.67,3.73-3.73,3.73c-2.06,0-3.73-1.67-3.73-3.73c0-2.06,1.67-3.73,3.73-3.73
			C329.63,315.99,331.3,317.66,331.3,319.72z"/>
		<path class="st5" d="M327.57,323.45c-1.5,0-2.79-0.9-3.38-2.18c-0.22,0.47-0.35,1-0.35,1.55c0,2.06,1.67,3.73,3.73,3.73
			s3.73-1.67,3.73-3.73c0-0.56-0.13-1.08-0.35-1.55C330.36,322.55,329.07,323.45,327.57,323.45z"/>
		<polygon class="st4" points="285.8,365.85 304.95,365.85 314.1,278.8 294.95,278.8 		"/>
		<polygon class="st4" points="309.85,365.85 313.66,365.85 322.81,278.8 319,278.8 		"/>
		<rect x="352.95" y="278.71" class="st4" width="7.58" height="37.23"/>
		<rect x="384.4" y="278.71" class="st3" width="7.58" height="37.23"/>
		<rect x="360.53" y="281.33" class="st3" width="7.58" height="34.62"/>
		<rect x="376.81" y="281.33" class="st4" width="7.58" height="34.62"/>
		<rect x="371.91" y="278.71" class="st0" width="4.9" height="37.23"/>
		<rect x="368.12" y="281.33" class="st4" width="3.79" height="34.62"/>
		<rect x="391.98" y="278.71" class="st0" width="7.58" height="37.23"/>
		<rect x="399.56" y="281.33" class="st1" width="7.58" height="34.62"/>
		<rect x="415.84" y="281.33" class="st1" width="7.58" height="34.62"/>
		<rect x="410.94" y="278.71" class="st4" width="4.9" height="37.23"/>
		<rect x="407.15" y="281.33" class="st0" width="3.79" height="34.62"/>
		<rect x="423.43" y="279.6" class="st0" width="3.79" height="36.35"/>
		
			<rect x="419.63" y="328.62" transform="matrix(-1 -1.224647e-16 1.224647e-16 -1 846.8542 694.4655)" class="st0" width="7.58" height="37.23"/>
		
			<rect x="388.19" y="328.62" transform="matrix(-1 -1.224647e-16 1.224647e-16 -1 783.961 694.4655)" class="st4" width="7.58" height="37.23"/>
		
			<rect x="412.05" y="331.23" transform="matrix(-1 -1.224647e-16 1.224647e-16 -1 831.6854 697.082)" class="st4" width="7.58" height="34.62"/>
		
			<rect x="395.77" y="331.23" transform="matrix(-1 -1.224647e-16 1.224647e-16 -1 799.1298 697.082)" class="st0" width="7.58" height="34.62"/>
		
			<rect x="403.36" y="328.62" transform="matrix(-1 -1.224647e-16 1.224647e-16 -1 811.6154 694.4655)" class="st4" width="4.9" height="37.23"/>
		
			<rect x="408.26" y="331.23" transform="matrix(-1 -1.224647e-16 1.224647e-16 -1 820.3088 697.082)" class="st3" width="3.79" height="34.62"/>
		
			<rect x="380.6" y="328.62" transform="matrix(-1 -1.224647e-16 1.224647e-16 -1 768.7922 694.4655)" class="st0" width="7.58" height="37.23"/>
		
			<rect x="373.02" y="331.23" transform="matrix(-1 -1.224647e-16 1.224647e-16 -1 753.6233 697.082)" class="st3" width="7.58" height="34.62"/>
		
			<rect x="356.74" y="331.23" transform="matrix(-1 -1.224647e-16 1.224647e-16 -1 721.0677 697.082)" class="st1" width="7.58" height="34.62"/>
		
			<rect x="364.33" y="328.62" transform="matrix(-1 -1.224647e-16 1.224647e-16 -1 733.5533 694.4655)" class="st4" width="4.9" height="37.23"/>
		
			<rect x="348.05" y="328.62" transform="matrix(-1 -1.224647e-16 1.224647e-16 -1 700.9977 694.4655)" class="st4" width="4.9" height="37.23"/>
		
			<rect x="369.23" y="331.23" transform="matrix(-1 -1.224647e-16 1.224647e-16 -1 742.2466 697.082)" class="st0" width="3.79" height="34.62"/>
		
			<rect x="352.95" y="329.5" transform="matrix(-1 -1.224647e-16 1.224647e-16 -1 709.691 695.3474)" class="st0" width="3.79" height="36.35"/>
	</g>
	<g>
		<g>
			<path class="st3" d="M168.48,140.63c-0.24-20.71-11.82-40.01-30.48-49.31c-18.59-9.27-41.39-7.15-57.93,5.4
				c-13.87,10.52-21.69,26.93-21.82,44.25c-0.04,5.1,0,10.2,0,15.29c0,25.81,0,51.62,0,77.43c0,31.1,0,62.19,0,93.29
				c0,11.47,0,22.93,0,34.4c0,5.64-0.67,11.74,0,17.35c0.03,0.25,0,0.52,0,0.77c0,1.77,2.75,1.77,2.75,0c0-13.19,0-26.39,0-39.58
				c0-28.6,0-57.21,0-85.81c0-27.44,0-54.87,0-82.31c0-8.28,0-16.56,0-24.84c0-7.68,0.15-15.15,2.58-22.6
				c6.95-21.3,27.4-36.09,49.78-36.09c22.39,0,42.84,14.79,49.78,36.09c1.72,5.27,2.51,10.73,2.58,16.27
				C165.74,142.4,168.5,142.4,168.48,140.63L168.48,140.63z"/>
		</g>
		<g>
			<path class="st2" d="M195.28,147.92c0-18.12-14.69-32.82-32.82-32.82c-18.12,0-32.82,14.69-32.82,32.82H195.28z"/>
			<path class="st3" d="M165.98,115.29c16.47,1.76,29.3,15.69,29.3,32.63h-58.59C136.69,130.98,149.52,117.05,165.98,115.29z"/>
		</g>
		<rect x="51.72" y="284.78" class="st3" width="16" height="97.67"/>
		<path class="st3" d="M82.87,383.06H36.36v-0.27c0-3.24,2.63-5.86,5.86-5.86h34.78c3.24,0,5.86,2.63,5.86,5.86V383.06z"/>
	</g>
	<g>
		<path class="st3" d="M416.76,238.1l1.26-9.75h-11.04l1.26,9.75c-5.11,1.77-8.78,6.61-8.78,12.32c0,4.05,1.85,9.26,4.75,13.04h16.6
			c2.9-3.78,4.75-8.98,4.75-13.04C425.55,244.71,421.87,239.87,416.76,238.1z"/>
		<path class="st2" d="M423.91,198.52c0,0-12.19,19.17-11.75,42.83C412.16,241.34,418.73,212.79,423.91,198.52z"/>
		<path class="st2" d="M401.41,188.5c0,0,15.28,22.42,11.98,50.58C413.39,239.08,407.98,203.5,401.41,188.5z"/>
		<path class="st3" d="M413.16,245.91c0,0,3.97-29.12-13.92-37.91C399.24,208,408.73,215.31,413.16,245.91z"/>
		<g>
			<path class="st3" d="M415,254.32c-0.05-0.34-4.63-34.29,2.26-63.51l0.97,0.23c-6.85,29.04-2.29,62.81-2.24,63.14L415,254.32z"/>
		</g>
		<path class="st0" d="M414.81,191.33l-0.33,0.07c-0.5,0.11-0.8,0.63-0.65,1.12l0.45,1.44c0.2,0.63,1,0.82,1.46,0.35l0.52-0.54
			c0.44-0.45,1.2-0.3,1.44,0.28l0.79,1.98c0.2,0.51,0.82,0.71,1.28,0.41l1.64-1.05c0.47-0.3,0.54-0.97,0.14-1.36l-0.27-0.27
			c-0.54-0.53-0.2-1.46,0.56-1.5l1.45-0.08c0.52-0.03,0.9-0.5,0.81-1.02l-0.2-1.23c-0.1-0.59-0.74-0.91-1.27-0.63l-0.1,0.05
			c-0.72,0.38-1.52-0.35-1.22-1.1l0.44-1.11c0.22-0.54-0.14-1.14-0.72-1.2l-1.56-0.16c-0.52-0.05-0.96,0.35-0.96,0.87l0,0
			c0,0.88-1.16,1.21-1.62,0.45l-0.22-0.36c-0.29-0.48-0.96-0.57-1.37-0.17l-1.12,1.11c-0.36,0.36-0.34,0.95,0.04,1.28l0.94,0.82
			C415.74,190.29,415.51,191.18,414.81,191.33z"/>
	</g>
</g>
<g id="Background_Simple" class="st6">
	<g class="st7">
		<path class="st8" d="M89.91,316.92c3.37,3.96,7.15,7.72,11.34,11.23c47.96,40.12,115.31,10.52,169.45,2.19
			c34.23-5.26,70.79-5.43,100.38-23.41c38.36-23.31,50.6-70.63,51.52-112.9c0.47-21.42-1.8-43.61-12.24-62.32
			c-22.75-40.8-78.14-55.77-119.35-35.56c-3.6,1.77-7.09,3.76-10.45,5.95l-59.63,38.95c-9.08,5.93-19.14,10.23-29.71,12.69
			c0,0-52.38,12.2-52.4,12.21C69.85,182.01,46.72,266.18,89.91,316.92z"/>
		<path class="st9" d="M89.91,316.92c3.37,3.96,7.15,7.72,11.34,11.23c47.96,40.12,115.31,10.52,169.45,2.19
			c34.23-5.26,70.79-5.43,100.38-23.41c38.36-23.31,50.6-70.63,51.52-112.9c0.47-21.42-1.8-43.61-12.24-62.32
			c-22.75-40.8-78.14-55.77-119.35-35.56c-3.6,1.77-7.09,3.76-10.45,5.95l-59.63,38.95c-9.08,5.93-19.14,10.23-29.71,12.69
			c0,0-52.38,12.2-52.4,12.21C69.85,182.01,46.72,266.18,89.91,316.92z"/>
	</g>
</g>
<g id="Shadow">
	<ellipse id="_x3C_Path_x3E__1_" class="st3" cx="245.18" cy="412.39" rx="193.89" ry="11.32"/>
</g>
<g id="Chair">
	<g>
		<g>
			
				<rect x="216.03" y="303.12" transform="matrix(-1 -1.224647e-16 1.224647e-16 -1 442.1299 653.0353)" class="st8" width="10.08" height="46.8"/>
			
				<rect x="216.03" y="303.12" transform="matrix(-1 -1.224647e-16 1.224647e-16 -1 442.1299 653.0353)" class="st10" width="10.08" height="46.8"/>
		</g>
		<g>
			
				<rect x="228.27" y="250.14" transform="matrix(-1 -1.224647e-16 1.224647e-16 -1 464.5988 547.0722)" class="st8" width="8.06" height="46.8"/>
			
				<rect x="228.27" y="250.14" transform="matrix(-1 -1.224647e-16 1.224647e-16 -1 464.5988 547.0722)" class="st10" width="8.06" height="46.8"/>
		</g>
		<g>
			<g>
				<path class="st8" d="M252.96,276.55c-13.74,1.17-27.57,1.17-41.31,0c-9.64-0.82-17.4-9.93-17.4-19.56c0-7.59,0-11.39,0-18.98
					c0-9.63,7.76-16.15,17.4-15.33c13.74,1.17,27.57,1.17,41.31,0c9.64-0.82,17.4,5.69,17.4,15.33c0,7.59,0,11.39,0,18.98
					C270.35,266.62,262.59,275.73,252.96,276.55z"/>
			</g>
			<g class="st11">
				<path class="st12" d="M252.96,276.55c-13.74,1.17-27.57,1.17-41.31,0c-9.64-0.82-17.4-9.93-17.4-19.56c0-7.59,0-11.39,0-18.98
					c0-9.63,7.76-16.15,17.4-15.33c13.74,1.17,27.57,1.17,41.31,0c9.64-0.82,17.4,5.69,17.4,15.33c0,7.59,0,11.39,0,18.98
					C270.35,266.62,262.59,275.73,252.96,276.55z"/>
			</g>
		</g>
		<path class="st8" d="M262.61,310.33h-83.09c-2.13,0-3.85-1.72-3.85-3.85v-1.84c0-4.82,3.91-8.73,8.73-8.73h73.33
			c4.82,0,8.73,3.91,8.73,8.73v1.84C266.46,308.61,264.74,310.33,262.61,310.33z"/>
		<path class="st13" d="M262.61,310.33h-83.09c-2.13,0-3.85-1.72-3.85-3.85v-1.84c0-4.82,3.91-8.73,8.73-8.73h73.33
			c4.82,0,8.73,3.91,8.73,8.73v1.84C266.46,308.61,264.74,310.33,262.61,310.33z"/>
		<g>
			<path class="st8" d="M265.62,399.21l-38.3-7.74c0.03-0.12,0.05-0.25,0.05-0.39v-43.7c0-0.86-0.69-1.55-1.55-1.55h-9.51
				c-0.86,0-1.55,0.69-1.55,1.55v43.7c0,0.13,0.02,0.26,0.05,0.39l-38.3,7.74c-0.49,0.1-0.84,0.53-0.84,1.03v1.74
				c0,0.64,0.57,1.14,1.21,1.04l41.93-6.35v5.09c0,0.69,0.56,1.24,1.24,1.24h2.03c0.69,0,1.24-0.56,1.24-1.24v-5.09l41.93,6.35
				c0.64,0.1,1.21-0.4,1.21-1.04v-1.74C266.46,399.74,266.11,399.31,265.62,399.21z"/>
			<path class="st13" d="M265.62,399.21l-38.3-7.74c0.03-0.12,0.05-0.25,0.05-0.39v-43.7c0-0.86-0.69-1.55-1.55-1.55h-9.51
				c-0.86,0-1.55,0.69-1.55,1.55v43.7c0,0.13,0.02,0.26,0.05,0.39l-38.3,7.74c-0.49,0.1-0.84,0.53-0.84,1.03v1.74
				c0,0.64,0.57,1.14,1.21,1.04l41.93-6.35v5.09c0,0.69,0.56,1.24,1.24,1.24h2.03c0.69,0,1.24-0.56,1.24-1.24v-5.09l41.93,6.35
				c0.64,0.1,1.21-0.4,1.21-1.04v-1.74C266.46,399.74,266.11,399.31,265.62,399.21z"/>
		</g>
	</g>
</g>
<g id="Character">
	<g>
		<g>
			<path class="st8" d="M268.67,215.57c0,0-5.99,39.28-4.99,73.69c1,34.41,6.98,96.76,6.98,96.76h16.46c0,0-1.59-75.81-0.29-95.26
				c1.29-19.45,13.72-75.99,13.72-75.99L268.67,215.57z"/>
			<path class="st14" d="M268.67,215.57c0,0-5.99,39.28-4.99,73.69c1,34.41,6.98,96.76,6.98,96.76h16.46c0,0-1.59-75.81-0.29-95.26
				c1.29-19.45,13.72-75.99,13.72-75.99L268.67,215.57z"/>
			<path class="st11" d="M292.71,228.25l-2.85-1.24c0,0-6.77,37.18-2.76,60.58c1.25-12.23,5.34-33.69,8.68-50.16L292.71,228.25z"/>
			<polygon class="st15" points="282.15,387.85 282.47,397.95 275.53,398.11 274.7,387.3 			"/>
			<polygon class="st16" points="275.12,392.7 282.3,392.7 282.15,387.85 277.67,387.51 274.72,387.51 			"/>
			<g>
				<path class="st8" d="M271.55,398.63c-1-0.03-2.02-0.25-2.33-0.69c-0.16-0.26-0.14-0.59,0.04-0.82c0.14-0.22,0.36-0.37,0.61-0.42
					c1.35-0.32,4.09,1.37,4.21,1.45c0.07,0.04,0.1,0.12,0.08,0.2c-0.02,0.08-0.08,0.14-0.16,0.15
					C273.19,398.61,272.37,398.66,271.55,398.63z M270.33,397.03c-0.12-0.01-0.25,0.01-0.36,0.03c-0.16,0.02-0.3,0.11-0.38,0.25
					c-0.15,0.23-0.1,0.35-0.05,0.41c0.35,0.53,2.37,0.62,3.87,0.48C272.46,397.63,271.42,397.23,270.33,397.03z"/>
				<path class="st8" d="M273.97,398.49c-0.03,0.01-0.05,0-0.08-0.01c-0.94-0.46-2.81-2.26-2.61-3.15c0.03-0.22,0.2-0.47,0.72-0.51
					c0.38-0.03,0.76,0.1,1.04,0.36c0.99,0.87,1.13,3.04,1.14,3.14c0,0.07-0.03,0.13-0.09,0.17
					C274.06,398.5,274.02,398.5,273.97,398.49z M272.13,395.18l-0.11-0.01c-0.34,0.02-0.37,0.15-0.39,0.2
					c-0.07,0.54,1.15,1.94,2.12,2.56c-0.06-0.91-0.41-1.78-0.98-2.49C272.6,395.28,272.37,395.18,272.13,395.18L272.13,395.18z"/>
				<path class="st17" d="M274.86,397.4l8.74,0.3c0.33,0.01,0.61,0.25,0.67,0.57l1.33,7.16c0.12,0.63-0.29,1.25-0.93,1.37
					c-0.08,0.02-0.16,0.02-0.25,0.02c-3.15-0.16-5.94-0.43-9.87-0.56c-4.63-0.16-3.47,0.44-8.92,0.33
					c-3.28-0.07-3.75-3.82-2.36-3.95c6.39-0.58,7.12-2.48,9.65-4.67C273.49,397.55,274.17,397.35,274.86,397.4z"/>
			</g>
			<polygon class="st8" points="268.7,385.02 269.7,390.01 288.15,390.01 288.15,385.02 			"/>
		</g>
		<g>
			<polygon class="st15" points="325.63,384.85 326.95,397.95 320.01,398.11 318.18,386.3 			"/>
			<g>
				<path class="st8" d="M316.02,398.63c-1-0.03-2.02-0.25-2.33-0.69c-0.16-0.26-0.14-0.59,0.04-0.82c0.14-0.22,0.36-0.37,0.61-0.42
					c1.35-0.32,4.09,1.37,4.21,1.45c0.07,0.04,0.1,0.12,0.08,0.2c-0.02,0.08-0.08,0.14-0.16,0.15
					C317.66,398.61,316.84,398.66,316.02,398.63z M314.8,397.03c-0.12-0.01-0.25,0.01-0.36,0.03c-0.16,0.02-0.3,0.11-0.38,0.25
					c-0.15,0.23-0.1,0.35-0.05,0.41c0.35,0.53,2.37,0.62,3.87,0.48C316.93,397.63,315.89,397.23,314.8,397.03z"/>
				<path class="st8" d="M318.45,398.49c-0.03,0.01-0.05,0-0.08-0.01c-0.94-0.46-2.81-2.26-2.61-3.15c0.03-0.22,0.2-0.47,0.72-0.51
					c0.38-0.03,0.76,0.1,1.04,0.36c0.99,0.87,1.13,3.04,1.14,3.14c0,0.07-0.03,0.13-0.09,0.17
					C318.54,398.5,318.49,398.5,318.45,398.49z M316.6,395.18l-0.11-0.01c-0.34,0.02-0.37,0.15-0.39,0.2
					c-0.07,0.54,1.15,1.94,2.12,2.56c-0.06-0.91-0.41-1.78-0.98-2.49C317.07,395.28,316.84,395.18,316.6,395.18L316.6,395.18z"/>
				<path class="st17" d="M319.33,397.4l8.74,0.3c0.33,0.01,0.61,0.25,0.67,0.57l1.33,7.16c0.12,0.63-0.29,1.25-0.93,1.37
					c-0.08,0.02-0.16,0.02-0.25,0.02c-3.15-0.16-5.94-0.43-9.87-0.56c-4.63-0.16-3.47,0.44-8.92,0.33
					c-3.28-0.07-3.75-3.82-2.36-3.95c6.39-0.58,7.12-2.48,9.65-4.67C317.96,397.55,318.65,397.35,319.33,397.4z"/>
			</g>
			<polygon class="st16" points="319.02,391.75 326.25,391.06 325.83,386.91 318.38,387.63 			"/>
			<path class="st8" d="M288.72,214.52c0,0,0.71,49.12,8.28,85.87c7.58,36.75,16.93,85.63,16.93,85.63l15.58-1.99
				c0,0-5.14-53.86-10.05-94.76c-4.91-40.9-6.9-77.56-6.9-77.56L288.72,214.52z"/>
			<path class="st14" d="M288.72,214.52c0,0,0.71,49.12,8.28,85.87c7.58,36.75,16.93,85.63,16.93,85.63l15.58-1.99
				c0,0-5.14-53.86-10.05-94.76c-4.91-40.9-6.9-77.56-6.9-77.56L288.72,214.52z"/>
			<polygon class="st8" points="312.23,385.15 313.74,390.01 332.09,388.07 331.57,383.11 			"/>
		</g>
		<g>
			<g>
				<path class="st8" d="M296.8,145.88c-4.94,0.11-9.37,0.68-13.34,1.56c-1.27,3.1-3.53,8.64-4.1,10.4
					c-0.8,2.49-0.32,8.67-1.69,8.95c-1.37,0.28-4.3-2.96-6.67-7.32c-1.25-2.31-3.05-3.97-4.46-5.02
					c-10.1,6.63-13.6,14.69-13.6,14.69c13.38,17.7,14.71,53.36,14.71,53.36c31.22,2.9,46.29-4.9,46.29-4.9
					c-6.15-25.58-10.95-57.05-12.52-67.85C301.08,147.47,299.1,145.83,296.8,145.88z"/>
			</g>
			<g class="st18">
				<path class="st12" d="M296.8,145.88c-4.94,0.11-9.37,0.68-13.34,1.56c-1.27,3.1-3.53,8.64-4.1,10.4
					c-0.8,2.49-0.32,8.67-1.69,8.95c-1.37,0.28-4.3-2.96-6.67-7.32c-1.25-2.31-3.05-3.97-4.46-5.02
					c-10.1,6.63-13.6,14.69-13.6,14.69c13.38,17.7,14.71,53.36,14.71,53.36c31.22,2.9,46.29-4.9,46.29-4.9
					c-6.15-25.58-10.95-57.05-12.52-67.85C301.08,147.47,299.1,145.83,296.8,145.88z"/>
				<path class="st16" d="M259.77,172.63c0,0,4.88,1.54,9.12,10.33c9.77,20.24-1.72,18.33-1.72,18.33S262.27,178.69,259.77,172.63z"
					/>
				<path class="st16" d="M304.77,171.18c-0.91-5.47-1.69-10.38-2.3-14.39l-0.96-0.45l-3.86,1.04
					C297.65,157.38,300.37,164.96,304.77,171.18z"/>
			</g>
		</g>
		<g>
			<path class="st15" d="M318.09,149.22c0,0,22.02,4.03,25.68,7.36s13.3,18.63,16.63,23.44c3.32,4.82,4.23,17.08-1.87,16.6
				c-6.11-0.48-3.57-8.62-3.57-8.62s-2.2-3.16-2.03-7.48c0,0-7.81-7.81-15.13-16.13l-19.23-4.32L318.09,149.22z"/>
			<g>
				<path class="st8" d="M297.25,149.22c0,0,1.5-6.94,19.35-2.37c0,0,0.73,7.67,0.56,15.52c0,0-17.79,2.15-19.29-3.98
					C296.38,152.25,297.25,149.22,297.25,149.22z"/>
				<path class="st19" d="M297.25,149.22c0,0,1.5-6.94,19.35-2.37c0,0,0.73,7.67,0.56,15.52c0,0-17.79,2.15-19.29-3.98
					C296.38,152.25,297.25,149.22,297.25,149.22z"/>
				<path class="st8" d="M315.42,145.86c0,0,1.03,4.4,1.18,17.53h3.86c0,0,1.19-10.38-1.22-17.53H315.42z"/>
			</g>
		</g>
		<g>
			<path class="st17" d="M282.17,121.78c0,0,2.53,2.99,7.02,2.66c0,0-3.64,2.91-8.34,0.67
				C280.85,125.11,278.58,121.23,282.17,121.78z"/>
			<path class="st15" d="M267.14,155.34c0.59-5.23-0.83-8.92-1.02-15.26l11.78-4.54c0.96,6,1.32,13.4,6.46,14.58
				c0,0-3.6,2.76-4.57,6.04c-1.36,4.57-0.45,10.13-2.63,10.59C273.41,167.52,269.68,156,267.14,155.34z"/>
			<path class="st20" d="M279.49,144.42c0.35,1.35,0.96,2.62,1.79,3.74c-5.85,3.18-10.21,1.32-13.11-1.86
				C271.85,145.18,275.66,144.55,279.49,144.42z"/>
			<path class="st15" d="M261.34,129.5c1.05,8.06,1.23,12.84,5.61,16.68c6.58,5.78,16.33,1.31,17.73-6.92
				c1.25-7.41-0.67-19.35-8.81-21.97c-5.89-1.89-12.21,1.35-14.1,7.25C261.26,126.14,261.11,127.84,261.34,129.5z"/>
			<path class="st21" d="M280.17,132.69c0,0,1.75,3.68,3.53,5.4c-1.09,1.18-3.11,0.83-3.11,0.83L280.17,132.69z"/>
			<path class="st17" d="M274.86,131.28c0.03,0.65,0.39,1.16,0.81,1.15c0.42-0.01,0.75-0.56,0.74-1.2
				c-0.02-0.65-0.39-1.16-0.81-1.15C275.17,130.09,274.87,130.67,274.86,131.28z"/>
			<path class="st17" d="M282.17,131.05c0.03,0.66,0.39,1.16,0.81,1.15c0.42-0.01,0.75-0.56,0.74-1.2
				c-0.02-0.65-0.39-1.16-0.81-1.14C282.49,129.88,282.16,130.41,282.17,131.05z"/>
			<path class="st17" d="M271.86,129.91c0.16,0.02,0.33-0.06,0.39-0.22c0.67-1.06,1.75-1.79,2.99-2.02
				c0.21-0.04,0.35-0.23,0.32-0.44c-0.03-0.2-0.23-0.34-0.43-0.31c0,0-0.01,0-0.01,0c-1.48,0.26-2.78,1.16-3.55,2.45
				c-0.09,0.19,0,0.41,0.19,0.5l0,0C271.78,129.9,271.82,129.91,271.86,129.91z"/>
			<path class="st17" d="M284.26,127.6c0.14,0.02,0.27-0.04,0.36-0.15c0.13-0.17,0.09-0.41-0.07-0.54
				c-0.96-0.79-2.25-1.05-3.45-0.69c-0.19,0.06-0.3,0.26-0.24,0.45c0,0.01,0.01,0.02,0.01,0.03c0.07,0.2,0.28,0.3,0.48,0.23
				c0,0,0,0,0.01,0l0,0c0.94-0.25,1.94-0.03,2.69,0.58C284.11,127.57,284.18,127.6,284.26,127.6z"/>
			<path class="st17" d="M272.93,138.96c0,0,2.85,2.32,6.43,1.24c0,0-0.25,1-0.2,3.16C279.16,143.37,273.94,145.49,272.93,138.96z"
				/>
			<path class="st12" d="M278.42,140.41c-3.12,0.47-5.49-1.45-5.49-1.45c0.08,0.53,0.19,0.99,0.31,1.43
				c1.02,0.83,2.63,1.69,4.87,1.48L278.42,140.41z"/>
			<path class="st22" d="M278.85,143.47c-0.67-1.46-3.37-1.39-4.67-1.27C275.71,144.16,278.02,143.71,278.85,143.47z"/>
			<g>
				<path class="st17" d="M261.93,136.74c0,0,7.73-1.57,2.99-10.38c0,0,4.91-0.14,6.61-3.64c0,0,12.76,2.98,15.67-1.76l-3.48-0.49
					c0,0,5.86-0.84,4.13-5.66c0,0-2.52,2.59-5.91,1.96c0,0,4.62-4.53-0.46-6.11c0,0-2.47,3.74-13.3,3.08s-13.14,5.57-12.32,8.48
					l0.42,1.42c0,0-4,6.41,1.41,10.39C263.09,137.99,261.93,136.74,261.93,136.74z"/>
				<path class="st17" d="M256.27,123.62c0,0-3.49-0.87-3.19-3.94h-0.06c-0.33,1.18-1.17,5.42,3.92,5L256.27,123.62z"/>
			</g>
			<path class="st15" d="M258.5,136.76c0.65,1.93,2.05,3.53,3.89,4.42c2.45,1.18,4.16-0.89,3.89-3.44
				c-0.24-2.29-1.79-5.67-4.45-5.78C259.17,131.86,257.73,134.39,258.5,136.76z"/>
		</g>
		<path class="st8" d="M266.33,153.08c0,0,7.03,4.61,11.02,12.59c0,0,0.59-14.59,5.03-18.83h4.44v5.61l-4.44,0.37l4.44,2.92
			c0,0-7.86,9.67-8.73,14.16c0,0-5.96-5.74-9.71-7.23l0.86-3.37l-3.49,1.75l-1.87-4.74L266.33,153.08z"/>
		<g>
			<polygon class="st8" points="327.1,226.07 290.71,214.52 285.98,175.53 322.37,187.08 			"/>
			<polygon class="st8" points="327.1,226.07 359.67,206.16 354.94,167.16 322.37,187.08 			"/>
			<polygon class="st23" points="327.1,226.07 359.67,206.16 354.94,167.16 322.37,187.08 			"/>
			<polygon class="st8" points="354.94,167.16 322.37,187.08 285.98,175.53 318.55,155.61 			"/>
			<polygon class="st24" points="354.94,167.16 322.37,187.08 285.98,175.53 318.55,155.61 			"/>
			<g>
				<path class="st8" d="M354.94,167.16c0,0-36.32-11.53-36.37-11.54l3.82,31.45L354.94,167.16z"/>
				<path class="st25" d="M354.94,167.16c0,0-36.32-11.53-36.37-11.54l3.82,31.45L354.94,167.16z"/>
			</g>
			<g>
				<polygon class="st8" points="322.37,187.08 311.77,204.33 275.38,192.78 285.98,175.53 				"/>
				<polygon class="st10" points="322.37,187.08 311.77,204.33 275.38,192.78 285.98,175.53 				"/>
			</g>
			<g>
				<polygon class="st8" points="322.37,187.08 336.79,201.3 369.36,181.38 354.94,167.16 				"/>
				<polygon class="st10" points="322.37,187.08 336.79,201.3 369.36,181.38 354.94,167.16 				"/>
			</g>
			<g>
				<path class="st8" d="M365.43,169.01c-3.57-1.13-36.06-11.44-36.06-11.44l-10.82-1.96l36.39,11.55l10.48,1.9V169.01z"/>
				<path class="st26" d="M365.43,169.01c-3.57-1.13-36.06-11.44-36.06-11.44l-10.82-1.96l36.39,11.55l10.48,1.9V169.01z"/>
			</g>
			<g>
				<path class="st8" d="M308.51,160.1c0,0-31.35,19.17-32.16,19.67v0.07l9.62-4.3l32.57-19.92L308.51,160.1z"/>
				<path class="st26" d="M308.51,160.1c0,0-31.35,19.17-32.16,19.67v0.07l9.62-4.3l32.57-19.92L308.51,160.1z"/>
			</g>
		</g>
		<g>
			<g>
				<path class="st8" d="M251.86,190.48c0,0-7.74-12.33,0-20.82c7.74-8.49,15.43,15.1,15.43,15.1S260.48,182.98,251.86,190.48z"/>
				<path class="st19" d="M251.86,190.48c0,0-7.74-12.33,0-20.82c7.74-8.49,15.43,15.1,15.43,15.1S260.48,182.98,251.86,190.48z"/>
			</g>
			<path class="st15" d="M265.79,186c0,0,5.65,11.31,8.15,16.63c0,0,7.97,3.25,24.93,5.7c0,0,8.62-5.01,13.31-3.04
				c5.17,2.18,6.56,4.51,4.16,7.31c-2.4,2.8-7.15,1.83-7.15,1.83s-3.66,1.14-8.65,0.33c0,0-15.36,0.46-29.43-2.66
				c-8.61-1.91-16.13-22.17-16.13-22.17L265.79,186z"/>
			<path class="st8" d="M250.7,190.48c0,0,2.59-3.98,7.7-5.73c5.11-1.75,9.28-1.18,9.28-1.18l0.94,4.17c0,0-6.64-1.16-15.68,5.74
				L250.7,190.48z"/>
		</g>
		<g>
			<path class="st12" d="M343.77,206.41v1.54l-4.79,2.76v-1.24l2.67-5.75l-2.62,1.51v-1.54l4.69-2.71v1.24l-2.67,5.75L343.77,206.41
				z"/>
			<path class="st12" d="M346.22,199.56v6.98l-1.6,0.92v-6.98L346.22,199.56z"/>
			<path class="st12" d="M352.5,198.32c0,1.33-1.07,3.01-2.44,3.8l-1.05,0.6v2.19l-1.6,0.92v-6.98l2.64-1.53
				C351.43,196.55,352.5,197,352.5,198.32z M350.91,199.24c0-0.51-0.36-0.69-0.85-0.41l-1.05,0.6v1.79l1.05-0.6
				C350.55,200.35,350.91,199.75,350.91,199.24z"/>
		</g>
	</g>
	<g>
		<g>
			<path class="st8" d="M405.84,208.12l-34.94-16.28c-0.6-0.28-0.86-1-0.58-1.6l21.76-46.72c0.28-0.6,1-0.86,1.6-0.58l21.52,10.03
				l7.69,21.39l-15.46,33.18C407.16,208.14,406.45,208.4,405.84,208.12z"/>
			<g>
				<polygon class="st16" points="422.9,174.35 415.21,152.97 414.07,152.44 405.76,170.27 421.41,177.56 				"/>
				<polygon class="st27" points="422.96,174.23 408.45,167.48 415.21,152.97 				"/>
				<polygon class="st23" points="422.96,174.23 408.45,167.48 415.21,152.97 				"/>
			</g>
		</g>
		<g>
			
				<rect x="385.31" y="166.93" transform="matrix(0.9065 0.4223 -0.4223 0.9065 111.6797 -152.2728)" class="st8" width="28.51" height="18.07"/>
			
				<rect x="385.31" y="166.93" transform="matrix(0.9065 0.4223 -0.4223 0.9065 111.6797 -152.2728)" class="st19" width="28.51" height="18.07"/>
		</g>
		<g>
			<polygon class="st8" points="392.7,175.88 384.45,178.88 395.7,184.13 			"/>
			<polygon class="st26" points="392.7,175.88 384.45,178.88 395.7,184.13 			"/>
		</g>
		<g>
			<polygon class="st8" points="393.17,182.95 408.67,190.17 409.37,188.67 405.63,178.41 			"/>
			<polygon class="st13" points="393.17,182.95 408.67,190.17 409.37,188.67 405.63,178.41 			"/>
		</g>
		<path class="st12" d="M400.85,173.68c-0.71,1.52-2.52,2.18-4.05,1.47c-1.52-0.71-2.18-2.52-1.47-4.05
			c0.71-1.52,2.52-2.18,4.05-1.47C400.9,170.34,401.56,172.15,400.85,173.68z"/>
	</g>
	<g>
		<polygon class="st8" points="306.76,106.74 309.66,109.61 313.6,108.57 314.68,112.51 318.61,113.58 317.58,117.53 320.45,120.43 
			317.58,123.33 318.61,127.27 314.68,128.35 313.6,132.29 309.66,131.25 306.76,134.12 303.86,131.25 299.91,132.29 298.84,128.35 
			294.9,127.27 295.94,123.33 293.06,120.43 295.94,117.53 294.9,113.58 298.84,112.51 299.91,108.57 303.86,109.61 		"/>
		<g>
			<g>
				<path class="st12" d="M304.82,117.41c0,0.76-0.62,1.26-1.39,1.26h-1.81v-4.31h1.69c0.75,0,1.36,0.49,1.36,1.23
					c0,0.36-0.14,0.64-0.38,0.84C304.61,116.64,304.82,116.97,304.82,117.41z M302.6,115.29v0.76h0.7c0.22,0,0.38-0.16,0.38-0.38
					c0-0.22-0.15-0.38-0.38-0.38H302.6z M303.83,117.34c0-0.24-0.16-0.41-0.41-0.41h-0.82v0.82h0.82
					C303.67,117.75,303.83,117.58,303.83,117.34z"/>
				<path class="st12" d="M306.63,114.36v4.31h-0.98v-4.31H306.63z"/>
				<path class="st12" d="M311.9,116.64c0,1.32-0.92,2.12-2.12,2.12c-1.35,0-2.33-1-2.33-2.23c0-1.25,0.99-2.25,2.26-2.25
					c0.82,0,1.52,0.41,1.88,0.98l-0.84,0.48c-0.18-0.28-0.57-0.5-1.05-0.5c-0.73,0-1.27,0.54-1.27,1.29c0,0.73,0.52,1.27,1.35,1.27
					c0.57,0,0.95-0.25,1.1-0.66h-1.15v-0.86h2.16V116.64z"/>
			</g>
			<g>
				<path class="st12" d="M303.86,122.67c0,1.22-0.9,2.15-2.09,2.15h-1.72v-4.31h1.72C302.96,120.51,303.86,121.45,303.86,122.67z
					 M302.92,122.67c0-0.74-0.47-1.21-1.14-1.21h-0.74v2.41h0.74C302.45,123.87,302.92,123.41,302.92,122.67z"/>
				<path class="st12" d="M307.4,123.87v0.95h-2.71v-4.31h2.68v0.95h-1.69v0.71h1.54v0.94h-1.54v0.76H307.4z"/>
				<path class="st12" d="M310.8,124.14h-1.6l-0.22,0.68h-1.08l1.46-4.31h1.26l1.46,4.31h-1.08L310.8,124.14z M310.5,123.22
					l-0.5-1.58l-0.5,1.58H310.5z"/>
				<path class="st12" d="M315.22,123.87v0.95h-2.52v-4.31h0.98v3.36H315.22z"/>
			</g>
		</g>
	</g>
	<g>
		<g>
			<path class="st8" d="M371.86,117.04L371.86,117.04c0.72,1.24,2.05,2.01,3.49,2.01l0,0c2.23,0.01,4.03,1.81,4.04,4.04l0,0
				c0.01,1.44,0.77,2.76,2.01,3.49l0,0c1.92,1.12,2.58,3.59,1.48,5.52l0,0c-0.71,1.25-0.71,2.78,0,4.03h0
				c1.1,1.93,0.44,4.4-1.48,5.52l0,0c-1.24,0.72-2.01,2.05-2.01,3.49l0,0c-0.01,2.23-1.81,4.03-4.04,4.04l0,0
				c-1.44,0.01-2.76,0.77-3.49,2.01l0,0c-1.12,1.92-3.59,2.58-5.52,1.48l0,0c-1.25-0.71-2.78-0.71-4.03,0l0,0
				c-1.93,1.1-4.4,0.44-5.52-1.48l0,0c-0.72-1.24-2.05-2.01-3.49-2.01l0,0c-2.23-0.01-4.03-1.81-4.04-4.04l0,0
				c-0.01-1.44-0.77-2.76-2.01-3.49l0,0c-1.92-1.12-2.58-3.59-1.48-5.52l0,0c0.71-1.25,0.71-2.78,0-4.03l0,0
				c-1.1-1.93-0.44-4.4,1.48-5.52l0,0c1.24-0.72,2.01-2.05,2.01-3.49v0c0.01-2.23,1.81-4.03,4.04-4.04l0,0
				c1.44-0.01,2.76-0.77,3.49-2.01l0,0c1.12-1.92,3.59-2.58,5.52-1.48l0,0c1.25,0.71,2.78,0.71,4.03,0l0,0
				C368.27,114.46,370.74,115.12,371.86,117.04z"/>
			<path class="st28" d="M371.86,117.04L371.86,117.04c0.72,1.24,2.05,2.01,3.49,2.01l0,0c2.23,0.01,4.03,1.81,4.04,4.04l0,0
				c0.01,1.44,0.77,2.76,2.01,3.49l0,0c1.92,1.12,2.58,3.59,1.48,5.52l0,0c-0.71,1.25-0.71,2.78,0,4.03h0
				c1.1,1.93,0.44,4.4-1.48,5.52l0,0c-1.24,0.72-2.01,2.05-2.01,3.49l0,0c-0.01,2.23-1.81,4.03-4.04,4.04l0,0
				c-1.44,0.01-2.76,0.77-3.49,2.01l0,0c-1.12,1.92-3.59,2.58-5.52,1.48l0,0c-1.25-0.71-2.78-0.71-4.03,0l0,0
				c-1.93,1.1-4.4,0.44-5.52-1.48l0,0c-0.72-1.24-2.05-2.01-3.49-2.01l0,0c-2.23-0.01-4.03-1.81-4.04-4.04l0,0
				c-0.01-1.44-0.77-2.76-2.01-3.49l0,0c-1.92-1.12-2.58-3.59-1.48-5.52l0,0c0.71-1.25,0.71-2.78,0-4.03l0,0
				c-1.1-1.93-0.44-4.4,1.48-5.52l0,0c1.24-0.72,2.01-2.05,2.01-3.49v0c0.01-2.23,1.81-4.03,4.04-4.04l0,0
				c1.44-0.01,2.76-0.77,3.49-2.01l0,0c1.12-1.92,3.59-2.58,5.52-1.48l0,0c1.25,0.71,2.78,0.71,4.03,0l0,0
				C368.27,114.46,370.74,115.12,371.86,117.04z"/>
		</g>
		<g>
			<path class="st8" d="M353.75,130.7l-0.21,1.31l-3.5-0.55l0.95-5.97l1.36,0.22l-0.74,4.66L353.75,130.7z"/>
			<path class="st8" d="M354.85,126.67c0.07-0.42,0.47-0.71,0.89-0.65c0.42,0.07,0.71,0.47,0.65,0.89
				c-0.07,0.42-0.47,0.71-0.89,0.65C355.08,127.5,354.78,127.09,354.85,126.67z M354.79,127.84l1.28,0.2l-0.68,4.26l-1.28-0.2
				L354.79,127.84z"/>
			<path class="st8" d="M363.22,130.86l-0.41,2.62l-1.28-0.2l0.4-2.51c0.07-0.43-0.09-0.73-0.5-0.8c-0.43-0.07-0.71,0.19-0.79,0.7
				l-0.38,2.41l-1.28-0.2l0.4-2.51c0.07-0.43-0.09-0.73-0.5-0.8c-0.43-0.07-0.71,0.19-0.79,0.7l-0.38,2.41l-1.28-0.2l0.68-4.26
				l1.28,0.2l-0.06,0.39c0.24-0.26,0.65-0.42,1.22-0.33c0.5,0.08,0.85,0.34,1.03,0.74c0.29-0.3,0.72-0.46,1.33-0.37
				C362.86,128.99,363.39,129.79,363.22,130.86z"/>
			<path class="st8" d="M364.51,128.2c0.07-0.42,0.47-0.71,0.89-0.65c0.42,0.07,0.71,0.47,0.65,0.89c-0.07,0.42-0.47,0.71-0.89,0.65
				C364.74,129.03,364.44,128.62,364.51,128.2z M364.46,129.37l1.28,0.2l-0.68,4.26l-1.28-0.2L364.46,129.37z"/>
			<path class="st8" d="M368.13,131.21l-0.24,1.51c-0.06,0.37,0.25,0.45,0.82,0.51l-0.18,1.16c-1.7-0.09-2.11-0.67-1.92-1.87
				l0.24-1.51l-0.68-0.11l0.19-1.23l0.68,0.11l0.13-0.81l1.34-0.18l-0.19,1.19l0.88,0.14l-0.19,1.23L368.13,131.21z"/>
			<path class="st8" d="M371.67,133.83c0.35,0.06,0.67-0.03,0.87-0.19l0.93,0.75c-0.51,0.51-1.19,0.71-2,0.58
				c-1.46-0.23-2.21-1.36-2.01-2.63c0.2-1.27,1.28-2.11,2.63-1.89c1.25,0.2,2.01,1.31,1.81,2.59c-0.03,0.18-0.07,0.35-0.13,0.5
				l-3.03-0.48C370.83,133.54,371.2,133.76,371.67,133.83z M372.7,132.4c-0.06-0.52-0.41-0.76-0.8-0.82
				c-0.49-0.08-0.85,0.11-1.04,0.53L372.7,132.4z"/>
			<path class="st8" d="M379.67,130.03l-0.95,5.97l-1.28-0.2l0.06-0.4c-0.33,0.28-0.78,0.41-1.35,0.32
				c-1.12-0.18-1.88-1.3-1.68-2.57c0.2-1.27,1.28-2.11,2.39-1.93c0.57,0.09,0.96,0.35,1.19,0.72l0.33-2.11L379.67,130.03z
				 M377.79,133.66c0.1-0.64-0.26-1.11-0.85-1.2c-0.59-0.09-1.08,0.24-1.18,0.88c-0.1,0.64,0.26,1.11,0.85,1.2
				C377.19,134.64,377.68,134.3,377.79,133.66z"/>
			<path class="st8" d="M353.55,137.99c0.28-1.76,1.88-2.88,3.6-2.61c1.71,0.27,2.89,1.84,2.61,3.6c-0.28,1.76-1.88,2.88-3.6,2.61
				S353.27,139.75,353.55,137.99z M358.39,138.76c0.17-1.07-0.49-1.9-1.46-2.05c-0.97-0.15-1.85,0.43-2.02,1.5
				c-0.17,1.07,0.49,1.9,1.46,2.05C357.34,140.41,358.22,139.82,358.39,138.76z"/>
			<path class="st8" d="M364.73,138.36l-0.01,0.09l0.79,0.13l-0.19,1.23l-0.79-0.13l-0.48,3.04l-1.28-0.2l0.48-3.04l-1.11-0.18
				l-0.48,3.04l-1.28-0.2l0.48-3.04l-0.57-0.09l0.19-1.23l0.57,0.09c0.19-1.19,0.96-1.81,2.36-1.5l-0.19,1.23
				c-0.47-0.12-0.81-0.02-0.89,0.47l1.11,0.18l0.01-0.09c0.19-1.19,0.96-1.81,2.36-1.5l-0.19,1.23
				C365.14,137.77,364.8,137.87,364.73,138.36z"/>
			<path class="st8" d="M367.74,142.25c0.35,0.06,0.67-0.03,0.87-0.19l0.93,0.75c-0.51,0.51-1.19,0.71-2,0.58
				c-1.46-0.23-2.21-1.36-2.01-2.63c0.2-1.27,1.28-2.11,2.63-1.89c1.25,0.2,2.01,1.31,1.81,2.59c-0.03,0.18-0.07,0.35-0.13,0.5
				l-3.03-0.48C366.91,141.96,367.28,142.17,367.74,142.25z M368.78,140.82c-0.06-0.52-0.41-0.76-0.8-0.82
				c-0.49-0.08-0.85,0.11-1.04,0.53L368.78,140.82z"/>
			<path class="st8" d="M373.69,139.78l-0.23,1.45c-0.52-0.17-1.3-0.07-1.43,0.77l-0.31,1.93l-1.28-0.2l0.68-4.26l1.28,0.2
				l-0.12,0.76C372.53,139.88,373.15,139.7,373.69,139.78z"/>
		</g>
		<g class="st23">
			<path d="M353.75,130.7l-0.21,1.31l-3.5-0.55l0.95-5.97l1.36,0.22l-0.74,4.66L353.75,130.7z"/>
			<path d="M354.85,126.67c0.07-0.42,0.47-0.71,0.89-0.65c0.42,0.07,0.71,0.47,0.65,0.89c-0.07,0.42-0.47,0.71-0.89,0.65
				C355.08,127.5,354.78,127.09,354.85,126.67z M354.79,127.84l1.28,0.2l-0.68,4.26l-1.28-0.2L354.79,127.84z"/>
			<path d="M363.22,130.86l-0.41,2.62l-1.28-0.2l0.4-2.51c0.07-0.43-0.09-0.73-0.5-0.8c-0.43-0.07-0.71,0.19-0.79,0.7l-0.38,2.41
				l-1.28-0.2l0.4-2.51c0.07-0.43-0.09-0.73-0.5-0.8c-0.43-0.07-0.71,0.19-0.79,0.7l-0.38,2.41l-1.28-0.2l0.68-4.26l1.28,0.2
				l-0.06,0.39c0.24-0.26,0.65-0.42,1.22-0.33c0.5,0.08,0.85,0.34,1.03,0.74c0.29-0.3,0.72-0.46,1.33-0.37
				C362.86,128.99,363.39,129.79,363.22,130.86z"/>
			<path d="M364.51,128.2c0.07-0.42,0.47-0.71,0.89-0.65c0.42,0.07,0.71,0.47,0.65,0.89c-0.07,0.42-0.47,0.71-0.89,0.65
				C364.74,129.03,364.44,128.62,364.51,128.2z M364.46,129.37l1.28,0.2l-0.68,4.26l-1.28-0.2L364.46,129.37z"/>
			<path d="M368.13,131.21l-0.24,1.51c-0.06,0.37,0.25,0.45,0.82,0.51l-0.18,1.16c-1.7-0.09-2.11-0.67-1.92-1.87l0.24-1.51
				l-0.68-0.11l0.19-1.23l0.68,0.11l0.13-0.81l1.34-0.18l-0.19,1.19l0.88,0.14l-0.19,1.23L368.13,131.21z"/>
			<path d="M371.67,133.83c0.35,0.06,0.67-0.03,0.87-0.19l0.93,0.75c-0.51,0.51-1.19,0.71-2,0.58c-1.46-0.23-2.21-1.36-2.01-2.63
				c0.2-1.27,1.28-2.11,2.63-1.89c1.25,0.2,2.01,1.31,1.81,2.59c-0.03,0.18-0.07,0.35-0.13,0.5l-3.03-0.48
				C370.83,133.54,371.2,133.76,371.67,133.83z M372.7,132.4c-0.06-0.52-0.41-0.76-0.8-0.82c-0.49-0.08-0.85,0.11-1.04,0.53
				L372.7,132.4z"/>
			<path d="M379.67,130.03l-0.95,5.97l-1.28-0.2l0.06-0.4c-0.33,0.28-0.78,0.41-1.35,0.32c-1.12-0.18-1.88-1.3-1.68-2.57
				c0.2-1.27,1.28-2.11,2.39-1.93c0.57,0.09,0.96,0.35,1.19,0.72l0.33-2.11L379.67,130.03z M377.79,133.66
				c0.1-0.64-0.26-1.11-0.85-1.2c-0.59-0.09-1.08,0.24-1.18,0.88c-0.1,0.64,0.26,1.11,0.85,1.2
				C377.19,134.64,377.68,134.3,377.79,133.66z"/>
			<path d="M353.55,137.99c0.28-1.76,1.88-2.88,3.6-2.61c1.71,0.27,2.89,1.84,2.61,3.6c-0.28,1.76-1.88,2.88-3.6,2.61
				S353.27,139.75,353.55,137.99z M358.39,138.76c0.17-1.07-0.49-1.9-1.46-2.05c-0.97-0.15-1.85,0.43-2.02,1.5
				c-0.17,1.07,0.49,1.9,1.46,2.05C357.34,140.41,358.22,139.82,358.39,138.76z"/>
			<path d="M364.73,138.36l-0.01,0.09l0.79,0.13l-0.19,1.23l-0.79-0.13l-0.48,3.04l-1.28-0.2l0.48-3.04l-1.11-0.18l-0.48,3.04
				l-1.28-0.2l0.48-3.04l-0.57-0.09l0.19-1.23l0.57,0.09c0.19-1.19,0.96-1.81,2.36-1.5l-0.19,1.23c-0.47-0.12-0.81-0.02-0.89,0.47
				l1.11,0.18l0.01-0.09c0.19-1.19,0.96-1.81,2.36-1.5l-0.19,1.23C365.14,137.77,364.8,137.87,364.73,138.36z"/>
			<path d="M367.74,142.25c0.35,0.06,0.67-0.03,0.87-0.19l0.93,0.75c-0.51,0.51-1.19,0.71-2,0.58c-1.46-0.23-2.21-1.36-2.01-2.63
				c0.2-1.27,1.28-2.11,2.63-1.89c1.25,0.2,2.01,1.31,1.81,2.59c-0.03,0.18-0.07,0.35-0.13,0.5l-3.03-0.48
				C366.91,141.96,367.28,142.17,367.74,142.25z M368.78,140.82c-0.06-0.52-0.41-0.76-0.8-0.82c-0.49-0.08-0.85,0.11-1.04,0.53
				L368.78,140.82z"/>
			<path d="M373.69,139.78l-0.23,1.45c-0.52-0.17-1.3-0.07-1.43,0.77l-0.31,1.93l-1.28-0.2l0.68-4.26l1.28,0.2l-0.12,0.76
				C372.53,139.88,373.15,139.7,373.69,139.78z"/>
		</g>
	</g>
</g>
<g id="Desk">
	<g>
		<g>
			<rect x="276.48" y="273.18" class="st8" width="66.3" height="10"/>
			<rect x="276.48" y="273.18" class="st29" width="66.3" height="10"/>
		</g>
		<g>
			<g>
				<path class="st8" d="M159.85,409.68h-5.28c-0.65,0-1.19-0.53-1.19-1.19V283.18h7.65V408.5
					C161.03,409.15,160.5,409.68,159.85,409.68z"/>
			</g>
			<g class="st24">
				<path class="st12" d="M159.85,409.68h-5.28c-0.65,0-1.19-0.53-1.19-1.19V283.18h7.65V408.5
					C161.03,409.15,160.5,409.68,159.85,409.68z"/>
			</g>
		</g>
		<g>
			<path class="st8" d="M337.18,409.68h-5.28c-0.65,0-1.19-0.53-1.19-1.19V283.18h7.65V408.5
				C338.36,409.15,337.83,409.68,337.18,409.68z"/>
			<path class="st30" d="M337.18,409.68h-5.28c-0.65,0-1.19-0.53-1.19-1.19V283.18h7.65V408.5
				C338.36,409.15,337.83,409.68,337.18,409.68z"/>
		</g>
		<g>
			<rect x="101.57" y="273.18" class="st8" width="193.82" height="10"/>
			<rect x="101.57" y="273.18" class="st19" width="193.82" height="10"/>
		</g>
		<g>
			<g>
				<path class="st8" d="M112.46,409.68h-5.28c-0.65,0-1.19-0.53-1.19-1.19V283.18h7.65V408.5
					C113.64,409.15,113.11,409.68,112.46,409.68z"/>
			</g>
			<g class="st14">
				<path class="st12" d="M112.46,409.68h-5.28c-0.65,0-1.19-0.53-1.19-1.19V283.18h7.65V408.5
					C113.64,409.15,113.11,409.68,112.46,409.68z"/>
			</g>
		</g>
		<g>
			<path class="st8" d="M289.79,409.68h-5.28c-0.65,0-1.19-0.53-1.19-1.19V283.18h7.65V408.5
				C290.97,409.15,290.44,409.68,289.79,409.68z"/>
			<path class="st29" d="M289.79,409.68h-5.28c-0.65,0-1.19-0.53-1.19-1.19V283.18h7.65V408.5
				C290.97,409.15,290.44,409.68,289.79,409.68z"/>
		</g>
		<g>
			<g>
				<g>
					<path class="st8" d="M178.62,270.84h-2.47c-0.26,0-0.47-0.21-0.47-0.47v-2.62c0-0.26,0.21-0.47,0.47-0.47h1.78
						c0.21,0,0.4,0.14,0.46,0.35l0.7,2.62C179.15,270.54,178.93,270.84,178.62,270.84z"/>
					<path class="st8" d="M182.04,270.84h-2.47c-0.26,0-0.47-0.21-0.47-0.47v-2.62c0-0.26,0.21-0.47,0.47-0.47h1.78
						c0.21,0,0.4,0.14,0.46,0.35l0.7,2.62C182.57,270.54,182.35,270.84,182.04,270.84z"/>
					<path class="st8" d="M185.46,270.84h-2.47c-0.26,0-0.47-0.21-0.47-0.47v-2.62c0-0.26,0.21-0.47,0.47-0.47h1.78
						c0.21,0,0.4,0.14,0.46,0.35l0.7,2.62C185.99,270.54,185.77,270.84,185.46,270.84z"/>
					<path class="st8" d="M188.88,270.84h-2.47c-0.26,0-0.47-0.21-0.47-0.47v-2.62c0-0.26,0.21-0.47,0.47-0.47h1.78
						c0.21,0,0.4,0.14,0.46,0.35l0.7,2.62C189.41,270.54,189.19,270.84,188.88,270.84z"/>
					<path class="st8" d="M192.3,270.84h-2.47c-0.26,0-0.47-0.21-0.47-0.47v-2.62c0-0.26,0.21-0.47,0.47-0.47h1.78
						c0.21,0,0.4,0.14,0.46,0.35l0.7,2.62C192.83,270.54,192.61,270.84,192.3,270.84z"/>
					<path class="st8" d="M195.72,270.84h-2.47c-0.26,0-0.47-0.21-0.47-0.47v-2.62c0-0.26,0.21-0.47,0.47-0.47h1.78
						c0.21,0,0.4,0.14,0.46,0.35l0.7,2.62C196.25,270.54,196.03,270.84,195.72,270.84z"/>
					<path class="st8" d="M199.14,270.84h-2.47c-0.26,0-0.47-0.21-0.47-0.47v-2.62c0-0.26,0.21-0.47,0.47-0.47h1.78
						c0.21,0,0.4,0.14,0.46,0.35l0.7,2.62C199.67,270.54,199.45,270.84,199.14,270.84z"/>
					<path class="st8" d="M202.56,270.84h-2.47c-0.26,0-0.47-0.21-0.47-0.47v-2.62c0-0.26,0.21-0.47,0.47-0.47h1.78
						c0.21,0,0.4,0.14,0.46,0.35l0.7,2.62C203.09,270.54,202.87,270.84,202.56,270.84z"/>
					<path class="st8" d="M205.98,270.84h-2.47c-0.26,0-0.47-0.21-0.47-0.47v-2.62c0-0.26,0.21-0.47,0.47-0.47h1.78
						c0.21,0,0.4,0.14,0.46,0.35l0.7,2.62C206.51,270.54,206.29,270.84,205.98,270.84z"/>
					<path class="st8" d="M209.4,270.84h-2.47c-0.26,0-0.47-0.21-0.47-0.47v-2.62c0-0.26,0.21-0.47,0.47-0.47h1.78
						c0.21,0,0.4,0.14,0.46,0.35l0.7,2.62C209.93,270.54,209.71,270.84,209.4,270.84z"/>
					<path class="st8" d="M212.82,270.84h-2.47c-0.26,0-0.47-0.21-0.47-0.47v-2.62c0-0.26,0.21-0.47,0.47-0.47h1.78
						c0.21,0,0.4,0.14,0.46,0.35l0.7,2.62C213.35,270.54,213.13,270.84,212.82,270.84z"/>
					<path class="st8" d="M216.24,270.84h-2.48c-0.26,0-0.47-0.21-0.47-0.47v-2.62c0-0.26,0.21-0.47,0.47-0.47h1.78
						c0.21,0,0.4,0.14,0.46,0.35l0.7,2.62C216.77,270.54,216.55,270.84,216.24,270.84z"/>
					<path class="st8" d="M219.66,270.84h-2.47c-0.26,0-0.47-0.21-0.47-0.47v-2.62c0-0.26,0.21-0.47,0.47-0.47h1.78
						c0.21,0,0.4,0.14,0.46,0.35l0.7,2.62C220.2,270.54,219.97,270.84,219.66,270.84z"/>
					<path class="st8" d="M223.08,270.84h-2.47c-0.26,0-0.47-0.21-0.47-0.47v-2.62c0-0.26,0.21-0.47,0.47-0.47h1.78
						c0.21,0,0.4,0.14,0.46,0.35l0.7,2.62C223.62,270.54,223.39,270.84,223.08,270.84z"/>
					<path class="st8" d="M226.5,270.84h-2.47c-0.26,0-0.47-0.21-0.47-0.47v-2.62c0-0.26,0.21-0.47,0.47-0.47h1.78
						c0.21,0,0.4,0.14,0.46,0.35l0.7,2.62C227.04,270.54,226.81,270.84,226.5,270.84z"/>
				</g>
				<g class="st14">
					<path class="st12" d="M178.62,270.84h-2.47c-0.26,0-0.47-0.21-0.47-0.47v-2.62c0-0.26,0.21-0.47,0.47-0.47h1.78
						c0.21,0,0.4,0.14,0.46,0.35l0.7,2.62C179.15,270.54,178.93,270.84,178.62,270.84z"/>
					<path class="st12" d="M182.04,270.84h-2.47c-0.26,0-0.47-0.21-0.47-0.47v-2.62c0-0.26,0.21-0.47,0.47-0.47h1.78
						c0.21,0,0.4,0.14,0.46,0.35l0.7,2.62C182.57,270.54,182.35,270.84,182.04,270.84z"/>
					<path class="st12" d="M185.46,270.84h-2.47c-0.26,0-0.47-0.21-0.47-0.47v-2.62c0-0.26,0.21-0.47,0.47-0.47h1.78
						c0.21,0,0.4,0.14,0.46,0.35l0.7,2.62C185.99,270.54,185.77,270.84,185.46,270.84z"/>
					<path class="st12" d="M188.88,270.84h-2.47c-0.26,0-0.47-0.21-0.47-0.47v-2.62c0-0.26,0.21-0.47,0.47-0.47h1.78
						c0.21,0,0.4,0.14,0.46,0.35l0.7,2.62C189.41,270.54,189.19,270.84,188.88,270.84z"/>
					<path class="st12" d="M192.3,270.84h-2.47c-0.26,0-0.47-0.21-0.47-0.47v-2.62c0-0.26,0.21-0.47,0.47-0.47h1.78
						c0.21,0,0.4,0.14,0.46,0.35l0.7,2.62C192.83,270.54,192.61,270.84,192.3,270.84z"/>
					<path class="st12" d="M195.72,270.84h-2.47c-0.26,0-0.47-0.21-0.47-0.47v-2.62c0-0.26,0.21-0.47,0.47-0.47h1.78
						c0.21,0,0.4,0.14,0.46,0.35l0.7,2.62C196.25,270.54,196.03,270.84,195.72,270.84z"/>
					<path class="st12" d="M199.14,270.84h-2.47c-0.26,0-0.47-0.21-0.47-0.47v-2.62c0-0.26,0.21-0.47,0.47-0.47h1.78
						c0.21,0,0.4,0.14,0.46,0.35l0.7,2.62C199.67,270.54,199.45,270.84,199.14,270.84z"/>
					<path class="st12" d="M202.56,270.84h-2.47c-0.26,0-0.47-0.21-0.47-0.47v-2.62c0-0.26,0.21-0.47,0.47-0.47h1.78
						c0.21,0,0.4,0.14,0.46,0.35l0.7,2.62C203.09,270.54,202.87,270.84,202.56,270.84z"/>
					<path class="st12" d="M205.98,270.84h-2.47c-0.26,0-0.47-0.21-0.47-0.47v-2.62c0-0.26,0.21-0.47,0.47-0.47h1.78
						c0.21,0,0.4,0.14,0.46,0.35l0.7,2.62C206.51,270.54,206.29,270.84,205.98,270.84z"/>
					<path class="st12" d="M209.4,270.84h-2.47c-0.26,0-0.47-0.21-0.47-0.47v-2.62c0-0.26,0.21-0.47,0.47-0.47h1.78
						c0.21,0,0.4,0.14,0.46,0.35l0.7,2.62C209.93,270.54,209.71,270.84,209.4,270.84z"/>
					<path class="st12" d="M212.82,270.84h-2.47c-0.26,0-0.47-0.21-0.47-0.47v-2.62c0-0.26,0.21-0.47,0.47-0.47h1.78
						c0.21,0,0.4,0.14,0.46,0.35l0.7,2.62C213.35,270.54,213.13,270.84,212.82,270.84z"/>
					<path class="st12" d="M216.24,270.84h-2.48c-0.26,0-0.47-0.21-0.47-0.47v-2.62c0-0.26,0.21-0.47,0.47-0.47h1.78
						c0.21,0,0.4,0.14,0.46,0.35l0.7,2.62C216.77,270.54,216.55,270.84,216.24,270.84z"/>
					<path class="st12" d="M219.66,270.84h-2.47c-0.26,0-0.47-0.21-0.47-0.47v-2.62c0-0.26,0.21-0.47,0.47-0.47h1.78
						c0.21,0,0.4,0.14,0.46,0.35l0.7,2.62C220.2,270.54,219.97,270.84,219.66,270.84z"/>
					<path class="st12" d="M223.08,270.84h-2.47c-0.26,0-0.47-0.21-0.47-0.47v-2.62c0-0.26,0.21-0.47,0.47-0.47h1.78
						c0.21,0,0.4,0.14,0.46,0.35l0.7,2.62C223.62,270.54,223.39,270.84,223.08,270.84z"/>
					<path class="st12" d="M226.5,270.84h-2.47c-0.26,0-0.47-0.21-0.47-0.47v-2.62c0-0.26,0.21-0.47,0.47-0.47h1.78
						c0.21,0,0.4,0.14,0.46,0.35l0.7,2.62C227.04,270.54,226.81,270.84,226.5,270.84z"/>
				</g>
			</g>
			<rect x="173.65" y="269.06" class="st8" width="55.34" height="4.12"/>
			<rect x="173.65" y="269.06" class="st30" width="55.34" height="4.12"/>
		</g>
		<g>
			<g>
				<g>
					<path class="st8" d="M216.23,179.2h-6.62l4.89,69.95h6.62c1.1,0,1.92-0.89,1.85-1.99l-4.61-65.97
						C218.28,180.09,217.32,179.2,216.23,179.2z"/>
					<path class="st19" d="M216.23,179.2h-6.62l4.89,69.95h6.62c1.1,0,1.92-0.89,1.85-1.99l-4.61-65.97
						C218.28,180.09,217.32,179.2,216.23,179.2z"/>
				</g>
				<g>
					<g>
						<path class="st8" d="M217.32,249.15h-99.24c-1.1,0-2.05-0.89-2.13-1.99l-4.61-65.97c-0.08-1.1,0.75-1.99,1.85-1.99h99.24
							c1.1,0,2.05,0.89,2.13,1.99l4.61,65.97C219.24,248.26,218.41,249.15,217.32,249.15z"/>
						<path class="st30" d="M217.32,249.15h-99.24c-1.1,0-2.05-0.89-2.13-1.99l-4.61-65.97c-0.08-1.1,0.75-1.99,1.85-1.99h99.24
							c1.1,0,2.05,0.89,2.13,1.99l4.61,65.97C219.24,248.26,218.41,249.15,217.32,249.15z"/>
					</g>
					<g>
						<path class="st8" d="M133.06,246.18L133.06,246.18c-0.35,0-0.65-0.29-0.68-0.63l-0.17-2.38c-0.02-0.35,0.24-0.63,0.59-0.63
							l0,0c0.35,0,0.65,0.29,0.68,0.63l0.17,2.38C133.68,245.89,133.41,246.18,133.06,246.18z"/>
						<path class="st8" d="M135.99,246.18L135.99,246.18c-0.35,0-0.65-0.29-0.68-0.63l-0.17-2.38c-0.02-0.35,0.24-0.63,0.59-0.63
							l0,0c0.35,0,0.65,0.29,0.68,0.63l0.17,2.38C136.61,245.89,136.34,246.18,135.99,246.18z"/>
						<path class="st8" d="M138.92,246.18L138.92,246.18c-0.35,0-0.65-0.29-0.68-0.63l-0.17-2.38c-0.02-0.35,0.24-0.63,0.59-0.63
							l0,0c0.35,0,0.65,0.29,0.68,0.63l0.17,2.38C139.53,245.89,139.27,246.18,138.92,246.18z"/>
						<path class="st12" d="M129.33,244.36c0.07,1.01-0.69,1.82-1.69,1.82c-1.01,0-1.88-0.82-1.95-1.82
							c-0.07-1.01,0.69-1.82,1.69-1.82C128.39,242.54,129.26,243.35,129.33,244.36z"/>
						<path class="st8" d="M128.8,244.36c0.05,0.71-0.49,1.29-1.2,1.29c-0.71,0-1.33-0.58-1.38-1.29c-0.05-0.71,0.49-1.29,1.2-1.29
							C128.13,243.07,128.75,243.65,128.8,244.36z"/>
					</g>
					<path class="st16" d="M161.02,233.67c-1.39,0-2.45,1.09-2.42,2.47l0.28,13.01h24.21l-1.54-13.01
						c-0.16-1.39-1.38-2.47-2.77-2.47H161.02z M170.92,248.06c-2.75,0-5.14-2.23-5.34-4.99c-0.19-2.75,1.88-4.99,4.64-4.99
						c2.75,0,5.14,2.23,5.34,4.99S173.67,248.06,170.92,248.06z"/>
				</g>
			</g>
			<g>
				<path class="st8" d="M178.13,236.14c-0.07-1.39-1.21-2.47-2.6-2.47h-17.77c-1.39,0-2.53,1.09-2.6,2.47l-1.78,37.03h26.53
					L178.13,236.14z M166.65,248.06c-2.75,0-4.99-2.23-4.99-4.99s2.23-4.99,4.99-4.99c2.75,0,4.99,2.23,4.99,4.99
					S169.4,248.06,166.65,248.06z"/>
				<path class="st10" d="M178.13,236.14c-0.07-1.39-1.21-2.47-2.6-2.47h-17.77c-1.39,0-2.53,1.09-2.6,2.47l-1.78,37.03h26.53
					L178.13,236.14z M166.65,248.06c-2.75,0-4.99-2.23-4.99-4.99s2.23-4.99,4.99-4.99c2.75,0,4.99,2.23,4.99,4.99
					S169.4,248.06,166.65,248.06z"/>
			</g>
		</g>
		<g>
			<path class="st8" d="M143.81,273.18h-17.59v-1.56c0-3.07,2.57-5.51,5.64-5.34l6.89,0.37c2.84,0.15,5.06,2.5,5.06,5.34V273.18z"/>
			<path class="st28" d="M143.81,273.18h-17.59v-1.56c0-3.07,2.57-5.51,5.64-5.34l6.89,0.37c2.84,0.15,5.06,2.5,5.06,5.34V273.18z"
				/>
		</g>
	</g>
</g>
</svg>
